<?xml version="1.0" encoding="UTF-8" standalone="no"?>
<svg
   xmlns:dc="http://purl.org/dc/elements/1.1/"
   xmlns:cc="http://creativecommons.org/ns#"
   xmlns:rdf="http://www.w3.org/1999/02/22-rdf-syntax-ns#"
   xmlns:svg="http://www.w3.org/2000/svg"
   xmlns="http://www.w3.org/2000/svg"
   xmlns:sodipodi="http://sodipodi.sourceforge.net/DTD/sodipodi-0.dtd"
   xmlns:inkscape="http://www.inkscape.org/namespaces/inkscape"
   version="1.1"
   viewBox="0 0 1047.4527 323.17039"
   id="svg84"
   sodipodi:docname="main-stable.svg"
   inkscape:version="1.0.2-2 (e86c870879, 2021-01-15)"
   width="1047.4528"
   height="323.17038">
  <metadata
     id="metadata90">
    <rdf:RDF>
      <cc:Work
         rdf:about="">
        <dc:format>image/svg+xml</dc:format>
        <dc:type
           rdf:resource="http://purl.org/dc/dcmitype/StillImage" />
        <dc:title></dc:title>
      </cc:Work>
    </rdf:RDF>
  </metadata>
  <defs
     id="defs88" />
  <sodipodi:namedview
     pagecolor="#ffffff"
     bordercolor="#666666"
     borderopacity="1"
     objecttolerance="10"
     gridtolerance="10"
     guidetolerance="10"
     inkscape:pageopacity="0"
     inkscape:pageshadow="2"
     inkscape:window-width="2560"
     inkscape:window-height="2126"
     id="namedview86"
     showgrid="false"
     inkscape:zoom="2.0187429"
     inkscape:cx="49.261827"
     inkscape:cy="59.440763"
     inkscape:window-x="-11"
     inkscape:window-y="-11"
     inkscape:window-maximized="1"
     inkscape:current-layer="svg84"
     inkscape:document-rotation="0"
     fit-margin-top="0"
     fit-margin-left="0"
     fit-margin-right="0"
     fit-margin-bottom="0" />
  <path
     style="fill:none;stroke:#000000;stroke-width:5.5641"
     inkscape:connector-curvature="0"
     id="path4"
     d="M 0.01381581,164.10831 665.7092,167.41423" />
  <rect
     style="fill:#73d216;stroke:#4e9a06;stroke-width:6;stroke-linecap:square"
     id="rect26"
     ry="0.5"
     height="103.57"
     width="31.429001"
     y="3"
     x="292.15918" />
  <g
     transform="rotate(-90,-346.45039,-172.89959)"
     aria-label="TAG A"
     id="g38"
     style="fill:#ffffff;stroke-width:2.9698">
    <path
       d="m -598.9,475.86 h -5.3944 v 13.933 h -4.4548 V 475.86 h -5.3944 v -3.3411 h 15.244 z"
       id="path30"
       inkscape:connector-curvature="0" />
    <path
       d="m -580.26,489.79 h -4.6056 l -1.1949,-3.4919 h -6.4037 l -1.1949,3.4919 h -4.4896 l 6.3805,-17.274 h 5.1276 z m -6.8794,-6.659 -2.123,-6.1949 -2.123,6.1949 z"
       id="path32"
       inkscape:connector-curvature="0" />
    <path
       d="m -562.47,488.81 q -1.1601,0.45244 -3.0743,0.90488 -1.9142,0.44084 -3.8167,0.44084 -4.4084,0 -6.9026,-2.3898 -2.4942,-2.4014 -2.4942,-6.6242 0,-4.0255 2.5174,-6.4849 2.5174,-2.471 7.0186,-2.471 1.7053,0 3.2483,0.31323 1.5429,0.30162 3.4339,1.2181 v 4.0487 h -0.49884 q -0.32483,-0.24362 -0.95128,-0.68446 -0.62645,-0.45244 -1.2065,-0.76567 -0.67286,-0.37123 -1.5777,-0.63805 -0.89327,-0.26682 -1.9026,-0.26682 -1.1833,0 -2.1462,0.34803 -0.9629,0.34803 -1.7285,1.0673 -0.73086,0.69606 -1.1601,1.7749 -0.41763,1.0673 -0.41763,2.471 0,2.8654 1.5197,4.3852 1.5197,1.5197 4.4896,1.5197 0.25522,0 0.55684,-0.0116 0.31323,-0.0116 0.56845,-0.0348 v -3.3875 h -3.4455 v -3.2599 h 7.9699 z"
       id="path34"
       inkscape:connector-curvature="0" />
    <path
       d="m -534.41,489.79 h -4.6056 l -1.1949,-3.4919 h -6.4037 l -1.1949,3.4919 h -4.4896 l 6.3805,-17.274 h 5.1276 z m -6.8794,-6.659 -2.123,-6.1949 -2.123,6.1949 z"
       id="path36"
       inkscape:connector-curvature="0" />
  </g>
  <rect
     x="630.21924"
     y="3"
     width="31.429001"
     height="103.57"
     ry="0.5"
     id="rect40"
     style="fill:#73d216;stroke:#4e9a06;stroke-width:6;stroke-linecap:square" />
  <g
     transform="rotate(-90,-346.45039,-172.89959)"
     aria-label="TAG B"
     id="g50"
     style="fill:#ffffff;stroke-width:2.9698">
    <path
       d="m -598.9,813.91 h -5.3944 v 13.933 h -4.4548 V 813.91 h -5.3944 v -3.3411 h 15.244 z"
       id="path42"
       inkscape:connector-curvature="0" />
    <path
       d="m -580.26,827.85 h -4.6056 l -1.1949,-3.4919 h -6.4037 l -1.1949,3.4919 h -4.4896 l 6.3805,-17.274 h 5.1276 z m -6.8794,-6.659 -2.123,-6.1949 -2.123,6.1949 z"
       id="path44"
       inkscape:connector-curvature="0" />
    <path
       d="m -562.47,826.86 q -1.1601,0.45244 -3.0743,0.90488 -1.9142,0.44083 -3.8167,0.44083 -4.4084,0 -6.9026,-2.3898 -2.4942,-2.4014 -2.4942,-6.6242 0,-4.0255 2.5174,-6.4849 2.5174,-2.471 7.0186,-2.471 1.7053,0 3.2483,0.31322 1.5429,0.30163 3.4339,1.2181 v 4.0487 h -0.49884 q -0.32483,-0.24362 -0.95128,-0.68446 -0.62645,-0.45243 -1.2065,-0.76566 -0.67286,-0.37123 -1.5777,-0.63805 -0.89327,-0.26682 -1.9026,-0.26682 -1.1833,0 -2.1462,0.34802 -0.96288,0.34803 -1.7285,1.0673 -0.73086,0.69606 -1.1601,1.775 -0.41763,1.0673 -0.41763,2.471 0,2.8654 1.5197,4.3852 1.5197,1.5197 4.4896,1.5197 0.25522,0 0.55684,-0.0116 0.31323,-0.0116 0.56845,-0.0348 v -3.3875 h -3.4455 v -3.2599 h 7.9699 z"
       id="path46"
       inkscape:connector-curvature="0" />
    <path
       d="m -535.59,822.56 q 0,1.2529 -0.51044,2.239 -0.49884,0.98608 -1.3805,1.6357 -1.0209,0.76567 -2.2506,1.0905 -1.2181,0.32482 -3.0975,0.32482 h -7.5406 v -17.274 h 6.7054 q 2.0882,0 3.051,0.13921 0.97449,0.13921 1.9258,0.61485 0.98608,0.49884 1.4617,1.3457 0.48724,0.83527 0.48724,1.9142 0,1.2529 -0.66126,2.2158 -0.66125,0.95128 -1.8678,1.4849 v 0.0928 q 1.6937,0.33643 2.6798,1.3921 0.99768,1.0557 0.99768,2.7842 z m -5.7077,-7.0998 q 0,-0.42923 -0.22042,-0.85847 -0.20882,-0.42924 -0.75406,-0.63805 -0.48724,-0.18562 -1.2181,-0.19722 -0.71926,-0.0232 -2.0302,-0.0232 h -0.41764 v 3.6543 h 0.69606 q 1.0557,0 1.7982,-0.0348 0.7425,-0.0348 1.1717,-0.23202 0.60325,-0.26682 0.78886,-0.68446 0.18562,-0.42923 0.18562,-0.98608 z m 1.0905,7.0302 q 0,-0.82367 -0.32483,-1.2645 -0.31322,-0.45244 -1.0789,-0.67285 -0.52204,-0.15082 -1.4385,-0.16242 -0.91647,-0.0116 -1.9142,-0.0116 h -0.97448 v 4.304 h 0.32483 q 1.8794,0 2.6914,-0.0116 0.81207,-0.0116 1.4965,-0.30163 0.69606,-0.29002 0.95128,-0.76566 0.26682,-0.48724 0.26682,-1.1137 z"
       id="path48"
       inkscape:connector-curvature="0" />
  </g>
  <g
     id="g959"
     transform="rotate(90,911.4015,309.86568)">
    <rect
       x="864.60999"
       y="176.46002"
       width="31.429001"
       height="80.546997"
       ry="0.38885"
       id="rect68"
       style="fill:#cc0000;stroke:#a40000;stroke-width:5.2912;stroke-linecap:square" />
    <g
       transform="rotate(-90,-285.625,-205.625)"
       aria-label="DEV"
       id="g76"
       style="fill:#ffffff;stroke-width:2.9698">
      <path
         d="m -718.43,960.07 q 0,2.413 -1.1021,4.3272 -1.1021,1.9026 -2.7842,2.9234 -1.2645,0.76567 -2.7726,1.0673 -1.5081,0.30163 -3.5731,0.30163 h -6.0905 v -17.274 h 6.2645 q 2.1114,0 3.6427,0.35963 1.5313,0.34803 2.5754,0.99768 1.7866,1.0905 2.8074,2.9466 1.0325,1.8446 1.0325,4.3504 z m -4.6056,-0.0348 q 0,-1.7054 -0.62645,-2.9118 -0.61486,-1.2181 -1.9606,-1.9026 -0.68445,-0.33643 -1.4037,-0.45244 -0.70766,-0.12761 -2.1462,-0.12761 h -1.1253 v 10.812 h 1.1253 q 1.5893,0 2.3318,-0.13921 0.74246,-0.15082 1.4501,-0.53365 1.2181,-0.69606 1.7866,-1.8562 0.56845,-1.1717 0.56845,-2.8886 z"
         id="path70"
         inkscape:connector-curvature="0" />
      <path
         d="m -702.53,968.69 h -12.494 v -17.274 h 12.494 v 3.3411 h -8.0627 v 2.9814 h 7.4826 v 3.3411 h -7.4826 v 4.2692 h 8.0627 z"
         id="path72"
         inkscape:connector-curvature="0" />
      <path
         d="m -683.13,951.42 -6.2993,17.274 h -4.9884 l -6.2993,-17.274 h 4.6752 l 4.1764,12.135 4.1764,-12.135 z"
         id="path74"
         inkscape:connector-curvature="0" />
    </g>
  </g>
  <path
     d="m 665.7092,167.41423 49.66408,117.95552 193.15232,0.86156"
     id="path944"
     inkscape:connector-curvature="0"
     style="fill:none;stroke:#000000;stroke-width:5.5641"
     sodipodi:nodetypes="ccc" />
  <circle
     cx="426.44919"
     cy="162.67056"
     r="38.355999"
     id="circle22-7"
     style="fill:#888a85;stroke:#000000;stroke-width:3.2887;stroke-linecap:square" />
  <circle
     cx="66.449181"
     cy="162.67056"
     r="38.355999"
     id="circle22-7-5"
     style="fill:#888a85;stroke:#000000;stroke-width:3.2887;stroke-linecap:square" />
  <circle
     cx="186.44916"
     cy="162.67056"
     r="38.355999"
     id="circle22-7-4"
     style="fill:#888a85;stroke:#000000;stroke-width:3.2887;stroke-linecap:square" />
  <circle
     cx="306.44919"
     cy="162.67056"
     r="38.355999"
     id="circle22-7-8"
     style="fill:#73d216;stroke:#4e9a06;stroke-width:3.2887;stroke-linecap:square" />
  <circle
     cx="546.44922"
     cy="162.67056"
     r="38.355999"
     id="circle22-7-9"
     style="fill:#888a85;stroke:#000000;stroke-width:3.2887;stroke-linecap:square" />
  <circle
     cx="907.44354"
     cy="281.49863"
     r="38.355999"
     id="circle22-0"
     style="fill:#888a85;stroke:#000000;stroke-width:3.2887;stroke-linecap:square" />
  <circle
     cx="786.44922"
     cy="283.17004"
     r="38.355999"
     id="circle22"
     style="fill:#888a85;stroke:#000000;stroke-width:3.2887;stroke-linecap:square" />
  <g
     id="g1019"
     transform="translate(-93.550804,-28.099981)">
    <rect
       x="175.05605"
       y="-918.34174"
       width="31.429001"
       height="81.258858"
       ry="0.3922942"
       id="rect52"
       style="fill:#3465a4;stroke:#204a87;stroke-width:6.7554;stroke-linecap:square"
       transform="rotate(90)" />
    <g
       transform="translate(1451.1042,-660.96201)"
       aria-label="MASTER"
       id="g66"
       style="fill:#ffffff;stroke-width:2.9698">
      <g
         aria-label="MAIN"
         id="text981"
         style="font-style:normal;font-weight:normal;font-size:26.6667px;line-height:1.25;font-family:sans-serif;fill:#ffffff;fill-opacity:1;stroke:none;stroke-width:2.96981">
        <path
           d="m -583.3637,859.68829 q 0,0.13021 -0.0781,0.23438 -0.0651,0.10416 -0.26041,0.16927 -0.1823,0.0651 -0.4948,0.10417 -0.3125,0.0391 -0.79427,0.0391 -0.46875,0 -0.78125,-0.0391 -0.3125,-0.0391 -0.49479,-0.10417 -0.18229,-0.0651 -0.26042,-0.16927 -0.0781,-0.10417 -0.0781,-0.23438 v -13.71095 h -0.026 l -4.88281,13.69793 q -0.0521,0.16927 -0.16927,0.28646 -0.11719,0.10417 -0.32553,0.16927 -0.19531,0.0651 -0.50781,0.0781 -0.3125,0.026 -0.75521,0.026 -0.44271,0 -0.75521,-0.0391 -0.3125,-0.026 -0.52083,-0.0911 -0.19531,-0.0781 -0.3125,-0.18229 -0.11719,-0.10417 -0.15625,-0.2474 l -4.71355,-13.69793 h -0.026 v 13.71095 q 0,0.13021 -0.0781,0.23438 -0.0651,0.10416 -0.26041,0.16927 -0.19532,0.0651 -0.50782,0.10417 -0.29948,0.0391 -0.78125,0.0391 -0.46875,0 -0.78125,-0.0391 -0.3125,-0.0391 -0.50781,-0.10417 -0.18229,-0.0651 -0.26042,-0.16927 -0.0651,-0.10417 -0.0651,-0.23438 v -15.01304 q 0,-0.66406 0.35156,-1.01562 0.35156,-0.35157 0.9375,-0.35157 h 2.23959 q 0.59896,0 1.02864,0.10417 0.42969,0.0911 0.74219,0.32552 0.3125,0.22136 0.52084,0.59896 0.20833,0.36458 0.36458,0.91146 l 3.64584,10.03908 h 0.0521 l 3.77605,-10.01304 q 0.16927,-0.54687 0.36458,-0.92448 0.20834,-0.3776 0.46875,-0.61198 0.27344,-0.23437 0.63802,-0.32552 0.36459,-0.10417 0.84636,-0.10417 h 2.30469 q 0.35156,0 0.59896,0.0912 0.26042,0.0911 0.41667,0.27344 0.16927,0.16927 0.24739,0.42969 0.0911,0.24739 0.0911,0.57291 z"
           style="font-style:normal;font-variant:normal;font-weight:bold;font-stretch:normal;font-size:26.6667px;font-family:Calibri;-inkscape-font-specification:'Calibri Bold';fill:#ffffff;fill-opacity:1;stroke-width:2.96981"
           id="path1003" />
        <path
           d="m -565.88972,858.881 q 0.15625,0.46875 0.19531,0.74219 0.0391,0.27344 -0.10416,0.41667 -0.14323,0.1302 -0.50782,0.15625 -0.36458,0.0391 -1.0026,0.0391 -0.66407,0 -1.04167,-0.026 -0.36459,-0.013 -0.5599,-0.0651 -0.19531,-0.0651 -0.27344,-0.16927 -0.0781,-0.10417 -0.1302,-0.27344 l -1.13282,-3.38542 h -6.32813 l -1.06771,3.29428 q -0.0521,0.18229 -0.14323,0.3125 -0.0781,0.11719 -0.27344,0.19531 -0.18229,0.0651 -0.53385,0.0911 -0.33855,0.026 -0.89844,0.026 -0.59896,0 -0.9375,-0.0391 -0.33854,-0.0391 -0.46875,-0.1823 -0.13021,-0.15625 -0.0911,-0.42968 0.0391,-0.27344 0.19531,-0.72917 l 5.19532,-14.94794 q 0.0781,-0.22135 0.18229,-0.35156 0.10417,-0.14323 0.32553,-0.20833 0.23437,-0.0781 0.63802,-0.0911 0.40364,-0.026 1.06771,-0.026 0.76823,0 1.22396,0.026 0.45573,0.013 0.70312,0.0911 0.26042,0.0651 0.36459,0.20833 0.11718,0.14323 0.19531,0.39063 z m -7.73439,-12.35679 h -0.013 l -2.38281,7.16147 h 4.77865 z"
           style="font-style:normal;font-variant:normal;font-weight:bold;font-stretch:normal;font-size:26.6667px;font-family:Calibri;-inkscape-font-specification:'Calibri Bold';fill:#ffffff;fill-opacity:1;stroke-width:2.96981"
           id="path1005" />
        <path
           d="m -560.09544,859.68829 q 0,0.13021 -0.0911,0.23438 -0.0781,0.10416 -0.27344,0.16927 -0.19531,0.0651 -0.52083,0.10417 -0.32552,0.0391 -0.83334,0.0391 -0.49479,0 -0.83333,-0.0391 -0.32552,-0.0391 -0.52084,-0.10417 -0.19531,-0.0651 -0.28645,-0.16927 -0.0781,-0.10417 -0.0781,-0.23438 v -15.91148 q 0,-0.1302 0.0781,-0.23437 0.0911,-0.10417 0.28645,-0.16927 0.20834,-0.0651 0.53386,-0.10417 0.32552,-0.0391 0.82031,-0.0391 0.50782,0 0.83334,0.0391 0.32552,0.0391 0.52083,0.10417 0.19531,0.0651 0.27344,0.16927 0.0911,0.10417 0.0911,0.23437 z"
           style="font-style:normal;font-variant:normal;font-weight:bold;font-stretch:normal;font-size:26.6667px;font-family:Calibri;-inkscape-font-specification:'Calibri Bold';fill:#ffffff;fill-opacity:1;stroke-width:2.96981"
           id="path1007" />
        <path
           d="m -542.53032,858.95913 q 0,0.29947 -0.10416,0.53385 -0.10417,0.23438 -0.28646,0.39063 -0.16927,0.15625 -0.41667,0.23437 -0.23437,0.0651 -0.48177,0.0651 h -1.45834 q -0.45572,0 -0.79427,-0.0911 -0.32552,-0.0911 -0.61198,-0.32552 -0.27343,-0.2474 -0.53385,-0.65104 -0.26042,-0.41667 -0.58594,-1.06771 l -4.19271,-7.87762 q -0.36459,-0.70312 -0.74219,-1.51042 -0.37761,-0.82031 -0.67709,-1.58854 h -0.026 q 0.0521,0.9375 0.0781,1.875 0.026,0.92448 0.026,1.91407 v 8.81511 q 0,0.13021 -0.0781,0.23438 -0.0651,0.10416 -0.24739,0.18229 -0.16927,0.0651 -0.46875,0.10417 -0.29948,0.0391 -0.76823,0.0391 -0.45573,0 -0.75521,-0.0391 -0.29948,-0.0391 -0.46875,-0.10417 -0.16927,-0.0781 -0.23438,-0.18229 -0.0651,-0.10417 -0.0651,-0.23438 v -15.14325 q 0,-0.61198 0.35156,-0.91146 0.36458,-0.3125 0.88542,-0.3125 h 1.83594 q 0.49479,0 0.83333,0.0912 0.33854,0.0781 0.59896,0.27344 0.27344,0.19531 0.50781,0.54687 0.23438,0.33855 0.48178,0.84636 l 3.28125,6.15886 q 0.28646,0.5599 0.5599,1.10677 0.28646,0.53386 0.54687,1.08073 0.26042,0.53386 0.50782,1.05469 0.24739,0.52084 0.48177,1.04167 h 0.013 q -0.0391,-0.91146 -0.0651,-1.90104 -0.013,-0.98959 -0.013,-1.88803 v -7.90365 q 0,-0.13021 0.0781,-0.23438 0.0781,-0.10417 0.26041,-0.18229 0.1823,-0.0781 0.48178,-0.10417 0.29948,-0.0391 0.76823,-0.0391 0.44271,0 0.74218,0.0391 0.29948,0.026 0.45573,0.10417 0.16928,0.0781 0.23438,0.18229 0.0651,0.10417 0.0651,0.23438 z"
           style="font-style:normal;font-variant:normal;font-weight:bold;font-stretch:normal;font-size:26.6667px;font-family:Calibri;-inkscape-font-specification:'Calibri Bold';fill:#ffffff;fill-opacity:1;stroke-width:2.96981"
           id="path1009" />
      </g>
    </g>
  </g>
  <circle
     cx="666.44922"
     cy="162.67056"
     r="38.355999"
     id="circle22-7-8-6"
     style="fill:#73d216;stroke:#4e9a06;stroke-width:3.2887;stroke-linecap:square" />
</svg>
