<?xml version="1.0" encoding="UTF-8" standalone="no"?>
<svg
   xmlns:dc="http://purl.org/dc/elements/1.1/"
   xmlns:cc="http://creativecommons.org/ns#"
   xmlns:rdf="http://www.w3.org/1999/02/22-rdf-syntax-ns#"
   xmlns:svg="http://www.w3.org/2000/svg"
   xmlns="http://www.w3.org/2000/svg"
   xmlns:sodipodi="http://sodipodi.sourceforge.net/DTD/sodipodi-0.dtd"
   xmlns:inkscape="http://www.inkscape.org/namespaces/inkscape"
   version="1.1"
   viewBox="0 0 920 351.27"
   id="svg84"
   sodipodi:docname="master-stable.svg"
   inkscape:version="0.92.4 (5da689c313, 2019-01-14)">
  <metadata
     id="metadata90">
    <rdf:RDF>
      <cc:Work
         rdf:about="">
        <dc:format>image/svg+xml</dc:format>
        <dc:type
           rdf:resource="http://purl.org/dc/dcmitype/StillImage" />
      </cc:Work>
    </rdf:RDF>
  </metadata>
  <defs
     id="defs88" />
  <sodipodi:namedview
     pagecolor="#ffffff"
     bordercolor="#666666"
     borderopacity="1"
     objecttolerance="10"
     gridtolerance="10"
     guidetolerance="10"
     inkscape:pageopacity="0"
     inkscape:pageshadow="2"
     inkscape:window-width="3000"
     inkscape:window-height="1875"
     id="namedview86"
     showgrid="false"
     inkscape:zoom="2.0187429"
     inkscape:cx="512.35329"
     inkscape:cy="87.54074"
     inkscape:window-x="-13"
     inkscape:window-y="-13"
     inkscape:window-maximized="1"
     inkscape:current-layer="svg84" />
  <path
     style="fill:none;stroke:#000000;stroke-width:6"
     inkscape:connector-curvature="0"
     id="path2"
     d="M 0,0" />
  <path
     style="fill:none;stroke:#000000;stroke-width:5.56409979"
     inkscape:connector-curvature="0"
     id="path4"
     d="m 37.87,192.07 721.39,3.5825" />
  <circle
     cx="880"
     cy="311.27002"
     r="38.355999"
     id="circle22"
     style="fill:#888a85;stroke:#000000;stroke-width:3.2887001;stroke-linecap:square" />
  <rect
     style="fill:#73d216;stroke:#4e9a06;stroke-width:6;stroke-linecap:square"
     id="rect26"
     ry="0.5"
     height="103.57"
     width="31.429001"
     y="31.099976"
     x="385.70999" />
  <g
     transform="rotate(-90,-285.625,-205.625)"
     aria-label="TAG A"
     id="g38"
     style="fill:#ffffff;stroke-width:2.9698">
    <path
       d="m -598.9,475.86 h -5.3944 v 13.933 h -4.4548 V 475.86 h -5.3944 v -3.3411 h 15.244 z"
       id="path30"
       inkscape:connector-curvature="0" />
    <path
       d="m -580.26,489.79 h -4.6056 l -1.1949,-3.4919 h -6.4037 l -1.1949,3.4919 h -4.4896 l 6.3805,-17.274 h 5.1276 z m -6.8794,-6.659 -2.123,-6.1949 -2.123,6.1949 z"
       id="path32"
       inkscape:connector-curvature="0" />
    <path
       d="m -562.47,488.81 q -1.1601,0.45244 -3.0743,0.90488 -1.9142,0.44084 -3.8167,0.44084 -4.4084,0 -6.9026,-2.3898 -2.4942,-2.4014 -2.4942,-6.6242 0,-4.0255 2.5174,-6.4849 2.5174,-2.471 7.0186,-2.471 1.7053,0 3.2483,0.31323 1.5429,0.30162 3.4339,1.2181 v 4.0487 h -0.49884 q -0.32483,-0.24362 -0.95128,-0.68446 -0.62645,-0.45244 -1.2065,-0.76567 -0.67286,-0.37123 -1.5777,-0.63805 -0.89327,-0.26682 -1.9026,-0.26682 -1.1833,0 -2.1462,0.34803 -0.9629,0.34803 -1.7285,1.0673 -0.73086,0.69606 -1.1601,1.7749 -0.41763,1.0673 -0.41763,2.471 0,2.8654 1.5197,4.3852 1.5197,1.5197 4.4896,1.5197 0.25522,0 0.55684,-0.0116 0.31323,-0.0116 0.56845,-0.0348 v -3.3875 h -3.4455 v -3.2599 h 7.9699 z"
       id="path34"
       inkscape:connector-curvature="0" />
    <path
       d="m -534.41,489.79 h -4.6056 l -1.1949,-3.4919 h -6.4037 l -1.1949,3.4919 h -4.4896 l 6.3805,-17.274 h 5.1276 z m -6.8794,-6.659 -2.123,-6.1949 -2.123,6.1949 z"
       id="path36"
       inkscape:connector-curvature="0" />
  </g>
  <rect
     x="723.77002"
     y="31.099976"
     width="31.429001"
     height="103.57"
     ry="0.5"
     id="rect40"
     style="fill:#73d216;stroke:#4e9a06;stroke-width:6;stroke-linecap:square" />
  <g
     transform="rotate(-90,-285.625,-205.625)"
     aria-label="TAG B"
     id="g50"
     style="fill:#ffffff;stroke-width:2.9698">
    <path
       d="m -598.9,813.91 h -5.3944 v 13.933 h -4.4548 V 813.91 h -5.3944 v -3.3411 h 15.244 z"
       id="path42"
       inkscape:connector-curvature="0" />
    <path
       d="m -580.26,827.85 h -4.6056 l -1.1949,-3.4919 h -6.4037 l -1.1949,3.4919 h -4.4896 l 6.3805,-17.274 h 5.1276 z m -6.8794,-6.659 -2.123,-6.1949 -2.123,6.1949 z"
       id="path44"
       inkscape:connector-curvature="0" />
    <path
       d="m -562.47,826.86 q -1.1601,0.45244 -3.0743,0.90488 -1.9142,0.44083 -3.8167,0.44083 -4.4084,0 -6.9026,-2.3898 -2.4942,-2.4014 -2.4942,-6.6242 0,-4.0255 2.5174,-6.4849 2.5174,-2.471 7.0186,-2.471 1.7053,0 3.2483,0.31322 1.5429,0.30163 3.4339,1.2181 v 4.0487 h -0.49884 q -0.32483,-0.24362 -0.95128,-0.68446 -0.62645,-0.45243 -1.2065,-0.76566 -0.67286,-0.37123 -1.5777,-0.63805 -0.89327,-0.26682 -1.9026,-0.26682 -1.1833,0 -2.1462,0.34802 -0.96288,0.34803 -1.7285,1.0673 -0.73086,0.69606 -1.1601,1.775 -0.41763,1.0673 -0.41763,2.471 0,2.8654 1.5197,4.3852 1.5197,1.5197 4.4896,1.5197 0.25522,0 0.55684,-0.0116 0.31323,-0.0116 0.56845,-0.0348 v -3.3875 h -3.4455 v -3.2599 h 7.9699 z"
       id="path46"
       inkscape:connector-curvature="0" />
    <path
       d="m -535.59,822.56 q 0,1.2529 -0.51044,2.239 -0.49884,0.98608 -1.3805,1.6357 -1.0209,0.76567 -2.2506,1.0905 -1.2181,0.32482 -3.0975,0.32482 h -7.5406 v -17.274 h 6.7054 q 2.0882,0 3.051,0.13921 0.97449,0.13921 1.9258,0.61485 0.98608,0.49884 1.4617,1.3457 0.48724,0.83527 0.48724,1.9142 0,1.2529 -0.66126,2.2158 -0.66125,0.95128 -1.8678,1.4849 v 0.0928 q 1.6937,0.33643 2.6798,1.3921 0.99768,1.0557 0.99768,2.7842 z m -5.7077,-7.0998 q 0,-0.42923 -0.22042,-0.85847 -0.20882,-0.42924 -0.75406,-0.63805 -0.48724,-0.18562 -1.2181,-0.19722 -0.71926,-0.0232 -2.0302,-0.0232 h -0.41764 v 3.6543 h 0.69606 q 1.0557,0 1.7982,-0.0348 0.7425,-0.0348 1.1717,-0.23202 0.60325,-0.26682 0.78886,-0.68446 0.18562,-0.42923 0.18562,-0.98608 z m 1.0905,7.0302 q 0,-0.82367 -0.32483,-1.2645 -0.31322,-0.45244 -1.0789,-0.67285 -0.52204,-0.15082 -1.4385,-0.16242 -0.91647,-0.0116 -1.9142,-0.0116 h -0.97448 v 4.304 h 0.32483 q 1.8794,0 2.6914,-0.0116 0.81207,-0.0116 1.4965,-0.30163 0.69606,-0.29002 0.95128,-0.76566 0.26682,-0.48724 0.26682,-1.1137 z"
       id="path48"
       inkscape:connector-curvature="0" />
  </g>
  <rect
     x="764.65997"
     y="3.3699951"
     width="31.429001"
     height="131.28999"
     ry="0.63383001"
     id="rect52"
     style="fill:#3465a4;stroke:#204a87;stroke-width:6.75540018;stroke-linecap:square" />
  <g
     transform="rotate(-90,-285.625,-205.625)"
     aria-label="MASTER"
     id="g66"
     style="fill:#ffffff;stroke-width:2.9698">
    <path
       d="m -594.31,868.74 h -4.4316 v -11.566 l -3.2019,7.5058 h -3.0743 l -3.2019,-7.5058 v 11.566 h -4.1995 v -17.274 h 5.174 l 3.8863,8.6659 3.8747,-8.6659 h 5.174 z"
       id="path54"
       inkscape:connector-curvature="0" />
    <path
       d="m -573.95,868.74 h -4.6056 l -1.1949,-3.4919 h -6.4037 l -1.1949,3.4919 h -4.4896 l 6.3805,-17.274 h 5.1276 z m -6.8794,-6.659 -2.123,-6.1949 -2.123,6.1949 z"
       id="path56"
       inkscape:connector-curvature="0" />
    <path
       d="m -557.61,863.31 q 0,2.5522 -2.1694,4.1531 -2.1578,1.5893 -5.8701,1.5893 -2.1462,0 -3.7471,-0.37123 -1.5893,-0.38283 -2.9814,-0.96288 v -4.1415 h 0.48724 q 1.3805,1.1021 3.0858,1.6937 1.717,0.59165 3.2947,0.59165 0.40603,0 1.0673,-0.0696 0.66125,-0.0696 1.0789,-0.23202 0.51044,-0.20881 0.83527,-0.52204 0.33642,-0.31323 0.33642,-0.92808 0,-0.56844 -0.48724,-0.97448 -0.47564,-0.41763 -1.4037,-0.63805 -0.97448,-0.23202 -2.065,-0.42924 -1.0789,-0.20881 -2.0302,-0.52204 -2.181,-0.70766 -3.1439,-1.9142 -0.95127,-1.2181 -0.95127,-3.0162 0,-2.413 2.1578,-3.9327 2.1694,-1.5313 5.5685,-1.5313 1.7053,0 3.3643,0.33642 1.6705,0.32483 2.8886,0.82367 v 3.9791 h -0.47564 q -1.0441,-0.83527 -2.5638,-1.3921 -1.5081,-0.56845 -3.0859,-0.56845 -0.55685,0 -1.1137,0.0812 -0.54525,0.0696 -1.0557,0.27842 -0.45244,0.17401 -0.77727,0.53364 -0.32482,0.34803 -0.32482,0.80047 0,0.68446 0.52204,1.0557 0.52204,0.35963 1.9722,0.66125 0.95128,0.19722 1.8214,0.38284 0.88167,0.18561 1.891,0.51044 1.9838,0.64965 2.9234,1.775 0.95128,1.1137 0.95128,2.9002 z"
       id="path58"
       inkscape:connector-curvature="0" />
    <path
       d="m -541.03,854.81 h -5.3944 v 13.933 h -4.4548 V 854.81 h -5.3944 v -3.3411 h 15.244 z"
       id="path60"
       inkscape:connector-curvature="0" />
    <path
       d="m -525.86,868.74 h -12.494 v -17.274 h 12.494 v 3.3411 h -8.0627 v 2.9814 h 7.4826 v 3.3411 h -7.4826 v 4.2692 h 8.0627 z"
       id="path62"
       inkscape:connector-curvature="0" />
    <path
       d="m -512.43,856.76 q 0,-0.64965 -0.26682,-1.1137 -0.26682,-0.46405 -0.91648,-0.73086 -0.45243,-0.18562 -1.0557,-0.22042 -0.60325,-0.0464 -1.4037,-0.0464 h -1.6125 v 4.652 h 1.3689 q 1.0673,0 1.7866,-0.10441 0.71926,-0.1044 1.2065,-0.47563 0.46404,-0.35963 0.67285,-0.78887 0.22042,-0.44084 0.22042,-1.1717 z m 6.949,11.984 h -5.4408 l -4.71,-6.3341 h -2.0534 v 6.3341 h -4.4316 V 851.47 h 7.471 q 1.5313,0 2.6334,0.17402 1.1021,0.17401 2.065,0.75406 0.97448,0.58005 1.5429,1.5081 0.58004,0.91648 0.58004,2.3086 0,1.9142 -0.89327,3.1207 -0.88167,1.2065 -2.529,2.007 z"
       id="path64"
       inkscape:connector-curvature="0" />
  </g>
  <rect
     x="864.60999"
     y="176.46002"
     width="31.429001"
     height="80.546997"
     ry="0.38885"
     id="rect68"
     style="fill:#cc0000;stroke:#a40000;stroke-width:5.29120016;stroke-linecap:square" />
  <g
     transform="rotate(-90,-285.625,-205.625)"
     aria-label="DEV"
     id="g76"
     style="fill:#ffffff;stroke-width:2.9698">
    <path
       d="m -718.43,960.07 q 0,2.413 -1.1021,4.3272 -1.1021,1.9026 -2.7842,2.9234 -1.2645,0.76567 -2.7726,1.0673 -1.5081,0.30163 -3.5731,0.30163 h -6.0905 v -17.274 h 6.2645 q 2.1114,0 3.6427,0.35963 1.5313,0.34803 2.5754,0.99768 1.7866,1.0905 2.8074,2.9466 1.0325,1.8446 1.0325,4.3504 z m -4.6056,-0.0348 q 0,-1.7054 -0.62645,-2.9118 -0.61486,-1.2181 -1.9606,-1.9026 -0.68445,-0.33643 -1.4037,-0.45244 -0.70766,-0.12761 -2.1462,-0.12761 h -1.1253 v 10.812 h 1.1253 q 1.5893,0 2.3318,-0.13921 0.74246,-0.15082 1.4501,-0.53365 1.2181,-0.69606 1.7866,-1.8562 0.56845,-1.1717 0.56845,-2.8886 z"
       id="path70"
       inkscape:connector-curvature="0" />
    <path
       d="m -702.53,968.69 h -12.494 v -17.274 h 12.494 v 3.3411 h -8.0627 v 2.9814 h 7.4826 v 3.3411 h -7.4826 v 4.2692 h 8.0627 z"
       id="path72"
       inkscape:connector-curvature="0" />
    <path
       d="m -683.13,951.42 -6.2993,17.274 h -4.9884 l -6.2993,-17.274 h 4.6752 l 4.1764,12.135 4.1764,-12.135 z"
       id="path74"
       inkscape:connector-curvature="0" />
  </g>
  <path
     d="m 37.849341,312.07 803.165329,3.5825"
     id="path944"
     inkscape:connector-curvature="0"
     style="fill:none;stroke:#000000;stroke-width:5.56409979" />
  <rect
     style="opacity:1;fill:#888a85;fill-opacity:1;stroke:#000000;stroke-width:3;stroke-linecap:round;stroke-linejoin:round;stroke-miterlimit:4;stroke-dasharray:none;stroke-dashoffset:0;stroke-opacity:1"
     id="rect1132"
     width="78.000633"
     height="198.00063"
     x="0.99968338"
     y="152.27019"
     ry="40.278633"
     rx="39.000317" />
  <rect
     rx="39.000317"
     ry="40.278633"
     y="152.27019"
     x="120.99968"
     height="198.00063"
     width="78.000633"
     id="rect1134"
     style="opacity:1;fill:#888a85;fill-opacity:1;stroke:#000000;stroke-width:3;stroke-linecap:round;stroke-linejoin:round;stroke-miterlimit:4;stroke-dasharray:none;stroke-dashoffset:0;stroke-opacity:1" />
  <rect
     style="opacity:1;fill:#888a85;fill-opacity:1;stroke:#000000;stroke-width:3;stroke-linecap:round;stroke-linejoin:round;stroke-miterlimit:4;stroke-dasharray:none;stroke-dashoffset:0;stroke-opacity:1"
     id="rect1136"
     width="78.000633"
     height="198.00063"
     x="240.99968"
     y="152.27019"
     ry="40.278633"
     rx="39.000317" />
  <rect
     rx="39.000317"
     ry="40.278633"
     y="152.27019"
     x="360.99969"
     height="198.00063"
     width="78.000633"
     id="rect1138"
     style="opacity:1;fill:#73d216;fill-opacity:1;stroke:#4e9a06;stroke-width:3;stroke-linecap:round;stroke-linejoin:round;stroke-miterlimit:4;stroke-dasharray:none;stroke-dashoffset:0;stroke-opacity:1" />
  <rect
     rx="39.000317"
     ry="40.278633"
     y="152.27019"
     x="480.99969"
     height="198.00063"
     width="78.000633"
     id="rect1140"
     style="opacity:1;fill:#888a85;fill-opacity:1;stroke:#000000;stroke-width:3;stroke-linecap:round;stroke-linejoin:round;stroke-miterlimit:4;stroke-dasharray:none;stroke-dashoffset:0;stroke-opacity:1" />
  <rect
     style="opacity:1;fill:#888a85;fill-opacity:1;stroke:#000000;stroke-width:3;stroke-linecap:round;stroke-linejoin:round;stroke-miterlimit:4;stroke-dasharray:none;stroke-dashoffset:0;stroke-opacity:1"
     id="rect1142"
     width="78.000633"
     height="198.00063"
     x="600.99969"
     y="152.27019"
     ry="40.278633"
     rx="39.000317" />
  <rect
     style="opacity:1;fill:#73d216;fill-opacity:1;stroke:#4e9a06;stroke-width:3;stroke-linecap:round;stroke-linejoin:round;stroke-miterlimit:4;stroke-dasharray:none;stroke-dashoffset:0;stroke-opacity:1"
     id="rect1144"
     width="78.000633"
     height="198.00063"
     x="720.99969"
     y="152.27019"
     ry="40.278633"
     rx="39.000317" />
</svg>
