<?xml version="1.0" encoding="UTF-8"?>
<svg version="1.1" viewBox="0 0 920 351.27" xmlns="http://www.w3.org/2000/svg">
  <g transform="translate(-80 -491.25)">
    <path d="m80 491.25" fill="none" stroke="#000" stroke-width="6"/>
    <path d="m117.87 683.32 721.39 3.5825" fill="none" stroke="#000" stroke-width="5.5641"/>
    <g fill="#888a85" stroke="#000" stroke-linecap="square" stroke-width="3.2887">
      <circle cx="120" cy="682.52" r="38.356"/>
      <circle cx="240" cy="682.52" r="38.356"/>
      <circle cx="360" cy="682.52" r="38.356"/>
    </g>
    <g>
      <g stroke-linecap="square">
        <g stroke-width="3.2887">
          <circle cx="480" cy="682.52" r="38.356" fill="#73d216" stroke="#4e9a06"/>
          <circle cx="600" cy="682.52" r="38.356" fill="#888a85" stroke="#000"/>
          <circle cx="720" cy="682.52" r="38.356" fill="#888a85" stroke="#000"/>
          <circle cx="840" cy="682.52" r="38.356" fill="#73d216" stroke="#4e9a06"/>
          <circle cx="960" cy="802.52" r="38.356" fill="#888a85" stroke="#000"/>
        </g>
        <rect x="465.71" y="522.35" width="31.429" height="103.57" ry=".5" fill="#73d216" stroke="#4e9a06" stroke-width="6"/>
      </g>
      <g transform="rotate(-90)" fill="#fff" stroke-width="2.9698" aria-label="TAG A">
        <path d="m-598.9 475.86h-5.3944v13.933h-4.4548v-13.933h-5.3944v-3.3411h15.244z"/>
        <path d="m-580.26 489.79h-4.6056l-1.1949-3.4919h-6.4037l-1.1949 3.4919h-4.4896l6.3805-17.274h5.1276zm-6.8794-6.659-2.123-6.1949-2.123 6.1949z"/>
        <path d="m-562.47 488.81q-1.1601 0.45244-3.0743 0.90488-1.9142 0.44084-3.8167 0.44084-4.4084 0-6.9026-2.3898-2.4942-2.4014-2.4942-6.6242 0-4.0255 2.5174-6.4849 2.5174-2.471 7.0186-2.471 1.7053 0 3.2483 0.31323 1.5429 0.30162 3.4339 1.2181v4.0487h-0.49884q-0.32483-0.24362-0.95128-0.68446-0.62645-0.45244-1.2065-0.76567-0.67286-0.37123-1.5777-0.63805-0.89327-0.26682-1.9026-0.26682-1.1833 0-2.1462 0.34803t-1.7285 1.0673q-0.73086 0.69606-1.1601 1.7749-0.41763 1.0673-0.41763 2.471 0 2.8654 1.5197 4.3852 1.5197 1.5197 4.4896 1.5197 0.25522 0 0.55684-0.0116 0.31323-0.0116 0.56845-0.0348v-3.3875h-3.4455v-3.2599h7.9699z"/>
        <path d="m-534.41 489.79h-4.6056l-1.1949-3.4919h-6.4037l-1.1949 3.4919h-4.4896l6.3805-17.274h5.1276zm-6.8794-6.659-2.123-6.1949-2.123 6.1949z"/>
      </g>
      <rect x="803.77" y="522.35" width="31.429" height="103.57" ry=".5" fill="#73d216" stroke="#4e9a06" stroke-linecap="square" stroke-width="6"/>
      <g transform="rotate(-90)" fill="#fff" stroke-width="2.9698" aria-label="TAG B">
        <path d="m-598.9 813.91h-5.3944v13.933h-4.4548v-13.933h-5.3944v-3.3411h15.244z"/>
        <path d="m-580.26 827.85h-4.6056l-1.1949-3.4919h-6.4037l-1.1949 3.4919h-4.4896l6.3805-17.274h5.1276zm-6.8794-6.659-2.123-6.1949-2.123 6.1949z"/>
        <path d="m-562.47 826.86q-1.1601 0.45244-3.0743 0.90488-1.9142 0.44083-3.8167 0.44083-4.4084 0-6.9026-2.3898-2.4942-2.4014-2.4942-6.6242 0-4.0255 2.5174-6.4849 2.5174-2.471 7.0186-2.471 1.7053 0 3.2483 0.31322 1.5429 0.30163 3.4339 1.2181v4.0487h-0.49884q-0.32483-0.24362-0.95128-0.68446-0.62645-0.45243-1.2065-0.76566-0.67286-0.37123-1.5777-0.63805-0.89327-0.26682-1.9026-0.26682-1.1833 0-2.1462 0.34802-0.96288 0.34803-1.7285 1.0673-0.73086 0.69606-1.1601 1.775-0.41763 1.0673-0.41763 2.471 0 2.8654 1.5197 4.3852 1.5197 1.5197 4.4896 1.5197 0.25522 0 0.55684-0.0116 0.31323-0.0116 0.56845-0.0348v-3.3875h-3.4455v-3.2599h7.9699z"/>
        <path d="m-535.59 822.56q0 1.2529-0.51044 2.239-0.49884 0.98608-1.3805 1.6357-1.0209 0.76567-2.2506 1.0905-1.2181 0.32482-3.0975 0.32482h-7.5406v-17.274h6.7054q2.0882 0 3.051 0.13921 0.97449 0.13921 1.9258 0.61485 0.98608 0.49884 1.4617 1.3457 0.48724 0.83527 0.48724 1.9142 0 1.2529-0.66126 2.2158-0.66125 0.95128-1.8678 1.4849v0.0928q1.6937 0.33643 2.6798 1.3921 0.99768 1.0557 0.99768 2.7842zm-5.7077-7.0998q0-0.42923-0.22042-0.85847-0.20882-0.42924-0.75406-0.63805-0.48724-0.18562-1.2181-0.19722-0.71926-0.0232-2.0302-0.0232h-0.41764v3.6543h0.69606q1.0557 0 1.7982-0.0348t1.1717-0.23202q0.60325-0.26682 0.78886-0.68446 0.18562-0.42923 0.18562-0.98608zm1.0905 7.0302q0-0.82367-0.32483-1.2645-0.31322-0.45244-1.0789-0.67285-0.52204-0.15082-1.4385-0.16242-0.91647-0.0116-1.9142-0.0116h-0.97448v4.304h0.32483q1.8794 0 2.6914-0.0116 0.81207-0.0116 1.4965-0.30163 0.69606-0.29002 0.95128-0.76566 0.26682-0.48724 0.26682-1.1137z"/>
      </g>
      <rect x="844.66" y="494.62" width="31.429" height="131.29" ry=".63383" fill="#3465a4" stroke="#204a87" stroke-linecap="square" stroke-width="6.7554"/>
      <g transform="rotate(-90)" fill="#fff" stroke-width="2.9698" aria-label="MASTER">
        <path d="m-594.31 868.74h-4.4316v-11.566l-3.2019 7.5058h-3.0743l-3.2019-7.5058v11.566h-4.1995v-17.274h5.174l3.8863 8.6659 3.8747-8.6659h5.174z"/>
        <path d="m-573.95 868.74h-4.6056l-1.1949-3.4919h-6.4037l-1.1949 3.4919h-4.4896l6.3805-17.274h5.1276zm-6.8794-6.659-2.123-6.1949-2.123 6.1949z"/>
        <path d="m-557.61 863.31q0 2.5522-2.1694 4.1531-2.1578 1.5893-5.8701 1.5893-2.1462 0-3.7471-0.37123-1.5893-0.38283-2.9814-0.96288v-4.1415h0.48724q1.3805 1.1021 3.0858 1.6937 1.717 0.59165 3.2947 0.59165 0.40603 0 1.0673-0.0696 0.66125-0.0696 1.0789-0.23202 0.51044-0.20881 0.83527-0.52204 0.33642-0.31323 0.33642-0.92808 0-0.56844-0.48724-0.97448-0.47564-0.41763-1.4037-0.63805-0.97448-0.23202-2.065-0.42924-1.0789-0.20881-2.0302-0.52204-2.181-0.70766-3.1439-1.9142-0.95127-1.2181-0.95127-3.0162 0-2.413 2.1578-3.9327 2.1694-1.5313 5.5685-1.5313 1.7053 0 3.3643 0.33642 1.6705 0.32483 2.8886 0.82367v3.9791h-0.47564q-1.0441-0.83527-2.5638-1.3921-1.5081-0.56845-3.0859-0.56845-0.55685 0-1.1137 0.0812-0.54525 0.0696-1.0557 0.27842-0.45244 0.17401-0.77727 0.53364-0.32482 0.34803-0.32482 0.80047 0 0.68446 0.52204 1.0557 0.52204 0.35963 1.9722 0.66125 0.95128 0.19722 1.8214 0.38284 0.88167 0.18561 1.891 0.51044 1.9838 0.64965 2.9234 1.775 0.95128 1.1137 0.95128 2.9002z"/>
        <path d="m-541.03 854.81h-5.3944v13.933h-4.4548v-13.933h-5.3944v-3.3411h15.244z"/>
        <path d="m-525.86 868.74h-12.494v-17.274h12.494v3.3411h-8.0627v2.9814h7.4826v3.3411h-7.4826v4.2692h8.0627z"/>
        <path d="m-512.43 856.76q0-0.64965-0.26682-1.1137t-0.91648-0.73086q-0.45243-0.18562-1.0557-0.22042-0.60325-0.0464-1.4037-0.0464h-1.6125v4.652h1.3689q1.0673 0 1.7866-0.10441 0.71926-0.1044 1.2065-0.47563 0.46404-0.35963 0.67285-0.78887 0.22042-0.44084 0.22042-1.1717zm6.949 11.984h-5.4408l-4.71-6.3341h-2.0534v6.3341h-4.4316v-17.274h7.471q1.5313 0 2.6334 0.17402 1.1021 0.17401 2.065 0.75406 0.97448 0.58005 1.5429 1.5081 0.58004 0.91648 0.58004 2.3086 0 1.9142-0.89327 3.1207-0.88167 1.2065-2.529 2.007z"/>
      </g>
      <rect x="944.61" y="667.71" width="31.429" height="80.547" ry=".38885" fill="#c00" stroke="#a40000" stroke-linecap="square" stroke-width="5.2912"/>
      <g transform="rotate(-90)" fill="#fff" stroke-width="2.9698" aria-label="DEV">
        <path d="m-718.43 960.07q0 2.413-1.1021 4.3272-1.1021 1.9026-2.7842 2.9234-1.2645 0.76567-2.7726 1.0673-1.5081 0.30163-3.5731 0.30163h-6.0905v-17.274h6.2645q2.1114 0 3.6427 0.35963 1.5313 0.34803 2.5754 0.99768 1.7866 1.0905 2.8074 2.9466 1.0325 1.8446 1.0325 4.3504zm-4.6056-0.0348q0-1.7054-0.62645-2.9118-0.61486-1.2181-1.9606-1.9026-0.68445-0.33643-1.4037-0.45244-0.70766-0.12761-2.1462-0.12761h-1.1253v10.812h1.1253q1.5893 0 2.3318-0.13921 0.74246-0.15082 1.4501-0.53365 1.2181-0.69606 1.7866-1.8562 0.56845-1.1717 0.56845-2.8886z"/>
        <path d="m-702.53 968.69h-12.494v-17.274h12.494v3.3411h-8.0627v2.9814h7.4826v3.3411h-7.4826v4.2692h8.0627z"/>
        <path d="m-683.13 951.42-6.2993 17.274h-4.9884l-6.2993-17.274h4.6752l4.1764 12.135 4.1764-12.135z"/>
      </g>
    </g>
    <path d="m867.12 709.64 65.757 65.757" fill="none" stroke="#000" stroke-width="6"/>
  </g>
</svg>
