<?xml version="1.0" encoding="UTF-8" standalone="no"?>
<svg
   xmlns:dc="http://purl.org/dc/elements/1.1/"
   xmlns:cc="http://creativecommons.org/ns#"
   xmlns:rdf="http://www.w3.org/1999/02/22-rdf-syntax-ns#"
   xmlns:svg="http://www.w3.org/2000/svg"
   xmlns="http://www.w3.org/2000/svg"
   xmlns:sodipodi="http://sodipodi.sourceforge.net/DTD/sodipodi-0.dtd"
   xmlns:inkscape="http://www.inkscape.org/namespaces/inkscape"
   version="1.1"
   viewBox="0 0 940.50067 443.17072"
   id="svg98"
   sodipodi:docname="master-unstable-with-stages.svg"
   width="940.50067"
   height="443.17072"
   inkscape:version="0.92.4 (5da689c313, 2019-01-14)">
  <metadata
     id="metadata104">
    <rdf:RDF>
      <cc:Work
         rdf:about="">
        <dc:format>image/svg+xml</dc:format>
        <dc:type
           rdf:resource="http://purl.org/dc/dcmitype/StillImage" />
        <dc:title></dc:title>
      </cc:Work>
    </rdf:RDF>
  </metadata>
  <defs
     id="defs102" />
  <sodipodi:namedview
     pagecolor="#ffffff"
     bordercolor="#666666"
     borderopacity="1"
     objecttolerance="10"
     gridtolerance="10"
     guidetolerance="10"
     inkscape:pageopacity="0"
     inkscape:pageshadow="2"
     inkscape:window-width="3000"
     inkscape:window-height="1875"
     id="namedview100"
     showgrid="false"
     fit-margin-top="10"
     fit-margin-left="10"
     fit-margin-right="10"
     fit-margin-bottom="10"
     inkscape:zoom="1.7406863"
     inkscape:cx="394.92958"
     inkscape:cy="246.7284"
     inkscape:window-x="-13"
     inkscape:window-y="-13"
     inkscape:window-maximized="1"
     inkscape:current-layer="svg98" />
  <path
     d="m 48.402838,281.38272 599.466332,3.5699"
     id="path1023"
     inkscape:connector-curvature="0"
     style="fill:none;stroke:#000000;stroke-width:5.9987998" />
  <path
     d="m 48.350317,391.3854 841.430003,3.5699"
     id="path1021"
     inkscape:connector-curvature="0"
     style="fill:none;stroke:#000000;stroke-width:5.9987998" />
  <path
     style="fill:none;stroke:#000000;stroke-width:5.9987998"
     inkscape:connector-curvature="0"
     id="path2"
     d="m 48.455983,171.38003 354.628977,3.5699" />
  <circle
     cx="50.500317"
     cy="173.17004"
     r="38.355999"
     id="circle4"
     style="fill:#888a85;stroke:#000000;stroke-width:3.2887001;stroke-linecap:square" />
  <circle
     cx="170.50032"
     cy="173.17004"
     r="38.355999"
     id="circle6"
     style="fill:#73d216;stroke:#4e9a06;stroke-width:3.2887001;stroke-linecap:square" />
  <circle
     cx="290.50031"
     cy="173.17004"
     r="38.355999"
     id="circle8"
     style="fill:#888a85;stroke:#000000;stroke-width:3.2887001;stroke-linecap:square" />
  <circle
     cx="410.50031"
     cy="173.17004"
     r="38.355999"
     id="circle10"
     style="fill:#73d216;stroke:#4e9a06;stroke-width:3.2887001;stroke-linecap:square" />
  <circle
     style="fill:#888a85;stroke:#000000;stroke-width:3.2887001;stroke-linecap:square"
     cx="770.50031"
     cy="393.17035"
     r="38.355999"
     id="circle18" />
  <circle
     style="fill:#888a85;stroke:#000000;stroke-width:3.2887001;stroke-linecap:square"
     cx="890.50031"
     cy="393.17035"
     r="38.355999"
     id="circle20" />
  <rect
     x="153.29031"
     y="13"
     width="31.429001"
     height="103.57"
     ry="0.5"
     id="rect24"
     style="fill:#73d216;stroke:#4e9a06;stroke-width:6;stroke-linecap:square" />
  <g
     transform="rotate(-90,-289.42483,-219.92515)"
     aria-label="TAG A"
     id="g34"
     style="fill:#ffffff;stroke-width:2.9698">
    <path
       d="m -598.9,232.94 h -5.3944 v 13.933 h -4.4548 V 232.94 h -5.3944 v -3.3411 h 15.244 z"
       id="path26"
       inkscape:connector-curvature="0" />
    <path
       d="m -580.26,246.87 h -4.6056 l -1.1949,-3.4919 h -6.4037 l -1.1949,3.4919 h -4.4896 l 6.3805,-17.274 h 5.1276 z m -6.8794,-6.659 -2.123,-6.1949 -2.123,6.1949 z"
       id="path28"
       inkscape:connector-curvature="0" />
    <path
       d="m -562.47,245.88 q -1.1601,0.45244 -3.0743,0.90488 -1.9142,0.44084 -3.8167,0.44084 -4.4084,0 -6.9026,-2.3898 -2.4942,-2.4014 -2.4942,-6.6242 0,-4.0255 2.5174,-6.4849 2.5174,-2.471 7.0186,-2.471 1.7053,0 3.2483,0.31323 1.5429,0.30162 3.4339,1.2181 v 4.0487 h -0.49884 q -0.32483,-0.24362 -0.95128,-0.68445 -0.62645,-0.45244 -1.2065,-0.76567 -0.67286,-0.37123 -1.5777,-0.63805 -0.89327,-0.26682 -1.9026,-0.26682 -1.1833,0 -2.1462,0.34803 -0.9629,0.34803 -1.7285,1.0673 -0.73086,0.69605 -1.1601,1.7749 -0.41763,1.0673 -0.41763,2.471 0,2.8654 1.5197,4.3852 1.5197,1.5197 4.4896,1.5197 0.25522,0 0.55684,-0.0116 0.31323,-0.0116 0.56845,-0.0348 v -3.3875 h -3.4455 v -3.2599 h 7.9699 z"
       id="path30"
       inkscape:connector-curvature="0" />
    <path
       d="m -534.41,246.87 h -4.6056 l -1.1949,-3.4919 h -6.4037 l -1.1949,3.4919 h -4.4896 l 6.3805,-17.274 h 5.1276 z m -6.8794,-6.659 -2.123,-6.1949 -2.123,6.1949 z"
       id="path32"
       inkscape:connector-curvature="0" />
  </g>
  <rect
     x="374.3403"
     y="13"
     width="31.429001"
     height="103.57"
     ry="0.5"
     id="rect36"
     style="fill:#73d216;stroke:#4e9a06;stroke-width:6;stroke-linecap:square" />
  <g
     transform="rotate(-90,-289.42483,-219.92515)"
     aria-label="TAG B"
     id="g46"
     style="fill:#ffffff;stroke-width:2.9698">
    <path
       d="m -598.9,453.99 h -5.3944 v 13.933 h -4.4548 V 453.99 h -5.3944 v -3.3411 h 15.244 z"
       id="path38"
       inkscape:connector-curvature="0" />
    <path
       d="m -580.26,467.92 h -4.6056 l -1.1949,-3.4919 h -6.4037 l -1.1949,3.4919 h -4.4896 l 6.3805,-17.274 h 5.1276 z m -6.8794,-6.659 -2.123,-6.1949 -2.123,6.1949 z"
       id="path40"
       inkscape:connector-curvature="0" />
    <path
       d="m -562.47,466.94 q -1.1601,0.45243 -3.0743,0.90487 -1.9142,0.44084 -3.8167,0.44084 -4.4084,0 -6.9026,-2.3898 -2.4942,-2.4014 -2.4942,-6.6242 0,-4.0255 2.5174,-6.4849 2.5174,-2.471 7.0186,-2.471 1.7053,0 3.2483,0.31323 1.5429,0.30163 3.4339,1.2181 v 4.0487 h -0.49884 q -0.32483,-0.24362 -0.95128,-0.68446 -0.62645,-0.45244 -1.2065,-0.76566 -0.67286,-0.37123 -1.5777,-0.63805 -0.89327,-0.26683 -1.9026,-0.26683 -1.1833,0 -2.1462,0.34803 -0.9629,0.34803 -1.7285,1.0673 -0.73086,0.69606 -1.1601,1.775 -0.41763,1.0673 -0.41763,2.471 0,2.8654 1.5197,4.3852 1.5197,1.5197 4.4896,1.5197 0.25522,0 0.55684,-0.0116 0.31323,-0.0116 0.56845,-0.0348 v -3.3875 h -3.4455 v -3.2599 h 7.9699 z"
       id="path42"
       inkscape:connector-curvature="0" />
    <path
       d="m -535.59,462.63 q 0,1.2529 -0.51044,2.239 -0.49884,0.98608 -1.3805,1.6357 -1.0209,0.76567 -2.2506,1.0905 -1.2181,0.32483 -3.0975,0.32483 h -7.5406 v -17.274 h 6.7054 q 2.0882,0 3.051,0.13921 0.97449,0.13922 1.9258,0.61486 0.98608,0.49884 1.4617,1.3457 0.48724,0.83527 0.48724,1.9142 0,1.2529 -0.66126,2.2158 -0.66125,0.95128 -1.8678,1.4849 v 0.0928 q 1.6937,0.33643 2.6798,1.3921 0.99768,1.0557 0.99768,2.7842 z m -5.7077,-7.0998 q 0,-0.42924 -0.22042,-0.85847 -0.20882,-0.42924 -0.75406,-0.63806 -0.48724,-0.18561 -1.2181,-0.19721 -0.71926,-0.0232 -2.0302,-0.0232 h -0.41764 v 3.6543 h 0.69606 q 1.0557,0 1.7982,-0.0348 0.7425,-0.0348 1.1717,-0.23202 0.60325,-0.26682 0.78886,-0.68446 0.18562,-0.42923 0.18562,-0.98608 z m 1.0905,7.0302 q 0,-0.82367 -0.32483,-1.2645 -0.31322,-0.45244 -1.0789,-0.67286 -0.52204,-0.15081 -1.4385,-0.16241 -0.91647,-0.0116 -1.9142,-0.0116 h -0.97448 v 4.304 h 0.32483 q 1.8794,0 2.6914,-0.0116 0.81207,-0.0116 1.4965,-0.30162 0.69606,-0.29002 0.95128,-0.76566 0.26682,-0.48724 0.26682,-1.1137 z"
       id="path44"
       inkscape:connector-curvature="0" />
  </g>
  <rect
     x="874.78033"
     y="207.27003"
     width="31.429001"
     height="131.28999"
     ry="0.63383001"
     id="rect48"
     style="fill:#3465a4;stroke:#204a87;stroke-width:6.75540018;stroke-linecap:square" />
  <g
     transform="rotate(-90,-178.42483,-108.92515)"
     aria-label="MASTER"
     id="g62"
     style="fill:#ffffff;stroke-width:2.9698">
    <path
       d="m -594.31,968.36 h -4.4316 v -11.566 l -3.2019,7.5058 h -3.0743 l -3.2019,-7.5058 v 11.566 h -4.1995 v -17.274 h 5.174 l 3.8863,8.6659 3.8747,-8.6659 h 5.174 z"
       id="path50"
       inkscape:connector-curvature="0" />
    <path
       d="m -573.95,968.36 h -4.6056 l -1.1949,-3.4919 h -6.4037 l -1.1949,3.4919 h -4.4896 l 6.3805,-17.274 h 5.1276 z m -6.8794,-6.659 -2.123,-6.1949 -2.123,6.1949 z"
       id="path52"
       inkscape:connector-curvature="0" />
    <path
       d="m -557.61,962.93 q 0,2.5522 -2.1694,4.1532 -2.1578,1.5893 -5.8701,1.5893 -2.1462,0 -3.7471,-0.37123 -1.5893,-0.38283 -2.9814,-0.96288 v -4.1416 h 0.48724 q 1.3805,1.1021 3.0858,1.6937 1.717,0.59165 3.2947,0.59165 0.40603,0 1.0673,-0.0696 0.66125,-0.0696 1.0789,-0.23202 0.51044,-0.20882 0.83527,-0.52205 0.33642,-0.31322 0.33642,-0.92807 0,-0.56845 -0.48724,-0.97448 -0.47564,-0.41764 -1.4037,-0.63806 -0.97448,-0.23202 -2.065,-0.42923 -1.0789,-0.20882 -2.0302,-0.52205 -2.181,-0.70765 -3.1439,-1.9142 -0.95127,-1.2181 -0.95127,-3.0162 0,-2.413 2.1578,-3.9327 2.1694,-1.5313 5.5685,-1.5313 1.7053,0 3.3643,0.33643 1.6705,0.32482 2.8886,0.82367 v 3.9791 h -0.47564 q -1.0441,-0.83527 -2.5638,-1.3921 -1.5081,-0.56845 -3.0859,-0.56845 -0.55685,0 -1.1137,0.0812 -0.54525,0.0696 -1.0557,0.27842 -0.45244,0.17402 -0.77727,0.53365 -0.32482,0.34803 -0.32482,0.80046 0,0.68446 0.52204,1.0557 0.52204,0.35963 1.9722,0.66126 0.95128,0.19721 1.8214,0.38283 0.88167,0.18561 1.891,0.51044 1.9838,0.64966 2.9234,1.775 0.95128,1.1137 0.95128,2.9002 z"
       id="path54"
       inkscape:connector-curvature="0" />
    <path
       d="m -541.03,954.42 h -5.3944 v 13.933 h -4.4548 V 954.42 h -5.3944 v -3.3411 h 15.244 z"
       id="path56"
       inkscape:connector-curvature="0" />
    <path
       d="m -525.86,968.36 h -12.494 v -17.274 h 12.494 v 3.3411 h -8.0627 v 2.9814 h 7.4826 v 3.3411 h -7.4826 v 4.2692 h 8.0627 z"
       id="path58"
       inkscape:connector-curvature="0" />
    <path
       d="m -512.43,956.37 q 0,-0.64966 -0.26682,-1.1137 -0.26682,-0.46404 -0.91648,-0.73086 -0.45243,-0.18561 -1.0557,-0.22042 -0.60325,-0.0464 -1.4037,-0.0464 h -1.6125 v 4.652 h 1.3689 q 1.0673,0 1.7866,-0.10441 0.7193,-0.10441 1.2065,-0.47564 0.46404,-0.35963 0.67285,-0.78887 0.22042,-0.44083 0.22042,-1.1717 z m 6.949,11.984 h -5.4408 l -4.71,-6.3341 h -2.0534 v 6.3341 h -4.4316 V 951.08 h 7.471 q 1.5313,0 2.6334,0.17401 1.1021,0.17401 2.065,0.75406 0.97448,0.58005 1.5429,1.5081 0.58004,0.91647 0.58004,2.3086 0,1.9142 -0.89327,3.1207 -0.88167,1.2065 -2.529,2.007 z"
       id="path60"
       inkscape:connector-curvature="0" />
  </g>
  <rect
     x="633.72028"
     y="59.990025"
     width="31.429001"
     height="148.58"
     ry="0.71728998"
     id="rect64"
     style="fill:#cc0000;stroke:#a40000;stroke-width:7.18639994;stroke-linecap:square" />
  <path
     style="fill:#ffffff;stroke-width:2.9698"
     inkscape:connector-curvature="0"
     id="path66"
     d="m 645.98032,180.81003 q 1.1601,0 2.2738,0.40603 1.1021,0.40604 1.8562,1.1601 1.0209,1.0325 1.5429,2.3086 0.52204,1.2645 0.52204,3.1555 v 2.7726 h 5.6265 v 4.4548 h -17.274 v -7.3318 q 0,-1.6473 0.29003,-2.7726 0.27842,-1.1369 0.84687,-2.007 0.68445,-1.0441 1.7517,-1.5893 1.0673,-0.55684 2.5638,-0.55684 z m 0.10441,4.6056 q -0.73087,0 -1.2529,0.39443 -0.53364,0.39444 -0.74246,0.91648 -0.27842,0.69606 -0.30163,1.3573 -0.0348,0.66126 -0.0348,1.7634 v 0.76566 h 5.174 v -1.2761 q 0,-1.1369 -0.13921,-1.8678 -0.13921,-0.74246 -0.55685,-1.2413 -0.37123,-0.42924 -0.88167,-0.61485 -0.52204,-0.19722 -1.2645,-0.19722 z" />
  <path
     style="fill:#ffffff;stroke-width:2.9698"
     inkscape:connector-curvature="0"
     id="path68"
     d="m 645.82032,167.98003 q -0.64965,0 -1.1137,0.26682 -0.46404,0.26683 -0.73086,0.91648 -0.18562,0.45244 -0.22042,1.0557 -0.0464,0.60325 -0.0464,1.4037 v 1.6125 h 4.652 v -1.3689 q 0,-1.0673 -0.1044,-1.7865 -0.10441,-0.71926 -0.47564,-1.2065 -0.35963,-0.46404 -0.78887,-0.67286 -0.44084,-0.22042 -1.1717,-0.22042 z m 11.984,-6.949 v 5.4409 l -6.3341,4.71 v 2.0534 h 6.3341 v 4.4316 h -17.274 v -7.471 q 0,-1.5313 0.17402,-2.6334 0.17401,-1.1021 0.75406,-2.065 0.58005,-0.97448 1.5081,-1.5429 0.91647,-0.58005 2.3086,-0.58005 1.9142,0 3.1207,0.89327 1.2065,0.88168 2.007,2.529 z" />
  <path
     style="fill:#ffffff;stroke-width:2.9698"
     inkscape:connector-curvature="0"
     id="path70"
     d="m 657.80032,146.56003 v 12.494 h -17.274 v -12.494 h 3.3411 v 8.0627 h 2.9814 v -7.4826 h 3.3411 v 7.4826 h 4.2692 v -8.0627 z" />
  <path
     style="fill:#ffffff;stroke-width:2.9698"
     inkscape:connector-curvature="0"
     id="path72"
     d="m 640.53032,127.15003 17.274,6.2993 v 4.9884 l -17.274,6.2993 v -4.6752 l 12.135,-4.1764 -12.135,-4.1764 z" />
  <path
     style="fill:#ffffff;stroke-width:2.9698"
     inkscape:connector-curvature="0"
     id="path74"
     d="m 657.80032,115.33003 v 10.116 h -3.0626 v -2.8306 h -11.149 v 2.8306 h -3.0627 v -10.116 h 3.0627 v 2.8306 h 11.149 v -2.8306 z" />
  <path
     style="fill:#ffffff;stroke-width:2.9698"
     inkscape:connector-curvature="0"
     id="path76"
     d="m 657.80032,99.180026 v 12.494004 h -17.274 V 99.180026 h 3.3411 v 8.062704 h 2.9814 v -7.482604 h 3.3411 v 7.482604 h 4.2692 v -8.062704 z" />
  <path
     style="fill:#ffffff;stroke-width:2.9698"
     inkscape:connector-curvature="0"
     id="path78"
     d="m 640.53032,71.600026 17.274,4.652 v 4.9304 l -11.253,3.0975 11.253,3.0162 v 4.9304 l -17.274,4.652 v -4.652 l 11.891,-2.6566 -11.891,-3.1787 v -4.4432 l 11.891,-3.0278 -11.891,-2.7842 z" />
  <rect
     x="416.33029"
     y="32.500004"
     width="31.429001"
     height="84.064003"
     ry="0.40583"
     id="rect82"
     style="fill:#cc0000;stroke:#a40000;stroke-width:5.40549994;stroke-linecap:square" />
  <g
     transform="rotate(-90,-289.42483,-219.92515)"
     aria-label="LIVE"
     id="g92"
     style="fill:#ffffff;stroke-width:2.9698">
    <path
       d="m -599.96,509.91 h -12.459 v -17.274 h 4.4548 v 13.933 h 8.0047 z"
       id="path84"
       inkscape:connector-curvature="0" />
    <path
       d="m -587.95,509.91 h -10.116 v -3.0626 h 2.8306 v -11.149 h -2.8306 v -3.0626 h 10.116 v 3.0626 h -2.8306 v 11.149 h 2.8306 z"
       id="path86"
       inkscape:connector-curvature="0" />
    <path
       d="m -568.63,492.64 -6.2993,17.274 h -4.9884 l -6.2993,-17.274 h 4.6752 l 4.1764,12.135 4.1764,-12.135 z"
       id="path88"
       inkscape:connector-curvature="0" />
    <path
       d="m -553.66,509.91 h -12.494 v -17.274 h 12.494 v 3.3411 h -8.0627 v 2.9814 h 7.4826 v 3.3411 h -7.4826 v 4.2692 h 8.0627 z"
       id="path90"
       inkscape:connector-curvature="0" />
  </g>
  <rect
     style="opacity:1;fill:#73d216;fill-opacity:1;stroke:#4e9a06;stroke-width:3;stroke-linecap:round;stroke-linejoin:round;stroke-miterlimit:4;stroke-dasharray:none;stroke-dashoffset:0;stroke-opacity:1"
     id="rect1132"
     width="78.000633"
     height="297.00101"
     x="131.5"
     y="134.66969"
     ry="39.000317"
     rx="39.000317" />
  <rect
     rx="39.000317"
     ry="39.000317"
     y="134.66969"
     x="11.5"
     height="297.00101"
     width="78.000633"
     id="rect1007"
     style="opacity:1;fill:#888a85;fill-opacity:1;stroke:#000000;stroke-width:3;stroke-linecap:round;stroke-linejoin:round;stroke-miterlimit:4;stroke-dasharray:none;stroke-dashoffset:0;stroke-opacity:1" />
  <rect
     rx="39.000317"
     ry="39.000317"
     y="134.66969"
     x="251.5"
     height="297.00101"
     width="78.000633"
     id="rect1009"
     style="opacity:1;fill:#888a85;fill-opacity:1;stroke:#000000;stroke-width:3;stroke-linecap:round;stroke-linejoin:round;stroke-miterlimit:4;stroke-dasharray:none;stroke-dashoffset:0;stroke-opacity:1" />
  <rect
     rx="39.000317"
     ry="39.000317"
     y="134.66969"
     x="371.5"
     height="297.00101"
     width="78.000633"
     id="rect1011"
     style="opacity:1;fill:#73d216;fill-opacity:1;stroke:#4e9a06;stroke-width:3;stroke-linecap:round;stroke-linejoin:round;stroke-miterlimit:4;stroke-dasharray:none;stroke-dashoffset:0;stroke-opacity:1" />
  <rect
     style="opacity:1;fill:#888a85;fill-opacity:1;stroke:#000000;stroke-width:3;stroke-linecap:round;stroke-linejoin:round;stroke-miterlimit:4;stroke-dasharray:none;stroke-dashoffset:0;stroke-opacity:1"
     id="rect1132-3"
     width="78.000633"
     height="198.00063"
     x="491.5"
     y="233.67006"
     ry="40.278633"
     rx="39.000317" />
  <rect
     rx="39.000317"
     ry="40.278633"
     y="233.67006"
     x="611.5"
     height="198.00063"
     width="78.000633"
     id="rect1019"
     style="opacity:1;fill:#888a85;fill-opacity:1;stroke:#000000;stroke-width:3;stroke-linecap:round;stroke-linejoin:round;stroke-miterlimit:4;stroke-dasharray:none;stroke-dashoffset:0;stroke-opacity:1" />
</svg>
