<?xml version="1.0" encoding="UTF-8"?>
<svg version="1.1" viewBox="0 0 700 478.81" xmlns="http://www.w3.org/2000/svg">
  <g transform="translate(-70 -464.9)">
    <g fill="none" stroke="#000" stroke-width="6">
      <path d="m70 464.9"/>
      <path d="m70 464.9"/>
      <path d="m70 464.9"/>
      <path d="m147.12 709.64 65.757 65.757" opacity=".5"/>
      <path d="m278.36 802.52h43.289" opacity=".5"/>
      <path d="m387.12 775.4 65.757-65.757" opacity=".5"/>
      <path d="m158.36 682.52h283.29"/>
      <path d="m518.36 682.52h43.289"/>
      <path d="m638.36 682.52h43.289"/>
      <path d="m477.53 680.81 94.885-91.646"/>
      <path d="m627.12 589.64 65.757 65.757"/>
    </g>
    <g fill="#c00" stroke="#a40000" stroke-linecap="square">
      <circle cx="240" cy="802.52" r="38.356" opacity=".5" stroke-width="3.2887"/>
      <circle cx="360" cy="802.52" r="38.356" opacity=".5" stroke-width="3.2887"/>
      <rect transform="rotate(90)" x="860.95" y="-419.56" width="31.201" height="112.41" ry=".54267" opacity=".5" stroke-width="6.228"/>
    </g>
    <g>
      <g fill="#fff" stroke-width="2.9698" aria-label="FEATURE">
        <path d="m320.07 871.66v4.3479h5.7496v2.8035h-5.7496v6.5337h-3.9202v-16.465h10.81l-0.38014 2.7798z"/>
        <path d="m333.94 871.66v3.9677h5.7021v2.7085h-5.7021v4.2053h6.8663v2.8035h-10.763v-16.465h10.763l-0.4039 2.7798z"/>
        <path d="m351.58 881.79h-4.823l-0.85531 3.5638h-4.0865l5.0369-16.465h4.728l5.0369 16.465h-4.1816zm-4.2053-2.8035h3.5638l-1.7819-7.294z"/>
        <path d="m365.37 871.88v13.471h-3.8964v-13.471h-4.633v-2.9936h13.329l-0.38014 2.9936z"/>
        <path d="m383.83 879.84q0 1.7106-0.689 3.0649-0.68901 1.3305-2.067 2.0908-1.378 0.76028-3.3737 0.76028-2.9936 0-4.5617-1.5918t-1.5681-4.3241v-10.953h3.9202v9.5035q0 1.5918 0.16631 2.5422 0.16631 0.95035 0.64149 1.4493 0.49893 0.47518 1.4018 0.47518 0.90283 0 1.378-0.47518 0.49893-0.49893 0.66524-1.4493 0.16631-0.95036 0.16631-2.5422v-9.5035h3.9202z"/>
        <path d="m398.14 873.9q0 1.6631-0.90284 2.8035-0.87907 1.1167-2.3759 1.7106l4.3003 6.9376h-4.4191l-3.5638-6.2961h-1.0929v6.2961h-3.8964v-16.465h5.1794q3.3975 0 5.0844 1.2354 1.6869 1.2355 1.6869 3.7776zm-4.0152 0q0-1.1879-0.689-1.7344-0.66525-0.54646-2.067-0.54646h-1.283v4.7518h1.4493q1.283 0 1.9245-0.59397 0.66524-0.59397 0.66524-1.8769z"/>
        <path d="m405.17 871.66v3.9677h5.7021v2.7085h-5.7021v4.2053h6.8663v2.8035h-10.763v-16.465h10.763l-0.4039 2.7798z"/>
      </g>
      <g stroke-linecap="square">
        <g stroke-width="3.2887">
          <circle cx="120" cy="682.52" r="38.356" fill="#888a85" stroke="#000"/>
          <circle cx="480" cy="682.52" r="38.356" fill="#f57900" stroke="#ce5c00"/>
          <circle cx="600" cy="682.52" r="38.356" fill="#888a85" stroke="#000"/>
        </g>
        <rect x="463.45" y="746.16" width="31.201" height="183.57" ry=".88621" fill="#f57900" stroke="#ce5c00" stroke-width="7.9589"/>
      </g>
      <g transform="rotate(-90)" fill="#fff" stroke-width="2.9698" aria-label="MERGE COMMIT">
        <path d="m-909.45 487.85h-3.4213l-0.19007-7.0564q-0.0238-0.52269-0.0238-1.4255 0-1.1879 0.0713-2.3046 0.0713-1.1404 0.16631-2.3759l-1.8532 10.359h-2.9461l-2.0195-10.359q0.26134 2.7322 0.26134 4.9181l-0.0238 1.2592-0.1188 6.9851h-3.35l0.9266-16.465h4.0152l1.8294 10.644 1.7344-10.644h4.0152z"/>
        <path d="m-902.95 474.17v3.9677h5.7021v2.7085h-5.7021v4.2053h6.8663v2.8035h-10.763v-16.465h10.763l-0.4039 2.7798z"/>
        <path d="m-881.48 476.4q0 1.6631-0.90283 2.8035-0.87908 1.1167-2.3759 1.7106l4.3003 6.9376h-4.4191l-3.5638-6.2961h-1.0929v6.2961h-3.8964v-16.465h5.1794q3.3975 0 5.0844 1.2354 1.6869 1.2355 1.6869 3.7776zm-4.0152 0q0-1.1879-0.68901-1.7344-0.66524-0.54646-2.067-0.54646h-1.283v4.7518h1.4493q1.283 0 1.9245-0.59397 0.66525-0.59397 0.66525-1.8769z"/>
        <path d="m-872.82 488.26q-3.5163 0-5.3695-2.2096-1.8294-2.2333-1.8294-6.4624 0-2.7323 0.99787-4.6805t2.7323-2.9461q1.7582-0.99787 3.9202-0.99787 1.6869 0 2.9223 0.54645 1.2592 0.52269 2.3046 1.4968l-2.0433 2.1145q-0.78404-0.689-1.473-0.99787-0.66525-0.30886-1.5206-0.30886-1.7819 0-2.8035 1.4255-1.0216 1.4018-1.0216 4.3716 0 3.1837 0.76028 4.4904 0.76029 1.3067 2.4472 1.3067 1.1167 0 2.0432-0.49893v-3.7776h-2.067l-0.38014-2.7085h6.1298v8.173q-2.7085 1.6631-5.7496 1.6631z"/>
        <path d="m-860.21 474.17v3.9677h5.7021v2.7085h-5.7021v4.2053h6.8663v2.8035h-10.763v-16.465h10.763l-0.4039 2.7798z"/>
        <path d="m-829.32 470.96q1.7106 0 2.9461 0.45141 1.2355 0.45142 2.3284 1.3542l-1.9007 2.3046q-1.4968-1.2117-3.2787-1.2117-1.6869 0-2.7323 1.4255-1.0216 1.4255-1.0216 4.3003 0 2.8748 1.0216 4.2766 1.0216 1.378 2.8035 1.378 1.0929 0 1.8769-0.38014t1.6869-1.0929l1.7582 2.2571q-2.1858 2.2333-5.5358 2.2333-2.2571 0-3.9915-0.99787-1.7106-0.99787-2.6847-2.9461-0.97411-1.972-0.97411-4.728 0-2.6847 0.99787-4.633t2.756-2.9698q1.7582-1.0216 3.944-1.0216z"/>
        <path d="m-809.87 479.61q0 4.0152-1.7106 6.3436-1.6869 2.3046-4.8706 2.3046-3.2074 0-4.8943-2.2808-1.6869-2.3046-1.6869-6.3674 0-4.0152 1.6869-6.3198 1.7106-2.3284 4.8943-2.3284 3.2074 0 4.8943 2.3046 1.6869 2.2808 1.6869 6.3436zm-3.9915 0q0-3.0411-0.61773-4.4191-0.59397-1.378-1.972-1.378t-1.9957 1.378q-0.59396 1.378-0.59396 4.4191 0 3.0411 0.59396 4.4191 0.61773 1.378 1.9957 1.378 1.4018 0 1.9957-1.378 0.59397-1.378 0.59397-4.4191z"/>
        <path d="m-795.48 487.85h-3.4213l-0.19007-7.0564q-0.0238-0.52269-0.0238-1.4255 0-1.1879 0.0713-2.3046 0.0713-1.1404 0.16631-2.3759l-1.8532 10.359h-2.9461l-2.0195-10.359q0.26135 2.7322 0.26135 4.9181l-0.0238 1.2592-0.1188 6.9851h-3.35l0.92659-16.465h4.0152l1.8294 10.644 1.7344-10.644h4.0152z"/>
        <path d="m-781.23 487.85h-3.4213l-0.19007-7.0564q-0.0238-0.52269-0.0238-1.4255 0-1.1879 0.0713-2.3046 0.0713-1.1404 0.16631-2.3759l-1.8532 10.359h-2.9461l-2.0195-10.359q0.26134 2.7322 0.26134 4.9181l-0.0238 1.2592-0.11879 6.9851h-3.35l0.92659-16.465h4.0152l1.8294 10.644 1.7344-10.644h4.0152z"/>
        <path d="m-768.37 471.39v2.851h-3.3975v10.739h3.3975v2.8748h-10.691v-2.8748h3.3975v-10.739h-3.3975v-2.851z"/>
        <path d="m-757.54 474.38v13.471h-3.8964v-13.471h-4.633v-2.9936h13.329l-0.38014 2.9936z"/>
      </g>
      <g stroke-linecap="square">
        <circle cx="720" cy="682.52" r="38.356" fill="#f57900" stroke="#ce5c00" stroke-width="3.2887"/>
        <circle cx="600" cy="562.52" r="38.356" fill="#888a85" opacity=".5" stroke="#000" stroke-width="3.2887"/>
        <rect transform="rotate(90)" x="478.02" y="-657.65" width="31.201" height="112.41" ry=".54267" fill="#c00" opacity=".5" stroke="#a40000" stroke-width="6.228"/>
      </g>
      <g fill="#fff" stroke-width="2.9698" aria-label="FEATURE">
        <path d="m558.16 488.73v4.3478h5.7496v2.8035h-5.7496v6.5337h-3.9202v-16.465h10.81l-0.38014 2.7798z"/>
        <path d="m572.03 488.73v3.9677h5.7021v2.7085h-5.7021v4.2053h6.8663v2.8035h-10.763v-16.465h10.763l-0.4039 2.7798z"/>
        <path d="m589.67 498.85h-4.823l-0.85532 3.5638h-4.0865l5.0369-16.465h4.728l5.0369 16.465h-4.1816zm-4.2053-2.8035h3.5638l-1.7819-7.294z"/>
        <path d="m603.47 488.94v13.471h-3.8964v-13.471h-4.633v-2.9936h13.329l-0.38014 2.9936z"/>
        <path d="m621.92 496.9q0 1.7106-0.68901 3.0649-0.689 1.3305-2.067 2.0908t-3.3738 0.76028q-2.9936 0-4.5617-1.5918t-1.5681-4.3241v-10.953h3.9202v9.5035q0 1.5918 0.16631 2.5422t0.64148 1.4493q0.49894 0.47518 1.4018 0.47518t1.378-0.47518q0.49893-0.49893 0.66525-1.4493 0.16631-0.95035 0.16631-2.5422v-9.5035h3.9202z"/>
        <path d="m636.24 490.96q0 1.6631-0.90283 2.8035-0.87908 1.1167-2.3759 1.7106l4.3003 6.9376h-4.4191l-3.5638-6.2961h-1.0929v6.2961h-3.8964v-16.465h5.1794q3.3975 0 5.0844 1.2354 1.6869 1.2355 1.6869 3.7776zm-4.0152 0q0-1.1879-0.68901-1.7344-0.66524-0.54645-2.067-0.54645h-1.283v4.7518h1.4493q1.283 0 1.9245-0.59397 0.66525-0.59397 0.66525-1.8769z"/>
        <path d="m643.26 488.73v3.9677h5.7021v2.7085h-5.7021v4.2053h6.8663v2.8035h-10.763v-16.465h10.763l-0.4039 2.7798z"/>
      </g>
      <rect x="704.35" y="746.16" width="31.201" height="183.57" ry=".88621" fill="#f57900" stroke="#ce5c00" stroke-linecap="square" stroke-width="7.9589"/>
      <g transform="rotate(-90)" fill="#fff" stroke-width="2.9698" aria-label="MERGE COMMIT">
        <path d="m-909.45 728.75h-3.4213l-0.19007-7.0564q-0.0238-0.5227-0.0238-1.4255 0-1.1879 0.0713-2.3046 0.0713-1.1404 0.16631-2.3759l-1.8532 10.359h-2.9461l-2.0195-10.359q0.26134 2.7323 0.26134 4.9181l-0.0238 1.2592-0.1188 6.9851h-3.35l0.9266-16.465h4.0152l1.8294 10.644 1.7344-10.644h4.0152z"/>
        <path d="m-902.95 715.07v3.9677h5.7021v2.7085h-5.7021v4.2053h6.8663v2.8035h-10.763v-16.465h10.763l-0.4039 2.7798z"/>
        <path d="m-881.48 717.3q0 1.6631-0.90283 2.8035-0.87908 1.1167-2.3759 1.7106l4.3003 6.9376h-4.4191l-3.5638-6.2961h-1.0929v6.2961h-3.8964v-16.465h5.1794q3.3975 0 5.0844 1.2355 1.6869 1.2354 1.6869 3.7776zm-4.0152 0q0-1.1879-0.68901-1.7344-0.66524-0.54645-2.067-0.54645h-1.283v4.7518h1.4493q1.283 0 1.9245-0.59397 0.66525-0.59397 0.66525-1.877z"/>
        <path d="m-872.82 729.16q-3.5163 0-5.3695-2.2096-1.8294-2.2333-1.8294-6.4624 0-2.7323 0.99787-4.6805t2.7323-2.9461q1.7582-0.99787 3.9202-0.99787 1.6869 0 2.9223 0.54646 1.2592 0.52269 2.3046 1.4968l-2.0433 2.1145q-0.78404-0.68901-1.473-0.99787-0.66525-0.30886-1.5206-0.30886-1.7819 0-2.8035 1.4255-1.0216 1.4018-1.0216 4.3716 0 3.1837 0.76028 4.4904 0.76029 1.3067 2.4472 1.3067 1.1167 0 2.0432-0.49894v-3.7776h-2.067l-0.38014-2.7085h6.1298v8.173q-2.7085 1.6631-5.7496 1.6631z"/>
        <path d="m-860.21 715.07v3.9677h5.7021v2.7085h-5.7021v4.2053h6.8663v2.8035h-10.763v-16.465h10.763l-0.4039 2.7798z"/>
        <path d="m-829.32 711.86q1.7106 0 2.9461 0.45142 1.2355 0.45142 2.3284 1.3542l-1.9007 2.3046q-1.4968-1.2117-3.2787-1.2117-1.6869 0-2.7323 1.4255-1.0216 1.4255-1.0216 4.3003t1.0216 4.2766q1.0216 1.378 2.8035 1.378 1.0929 0 1.8769-0.38014t1.6869-1.0929l1.7582 2.2571q-2.1858 2.2333-5.5358 2.2333-2.2571 0-3.9915-0.99787-1.7106-0.99787-2.6847-2.9461-0.97411-1.972-0.97411-4.728 0-2.6847 0.99787-4.633t2.756-2.9698 3.944-1.0216z"/>
        <path d="m-809.87 720.51q0 4.0152-1.7106 6.3436-1.6869 2.3046-4.8706 2.3046-3.2074 0-4.8943-2.2808-1.6869-2.3046-1.6869-6.3674 0-4.0152 1.6869-6.3198 1.7106-2.3284 4.8943-2.3284 3.2074 0 4.8943 2.3046 1.6869 2.2808 1.6869 6.3436zm-3.9915 0q0-3.0411-0.61773-4.4191-0.59397-1.378-1.972-1.378t-1.9957 1.378q-0.59396 1.378-0.59396 4.4191 0 3.0411 0.59396 4.4191 0.61773 1.378 1.9957 1.378 1.4018 0 1.9957-1.378t0.59397-4.4191z"/>
        <path d="m-795.48 728.75h-3.4213l-0.19007-7.0564q-0.0238-0.5227-0.0238-1.4255 0-1.1879 0.0713-2.3046 0.0713-1.1404 0.16631-2.3759l-1.8532 10.359h-2.9461l-2.0195-10.359q0.26135 2.7323 0.26135 4.9181l-0.0238 1.2592-0.1188 6.9851h-3.35l0.92659-16.465h4.0152l1.8294 10.644 1.7344-10.644h4.0152z"/>
        <path d="m-781.23 728.75h-3.4213l-0.19007-7.0564q-0.0238-0.5227-0.0238-1.4255 0-1.1879 0.0713-2.3046 0.0713-1.1404 0.16631-2.3759l-1.8532 10.359h-2.9461l-2.0195-10.359q0.26134 2.7323 0.26134 4.9181l-0.0238 1.2592-0.11879 6.9851h-3.35l0.92659-16.465h4.0152l1.8294 10.644 1.7344-10.644h4.0152z"/>
        <path d="m-768.37 712.29v2.851h-3.3975v10.739h3.3975v2.8748h-10.691v-2.8748h3.3975v-10.739h-3.3975v-2.851z"/>
        <path d="m-757.54 715.28v13.471h-3.8964v-13.471h-4.633v-2.9936h13.329l-0.38014 2.9936z"/>
      </g>
    </g>
  </g>
</svg>
