<?xml version="1.0" encoding="UTF-8" standalone="no"?>
<svg
   xmlns:dc="http://purl.org/dc/elements/1.1/"
   xmlns:cc="http://creativecommons.org/ns#"
   xmlns:rdf="http://www.w3.org/1999/02/22-rdf-syntax-ns#"
   xmlns:svg="http://www.w3.org/2000/svg"
   xmlns="http://www.w3.org/2000/svg"
   xmlns:sodipodi="http://sodipodi.sourceforge.net/DTD/sodipodi-0.dtd"
   xmlns:inkscape="http://www.inkscape.org/namespaces/inkscape"
   version="1.1"
   viewBox="0 0 826.95264 429.23727"
   id="svg130"
   sodipodi:docname="release-branches.svg"
   width="826.95264"
   height="429.23727"
   inkscape:version="1.0.2-2 (e86c870879, 2021-01-15)">
  <metadata
     id="metadata136">
    <rdf:RDF>
      <cc:Work
         rdf:about="">
        <dc:format>image/svg+xml</dc:format>
        <dc:type
           rdf:resource="http://purl.org/dc/dcmitype/StillImage" />
        <dc:title></dc:title>
      </cc:Work>
    </rdf:RDF>
  </metadata>
  <defs
     id="defs134" />
  <sodipodi:namedview
     pagecolor="#ffffff"
     bordercolor="#666666"
     borderopacity="1"
     objecttolerance="10"
     gridtolerance="10"
     guidetolerance="10"
     inkscape:pageopacity="0"
     inkscape:pageshadow="2"
     inkscape:window-width="2560"
     inkscape:window-height="2054"
     id="namedview132"
     showgrid="false"
     fit-margin-top="0"
     fit-margin-left="0"
     fit-margin-right="0"
     fit-margin-bottom="0"
     inkscape:zoom="1.5107603"
     inkscape:cx="347.41674"
     inkscape:cy="195.99115"
     inkscape:window-x="2549"
     inkscape:window-y="-11"
     inkscape:window-maximized="1"
     inkscape:current-layer="svg130" />
  <path
     d="m 382.32888,272.22122 234.82113,3.5699"
     fill="none"
     stroke="#000000"
     stroke-width="5.9988"
     id="path4-0" />
  <path
     d="M 0.01673501,151.50615 639.83674,155.07605"
     fill="none"
     stroke="#000000"
     stroke-width="5.9988"
     id="path4" />
  <circle
     cx="78.406731"
     cy="154.00616"
     r="38.355999"
     fill="#888a85"
     stroke="#000000"
     id="circle6"
     style="stroke-width:3.2887;stroke-linecap:square" />
  <circle
     cx="198.40674"
     cy="154.00616"
     r="38.355999"
     fill="#73d216"
     stroke="#4e9a06"
     id="circle8"
     style="stroke-width:3.2887;stroke-linecap:square" />
  <circle
     cx="318.40674"
     cy="154.00616"
     r="38.355999"
     fill="#888a85"
     stroke="#000000"
     id="circle10"
     style="stroke-width:3.2887;stroke-linecap:square" />
  <circle
     cx="438.40674"
     cy="154.00616"
     r="38.355999"
     fill="#73d216"
     stroke="#4e9a06"
     id="circle12"
     style="stroke-width:3.2887;stroke-linecap:square" />
  <circle
     cx="558.40674"
     cy="154.00616"
     r="38.355999"
     fill="#73d216"
     stroke="#4e9a06"
     id="circle14"
     style="stroke-width:3.2887;stroke-linecap:square" />
  <circle
     cx="678.40674"
     cy="154.00616"
     r="38.355999"
     fill="#888a85"
     stroke="#000000"
     id="circle16"
     style="stroke-width:3.2887;stroke-linecap:square" />
  <rect
     x="184.11673"
     y="2.8661499"
     width="31.429001"
     height="94.535004"
     ry="0.45638001"
     fill="#73d216"
     stroke="#4e9a06"
     stroke-width="5.7323"
     id="rect20"
     style="stroke-linecap:square" />
  <g
     transform="rotate(-90,-405.05356,-123.46029)"
     fill="#ffffff"
     stroke-width="2.9698"
     aria-label="4.2.0"
     id="g34">
    <path
       d="m -601.48,483.52 v 2.8035 h -1.6394 v 3.4688 h -3.5876 l -0.0238,-3.4688 h -6.8188 v -2.4709 l 4.5617,-10.953 3.1837,1.1879 -3.8727,9.4322 h 2.9698 l 0.4039,-3.9677 h 3.1837 v 3.9677 z"
       id="path24" />
    <path
       d="m -595.88,487.54 q 0,-1.0691 0.76028,-1.8532 0.78404,-0.78404 1.8769,-0.78404 1.09286,0 1.8532,0.78404 0.78404,0.78404 0.78404,1.8532 0,1.0929 -0.78404,1.877 -0.76028,0.78404 -1.8532,0.78404 -1.09292,0 -1.8769,-0.78404 -0.76028,-0.78404 -0.76028,-1.877 z"
       id="path26" />
    <path
       d="m -579.57,472.9 q 1.8057,0 3.0886,0.64148 1.283,0.64149 1.9245,1.7344 0.66524,1.0692 0.66524,2.3521 0,1.3542 -0.61773,2.6135 -0.61772,1.2592 -2.0432,2.8273 -1.4018,1.5443 -3.9915,3.8489 h 7.0326 l -0.4039,2.8748 h -10.929 v -2.661 q 2.9223,-2.8273 4.3716,-4.3954 1.4493,-1.5918 2.0908,-2.6847 0.66525,-1.1167 0.66525,-2.0908 0,-1.0216 -0.57021,-1.5918 -0.57021,-0.5702 -1.6394,-0.57021 -0.92659,0 -1.6156,0.4039 -0.68901,0.38014 -1.3542,1.2592 l -2.2808,-1.7344 q 0.97411,-1.3542 2.3284,-2.0908 1.378,-0.73652 3.2787,-0.73652 z"
       id="path28" />
    <path
       d="m -567.39,487.54 q 0,-1.0691 0.76029,-1.8532 0.78403,-0.78404 1.8769,-0.78404 1.0929,0 1.8532,0.78404 0.78404,0.78404 0.78404,1.8532 0,1.0929 -0.78404,1.877 -0.76028,0.78404 -1.8532,0.78404 -1.0929,0 -1.8769,-0.78404 -0.76029,-0.78404 -0.76029,-1.877 z"
       id="path30" />
    <path
       d="m -550.51,472.9 q 2.9223,0 4.4191,2.2571 1.5206,2.2571 1.5206,6.3674 0,4.134 -1.5206,6.4149 -1.4968,2.2571 -4.4191,2.2571 -2.9223,0 -4.4429,-2.2571 -1.4968,-2.2808 -1.4968,-6.4149 0,-4.1103 1.4968,-6.3674 1.5206,-2.2571 4.4429,-2.2571 z m 0,2.7323 q -1.2592,0 -1.8532,1.378 -0.57021,1.3542 -0.57021,4.5142 0,2.067 0.14255,3.3262 l 4.0152,-8.4106 q -0.28511,-0.45141 -0.68901,-0.61772 -0.4039,-0.19007 -1.0454,-0.19007 z m 0,11.856 q 1.2592,0 1.8294,-1.3542 0.5702,-1.3542 0.57021,-4.6092 0,-1.3067 -0.0713,-2.3046 l -3.7776,7.8166 q 0.47518,0.45141 1.4493,0.45141 z"
       id="path32" />
  </g>
  <rect
     x="421.34674"
     y="2.8661499"
     width="31.429001"
     height="94.535004"
     ry="0.45638001"
     fill="#73d216"
     stroke="#4e9a06"
     stroke-linecap="square"
     stroke-width="5.7323"
     id="rect52" />
  <g
     transform="rotate(-90,-405.05356,-123.46029)"
     fill="#ffffff"
     stroke-width="2.9698"
     aria-label="4.3.0"
     id="g64">
    <path
       d="m -601.48,720.75 v 2.8035 h -1.6394 v 3.4688 h -3.5876 l -0.0238,-3.4688 h -6.8188 v -2.4709 l 4.5617,-10.953 3.1837,1.1879 -3.8727,9.4322 h 2.9698 l 0.4039,-3.9677 h 3.1837 v 3.9677 z"
       id="path54" />
    <path
       d="m -595.88,724.77 q 0,-1.0691 0.76028,-1.8532 0.78404,-0.78404 1.8769,-0.78404 1.09286,0 1.8532,0.78404 0.78404,0.78404 0.78404,1.8532 0,1.0929 -0.78404,1.8769 -0.76028,0.78404 -1.8532,0.78404 -1.09292,0 -1.8769,-0.78404 -0.76028,-0.78404 -0.76028,-1.8769 z"
       id="path56" />
    <path
       d="m -579.66,710.13 q 1.7106,0 2.9698,0.57022 1.283,0.57021 1.9482,1.5443 0.689,0.95035 0.689,2.1145 0,1.5206 -0.90283,2.4947 -0.87908,0.97411 -2.4709,1.4493 3.8964,0.5227 3.8964,4.0865 0,1.4018 -0.78404,2.566 -0.76028,1.1404 -2.2096,1.8057 -1.4493,0.66524 -3.3738,0.66524 -1.8057,0 -3.2787,-0.64148 -1.473,-0.64149 -2.5184,-1.8294 l 2.1145,-1.972 q 1.3542,1.5681 3.4213,1.5681 1.2592,0 2.0195,-0.64149 0.76028,-0.64148 0.76028,-1.7819 0,-2.4709 -2.7798,-2.4709 h -1.4968 l 0.42766,-2.5659 h 1.0454 q 1.1404,0 1.8057,-0.54646 0.68901,-0.57021 0.68901,-1.6156 0,-0.9266 -0.66525,-1.4493 -0.66524,-0.54645 -1.7344,-0.54645 -1.7819,0 -3.2787,1.4255 l -1.9245,-1.9957 q 2.3046,-2.2333 5.6308,-2.2333 z"
       id="path58" />
    <path
       d="m -567.39,724.77 q 0,-1.0691 0.76029,-1.8532 0.78403,-0.78404 1.8769,-0.78404 1.0929,0 1.8532,0.78404 0.78404,0.78404 0.78404,1.8532 0,1.0929 -0.78404,1.8769 -0.76028,0.78404 -1.8532,0.78404 -1.0929,0 -1.8769,-0.78404 -0.76029,-0.78404 -0.76029,-1.8769 z"
       id="path60" />
    <path
       d="m -550.51,710.13 q 2.9223,0 4.4191,2.2571 1.5206,2.2571 1.5206,6.3674 0,4.134 -1.5206,6.4149 -1.4968,2.2571 -4.4191,2.2571 -2.9223,0 -4.4429,-2.2571 -1.4968,-2.2808 -1.4968,-6.4149 0,-4.1103 1.4968,-6.3674 1.5206,-2.2571 4.4429,-2.2571 z m 0,2.7323 q -1.2592,0 -1.8532,1.378 -0.57021,1.3542 -0.57021,4.5142 0,2.067 0.14255,3.3262 l 4.0152,-8.4106 q -0.28511,-0.45141 -0.68901,-0.61773 -0.4039,-0.19007 -1.0454,-0.19007 z m 0,11.856 q 1.2592,0 1.8294,-1.3542 0.5702,-1.3542 0.57021,-4.6092 0,-1.3067 -0.0713,-2.3046 l -3.7776,7.8166 q 0.47518,0.45141 1.4493,0.45141 z"
       id="path62" />
  </g>
  <rect
     x="542.44672"
     y="2.8661499"
     width="31.429001"
     height="94.535004"
     ry="0.45638001"
     fill="#73d216"
     stroke="#4e9a06"
     stroke-linecap="square"
     stroke-width="5.7323"
     id="rect66" />
  <g
     transform="rotate(-90,-405.05356,-123.46029)"
     fill="#ffffff"
     stroke-width="2.9698"
     aria-label="4.3.1"
     id="g78">
    <path
       d="m -601.48,841.85 v 2.8035 h -1.6394 v 3.4688 h -3.5876 l -0.0238,-3.4688 h -6.8188 v -2.4709 l 4.5617,-10.953 3.1837,1.1879 -3.8727,9.4322 h 2.9698 l 0.4039,-3.9677 h 3.1837 v 3.9677 z"
       id="path68" />
    <path
       d="m -595.88,845.86 q 0,-1.0692 0.76028,-1.8532 0.78404,-0.78404 1.8769,-0.78404 1.09286,0 1.8532,0.78404 0.78404,0.78404 0.78404,1.8532 0,1.0929 -0.78404,1.8769 -0.76028,0.78404 -1.8532,0.78404 -1.09292,0 -1.8769,-0.78404 -0.76028,-0.78404 -0.76028,-1.8769 z"
       id="path70" />
    <path
       d="m -579.66,831.23 q 1.7106,0 2.9698,0.57021 1.283,0.57021 1.9482,1.5443 0.689,0.95035 0.689,2.1145 0,1.5206 -0.90283,2.4947 -0.87908,0.97411 -2.4709,1.4493 3.8964,0.52269 3.8964,4.0865 0,1.4018 -0.78404,2.566 -0.76028,1.1404 -2.2096,1.8057 -1.4493,0.66525 -3.3738,0.66525 -1.8057,0 -3.2787,-0.64149 -1.473,-0.64148 -2.5184,-1.8294 l 2.1145,-1.972 q 1.3542,1.5681 3.4213,1.5681 1.2592,0 2.0195,-0.64149 0.7603,-0.64149 0.76028,-1.7819 0,-2.4709 -2.7798,-2.4709 h -1.4968 l 0.42766,-2.566 h 1.0454 q 1.1404,0 1.8057,-0.54645 0.68901,-0.57021 0.68901,-1.6156 0,-0.92659 -0.66525,-1.4493 -0.66524,-0.54645 -1.7344,-0.54645 -1.7819,0 -3.2787,1.4255 l -1.9245,-1.9957 q 2.3046,-2.2333 5.6308,-2.2333 z"
       id="path72" />
    <path
       d="m -567.39,845.86 q 0,-1.0692 0.76029,-1.8532 0.78403,-0.78404 1.8769,-0.78404 1.0929,0 1.8532,0.78404 0.78404,0.78404 0.78404,1.8532 0,1.0929 -0.78404,1.8769 -0.76028,0.78404 -1.8532,0.78404 -1.0929,0 -1.8769,-0.78404 -0.76029,-0.78404 -0.76029,-1.8769 z"
       id="path74" />
    <path
       d="m -547.61,845.27 h 3.0649 v 2.851 h -10.691 v -2.851 h 3.9677 v -9.9312 l -3.3975,2.1383 -1.5918,-2.5897 5.322,-3.2312 h 3.3262 z"
       id="path76" />
  </g>
  <circle
     cx="386.14673"
     cy="274.00616"
     r="38.355999"
     fill="#73d216"
     stroke="#4e9a06"
     stroke-linecap="square"
     stroke-width="3.2887"
     id="circle80" />
  <rect
     x="370.19672"
     y="331.83612"
     width="31.429001"
     height="94.535004"
     ry="0.45638001"
     fill="#73d216"
     stroke="#4e9a06"
     stroke-linecap="square"
     stroke-width="5.7323"
     id="rect82" />
  <g
     transform="rotate(-90,-405.05356,-123.46029)"
     fill="#ffffff"
     stroke-width="2.9698"
     aria-label="4.2.1"
     id="g94">
    <path
       d="m -930.45,669.59 v 2.8035 h -1.6394 v 3.4688 h -3.5876 l -0.0238,-3.4688 h -6.8188 v -2.4709 l 4.5617,-10.953 3.1837,1.1879 -3.8727,9.4322 h 2.9698 l 0.40389,-3.9677 h 3.1837 v 3.9677 z"
       id="path84" />
    <path
       d="m -924.85,673.61 q 0,-1.0692 0.76028,-1.8532 0.78404,-0.78404 1.8769,-0.78404 1.09286,0 1.8532,0.78404 0.78403,0.78404 0.78403,1.8532 0,1.0929 -0.78403,1.8769 -0.76029,0.78404 -1.8532,0.78404 -1.09291,0 -1.8769,-0.78404 -0.76028,-0.78404 -0.76028,-1.8769 z"
       id="path86" />
    <path
       d="m -908.54,658.97 q 1.8057,0 3.0886,0.64149 1.283,0.64148 1.9245,1.7344 0.66524,1.0691 0.66524,2.3521 0,1.3542 -0.61773,2.6135 -0.61772,1.2592 -2.0432,2.8273 -1.4018,1.5443 -3.9915,3.8489 h 7.0326 l -0.4039,2.8748 h -10.929 v -2.661 q 2.9223,-2.8273 4.3716,-4.3954 1.4493,-1.5918 2.0908,-2.6847 0.66525,-1.1167 0.66525,-2.0908 0,-1.0216 -0.57021,-1.5918 -0.57021,-0.5702 -1.6394,-0.57021 -0.92659,0 -1.6156,0.4039 -0.68901,0.38014 -1.3542,1.2592 l -2.2808,-1.7344 q 0.97411,-1.3542 2.3284,-2.0908 1.378,-0.73652 3.2787,-0.73652 z"
       id="path88" />
    <path
       d="m -896.36,673.61 q 0,-1.0692 0.76029,-1.8532 0.78404,-0.78404 1.8769,-0.78404 1.09286,0 1.8532,0.78404 0.78404,0.78404 0.78404,1.8532 0,1.0929 -0.78404,1.8769 -0.76028,0.78404 -1.8532,0.78404 -1.09292,0 -1.8769,-0.78404 -0.76029,-0.78404 -0.76029,-1.8769 z"
       id="path90" />
    <path
       d="m -876.58,673.01 h 3.0649 v 2.851 h -10.691 v -2.851 h 3.9677 v -9.9312 l -3.3975,2.1383 -1.5918,-2.5897 5.322,-3.2312 h 3.3262 z"
       id="path92" />
  </g>
  <path
     d="m 221.20674,186.95615 c 28.81,51.78 71.931,88.503 125.2,88.503"
     fill="none"
     stroke="#000000"
     stroke-width="6"
     id="path98" />
  <circle
     cx="613.3775"
     cy="274.00616"
     r="38.355999"
     fill="#73d216"
     stroke="#4e9a06"
     stroke-linecap="square"
     stroke-width="3.2887"
     id="circle100" />
  <rect
     x="597.66302"
     y="331.83612"
     width="31.429001"
     height="94.535004"
     ry="0.45638001"
     fill="#73d216"
     stroke="#4e9a06"
     stroke-linecap="square"
     stroke-width="5.7323"
     id="rect102" />
  <g
     transform="rotate(-90,-342.96832,-185.54553)"
     fill="#ffffff"
     stroke-width="2.9698"
     aria-label="4.2.2"
     id="g114">
    <path
       d="m -930.45,772.77 v 2.8035 h -1.6394 v 3.4688 h -3.5876 l -0.0238,-3.4688 h -6.8188 v -2.4709 l 4.5617,-10.953 3.1837,1.1879 -3.8727,9.4322 h 2.9698 l 0.40389,-3.9677 h 3.1837 v 3.9677 z"
       id="path104" />
    <path
       d="m -924.85,776.79 q 0,-1.0692 0.76028,-1.8532 0.78404,-0.78403 1.8769,-0.78403 1.09286,0 1.8532,0.78403 0.78403,0.78404 0.78403,1.8532 0,1.0929 -0.78403,1.8769 -0.76029,0.78404 -1.8532,0.78404 -1.09291,0 -1.8769,-0.78404 -0.76028,-0.78404 -0.76028,-1.8769 z"
       id="path106" />
    <path
       d="m -908.54,762.15 q 1.8057,0 3.0886,0.64149 1.283,0.64149 1.9245,1.7344 0.66524,1.0692 0.66524,2.3521 0,1.3542 -0.61773,2.6135 -0.61772,1.2592 -2.0432,2.8273 -1.4018,1.5443 -3.9915,3.8489 h 7.0326 l -0.4039,2.8748 h -10.929 v -2.661 q 2.9223,-2.8273 4.3716,-4.3954 1.4493,-1.5918 2.0908,-2.6848 0.66525,-1.1167 0.66525,-2.0908 0,-1.0216 -0.57021,-1.5918 -0.57021,-0.57021 -1.6394,-0.57021 -0.92659,0 -1.6156,0.4039 -0.68901,0.38014 -1.3542,1.2592 l -2.2808,-1.7344 q 0.97411,-1.3542 2.3284,-2.0908 1.378,-0.73653 3.2787,-0.73653 z"
       id="path108" />
    <path
       d="m -896.36,776.79 q 0,-1.0692 0.76029,-1.8532 0.78404,-0.78403 1.8769,-0.78403 1.09286,0 1.8532,0.78403 0.78404,0.78404 0.78404,1.8532 0,1.0929 -0.78404,1.8769 -0.76028,0.78404 -1.8532,0.78404 -1.09292,0 -1.8769,-0.78404 -0.76029,-0.78404 -0.76029,-1.8769 z"
       id="path110" />
    <path
       d="m -880.05,762.15 q 1.8057,0 3.0886,0.64149 1.283,0.64149 1.9245,1.7344 0.66524,1.0692 0.66524,2.3521 0,1.3542 -0.61773,2.6135 -0.61772,1.2592 -2.0432,2.8273 -1.4018,1.5443 -3.9915,3.8489 h 7.0326 l -0.4039,2.8748 h -10.929 v -2.661 q 2.9223,-2.8273 4.3716,-4.3954 1.4493,-1.5918 2.0908,-2.6848 0.66525,-1.1167 0.66525,-2.0908 0,-1.0216 -0.57021,-1.5918 -0.57021,-0.57021 -1.6394,-0.57021 -0.92659,0 -1.6156,0.4039 -0.68901,0.38014 -1.3542,1.2592 l -2.2808,-1.7344 q 0.97411,-1.3542 2.3284,-2.0908 1.378,-0.73653 3.2787,-0.73653 z"
       id="path112" />
  </g>
  <rect
     x="257.83667"
     y="-746.35876"
     width="32.339001"
     height="65.010002"
     ry="0.31384"
     fill="#3465a4"
     stroke="#204a87"
     stroke-linecap="square"
     stroke-width="4.8219"
     id="rect116"
     transform="rotate(90)"
     style="fill:#75507b;stroke:#5c3566" />
  <g
     transform="translate(1606.2588,-539.41332)"
     fill="#ffffff"
     stroke-width="2.9698"
     aria-label="4.2"
     id="g124">
    <path
       d="m -900.23,815.51 v 2.8035 h -1.6394 v 3.4688 h -3.5876 l -0.0237,-3.4688 h -6.8188 v -2.4709 l 4.5617,-10.953 3.1837,1.1879 -3.8727,9.4322 h 2.9698 l 0.4039,-3.9677 h 3.1837 v 3.9677 z"
       id="path118" />
    <path
       d="m -894.63,819.53 q 0,-1.0692 0.76028,-1.8532 0.78404,-0.78404 1.8769,-0.78404 1.09286,0 1.8532,0.78404 0.78404,0.78404 0.78404,1.8532 0,1.0929 -0.78404,1.8769 -0.76028,0.78404 -1.8532,0.78404 -1.09292,0 -1.8769,-0.78404 -0.76028,-0.78404 -0.76028,-1.8769 z"
       id="path120" />
    <path
       d="m -878.32,804.89 q 1.8057,0 3.0886,0.64149 1.283,0.64148 1.9245,1.7344 0.66524,1.0691 0.66524,2.3521 0,1.3542 -0.61773,2.6135 -0.61772,1.2592 -2.0432,2.8273 -1.4018,1.5443 -3.9915,3.8489 h 7.0326 l -0.4039,2.8748 h -10.929 v -2.661 q 2.9223,-2.8273 4.3716,-4.3954 1.4493,-1.5918 2.0908,-2.6847 0.66525,-1.1167 0.66525,-2.0908 0,-1.0216 -0.57021,-1.5918 -0.57021,-0.5702 -1.6394,-0.57021 -0.92659,0 -1.6156,0.4039 -0.68901,0.38014 -1.3542,1.2592 l -2.2808,-1.7344 q 0.97411,-1.3542 2.3284,-2.0908 1.378,-0.73652 3.2787,-0.73652 z"
       id="path122" />
  </g>
  <g
     id="g1333"
     transform="translate(261.79179,-153.51288)">
    <g
       id="g1019-5-0"
       transform="translate(-356.55857,116.7485)">
      <rect
         x="175.05605"
         y="-918.34174"
         width="31.429001"
         height="81.258858"
         ry="0.3922942"
         id="rect52-9-2"
         style="fill:#3465a4;stroke:#204a87;stroke-width:6.7554;stroke-linecap:square"
         transform="rotate(90)" />
      <g
         transform="translate(1451.1042,-660.96201)"
         aria-label="MASTER"
         id="g66-5-9-0"
         style="fill:#ffffff;stroke-width:2.9698">
        <g
           aria-label="MAIN"
           id="text981-7-1"
           style="font-style:normal;font-weight:normal;font-size:26.6667px;line-height:1.25;font-family:sans-serif;fill:#ffffff;fill-opacity:1;stroke:none;stroke-width:2.96981">
          <path
             d="m -583.3637,859.68829 q 0,0.13021 -0.0781,0.23438 -0.0651,0.10416 -0.26041,0.16927 -0.1823,0.0651 -0.4948,0.10417 -0.3125,0.0391 -0.79427,0.0391 -0.46875,0 -0.78125,-0.0391 -0.3125,-0.0391 -0.49479,-0.10417 -0.18229,-0.0651 -0.26042,-0.16927 -0.0781,-0.10417 -0.0781,-0.23438 v -13.71095 h -0.026 l -4.88281,13.69793 q -0.0521,0.16927 -0.16927,0.28646 -0.11719,0.10417 -0.32553,0.16927 -0.19531,0.0651 -0.50781,0.0781 -0.3125,0.026 -0.75521,0.026 -0.44271,0 -0.75521,-0.0391 -0.3125,-0.026 -0.52083,-0.0911 -0.19531,-0.0781 -0.3125,-0.18229 -0.11719,-0.10417 -0.15625,-0.2474 l -4.71355,-13.69793 h -0.026 v 13.71095 q 0,0.13021 -0.0781,0.23438 -0.0651,0.10416 -0.26041,0.16927 -0.19532,0.0651 -0.50782,0.10417 -0.29948,0.0391 -0.78125,0.0391 -0.46875,0 -0.78125,-0.0391 -0.3125,-0.0391 -0.50781,-0.10417 -0.18229,-0.0651 -0.26042,-0.16927 -0.0651,-0.10417 -0.0651,-0.23438 v -15.01304 q 0,-0.66406 0.35156,-1.01562 0.35156,-0.35157 0.9375,-0.35157 h 2.23959 q 0.59896,0 1.02864,0.10417 0.42969,0.0911 0.74219,0.32552 0.3125,0.22136 0.52084,0.59896 0.20833,0.36458 0.36458,0.91146 l 3.64584,10.03908 h 0.0521 l 3.77605,-10.01304 q 0.16927,-0.54687 0.36458,-0.92448 0.20834,-0.3776 0.46875,-0.61198 0.27344,-0.23437 0.63802,-0.32552 0.36459,-0.10417 0.84636,-0.10417 h 2.30469 q 0.35156,0 0.59896,0.0912 0.26042,0.0911 0.41667,0.27344 0.16927,0.16927 0.24739,0.42969 0.0911,0.24739 0.0911,0.57291 z"
             style="font-style:normal;font-variant:normal;font-weight:bold;font-stretch:normal;font-size:26.6667px;font-family:Calibri;-inkscape-font-specification:'Calibri Bold';fill:#ffffff;fill-opacity:1;stroke-width:2.96981"
             id="path1003-6-7" />
          <path
             d="m -565.88972,858.881 q 0.15625,0.46875 0.19531,0.74219 0.0391,0.27344 -0.10416,0.41667 -0.14323,0.1302 -0.50782,0.15625 -0.36458,0.0391 -1.0026,0.0391 -0.66407,0 -1.04167,-0.026 -0.36459,-0.013 -0.5599,-0.0651 -0.19531,-0.0651 -0.27344,-0.16927 -0.0781,-0.10417 -0.1302,-0.27344 l -1.13282,-3.38542 h -6.32813 l -1.06771,3.29428 q -0.0521,0.18229 -0.14323,0.3125 -0.0781,0.11719 -0.27344,0.19531 -0.18229,0.0651 -0.53385,0.0911 -0.33855,0.026 -0.89844,0.026 -0.59896,0 -0.9375,-0.0391 -0.33854,-0.0391 -0.46875,-0.1823 -0.13021,-0.15625 -0.0911,-0.42968 0.0391,-0.27344 0.19531,-0.72917 l 5.19532,-14.94794 q 0.0781,-0.22135 0.18229,-0.35156 0.10417,-0.14323 0.32553,-0.20833 0.23437,-0.0781 0.63802,-0.0911 0.40364,-0.026 1.06771,-0.026 0.76823,0 1.22396,0.026 0.45573,0.013 0.70312,0.0911 0.26042,0.0651 0.36459,0.20833 0.11718,0.14323 0.19531,0.39063 z m -7.73439,-12.35679 h -0.013 l -2.38281,7.16147 h 4.77865 z"
             style="font-style:normal;font-variant:normal;font-weight:bold;font-stretch:normal;font-size:26.6667px;font-family:Calibri;-inkscape-font-specification:'Calibri Bold';fill:#ffffff;fill-opacity:1;stroke-width:2.96981"
             id="path1005-8-8" />
          <path
             d="m -560.09544,859.68829 q 0,0.13021 -0.0911,0.23438 -0.0781,0.10416 -0.27344,0.16927 -0.19531,0.0651 -0.52083,0.10417 -0.32552,0.0391 -0.83334,0.0391 -0.49479,0 -0.83333,-0.0391 -0.32552,-0.0391 -0.52084,-0.10417 -0.19531,-0.0651 -0.28645,-0.16927 -0.0781,-0.10417 -0.0781,-0.23438 v -15.91148 q 0,-0.1302 0.0781,-0.23437 0.0911,-0.10417 0.28645,-0.16927 0.20834,-0.0651 0.53386,-0.10417 0.32552,-0.0391 0.82031,-0.0391 0.50782,0 0.83334,0.0391 0.32552,0.0391 0.52083,0.10417 0.19531,0.0651 0.27344,0.16927 0.0911,0.10417 0.0911,0.23437 z"
             style="font-style:normal;font-variant:normal;font-weight:bold;font-stretch:normal;font-size:26.6667px;font-family:Calibri;-inkscape-font-specification:'Calibri Bold';fill:#ffffff;fill-opacity:1;stroke-width:2.96981"
             id="path1007-2-0" />
          <path
             d="m -542.53032,858.95913 q 0,0.29947 -0.10416,0.53385 -0.10417,0.23438 -0.28646,0.39063 -0.16927,0.15625 -0.41667,0.23437 -0.23437,0.0651 -0.48177,0.0651 h -1.45834 q -0.45572,0 -0.79427,-0.0911 -0.32552,-0.0911 -0.61198,-0.32552 -0.27343,-0.2474 -0.53385,-0.65104 -0.26042,-0.41667 -0.58594,-1.06771 l -4.19271,-7.87762 q -0.36459,-0.70312 -0.74219,-1.51042 -0.37761,-0.82031 -0.67709,-1.58854 h -0.026 q 0.0521,0.9375 0.0781,1.875 0.026,0.92448 0.026,1.91407 v 8.81511 q 0,0.13021 -0.0781,0.23438 -0.0651,0.10416 -0.24739,0.18229 -0.16927,0.0651 -0.46875,0.10417 -0.29948,0.0391 -0.76823,0.0391 -0.45573,0 -0.75521,-0.0391 -0.29948,-0.0391 -0.46875,-0.10417 -0.16927,-0.0781 -0.23438,-0.18229 -0.0651,-0.10417 -0.0651,-0.23438 v -15.14325 q 0,-0.61198 0.35156,-0.91146 0.36458,-0.3125 0.88542,-0.3125 h 1.83594 q 0.49479,0 0.83333,0.0912 0.33854,0.0781 0.59896,0.27344 0.27344,0.19531 0.50781,0.54687 0.23438,0.33855 0.48178,0.84636 l 3.28125,6.15886 q 0.28646,0.5599 0.5599,1.10677 0.28646,0.53386 0.54687,1.08073 0.26042,0.53386 0.50782,1.05469 0.24739,0.52084 0.48177,1.04167 h 0.013 q -0.0391,-0.91146 -0.0651,-1.90104 -0.013,-0.98959 -0.013,-1.88803 v -7.90365 q 0,-0.13021 0.0781,-0.23438 0.0781,-0.10417 0.26041,-0.18229 0.1823,-0.0781 0.48178,-0.10417 0.29948,-0.0391 0.76823,-0.0391 0.44271,0 0.74218,0.0391 0.29948,0.026 0.45573,0.10417 0.16928,0.0781 0.23438,0.18229 0.0651,0.10417 0.0651,0.23438 z"
             style="font-style:normal;font-variant:normal;font-weight:bold;font-stretch:normal;font-size:26.6667px;font-family:Calibri;-inkscape-font-specification:'Calibri Bold';fill:#ffffff;fill-opacity:1;stroke-width:2.96981"
             id="path1009-3-0" />
        </g>
      </g>
    </g>
  </g>
  <circle
     cx="499.76208"
     cy="274.00616"
     r="38.355999"
     fill="#888a85"
     stroke="#000000"
     id="circle10-3"
     style="stroke-width:3.2887;stroke-linecap:square" />
</svg>
