<?xml version="1.0" encoding="UTF-8" standalone="no"?>
<svg
   xmlns:dc="http://purl.org/dc/elements/1.1/"
   xmlns:cc="http://creativecommons.org/ns#"
   xmlns:rdf="http://www.w3.org/1999/02/22-rdf-syntax-ns#"
   xmlns:svg="http://www.w3.org/2000/svg"
   xmlns="http://www.w3.org/2000/svg"
   xmlns:sodipodi="http://sodipodi.sourceforge.net/DTD/sodipodi-0.dtd"
   xmlns:inkscape="http://www.inkscape.org/namespaces/inkscape"
   version="1.1"
   viewBox="0 0 843.62438 194.00651"
   id="svg82"
   sodipodi:docname="release-tags.svg"
   width="843.62439"
   height="194.00652"
   inkscape:version="1.0.2-2 (e86c870879, 2021-01-15)">
  <metadata
     id="metadata88">
    <rdf:RDF>
      <cc:Work
         rdf:about="">
        <dc:format>image/svg+xml</dc:format>
        <dc:type
           rdf:resource="http://purl.org/dc/dcmitype/StillImage" />
        <dc:title></dc:title>
      </cc:Work>
    </rdf:RDF>
  </metadata>
  <defs
     id="defs86" />
  <sodipodi:namedview
     pagecolor="#ffffff"
     bordercolor="#666666"
     borderopacity="1"
     objecttolerance="10"
     gridtolerance="10"
     guidetolerance="10"
     inkscape:pageopacity="0"
     inkscape:pageshadow="2"
     inkscape:window-width="2560"
     inkscape:window-height="2126"
     id="namedview84"
     showgrid="false"
     fit-margin-top="0"
     fit-margin-left="0"
     fit-margin-right="0"
     fit-margin-bottom="0"
     inkscape:zoom="1.9453531"
     inkscape:cx="362.93563"
     inkscape:cy="78.371147"
     inkscape:window-x="-11"
     inkscape:window-y="-11"
     inkscape:window-maximized="1"
     inkscape:current-layer="svg82" />
  <path
     d="M 0.01562784,152.21615 685.16563,155.78605"
     fill="none"
     stroke="#000000"
     stroke-width="5.9988"
     id="path2" />
  <g
     stroke-width="3.2887"
     id="g16"
     style="stroke-linecap:square"
     transform="translate(-274.12437,-528.51385)">
    <circle
       cx="360"
       cy="682.52002"
       r="38.355999"
       fill="#888a85"
       stroke="#000000"
       id="circle4" />
    <circle
       cx="480"
       cy="682.52002"
       r="38.355999"
       fill="#73d216"
       stroke="#4e9a06"
       id="circle6" />
    <circle
       cx="600"
       cy="682.52002"
       r="38.355999"
       fill="#888a85"
       stroke="#000000"
       id="circle8" />
    <circle
       cx="720"
       cy="682.52002"
       r="38.355999"
       fill="#73d216"
       stroke="#4e9a06"
       id="circle10" />
    <circle
       cx="840"
       cy="682.52002"
       r="38.355999"
       fill="#73d216"
       stroke="#4e9a06"
       id="circle12" />
    <circle
       cx="960"
       cy="682.52002"
       r="38.355999"
       fill="#888a85"
       stroke="#000000"
       id="circle14" />
  </g>
  <rect
     x="191.58562"
     y="2.8661499"
     width="31.429001"
     height="94.535004"
     ry="0.45638001"
     fill="#73d216"
     stroke="#4e9a06"
     stroke-width="5.7323"
     id="rect18"
     style="stroke-linecap:square" />
  <path
     d="m 209.39563,72.966145 h 2.8035 v 1.6394 h 3.4688 v 3.5876 l -3.4688,0.0238 v 6.8188 h -2.4709 l -10.953,-4.5617 1.1879,-3.1837 9.4322,3.8727 v -2.9698 l -3.9677,-0.4039 v -3.1837 h 3.9677 z"
     id="path22"
     style="fill:#ffffff;stroke-width:2.9698" />
  <path
     d="m 213.41563,67.366145 q -1.0691,0 -1.8532,-0.76028 -0.78404,-0.78404 -0.78404,-1.8769 0,-1.09286 0.78404,-1.8532 0.78404,-0.78404 1.8532,-0.78404 1.0929,0 1.877,0.78404 0.78404,0.76028 0.78404,1.8532 0,1.09292 -0.78404,1.8769 -0.78404,0.76028 -1.877,0.76028 z"
     id="path24"
     style="fill:#ffffff;stroke-width:2.9698" />
  <path
     d="m 198.77563,51.056145 q 0,-1.8057 0.64148,-3.0886 0.64149,-1.283 1.7344,-1.9245 1.0692,-0.66524 2.3521,-0.66524 1.3542,0 2.6135,0.61773 1.2592,0.61772 2.8273,2.0432 1.5443,1.4018 3.8489,3.9915 v -7.0326 l 2.8748,0.4039 v 10.929 h -2.661 q -2.8273,-2.9223 -4.3954,-4.3716 -1.5918,-1.4493 -2.6847,-2.0908 -1.1167,-0.66525 -2.0908,-0.66525 -1.0216,0 -1.5918,0.57021 -0.5702,0.57021 -0.57021,1.6394 0,0.92659 0.4039,1.6156 0.38014,0.68901 1.2592,1.3542 l -1.7344,2.2808 q -1.3542,-0.97411 -2.0908,-2.3284 -0.73652,-1.378 -0.73652,-3.2787 z"
     id="path26"
     style="fill:#ffffff;stroke-width:2.9698" />
  <path
     d="m 213.41563,38.876145 q -1.0691,0 -1.8532,-0.76029 -0.78404,-0.78403 -0.78404,-1.8769 0,-1.0929 0.78404,-1.8532 0.78404,-0.78404 1.8532,-0.78404 1.0929,0 1.877,0.78404 0.78404,0.76028 0.78404,1.8532 0,1.0929 -0.78404,1.8769 -0.78404,0.76029 -1.877,0.76029 z"
     id="path28"
     style="fill:#ffffff;stroke-width:2.9698" />
  <path
     d="m 198.77563,21.996145 q 0,-2.9223 2.2571,-4.4191 2.2571,-1.5206 6.3674,-1.5206 4.134,0 6.4149,1.5206 2.2571,1.4968 2.2571,4.4191 0,2.9223 -2.2571,4.4429 -2.2808,1.4968 -6.4149,1.4968 -4.1103,0 -6.3674,-1.4968 -2.2571,-1.5206 -2.2571,-4.4429 z m 2.7323,0 q 0,1.2592 1.378,1.8532 1.3542,0.57021 4.5142,0.57021 2.067,0 3.3262,-0.14255 l -8.4106,-4.0152 q -0.45141,0.28511 -0.61772,0.68901 -0.19007,0.4039 -0.19007,1.0454 z m 11.856,0 q 0,-1.2592 -1.3542,-1.8294 -1.3542,-0.5702 -4.6092,-0.57021 -1.3067,0 -2.3046,0.0713 l 7.8166,3.7776 q 0.45141,-0.47518 0.45141,-1.4493 z"
     id="path30"
     style="fill:#ffffff;stroke-width:2.9698" />
  <rect
     x="428.81564"
     y="2.8661499"
     width="31.429001"
     height="94.535004"
     ry="0.45638001"
     fill="#73d216"
     stroke="#4e9a06"
     stroke-linecap="square"
     stroke-width="5.7323"
     id="rect50" />
  <path
     d="m 446.62563,72.966145 h 2.8035 v 1.6394 h 3.4688 v 3.5876 l -3.4688,0.0238 v 6.8188 h -2.4709 l -10.953,-4.5617 1.1879,-3.1837 9.4322,3.8727 v -2.9698 l -3.9677,-0.4039 v -3.1837 h 3.9677 z"
     id="path52"
     style="fill:#ffffff;stroke-width:2.9698" />
  <path
     d="m 450.64563,67.366145 q -1.0691,0 -1.8532,-0.76028 -0.78404,-0.78404 -0.78404,-1.8769 0,-1.09286 0.78404,-1.8532 0.78404,-0.78404 1.8532,-0.78404 1.0929,0 1.8769,0.78404 0.78404,0.76028 0.78404,1.8532 0,1.09292 -0.78404,1.8769 -0.78404,0.76028 -1.8769,0.76028 z"
     id="path54"
     style="fill:#ffffff;stroke-width:2.9698" />
  <path
     d="m 436.00563,51.146145 q 0,-1.7106 0.57022,-2.9698 0.57021,-1.283 1.5443,-1.9482 0.95035,-0.689 2.1145,-0.689 1.5206,0 2.4947,0.90283 0.97411,0.87908 1.4493,2.4709 0.5227,-3.8964 4.0865,-3.8964 1.4018,0 2.566,0.78404 1.1404,0.76028 1.8057,2.2096 0.66524,1.4493 0.66524,3.3738 0,1.8057 -0.64148,3.2787 -0.64149,1.473 -1.8294,2.5184 l -1.972,-2.1145 q 1.5681,-1.3542 1.5681,-3.4213 0,-1.2592 -0.64149,-2.0195 -0.64148,-0.76028 -1.7819,-0.76028 -2.4709,0 -2.4709,2.7798 v 1.4968 l -2.5659,-0.42766 v -1.0454 q 0,-1.1404 -0.54646,-1.8057 -0.57021,-0.68901 -1.6156,-0.68901 -0.9266,0 -1.4493,0.66525 -0.54645,0.66524 -0.54645,1.7344 0,1.7819 1.4255,3.2787 l -1.9957,1.9245 q -2.2333,-2.3046 -2.2333,-5.6308 z"
     id="path56"
     style="fill:#ffffff;stroke-width:2.9698" />
  <path
     d="m 450.64563,38.876145 q -1.0691,0 -1.8532,-0.76029 -0.78404,-0.78403 -0.78404,-1.8769 0,-1.0929 0.78404,-1.8532 0.78404,-0.78404 1.8532,-0.78404 1.0929,0 1.8769,0.78404 0.78404,0.76028 0.78404,1.8532 0,1.0929 -0.78404,1.8769 -0.78404,0.76029 -1.8769,0.76029 z"
     id="path58"
     style="fill:#ffffff;stroke-width:2.9698" />
  <path
     d="m 436.00563,21.996145 q 0,-2.9223 2.2571,-4.4191 2.2571,-1.5206 6.3674,-1.5206 4.134,0 6.4149,1.5206 2.2571,1.4968 2.2571,4.4191 0,2.9223 -2.2571,4.4429 -2.2808,1.4968 -6.4149,1.4968 -4.1103,0 -6.3674,-1.4968 -2.2571,-1.5206 -2.2571,-4.4429 z m 2.7323,0 q 0,1.2592 1.378,1.8532 1.3542,0.57021 4.5142,0.57021 2.067,0 3.3262,-0.14255 l -8.4106,-4.0152 q -0.45141,0.28511 -0.61773,0.68901 -0.19007,0.4039 -0.19007,1.0454 z m 11.856,0 q 0,-1.2592 -1.3542,-1.8294 -1.3542,-0.5702 -4.6092,-0.57021 -1.3067,0 -2.3046,0.0713 l 7.8166,3.7776 q 0.45141,-0.47518 0.45141,-1.4493 z"
     id="path60"
     style="fill:#ffffff;stroke-width:2.9698" />
  <rect
     x="549.91559"
     y="2.8661499"
     width="31.429001"
     height="94.535004"
     ry="0.45638001"
     fill="#73d216"
     stroke="#4e9a06"
     stroke-linecap="square"
     stroke-width="5.7323"
     id="rect64" />
  <path
     d="m 567.72563,72.966145 h 2.8035 v 1.6394 h 3.4688 v 3.5876 l -3.4688,0.0238 v 6.8188 h -2.4709 l -10.953,-4.5617 1.1879,-3.1837 9.4322,3.8727 v -2.9698 l -3.9677,-0.4039 v -3.1837 h 3.9677 z"
     id="path66"
     style="fill:#ffffff;stroke-width:2.9698" />
  <path
     d="m 571.73563,67.366145 q -1.0692,0 -1.8532,-0.76028 -0.78404,-0.78404 -0.78404,-1.8769 0,-1.09286 0.78404,-1.8532 0.78404,-0.78404 1.8532,-0.78404 1.0929,0 1.8769,0.78404 0.78404,0.76028 0.78404,1.8532 0,1.09292 -0.78404,1.8769 -0.78404,0.76028 -1.8769,0.76028 z"
     id="path68"
     style="fill:#ffffff;stroke-width:2.9698" />
  <path
     d="m 557.10563,51.146145 q 0,-1.7106 0.57021,-2.9698 0.57021,-1.283 1.5443,-1.9482 0.95035,-0.689 2.1145,-0.689 1.5206,0 2.4947,0.90283 0.97411,0.87908 1.4493,2.4709 0.52269,-3.8964 4.0865,-3.8964 1.4018,0 2.566,0.78404 1.1404,0.76028 1.8057,2.2096 0.66525,1.4493 0.66525,3.3738 0,1.8057 -0.64149,3.2787 -0.64148,1.473 -1.8294,2.5184 l -1.972,-2.1145 q 1.5681,-1.3542 1.5681,-3.4213 0,-1.2592 -0.64149,-2.0195 -0.64149,-0.7603 -1.7819,-0.76028 -2.4709,0 -2.4709,2.7798 v 1.4968 l -2.566,-0.42766 v -1.0454 q 0,-1.1404 -0.54645,-1.8057 -0.57021,-0.68901 -1.6156,-0.68901 -0.92659,0 -1.4493,0.66525 -0.54645,0.66524 -0.54645,1.7344 0,1.7819 1.4255,3.2787 l -1.9957,1.9245 q -2.2333,-2.3046 -2.2333,-5.6308 z"
     id="path70"
     style="fill:#ffffff;stroke-width:2.9698" />
  <path
     d="m 571.73563,38.876145 q -1.0692,0 -1.8532,-0.76029 -0.78404,-0.78403 -0.78404,-1.8769 0,-1.0929 0.78404,-1.8532 0.78404,-0.78404 1.8532,-0.78404 1.0929,0 1.8769,0.78404 0.78404,0.76028 0.78404,1.8532 0,1.0929 -0.78404,1.8769 -0.78404,0.76029 -1.8769,0.76029 z"
     id="path72"
     style="fill:#ffffff;stroke-width:2.9698" />
  <path
     d="m 571.14563,19.096145 v -3.0649 h 2.851 v 10.691 h -2.851 v -3.9677 h -9.9312 l 2.1383,3.3975 -2.5897,1.5918 -3.2312,-5.322 v -3.3262 z"
     id="path74"
     style="fill:#ffffff;stroke-width:2.9698" />
  <g
     id="g1333"
     transform="translate(278.46354,-153.51288)">
    <g
       id="g1019-5-0"
       transform="translate(-356.55857,116.7485)">
      <rect
         x="175.05605"
         y="-918.34174"
         width="31.429001"
         height="81.258858"
         ry="0.3922942"
         id="rect52-9-2"
         style="fill:#3465a4;stroke:#204a87;stroke-width:6.7554;stroke-linecap:square"
         transform="rotate(90)" />
      <g
         transform="translate(1451.1042,-660.96201)"
         aria-label="MASTER"
         id="g66-5-9-0"
         style="fill:#ffffff;stroke-width:2.9698">
        <g
           aria-label="MAIN"
           id="text981-7-1"
           style="font-style:normal;font-weight:normal;font-size:26.6667px;line-height:1.25;font-family:sans-serif;fill:#ffffff;fill-opacity:1;stroke:none;stroke-width:2.96981">
          <path
             d="m -583.3637,859.68829 q 0,0.13021 -0.0781,0.23438 -0.0651,0.10416 -0.26041,0.16927 -0.1823,0.0651 -0.4948,0.10417 -0.3125,0.0391 -0.79427,0.0391 -0.46875,0 -0.78125,-0.0391 -0.3125,-0.0391 -0.49479,-0.10417 -0.18229,-0.0651 -0.26042,-0.16927 -0.0781,-0.10417 -0.0781,-0.23438 v -13.71095 h -0.026 l -4.88281,13.69793 q -0.0521,0.16927 -0.16927,0.28646 -0.11719,0.10417 -0.32553,0.16927 -0.19531,0.0651 -0.50781,0.0781 -0.3125,0.026 -0.75521,0.026 -0.44271,0 -0.75521,-0.0391 -0.3125,-0.026 -0.52083,-0.0911 -0.19531,-0.0781 -0.3125,-0.18229 -0.11719,-0.10417 -0.15625,-0.2474 l -4.71355,-13.69793 h -0.026 v 13.71095 q 0,0.13021 -0.0781,0.23438 -0.0651,0.10416 -0.26041,0.16927 -0.19532,0.0651 -0.50782,0.10417 -0.29948,0.0391 -0.78125,0.0391 -0.46875,0 -0.78125,-0.0391 -0.3125,-0.0391 -0.50781,-0.10417 -0.18229,-0.0651 -0.26042,-0.16927 -0.0651,-0.10417 -0.0651,-0.23438 v -15.01304 q 0,-0.66406 0.35156,-1.01562 0.35156,-0.35157 0.9375,-0.35157 h 2.23959 q 0.59896,0 1.02864,0.10417 0.42969,0.0911 0.74219,0.32552 0.3125,0.22136 0.52084,0.59896 0.20833,0.36458 0.36458,0.91146 l 3.64584,10.03908 h 0.0521 l 3.77605,-10.01304 q 0.16927,-0.54687 0.36458,-0.92448 0.20834,-0.3776 0.46875,-0.61198 0.27344,-0.23437 0.63802,-0.32552 0.36459,-0.10417 0.84636,-0.10417 h 2.30469 q 0.35156,0 0.59896,0.0912 0.26042,0.0911 0.41667,0.27344 0.16927,0.16927 0.24739,0.42969 0.0911,0.24739 0.0911,0.57291 z"
             style="font-style:normal;font-variant:normal;font-weight:bold;font-stretch:normal;font-size:26.6667px;font-family:Calibri;-inkscape-font-specification:'Calibri Bold';fill:#ffffff;fill-opacity:1;stroke-width:2.96981"
             id="path1003-6-7" />
          <path
             d="m -565.88972,858.881 q 0.15625,0.46875 0.19531,0.74219 0.0391,0.27344 -0.10416,0.41667 -0.14323,0.1302 -0.50782,0.15625 -0.36458,0.0391 -1.0026,0.0391 -0.66407,0 -1.04167,-0.026 -0.36459,-0.013 -0.5599,-0.0651 -0.19531,-0.0651 -0.27344,-0.16927 -0.0781,-0.10417 -0.1302,-0.27344 l -1.13282,-3.38542 h -6.32813 l -1.06771,3.29428 q -0.0521,0.18229 -0.14323,0.3125 -0.0781,0.11719 -0.27344,0.19531 -0.18229,0.0651 -0.53385,0.0911 -0.33855,0.026 -0.89844,0.026 -0.59896,0 -0.9375,-0.0391 -0.33854,-0.0391 -0.46875,-0.1823 -0.13021,-0.15625 -0.0911,-0.42968 0.0391,-0.27344 0.19531,-0.72917 l 5.19532,-14.94794 q 0.0781,-0.22135 0.18229,-0.35156 0.10417,-0.14323 0.32553,-0.20833 0.23437,-0.0781 0.63802,-0.0911 0.40364,-0.026 1.06771,-0.026 0.76823,0 1.22396,0.026 0.45573,0.013 0.70312,0.0911 0.26042,0.0651 0.36459,0.20833 0.11718,0.14323 0.19531,0.39063 z m -7.73439,-12.35679 h -0.013 l -2.38281,7.16147 h 4.77865 z"
             style="font-style:normal;font-variant:normal;font-weight:bold;font-stretch:normal;font-size:26.6667px;font-family:Calibri;-inkscape-font-specification:'Calibri Bold';fill:#ffffff;fill-opacity:1;stroke-width:2.96981"
             id="path1005-8-8" />
          <path
             d="m -560.09544,859.68829 q 0,0.13021 -0.0911,0.23438 -0.0781,0.10416 -0.27344,0.16927 -0.19531,0.0651 -0.52083,0.10417 -0.32552,0.0391 -0.83334,0.0391 -0.49479,0 -0.83333,-0.0391 -0.32552,-0.0391 -0.52084,-0.10417 -0.19531,-0.0651 -0.28645,-0.16927 -0.0781,-0.10417 -0.0781,-0.23438 v -15.91148 q 0,-0.1302 0.0781,-0.23437 0.0911,-0.10417 0.28645,-0.16927 0.20834,-0.0651 0.53386,-0.10417 0.32552,-0.0391 0.82031,-0.0391 0.50782,0 0.83334,0.0391 0.32552,0.0391 0.52083,0.10417 0.19531,0.0651 0.27344,0.16927 0.0911,0.10417 0.0911,0.23437 z"
             style="font-style:normal;font-variant:normal;font-weight:bold;font-stretch:normal;font-size:26.6667px;font-family:Calibri;-inkscape-font-specification:'Calibri Bold';fill:#ffffff;fill-opacity:1;stroke-width:2.96981"
             id="path1007-2-0" />
          <path
             d="m -542.53032,858.95913 q 0,0.29947 -0.10416,0.53385 -0.10417,0.23438 -0.28646,0.39063 -0.16927,0.15625 -0.41667,0.23437 -0.23437,0.0651 -0.48177,0.0651 h -1.45834 q -0.45572,0 -0.79427,-0.0911 -0.32552,-0.0911 -0.61198,-0.32552 -0.27343,-0.2474 -0.53385,-0.65104 -0.26042,-0.41667 -0.58594,-1.06771 l -4.19271,-7.87762 q -0.36459,-0.70312 -0.74219,-1.51042 -0.37761,-0.82031 -0.67709,-1.58854 h -0.026 q 0.0521,0.9375 0.0781,1.875 0.026,0.92448 0.026,1.91407 v 8.81511 q 0,0.13021 -0.0781,0.23438 -0.0651,0.10416 -0.24739,0.18229 -0.16927,0.0651 -0.46875,0.10417 -0.29948,0.0391 -0.76823,0.0391 -0.45573,0 -0.75521,-0.0391 -0.29948,-0.0391 -0.46875,-0.10417 -0.16927,-0.0781 -0.23438,-0.18229 -0.0651,-0.10417 -0.0651,-0.23438 v -15.14325 q 0,-0.61198 0.35156,-0.91146 0.36458,-0.3125 0.88542,-0.3125 h 1.83594 q 0.49479,0 0.83333,0.0912 0.33854,0.0781 0.59896,0.27344 0.27344,0.19531 0.50781,0.54687 0.23438,0.33855 0.48178,0.84636 l 3.28125,6.15886 q 0.28646,0.5599 0.5599,1.10677 0.28646,0.53386 0.54687,1.08073 0.26042,0.53386 0.50782,1.05469 0.24739,0.52084 0.48177,1.04167 h 0.013 q -0.0391,-0.91146 -0.0651,-1.90104 -0.013,-0.98959 -0.013,-1.88803 v -7.90365 q 0,-0.13021 0.0781,-0.23438 0.0781,-0.10417 0.26041,-0.18229 0.1823,-0.0781 0.48178,-0.10417 0.29948,-0.0391 0.76823,-0.0391 0.44271,0 0.74218,0.0391 0.29948,0.026 0.45573,0.10417 0.16928,0.0781 0.23438,0.18229 0.0651,0.10417 0.0651,0.23438 z"
             style="font-style:normal;font-variant:normal;font-weight:bold;font-stretch:normal;font-size:26.6667px;font-family:Calibri;-inkscape-font-specification:'Calibri Bold';fill:#ffffff;fill-opacity:1;stroke-width:2.96981"
             id="path1009-3-0" />
        </g>
      </g>
    </g>
  </g>
</svg>
