<?xml version="1.0" encoding="UTF-8"?>
<svg version="1.1" viewBox="0 0 632.78 284.26" xmlns="http://www.w3.org/2000/svg">
  <defs>
    <marker id="marker7130" overflow="visible" orient="auto">
      <path transform="scale(-.6)" d="m8.7186 4.0337-10.926-4.0177 10.926-4.0177c-1.7455 2.3721-1.7354 5.6175-6e-7 8.0354z" fill-rule="evenodd" stroke="#000" stroke-linejoin="round" stroke-width=".625"/>
    </marker>
    <marker id="marker5882" overflow="visible" orient="auto">
      <path transform="scale(-.6)" d="m8.7186 4.0337-10.926-4.0177 10.926-4.0177c-1.7455 2.3721-1.7354 5.6175-6e-7 8.0354z" fill-rule="evenodd" stroke="#000" stroke-linejoin="round" stroke-width=".625"/>
    </marker>
  </defs>
  <g transform="translate(-93.067 -443.08)">
    <g>
      <rect transform="rotate(90)" x="514.9" y="-306.64" width="46.628" height="198.51" ry=".95832" fill="#73d216" stroke="#4e9a06" stroke-linecap="square" stroke-width="10.118"/>
      <g fill="#fff" stroke-width="2.9698" aria-label="MAIN/PROJECT">
        <path d="m133.28 546.58h-3.4213l-0.19007-7.0564q-0.0238-0.52269-0.0238-1.4255 0-1.1879 0.0713-2.3046 0.0713-1.1404 0.16631-2.3759l-1.8532 10.359h-2.9461l-2.0195-10.359q0.26135 2.7323 0.26135 4.9181l-0.0238 1.2592-0.11879 6.9851h-3.35l0.92659-16.465h4.0152l1.8294 10.644 1.7344-10.644h4.0152z"/>
        <path d="m143.17 543.02h-4.823l-0.85531 3.5638h-4.0865l5.0369-16.465h4.728l5.0369 16.465h-4.1816zm-4.2053-2.8035h3.5638l-1.7819-7.2939z"/>
        <path d="m160.39 530.12v2.8511h-3.3975v10.739h3.3975v2.8748h-10.691v-2.8748h3.3975v-10.739h-3.3975v-2.8511z"/>
        <path d="m166.13 533.35q0.23759 1.8057 0.4039 3.4925 0.16631 1.6631 0.16631 3.5401v6.201h-3.3025v-16.465h4.8706l4.1815 13.186q-0.57021-3.6588-0.57021-6.89v-6.2961h3.3025v16.465h-4.728z"/>
        <path d="m180.02 549.24-2.9223-1.3542 9.9787-20.718 2.8986 1.3542z"/>
        <path d="m204.34 535.49q0 2.7798-1.7582 4.2053-1.7344 1.4018-4.7518 1.4018h-1.8057v5.4883h-3.8964v-16.465h5.1794q3.4213 0 5.2269 1.3542 1.8057 1.3305 1.8057 4.0152zm-3.9915 0q0-2.5897-2.9698-2.5897h-1.3542v5.3932h1.5443q1.3305 0 2.0433-0.689 0.73652-0.68901 0.73652-2.1145z"/>
        <path d="m218.23 535.13q0 1.6631-0.90283 2.8035-0.87908 1.1167-2.3759 1.7106l4.3003 6.9376h-4.4191l-3.5638-6.2961h-1.0929v6.2961h-3.8964v-16.465h5.1794q3.3975 0 5.0844 1.2355 1.6869 1.2355 1.6869 3.7776zm-4.0152 0q0-1.1879-0.68901-1.7344-0.66524-0.54646-2.067-0.54646h-1.283v4.7518h1.4493q1.283 0 1.9245-0.59397 0.66525-0.59397 0.66525-1.8769z"/>
        <path d="m232.86 538.34q0 4.0152-1.7106 6.3436-1.6869 2.3046-4.8706 2.3046-3.2074 0-4.8943-2.2808-1.6869-2.3046-1.6869-6.3674 0-4.0152 1.6869-6.3198 1.7106-2.3284 4.8943-2.3284 3.2074 0 4.8943 2.3046 1.6869 2.2808 1.6869 6.3436zm-3.9915 0q0-3.0411-0.61772-4.4191-0.59397-1.378-1.972-1.378t-1.9957 1.378q-0.59397 1.378-0.59397 4.4191t0.59397 4.4191q0.61773 1.378 1.9957 1.378 1.4018 0 1.9957-1.378t0.59397-4.4191z"/>
        <path d="m245.91 540.67q0 2.8986-1.7582 4.5854-1.7344 1.6869-4.8706 1.6869-1.5206 0-2.6847-0.38014-1.1404-0.38014-2.2808-1.1642l1.473-2.3996q0.85531 0.57021 1.5918 0.8078 0.73652 0.23759 1.6869 0.23759 1.3067 0 2.1145-0.83156 0.83156-0.85532 0.83156-2.5184v-7.7216h-5.0369v-2.8511h8.9333z"/>
        <path d="m253.74 532.9v3.9677h5.7021v2.7085h-5.7021v4.2053h6.8663v2.8035h-10.763v-16.465h10.763l-0.4039 2.7798z"/>
        <path d="m270.39 529.69q1.7106 0 2.9461 0.45141 1.2355 0.45142 2.3284 1.3542l-1.9007 2.3046q-1.4968-1.2117-3.2787-1.2117-1.6869 0-2.7323 1.4255-1.0216 1.4255-1.0216 4.3003t1.0216 4.2766q1.0216 1.378 2.8035 1.378 1.0929 0 1.8769-0.38014t1.6869-1.0929l1.7582 2.2571q-2.1858 2.2333-5.5358 2.2333-2.2571 0-3.9915-0.99786-1.7106-0.99787-2.6847-2.9461-0.97411-1.972-0.97411-4.728 0-2.6847 0.99787-4.633t2.756-2.9698q1.7582-1.0216 3.944-1.0216z"/>
        <path d="m285.18 533.11v13.471h-3.8964v-13.471h-4.633v-2.9936h13.329l-0.38014 2.9936z"/>
      </g>
      <rect transform="rotate(90)" x="514.9" y="-710.45" width="46.628" height="225.84" ry="1.0903" fill="#73d216" stroke="#4e9a06" stroke-linecap="square" stroke-width="10.792"/>
      <g fill="#fff" stroke-width="2.9698" aria-label="FORK A/PROJECT">
        <path d="m502.4 532.9v4.3479h5.7496v2.8035h-5.7496v6.5337h-3.9202v-16.465h10.81l-0.38014 2.7798z"/>
        <path d="m523.87 538.34q0 4.0152-1.7106 6.3436-1.6869 2.3046-4.8706 2.3046-3.2074 0-4.8943-2.2808-1.6869-2.3046-1.6869-6.3674 0-4.0152 1.6869-6.3198 1.7106-2.3284 4.8943-2.3284 3.2074 0 4.8943 2.3046 1.6869 2.2808 1.6869 6.3436zm-3.9915 0q0-3.0411-0.61773-4.4191-0.59397-1.378-1.972-1.378t-1.9957 1.378q-0.59396 1.378-0.59396 4.4191t0.59396 4.4191q0.61773 1.378 1.9957 1.378 1.4018 0 1.9957-1.378t0.59397-4.4191z"/>
        <path d="m537.73 535.13q0 1.6631-0.90284 2.8035-0.87907 1.1167-2.3759 1.7106l4.3003 6.9376h-4.4191l-3.5638-6.2961h-1.0929v6.2961h-3.8964v-16.465h5.1794q3.3975 0 5.0844 1.2355 1.6869 1.2355 1.6869 3.7776zm-4.0152 0q0-1.1879-0.689-1.7344-0.66525-0.54646-2.067-0.54646h-1.283v4.7518h1.4493q1.283 0 1.9245-0.59397 0.66524-0.59397 0.66524-1.8769z"/>
        <path d="m543.95 546.58h-3.8964v-16.465h3.8964zm0.1188-8.7908 4.4904-7.6741h4.0865l-4.6567 7.389 5.1081 9.0759h-4.4904z"/>
        <path d="m576.65 543.02h-4.823l-0.85532 3.5638h-4.0865l5.0369-16.465h4.728l5.0369 16.465h-4.1815zm-4.2053-2.8035h3.5638l-1.7819-7.2939z"/>
        <path d="m585 549.24-2.9223-1.3542 9.9787-20.718 2.8986 1.3542z"/>
        <path d="m609.32 535.49q0 2.7798-1.7582 4.2053-1.7344 1.4018-4.7518 1.4018h-1.8057v5.4883h-3.8964v-16.465h5.1794q3.4213 0 5.2269 1.3542 1.8057 1.3305 1.8057 4.0152zm-3.9915 0q0-2.5897-2.9698-2.5897h-1.3542v5.3932h1.5443q1.3305 0 2.0433-0.689 0.73652-0.68901 0.73652-2.1145z"/>
        <path d="m623.21 535.13q0 1.6631-0.90284 2.8035-0.87907 1.1167-2.3759 1.7106l4.3003 6.9376h-4.4191l-3.5638-6.2961h-1.0929v6.2961h-3.8964v-16.465h5.1794q3.3975 0 5.0844 1.2355 1.6869 1.2355 1.6869 3.7776zm-4.0152 0q0-1.1879-0.689-1.7344-0.66525-0.54646-2.067-0.54646h-1.283v4.7518h1.4493q1.283 0 1.9245-0.59397 0.66524-0.59397 0.66524-1.8769z"/>
        <path d="m637.83 538.34q0 4.0152-1.7106 6.3436-1.6869 2.3046-4.8706 2.3046-3.2074 0-4.8943-2.2808-1.6869-2.3046-1.6869-6.3674 0-4.0152 1.6869-6.3198 1.7106-2.3284 4.8943-2.3284 3.2074 0 4.8943 2.3046 1.6869 2.2808 1.6869 6.3436zm-3.9915 0q0-3.0411-0.61773-4.4191-0.59397-1.378-1.972-1.378-1.378 0-1.9957 1.378-0.59397 1.378-0.59397 4.4191t0.59397 4.4191q0.61773 1.378 1.9957 1.378 1.4018 0 1.9957-1.378t0.59397-4.4191z"/>
        <path d="m650.89 540.67q0 2.8986-1.7582 4.5854-1.7344 1.6869-4.8706 1.6869-1.5206 0-2.6847-0.38014-1.1404-0.38014-2.2808-1.1642l1.473-2.3996q0.85532 0.57021 1.5918 0.8078t1.6869 0.23759q1.3067 0 2.1145-0.83156 0.83155-0.85532 0.83155-2.5184v-7.7216h-5.0369v-2.8511h8.9333z"/>
        <path d="m658.72 532.9v3.9677h5.7021v2.7085h-5.7021v4.2053h6.8663v2.8035h-10.763v-16.465h10.763l-0.4039 2.7798z"/>
        <path d="m675.37 529.69q1.7106 0 2.9461 0.45141 1.2354 0.45142 2.3284 1.3542l-1.9007 2.3046q-1.4968-1.2117-3.2787-1.2117-1.6869 0-2.7323 1.4255-1.0216 1.4255-1.0216 4.3003t1.0216 4.2766q1.0216 1.378 2.8035 1.378 1.0929 0 1.8769-0.38014t1.6869-1.0929l1.7582 2.2571q-2.1858 2.2333-5.5358 2.2333-2.2571 0-3.9915-0.99786-1.7106-0.99787-2.6847-2.9461-0.97411-1.972-0.97411-4.728 0-2.6847 0.99786-4.633 0.99787-1.9482 2.756-2.9698 1.7582-1.0216 3.944-1.0216z"/>
        <path d="m690.16 533.11v13.471h-3.8964v-13.471h-4.633v-2.9936h13.329l-0.38014 2.9936z"/>
      </g>
    </g>
    <path d="m516.46 605.05c-159.6 7.3058-103.03 198-265.41 56.861" fill="none" marker-end="url(#marker5882)" stroke="#000" stroke-linecap="round" stroke-linejoin="round" stroke-width="7.0761"/>
    <g>
      <rect transform="rotate(90)" x="582.31" y="-680.15" width="46.628" height="139.72" ry=".67451" fill="#c00" stroke="#a40000" stroke-linecap="square" stroke-width="8.4883"/>
      <g fill="#fff" stroke-width="2.9698" aria-label="BRANCH A">
        <path d="m565.3 609.17q0 2.6372-1.8769 3.7301-1.8532 1.0929-4.8943 1.0929h-5.4645v-16.465h5.2269q2.8273 0 4.5617 0.99787 1.7344 0.97411 1.7344 3.2074 0 1.4018-0.85532 2.3046-0.85531 0.90283-2.162 1.2354 1.5681 0.26135 2.6372 1.1879 1.0929 0.90283 1.0929 2.7085zm-4.633-7.0326q0-0.97411-0.61773-1.4018-0.59397-0.45142-1.9007-0.45142h-1.1879v3.8252h1.3305q1.2355 0 1.8057-0.45142 0.57021-0.47517 0.57021-1.5206zm0.61773 6.8663q0-1.2355-0.71277-1.7582-0.689-0.52269-2.0195-0.52269h-1.5918v4.4191h1.4255q1.3542 0 2.1145-0.45142 0.78404-0.45141 0.78404-1.6869z"/>
        <path d="m579.31 602.54q0 1.6631-0.90284 2.8035-0.87907 1.1167-2.3759 1.7106l4.3003 6.9376h-4.4191l-3.5638-6.2961h-1.0929v6.2961h-3.8964v-16.465h5.1794q3.3975 0 5.0844 1.2355 1.6869 1.2354 1.6869 3.7776zm-4.0152 0q0-1.1879-0.689-1.7344-0.66525-0.54645-2.067-0.54645h-1.283v4.7518h1.4493q1.283 0 1.9245-0.59397 0.66524-0.59397 0.66524-1.877z"/>
        <path d="m589.73 610.43h-4.823l-0.85532 3.5638h-4.0865l5.0369-16.465h4.728l5.0369 16.465h-4.1815zm-4.2053-2.8035h3.5638l-1.7819-7.2939z"/>
        <path d="m598.44 600.76q0.23759 1.8057 0.4039 3.4925 0.16631 1.6631 0.16631 3.5401v6.201h-3.3025v-16.465h4.8706l4.1815 13.186q-0.57021-3.6588-0.57021-6.89v-6.2961h3.3025v16.465h-4.728z"/>
        <path d="m617.22 597.1q1.7106 0 2.9461 0.45142t2.3284 1.3542l-1.9007 2.3046q-1.4968-1.2117-3.2787-1.2117-1.6869 0-2.7323 1.4255-1.0216 1.4255-1.0216 4.3003t1.0216 4.2766q1.0216 1.378 2.8035 1.378 1.0929 0 1.877-0.38014t1.6869-1.0929l1.7582 2.2571q-2.1858 2.2333-5.5358 2.2333-2.2571 0-3.9915-0.99787-1.7106-0.99787-2.6847-2.9461-0.97411-1.972-0.97411-4.728 0-2.6847 0.99787-4.633t2.756-2.9698q1.7582-1.0216 3.944-1.0216z"/>
        <path d="m632.08 613.99v-6.9376h-3.9915v6.9376h-3.8964v-16.465h3.8964v6.3198h3.9915v-6.3198h3.8964v16.465z"/>
        <path d="m660.96 610.43h-4.823l-0.85531 3.5638h-4.0865l5.0369-16.465h4.728l5.0369 16.465h-4.1815zm-4.2053-2.8035h3.5638l-1.7819-7.2939z"/>
      </g>
      <rect transform="rotate(90)" x="582.31" y="-267.22" width="46.628" height="110.14" ry=".5317" fill="#c00" stroke="#a40000" stroke-linecap="square" stroke-width="7.5363"/>
      <g fill="#fff" stroke-width="2.9698" aria-label="MASTER">
        <path d="m182.24 613.99h-3.4213l-0.19007-7.0564q-0.0238-0.5227-0.0238-1.4255 0-1.1879 0.0713-2.3046 0.0713-1.1404 0.16631-2.3759l-1.8532 10.359h-2.9461l-2.0195-10.359q0.26134 2.7323 0.26134 4.9181l-0.0238 1.2592-0.11879 6.9851h-3.35l0.92659-16.465h4.0152l1.8294 10.644 1.7344-10.644h4.0152z"/>
        <path d="m192.13 610.43h-4.823l-0.85532 3.5638h-4.0865l5.0369-16.465h4.728l5.0369 16.465h-4.1816zm-4.2053-2.8035h3.5638l-1.7819-7.2939z"/>
        <path d="m210.37 609.17q0 1.5443-0.8078 2.7323t-2.3284 1.8532q-1.4968 0.64149-3.5638 0.64149-4.0865 0-6.5099-2.3759l1.972-2.1858q1.8769 1.6631 4.4429 1.6631 1.2354 0 1.972-0.52269 0.76028-0.54645 0.76028-1.4968 0-0.90283-0.64149-1.4018-0.61773-0.5227-2.3284-1.0454-2.8986-0.87907-4.1103-2.067t-1.2117-3.0649q0-1.473 0.8078-2.566 0.83156-1.0929 2.2333-1.6631 1.4255-0.57021 3.1599-0.57021 3.6351 0 5.8922 2.1383l-1.8294 2.1145q-0.83156-0.689-1.8057-1.0216-0.95035-0.35639-1.972-0.35639-1.1404 0-1.8057 0.42766-0.64148 0.4039-0.64148 1.1879 0 0.52269 0.2851 0.87908 0.30887 0.35638 0.99787 0.66524 0.68901 0.30887 2.067 0.73652 2.5184 0.76028 3.7301 1.972 1.2355 1.1879 1.2355 3.3262z"/>
        <path d="m220.17 600.52v13.471h-3.8964v-13.471h-4.633v-2.9936h13.329l-0.38014 2.9936z"/>
        <path d="m231.47 600.31v3.9677h5.7021v2.7085h-5.7021v4.2053h6.8663v2.8035h-10.763v-16.465h10.763l-0.4039 2.7798z"/>
        <path d="m252.94 602.54q0 1.6631-0.90283 2.8035-0.87907 1.1167-2.3759 1.7106l4.3003 6.9376h-4.4191l-3.5638-6.2961h-1.0929v6.2961h-3.8964v-16.465h5.1794q3.3975 0 5.0844 1.2355 1.6869 1.2354 1.6869 3.7776zm-4.0152 0q0-1.1879-0.689-1.7344-0.66525-0.54645-2.067-0.54645h-1.283v4.7518h1.4493q1.283 0 1.9245-0.59397 0.66525-0.59397 0.66525-1.877z"/>
      </g>
    </g>
    <path d="m319.04 534.03c68.049 72.029 142.61-162.06 227.55-39.442" fill="none" marker-end="url(#marker7130)" stroke="#000" stroke-linecap="round" stroke-linejoin="round" stroke-width="7.0761"/>
    <g stroke-width="2.7496" style="font-feature-settings:normal;font-variant-caps:normal;font-variant-ligatures:normal;font-variant-numeric:normal" aria-label="Fork">
      <path d="m382.54 461.85v4.0253h5.3231v2.5956h-5.3231v6.049h-3.6294v-15.244h10.008l-0.35194 2.5736z"/>
      <path d="m396.33 462.45q2.6616 0 4.1573 1.6937 1.5178 1.6717 1.5178 4.5093 0 2.9475-1.4958 4.5973-1.4958 1.6497-4.1793 1.6497-2.6836 0-4.1793-1.6277-1.4958-1.6497-1.4958-4.5972 0-1.8697 0.65989-3.2555 0.68189-1.4078 1.9577-2.1776 1.2978-0.79187 3.0575-0.79187zm0 2.5736q-1.0778 0-1.5837 0.87986-0.50592 0.85786-0.50592 2.7716 0 1.9357 0.50592 2.8155 0.50591 0.85786 1.5837 0.85786 1.0778 0 1.5837-0.87985 0.50592-0.87986 0.50592-2.8156 0-1.8917-0.50592-2.7496-0.50592-0.87986-1.5837-0.87986z"/>
      <path d="m413.37 462.49q1.0558 0 1.9357 0.35194l-0.6379 4.8832h-2.1996v-2.1336q-0.96785 0.15397-1.7157 1.0338-0.74787 0.87986-1.1658 2.2216v3.3435h2.3096v2.3316h-7.3248v-2.3316h1.5398v-7.0389h-1.5398v-2.3096h4.2013l0.6159 2.6176q0.63789-1.4958 1.6057-2.2216 0.96784-0.74788 2.3756-0.74788z"/>
      <path d="m421.12 457.83v16.695h-3.4754v-16.321zm7.6108 5.0152-3.8494 5.1692 4.1573 6.5109h-3.9594l-3.8274-6.401 3.8494-5.2792z"/>
    </g>
    <g stroke-width="2.7496" style="font-feature-settings:normal;font-variant-caps:normal;font-variant-ligatures:normal;font-variant-numeric:normal" aria-label="Merge">
      <path d="m423.7 696.32h-3.1675l-0.17597-6.5329q-0.022-0.48392-0.022-1.3198 0-1.0998 0.066-2.1337 0.066-1.0558 0.15397-2.1996l-1.7157 9.5904h-2.7276l-1.8697-9.5904q0.24196 2.5296 0.24196 4.5533l-0.022 1.1658-0.10998 6.467h-3.1015l0.85787-15.244h3.7174l1.6937 9.8544 1.6057-9.8544h3.7174z"/>
      <path d="m428.62 691.5q0.32995 2.6616 2.8156 2.6616 1.4958 0 2.9915-0.96784l1.3858 1.8917q-0.85787 0.74788-2.0457 1.1878-1.1878 0.41793-2.6176 0.41793-1.9577 0-3.3215-0.76987-1.3638-0.79187-2.0677-2.1776-0.68189-1.4078-0.68189-3.2555 0-1.7597 0.65989-3.1675 0.68189-1.4298 1.9577-2.2436 1.2978-0.83587 3.0795-0.83587 1.6717 0 2.9035 0.72588 1.2318 0.70389 1.8917 2.0677 0.68189 1.3418 0.68189 3.2115 0 0.72588-0.066 1.2538zm2.1556-4.9272q-0.94584 0-1.5178 0.70389-0.57191 0.68189-0.68189 2.1117h4.2893q-0.044-2.8156-2.0897-2.8156z"/>
      <path d="m447.7 684.29q1.0558 0 1.9357 0.35194l-0.6379 4.8832h-2.1996v-2.1337q-0.96784 0.15398-1.7157 1.0338-0.74788 0.87986-1.1658 2.2216v3.3435h2.3096v2.3316h-7.3248v-2.3316h1.5398v-7.0389h-1.5398v-2.3096h4.2013l0.6159 2.6176q0.63789-1.4958 1.6057-2.2216 0.96784-0.74787 2.3756-0.74787z"/>
      <path d="m463.16 685.32q-1.1438 0.46192-3.3654 0.46192 1.1438 0.50592 1.6937 1.2098 0.57191 0.70388 0.57191 1.8037 0 1.1218-0.6159 2.0237-0.6159 0.87985-1.7377 1.3858t-2.5956 0.50592q-0.72588 0-1.3638-0.13198-0.17597 0.088-0.28595 0.28595-0.088 0.17598-0.088 0.37394 0 0.32995 0.24196 0.52792 0.26396 0.17597 1.0338 0.17597h1.9357q1.3198 0 2.3316 0.43993 1.0118 0.43993 1.5618 1.2098 0.54991 0.76988 0.54991 1.7377 0 1.8257-1.6057 2.8375-1.5837 1.0338-4.6412 1.0338-2.1776 0-3.4314-0.46192-1.2318-0.43993-1.7377-1.2538-0.48392-0.81387-0.48392-2.0457h3.0795q0 0.54991 0.19797 0.85786 0.21997 0.30795 0.79187 0.46193 0.57191 0.15397 1.6717 0.15397 1.5398 0 2.1117-0.35194 0.5939-0.35194 0.5939-0.98984 0-0.52791-0.43993-0.85786-0.41793-0.30795-1.2538-0.30795h-1.8477q-1.8037 0-2.7056-0.6379-0.90186-0.65989-0.90186-1.6717 0-0.65989 0.32995-1.2318 0.35194-0.5939 0.96784-0.98984-1.0998-0.5939-1.5837-1.3858-0.48392-0.81387-0.48392-1.9577 0-1.2978 0.65989-2.2656 0.65989-0.96784 1.8477-1.4738 1.1878-0.52791 2.7056-0.52791 1.7597 0.044 2.9915-0.32995 1.2318-0.39593 2.5076-1.1658zm-6.203 1.2098q-0.83587 0-1.3198 0.52792-0.46192 0.52791-0.46192 1.4298 0 0.94585 0.48392 1.4738 0.48392 0.52792 1.2978 0.52792 0.85786 0 1.3198-0.50592 0.46193-0.52791 0.46193-1.5398 0-1.9137-1.7817-1.9137z"/>
      <path d="m468.18 691.5q0.32995 2.6616 2.8155 2.6616 1.4958 0 2.9915-0.96784l1.3858 1.8917q-0.85786 0.74788-2.0457 1.1878-1.1878 0.41793-2.6176 0.41793-1.9577 0-3.3215-0.76987-1.3638-0.79187-2.0677-2.1776-0.68188-1.4078-0.68188-3.2555 0-1.7597 0.65989-3.1675 0.68189-1.4298 1.9577-2.2436 1.2978-0.83587 3.0795-0.83587 1.6717 0 2.9035 0.72588 1.2318 0.70389 1.8917 2.0677 0.68189 1.3418 0.68189 3.2115 0 0.72588-0.066 1.2538zm2.1556-4.9272q-0.94585 0-1.5178 0.70389-0.57191 0.68189-0.68189 2.1117h4.2893q-0.044-2.8156-2.0897-2.8156z"/>
    </g>
  </g>
</svg>
