<?xml version="1.0" encoding="UTF-8" standalone="no"?>
<svg
   xmlns:dc="http://purl.org/dc/elements/1.1/"
   xmlns:cc="http://creativecommons.org/ns#"
   xmlns:rdf="http://www.w3.org/1999/02/22-rdf-syntax-ns#"
   xmlns:svg="http://www.w3.org/2000/svg"
   xmlns="http://www.w3.org/2000/svg"
   xmlns:sodipodi="http://sodipodi.sourceforge.net/DTD/sodipodi-0.dtd"
   xmlns:inkscape="http://www.inkscape.org/namespaces/inkscape"
   version="1.1"
   viewBox="0 0 727.75308 264.25616"
   id="svg134"
   sodipodi:docname="remotes.svg"
   width="727.75311"
   height="264.25616"
   inkscape:version="1.0.2-2 (e86c870879, 2021-01-15)">
  <metadata
     id="metadata138">
    <rdf:RDF>
      <cc:Work
         rdf:about="">
        <dc:format>image/svg+xml</dc:format>
        <dc:type
           rdf:resource="http://purl.org/dc/dcmitype/StillImage" />
        <dc:title></dc:title>
      </cc:Work>
    </rdf:RDF>
  </metadata>
  <sodipodi:namedview
     pagecolor="#ffffff"
     bordercolor="#666666"
     borderopacity="1"
     objecttolerance="10"
     gridtolerance="10"
     guidetolerance="10"
     inkscape:pageopacity="0"
     inkscape:pageshadow="2"
     inkscape:window-width="2560"
     inkscape:window-height="2126"
     id="namedview136"
     showgrid="false"
     showguides="false"
     fit-margin-top="0"
     fit-margin-left="0"
     fit-margin-right="0"
     fit-margin-bottom="0"
     inkscape:zoom="2.2930559"
     inkscape:cx="377.47018"
     inkscape:cy="132.12907"
     inkscape:window-x="-11"
     inkscape:window-y="-11"
     inkscape:window-maximized="1"
     inkscape:current-layer="svg134" />
  <defs
     id="defs8">
    <marker
       id="marker7130"
       overflow="visible"
       orient="auto">
      <path
         transform="scale(-0.6)"
         d="M 8.7186,4.0337 -2.2074,0.016 8.7186,-4.0017 c -1.7455,2.3721 -1.7354,5.6175 0,8.0354 z"
         fill-rule="evenodd"
         stroke="#000000"
         stroke-linejoin="round"
         stroke-width="0.625"
         id="path2" />
    </marker>
    <marker
       id="marker5882"
       overflow="visible"
       orient="auto">
      <path
         transform="scale(-0.6)"
         d="M 8.7186,4.0337 -2.2074,0.016 8.7186,-4.0017 c -1.7455,2.3721 -1.7354,5.6175 0,8.0354 z"
         fill-rule="evenodd"
         stroke="#000000"
         stroke-linejoin="round"
         stroke-width="0.625"
         id="path5" />
    </marker>
  </defs>
  <rect
     transform="rotate(90)"
     x="61.819092"
     y="-274.65317"
     width="46.627998"
     height="269.59418"
     ry="1.3014836"
     fill="#73d216"
     stroke="#4e9a06"
     stroke-linecap="square"
     stroke-width="10.118"
     id="rect10" />
  <rect
     transform="rotate(90)"
     x="61.819092"
     y="-726.47119"
     width="46.627998"
     height="269.73395"
     ry="1.3022091"
     fill="#73d216"
     stroke="#4e9a06"
     stroke-linecap="square"
     stroke-width="10.792"
     id="rect38" />
  <path
     d="M 484.67048,151.96907 C 295.4846,159.27487 357.30809,331.2168 164.82686,190.0778"
     fill="none"
     marker-end="url(#marker5882)"
     stroke="#000000"
     stroke-linecap="round"
     stroke-linejoin="round"
     stroke-width="7.0761"
     id="path70"
     sodipodi:nodetypes="cc" />
  <rect
     transform="rotate(90)"
     x="129.22906"
     y="-674.7652"
     width="46.627998"
     height="166.32207"
     ry="0.80293369"
     fill="#cc0000"
     stroke="#a40000"
     stroke-linecap="square"
     stroke-width="8.4883"
     id="rect72" />
  <rect
     transform="rotate(90)"
     x="129.22906"
     y="-194.92609"
     width="46.627998"
     height="110.14"
     ry="0.53170002"
     fill="#cc0000"
     stroke="#a40000"
     stroke-linecap="square"
     stroke-width="7.5363"
     id="rect90"
     style="fill:#3465a4;stroke:#204a87" />
  <path
     d="m 287.05316,80.949068 c 68.049,72.029002 142.61,-162.06 227.55,-39.442"
     fill="none"
     marker-end="url(#marker7130)"
     stroke="#000000"
     stroke-linecap="round"
     stroke-linejoin="round"
     stroke-width="7.0761"
     id="path108" />
  <g
     stroke-width="2.7496"
     style="font-variant-ligatures:normal;font-variant-caps:normal;font-variant-numeric:normal;font-feature-settings:normal"
     aria-label="Fork"
     id="g118"
     transform="translate(-31.986836,-453.08093)">
    <path
       d="m 382.54,461.85 v 4.0253 h 5.3231 v 2.5956 H 382.54 v 6.049 h -3.6294 v -15.244 h 10.008 l -0.35194,2.5736 z"
       id="path110" />
    <path
       d="m 396.33,462.45 q 2.6616,0 4.1573,1.6937 1.5178,1.6717 1.5178,4.5093 0,2.9475 -1.4958,4.5973 -1.4958,1.6497 -4.1793,1.6497 -2.6836,0 -4.1793,-1.6277 -1.4958,-1.6497 -1.4958,-4.5972 0,-1.8697 0.65989,-3.2555 0.68189,-1.4078 1.9577,-2.1776 1.2978,-0.79187 3.0575,-0.79187 z m 0,2.5736 q -1.0778,0 -1.5837,0.87986 -0.50592,0.85786 -0.50592,2.7716 0,1.9357 0.50592,2.8155 0.50591,0.85786 1.5837,0.85786 1.0778,0 1.5837,-0.87985 0.50592,-0.87986 0.50592,-2.8156 0,-1.8917 -0.50592,-2.7496 -0.50592,-0.87986 -1.5837,-0.87986 z"
       id="path112" />
    <path
       d="m 413.37,462.49 q 1.0558,0 1.9357,0.35194 l -0.6379,4.8832 h -2.1996 v -2.1336 q -0.96785,0.15397 -1.7157,1.0338 -0.74787,0.87986 -1.1658,2.2216 v 3.3435 h 2.3096 v 2.3316 h -7.3248 v -2.3316 h 1.5398 v -7.0389 h -1.5398 v -2.3096 h 4.2013 l 0.6159,2.6176 q 0.63789,-1.4958 1.6057,-2.2216 0.96784,-0.74788 2.3756,-0.74788 z"
       id="path114" />
    <path
       d="m 421.12,457.83 v 16.695 h -3.4754 v -16.321 z m 7.6108,5.0152 -3.8494,5.1692 4.1573,6.5109 h -3.9594 l -3.8274,-6.401 3.8494,-5.2792 z"
       id="path116" />
  </g>
  <g
     stroke-width="2.7496"
     style="font-variant-ligatures:normal;font-variant-caps:normal;font-variant-numeric:normal;font-feature-settings:normal"
     aria-label="Merge"
     id="g130"
     transform="translate(-31.986836,-453.08093)">
    <path
       d="m 423.7,696.32 h -3.1675 l -0.17597,-6.5329 q -0.022,-0.48392 -0.022,-1.3198 0,-1.0998 0.066,-2.1337 0.066,-1.0558 0.15397,-2.1996 l -1.7157,9.5904 h -2.7276 l -1.8697,-9.5904 q 0.24196,2.5296 0.24196,4.5533 l -0.022,1.1658 -0.10998,6.467 h -3.1015 l 0.85787,-15.244 h 3.7174 l 1.6937,9.8544 1.6057,-9.8544 h 3.7174 z"
       id="path120" />
    <path
       d="m 428.62,691.5 q 0.32995,2.6616 2.8156,2.6616 1.4958,0 2.9915,-0.96784 l 1.3858,1.8917 q -0.85787,0.74788 -2.0457,1.1878 -1.1878,0.41793 -2.6176,0.41793 -1.9577,0 -3.3215,-0.76987 -1.3638,-0.79187 -2.0677,-2.1776 -0.68189,-1.4078 -0.68189,-3.2555 0,-1.7597 0.65989,-3.1675 0.68189,-1.4298 1.9577,-2.2436 1.2978,-0.83587 3.0795,-0.83587 1.6717,0 2.9035,0.72588 1.2318,0.70389 1.8917,2.0677 0.68189,1.3418 0.68189,3.2115 0,0.72588 -0.066,1.2538 z m 2.1556,-4.9272 q -0.94584,0 -1.5178,0.70389 -0.57191,0.68189 -0.68189,2.1117 h 4.2893 q -0.044,-2.8156 -2.0897,-2.8156 z"
       id="path122" />
    <path
       d="m 447.7,684.29 q 1.0558,0 1.9357,0.35194 l -0.6379,4.8832 h -2.1996 v -2.1337 q -0.96784,0.15398 -1.7157,1.0338 -0.74788,0.87986 -1.1658,2.2216 v 3.3435 h 2.3096 v 2.3316 h -7.3248 v -2.3316 h 1.5398 v -7.0389 h -1.5398 v -2.3096 h 4.2013 l 0.6159,2.6176 q 0.63789,-1.4958 1.6057,-2.2216 0.96784,-0.74787 2.3756,-0.74787 z"
       id="path124" />
    <path
       d="m 463.16,685.32 q -1.1438,0.46192 -3.3654,0.46192 1.1438,0.50592 1.6937,1.2098 0.57191,0.70388 0.57191,1.8037 0,1.1218 -0.6159,2.0237 -0.6159,0.87985 -1.7377,1.3858 -1.1218,0.50595 -2.5956,0.50592 -0.72588,0 -1.3638,-0.13198 -0.17597,0.088 -0.28595,0.28595 -0.088,0.17598 -0.088,0.37394 0,0.32995 0.24196,0.52792 0.26396,0.17597 1.0338,0.17597 h 1.9357 q 1.3198,0 2.3316,0.43993 1.0118,0.43993 1.5618,1.2098 0.54991,0.76988 0.54991,1.7377 0,1.8257 -1.6057,2.8375 -1.5837,1.0338 -4.6412,1.0338 -2.1776,0 -3.4314,-0.46192 -1.2318,-0.43993 -1.7377,-1.2538 -0.48392,-0.81387 -0.48392,-2.0457 h 3.0795 q 0,0.54991 0.19797,0.85786 0.21997,0.30795 0.79187,0.46193 0.57191,0.15397 1.6717,0.15397 1.5398,0 2.1117,-0.35194 0.5939,-0.35194 0.5939,-0.98984 0,-0.52791 -0.43993,-0.85786 -0.41793,-0.30795 -1.2538,-0.30795 h -1.8477 q -1.8037,0 -2.7056,-0.6379 -0.90186,-0.65989 -0.90186,-1.6717 0,-0.65989 0.32995,-1.2318 0.35194,-0.5939 0.96784,-0.98984 -1.0998,-0.5939 -1.5837,-1.3858 -0.48392,-0.81387 -0.48392,-1.9577 0,-1.2978 0.65989,-2.2656 0.65989,-0.96784 1.8477,-1.4738 1.1878,-0.52791 2.7056,-0.52791 1.7597,0.044 2.9915,-0.32995 1.2318,-0.39593 2.5076,-1.1658 z m -6.203,1.2098 q -0.83587,0 -1.3198,0.52792 -0.46192,0.52791 -0.46192,1.4298 0,0.94585 0.48392,1.4738 0.48392,0.52792 1.2978,0.52792 0.85786,0 1.3198,-0.50592 0.46193,-0.52791 0.46193,-1.5398 0,-1.9137 -1.7817,-1.9137 z"
       id="path126" />
    <path
       d="m 468.18,691.5 q 0.32995,2.6616 2.8155,2.6616 1.4958,0 2.9915,-0.96784 l 1.3858,1.8917 q -0.85786,0.74788 -2.0457,1.1878 -1.1878,0.41793 -2.6176,0.41793 -1.9577,0 -3.3215,-0.76987 -1.3638,-0.79187 -2.0677,-2.1776 -0.68188,-1.4078 -0.68188,-3.2555 0,-1.7597 0.65989,-3.1675 0.68189,-1.4298 1.9577,-2.2436 1.2978,-0.83587 3.0795,-0.83587 1.6717,0 2.9035,0.72588 1.2318,0.70389 1.8917,2.0677 0.68189,1.3418 0.68189,3.2115 0,0.72588 -0.066,1.2538 z m 2.1556,-4.9272 q -0.94585,0 -1.5178,0.70389 -0.57191,0.68189 -0.68189,2.1117 h 4.2893 q -0.044,-2.8156 -2.0897,-2.8156 z"
       id="path128" />
  </g>
  <g
     aria-label="MAIN"
     id="text1092"
     style="font-style:normal;font-weight:normal;font-size:24px;line-height:1.25;font-family:sans-serif;fill:#ffffff;fill-opacity:1;stroke:none"
     transform="translate(-40.30707)">
    <path
       d="m 163.2823,161.26767 h -4.47656 v -11.68359 l -3.23437,7.58203 h -3.10547 l -3.23438,-7.58203 v 11.68359 h -4.24219 v -17.44922 h 5.22657 l 3.92578,8.75391 3.91406,-8.75391 h 5.22656 z"
       style="font-style:normal;font-variant:normal;font-weight:bold;font-stretch:normal;font-size:24px;font-family:sans-serif;-inkscape-font-specification:'sans-serif Bold';fill:#ffffff"
       id="path1224" />
    <path
       d="m 183.86043,161.26767 h -4.65235 l -1.20703,-3.52734 h -6.46875 l -1.20703,3.52734 h -4.53515 l 6.44531,-17.44922 h 5.17969 z m -6.94922,-6.72656 -2.14453,-6.25782 -2.14453,6.25782 z"
       style="font-style:normal;font-variant:normal;font-weight:bold;font-stretch:normal;font-size:24px;font-family:sans-serif;-inkscape-font-specification:'sans-serif Bold';fill:#ffffff"
       id="path1226" />
    <path
       d="m 195.80183,161.26767 h -10.21875 v -3.09375 h 2.85938 V 146.9122 h -2.85938 v -3.09375 h 10.21875 v 3.09375 h -2.85937 v 11.26172 h 2.85937 z"
       style="font-style:normal;font-variant:normal;font-weight:bold;font-stretch:normal;font-size:24px;font-family:sans-serif;-inkscape-font-specification:'sans-serif Bold';fill:#ffffff"
       id="path1228" />
    <path
       d="m 215.33699,161.26767 h -4.33594 l -7.40625,-11.97656 v 11.97656 h -4.125 v -17.44922 h 5.37891 l 6.36328,9.99609 v -9.99609 h 4.125 z"
       style="font-style:normal;font-variant:normal;font-weight:bold;font-stretch:normal;font-size:24px;font-family:sans-serif;-inkscape-font-specification:'sans-serif Bold';fill:#ffffff"
       id="path1230" />
  </g>
  <g
     aria-label="ORIGIN/PROJECT"
     id="text1092-6"
     style="font-style:normal;font-weight:normal;font-size:24px;line-height:1.25;font-family:sans-serif;fill:#ffffff;fill-opacity:1;stroke:none">
    <path
       d="m 37.727182,83.633087 q 0,4.171875 -2.390625,6.632813 -2.390625,2.449218 -6.609375,2.449218 -4.207031,0 -6.597656,-2.449218 -2.390625,-2.460938 -2.390625,-6.632813 0,-4.207031 2.390625,-6.644531 2.390625,-2.449219 6.597656,-2.449219 4.195313,0 6.597657,2.449219 2.402343,2.4375 2.402343,6.644531 z m -5.964843,4.417969 q 0.65625,-0.796875 0.972656,-1.875 0.316406,-1.089844 0.316406,-2.554688 0,-1.570312 -0.363281,-2.671875 -0.363281,-1.101562 -0.949219,-1.78125 -0.597656,-0.703125 -1.382812,-1.019531 -0.773438,-0.316406 -1.617188,-0.316406 -0.855469,0 -1.617187,0.304687 -0.75,0.304688 -1.382813,1.007813 -0.585937,0.65625 -0.960937,1.816406 -0.363282,1.148438 -0.363282,2.671875 0,1.558594 0.351563,2.660156 0.363281,1.089844 0.949219,1.78125 0.585937,0.691407 1.371093,1.019532 0.785157,0.328125 1.652344,0.328125 0.867188,0 1.652344,-0.328125 0.785156,-0.339844 1.371094,-1.042969 z"
       style="font-style:normal;font-variant:normal;font-weight:bold;font-stretch:normal;font-size:24px;font-family:sans-serif;-inkscape-font-specification:'sans-serif Bold';fill:#ffffff"
       id="path1195" />
    <path
       d="m 50.945932,80.246368 q 0,-0.65625 -0.269531,-1.125 -0.269531,-0.46875 -0.925781,-0.738281 -0.457031,-0.1875 -1.066406,-0.222656 -0.609375,-0.04687 -1.417969,-0.04687 h -1.628906 v 4.699219 h 1.382812 q 1.078125,0 1.804688,-0.105469 0.726562,-0.105469 1.21875,-0.480469 0.46875,-0.363281 0.679687,-0.796875 0.222656,-0.445312 0.222656,-1.183594 z m 7.019532,12.105469 H 52.46937 L 47.711557,85.9534 h -2.074218 v 6.398437 H 41.160776 V 74.902618 h 7.546875 q 1.546875,0 2.660156,0.175782 1.113282,0.175781 2.085938,0.761718 0.984375,0.585938 1.558594,1.523438 0.585937,0.925781 0.585937,2.332031 0,1.933594 -0.902344,3.152344 -0.890625,1.21875 -2.554687,2.027344 z"
       style="font-style:normal;font-variant:normal;font-weight:bold;font-stretch:normal;font-size:24px;font-family:sans-serif;-inkscape-font-specification:'sans-serif Bold';fill:#ffffff"
       id="path1197" />
    <path
       d="m 69.367807,92.351837 h -10.21875 v -3.09375 h 2.859375 V 77.996368 h -2.859375 v -3.09375 h 10.21875 v 3.09375 h -2.859375 v 11.261719 h 2.859375 z"
       style="font-style:normal;font-variant:normal;font-weight:bold;font-stretch:normal;font-size:24px;font-family:sans-serif;-inkscape-font-specification:'sans-serif Bold';fill:#ffffff"
       id="path1199" />
    <path
       d="m 88.46937,91.355743 q -1.171875,0.457032 -3.105469,0.914063 -1.933594,0.445312 -3.855469,0.445312 -4.453125,0 -6.972656,-2.414062 -2.519531,-2.425781 -2.519531,-6.691406 0,-4.066407 2.542969,-6.550782 2.542968,-2.496093 7.089843,-2.496093 1.722657,0 3.28125,0.316406 1.558594,0.304687 3.46875,1.230469 v 4.089843 h -0.503906 q -0.328125,-0.246093 -0.960937,-0.691406 -0.632813,-0.457031 -1.21875,-0.773437 -0.679688,-0.375 -1.59375,-0.644532 -0.902344,-0.269531 -1.921875,-0.269531 -1.195313,0 -2.167969,0.351563 -0.972656,0.351562 -1.746094,1.078125 -0.738281,0.703125 -1.171875,1.792968 -0.421875,1.078125 -0.421875,2.496094 0,2.894531 1.535156,4.429688 1.535157,1.535156 4.535157,1.535156 0.257812,0 0.5625,-0.01172 0.316406,-0.01172 0.574218,-0.03516 v -3.421875 h -3.480468 v -3.292969 h 8.050781 z"
       style="font-style:normal;font-variant:normal;font-weight:bold;font-stretch:normal;font-size:24px;font-family:sans-serif;-inkscape-font-specification:'sans-serif Bold';fill:#ffffff"
       id="path1201" />
    <path
       d="M 101.93421,92.351837 H 91.715464 v -3.09375 h 2.859375 V 77.996368 h -2.859375 v -3.09375 h 10.218746 v 3.09375 h -2.859371 v 11.261719 h 2.859371 z"
       style="font-style:normal;font-variant:normal;font-weight:bold;font-stretch:normal;font-size:24px;font-family:sans-serif;-inkscape-font-specification:'sans-serif Bold';fill:#ffffff"
       id="path1203" />
    <path
       d="m 121.46937,92.351837 h -4.33594 l -7.40625,-11.976562 v 11.976562 h -4.125 V 74.902618 h 5.37891 l 6.36328,9.996094 v -9.996094 h 4.125 z"
       style="font-style:normal;font-variant:normal;font-weight:bold;font-stretch:normal;font-size:24px;font-family:sans-serif;-inkscape-font-specification:'sans-serif Bold';fill:#ffffff"
       id="path1205" />
    <path
       d="m 138.02796,74.117462 -9.29297,22.03125 h -3.59765 l 9.25781,-22.03125 z"
       style="font-style:normal;font-variant:normal;font-weight:bold;font-stretch:normal;font-size:24px;font-family:sans-serif;-inkscape-font-specification:'sans-serif Bold';fill:#ffffff"
       id="path1207" />
    <path
       d="m 156.87171,80.410431 q 0,1.171875 -0.41015,2.296875 -0.41016,1.113281 -1.17188,1.875 -1.04297,1.03125 -2.33203,1.558594 -1.27734,0.527343 -3.1875,0.527343 h -2.80078 v 5.683594 h -4.5 V 74.902618 h 7.40625 q 1.66406,0 2.80078,0.292969 1.14844,0.28125 2.02734,0.855469 1.05469,0.691406 1.60547,1.769531 0.5625,1.078125 0.5625,2.589844 z m -4.65234,0.105469 q 0,-0.738282 -0.39844,-1.265625 -0.39844,-0.539063 -0.92578,-0.75 -0.70312,-0.28125 -1.37109,-0.304688 -0.66797,-0.03516 -1.78125,-0.03516 h -0.77344 v 5.226562 h 1.28906 q 1.14844,0 1.88672,-0.140625 0.75,-0.140625 1.25391,-0.5625 0.43359,-0.375 0.62109,-0.890625 0.19922,-0.527343 0.19922,-1.277343 z"
       style="font-style:normal;font-variant:normal;font-weight:bold;font-stretch:normal;font-size:24px;font-family:sans-serif;-inkscape-font-specification:'sans-serif Bold';fill:#ffffff"
       id="path1209" />
    <path
       d="m 169.84437,80.246368 q 0,-0.65625 -0.26953,-1.125 -0.26953,-0.46875 -0.92578,-0.738281 -0.45703,-0.1875 -1.06641,-0.222656 -0.60937,-0.04687 -1.41797,-0.04687 h -1.6289 v 4.699219 h 1.38281 q 1.07812,0 1.80469,-0.105469 0.72656,-0.105469 1.21875,-0.480469 0.46875,-0.363281 0.67968,-0.796875 0.22266,-0.445312 0.22266,-1.183594 z m 7.01953,12.105469 h -5.49609 L 166.60999,85.9534 h -2.07421 v 6.398437 h -4.47657 V 74.902618 h 7.54688 q 1.54687,0 2.66015,0.175782 1.11329,0.175781 2.08594,0.761718 0.98438,0.585938 1.5586,1.523438 0.58593,0.925781 0.58593,2.332031 0,1.933594 -0.90234,3.152344 -0.89063,1.21875 -2.55469,2.027344 z"
       style="font-style:normal;font-variant:normal;font-weight:bold;font-stretch:normal;font-size:24px;font-family:sans-serif;-inkscape-font-specification:'sans-serif Bold';fill:#ffffff"
       id="path1211" />
    <path
       d="m 195.8014,83.633087 q 0,4.171875 -2.39062,6.632813 -2.39063,2.449218 -6.60938,2.449218 -4.20703,0 -6.59766,-2.449218 -2.39062,-2.460938 -2.39062,-6.632813 0,-4.207031 2.39062,-6.644531 2.39063,-2.449219 6.59766,-2.449219 4.19531,0 6.59766,2.449219 2.40234,2.4375 2.40234,6.644531 z m -5.96484,4.417969 q 0.65625,-0.796875 0.97265,-1.875 0.31641,-1.089844 0.31641,-2.554688 0,-1.570312 -0.36328,-2.671875 -0.36328,-1.101562 -0.94922,-1.78125 -0.59766,-0.703125 -1.38281,-1.019531 -0.77344,-0.316406 -1.61719,-0.316406 -0.85547,0 -1.61719,0.304687 -0.75,0.304688 -1.38281,1.007813 -0.58594,0.65625 -0.96094,1.816406 -0.36328,1.148438 -0.36328,2.671875 0,1.558594 0.35156,2.660156 0.36328,1.089844 0.94922,1.78125 0.58594,0.691407 1.3711,1.019532 0.78515,0.328125 1.65234,0.328125 0.86719,0 1.65234,-0.328125 0.78516,-0.339844 1.3711,-1.042969 z"
       style="font-style:normal;font-variant:normal;font-weight:bold;font-stretch:normal;font-size:24px;font-family:sans-serif;-inkscape-font-specification:'sans-serif Bold';fill:#ffffff"
       id="path1213" />
    <path
       d="m 208.32874,87.230743 q 0,1.148438 -0.41015,2.15625 -0.41016,0.996094 -1.21875,1.6875 -0.85547,0.738282 -2.0625,1.148438 -1.20703,0.398437 -2.98828,0.398437 -1.20703,0 -2.27344,-0.09375 -1.06641,-0.08203 -1.875,-0.246093 v -3.539063 h 0.42187 q 0.5625,0.210938 1.17188,0.398438 0.60937,0.175781 1.55859,0.175781 1.23047,0 1.88672,-0.328125 0.66797,-0.328125 0.94922,-0.914063 0.26953,-0.574218 0.30469,-1.253906 0.0352,-0.691406 0.0352,-1.757812 v -6.949219 h -3.99609 v -3.210938 h 8.49609 z"
       style="font-style:normal;font-variant:normal;font-weight:bold;font-stretch:normal;font-size:24px;font-family:sans-serif;-inkscape-font-specification:'sans-serif Bold';fill:#ffffff"
       id="path1215" />
    <path
       d="m 225.18031,92.351837 h -12.6211 V 74.902618 h 12.6211 v 3.375 h -8.14453 v 3.011719 h 7.55859 v 3.375 h -7.55859 v 4.3125 h 8.14453 z"
       style="font-style:normal;font-variant:normal;font-weight:bold;font-stretch:normal;font-size:24px;font-family:sans-serif;-inkscape-font-specification:'sans-serif Bold';fill:#ffffff"
       id="path1217" />
    <path
       d="m 236.84046,92.691681 q -1.94531,0 -3.59765,-0.574219 -1.64063,-0.574219 -2.82422,-1.710937 -1.1836,-1.136719 -1.83985,-2.835938 -0.64453,-1.699219 -0.64453,-3.925781 0,-2.074219 0.6211,-3.761719 0.62109,-1.6875 1.80468,-2.894531 1.13672,-1.160156 2.8125,-1.792969 1.6875,-0.632812 3.67969,-0.632812 1.10156,0 1.98047,0.128906 0.89063,0.117187 1.64063,0.316406 0.78515,0.222656 1.41796,0.503906 0.64454,0.269532 1.125,0.503907 v 4.230468 h -0.51562 q -0.32813,-0.28125 -0.83203,-0.667968 -0.49219,-0.386719 -1.125,-0.761719 -0.64453,-0.375 -1.39453,-0.632813 -0.75,-0.257812 -1.60547,-0.257812 -0.94922,0 -1.80469,0.304687 -0.85547,0.292969 -1.58203,0.984375 -0.69141,0.667969 -1.125,1.769532 -0.42188,1.101562 -0.42188,2.671875 0,1.640625 0.45704,2.742187 0.46875,1.101563 1.17187,1.734375 0.71484,0.644531 1.59375,0.925781 0.87891,0.269532 1.73438,0.269532 0.82031,0 1.61718,-0.246094 0.8086,-0.246094 1.48828,-0.667969 0.57422,-0.339844 1.06641,-0.726562 0.49219,-0.386719 0.80859,-0.667969 h 0.46875 v 4.171875 q -0.65625,0.292969 -1.2539,0.550781 -0.59766,0.257813 -1.25391,0.445313 -0.85547,0.246093 -1.60547,0.375 -0.75,0.128906 -2.0625,0.128906 z"
       style="font-style:normal;font-variant:normal;font-weight:bold;font-stretch:normal;font-size:24px;font-family:sans-serif;-inkscape-font-specification:'sans-serif Bold';fill:#ffffff"
       id="path1219" />
    <path
       d="m 259.97328,78.277618 h -5.44922 v 14.074219 h -4.5 V 78.277618 h -5.44922 v -3.375 h 15.39844 z"
       style="font-style:normal;font-variant:normal;font-weight:bold;font-stretch:normal;font-size:24px;font-family:sans-serif;-inkscape-font-specification:'sans-serif Bold';fill:#ffffff"
       id="path1221" />
  </g>
  <g
     aria-label="FORK-A/PROJECT"
     id="text1092-6-5"
     style="font-style:normal;font-weight:normal;font-size:24px;line-height:1.25;font-family:sans-serif;fill:#ffffff;fill-opacity:1;stroke:none"
     transform="translate(4.114015)">
    <path
       d="m 481.24799,78.277618 h -8.02735 v 3.246094 h 7.44141 v 3.375 h -7.44141 v 7.453125 h -4.47656 V 74.902618 h 12.50391 z"
       style="font-style:normal;font-variant:normal;font-weight:bold;font-stretch:normal;font-size:24px;font-family:sans-serif;-inkscape-font-specification:'sans-serif Bold';fill:#ffffff"
       id="path1248" />
    <path
       d="m 501.3222,83.633087 q 0,4.171875 -2.39062,6.632813 -2.39063,2.449218 -6.60938,2.449218 -4.20703,0 -6.59765,-2.449218 -2.39063,-2.460938 -2.39063,-6.632813 0,-4.207031 2.39063,-6.644531 2.39062,-2.449219 6.59765,-2.449219 4.19532,0 6.59766,2.449219 2.40234,2.4375 2.40234,6.644531 z m -5.96484,4.417969 q 0.65625,-0.796875 0.97266,-1.875 0.3164,-1.089844 0.3164,-2.554688 0,-1.570312 -0.36328,-2.671875 -0.36328,-1.101562 -0.94922,-1.78125 -0.59765,-0.703125 -1.38281,-1.019531 -0.77344,-0.316406 -1.61719,-0.316406 -0.85547,0 -1.61718,0.304687 -0.75,0.304688 -1.38282,1.007813 -0.58593,0.65625 -0.96093,1.816406 -0.36329,1.148438 -0.36329,2.671875 0,1.558594 0.35157,2.660156 0.36328,1.089844 0.94922,1.78125 0.58593,0.691407 1.37109,1.019532 0.78516,0.328125 1.65234,0.328125 0.86719,0 1.65235,-0.328125 0.78515,-0.339844 1.37109,-1.042969 z"
       style="font-style:normal;font-variant:normal;font-weight:bold;font-stretch:normal;font-size:24px;font-family:sans-serif;-inkscape-font-specification:'sans-serif Bold';fill:#ffffff"
       id="path1250" />
    <path
       d="m 514.54095,80.246368 q 0,-0.65625 -0.26953,-1.125 -0.26953,-0.46875 -0.92578,-0.738281 -0.45703,-0.1875 -1.0664,-0.222656 -0.60938,-0.04687 -1.41797,-0.04687 h -1.62891 v 4.699219 h 1.38281 q 1.07813,0 1.80469,-0.105469 0.72656,-0.105469 1.21875,-0.480469 0.46875,-0.363281 0.67969,-0.796875 0.22265,-0.445312 0.22265,-1.183594 z m 7.01954,12.105469 h -5.4961 L 511.30658,85.9534 h -2.07422 v 6.398437 H 504.7558 V 74.902618 h 7.54687 q 1.54688,0 2.66016,0.175782 1.11328,0.175781 2.08594,0.761718 0.98437,0.585938 1.55859,1.523438 0.58594,0.925781 0.58594,2.332031 0,1.933594 -0.90235,3.152344 -0.89062,1.21875 -2.55468,2.027344 z"
       style="font-style:normal;font-variant:normal;font-weight:bold;font-stretch:normal;font-size:24px;font-family:sans-serif;-inkscape-font-specification:'sans-serif Bold';fill:#ffffff"
       id="path1252" />
    <path
       d="m 539.8183,92.351837 h -5.51953 l -5.21485,-6.984375 -1.05468,1.277344 v 5.707031 h -4.5 V 74.902618 h 4.5 v 7.898438 l 6.23437,-7.898438 h 5.21484 l -6.82031,8.074219 z"
       style="font-style:normal;font-variant:normal;font-weight:bold;font-stretch:normal;font-size:24px;font-family:sans-serif;-inkscape-font-specification:'sans-serif Bold';fill:#ffffff"
       id="path1254" />
    <path
       d="m 550.03705,86.281525 h -8.94141 v -3.375 h 8.94141 z"
       style="font-style:normal;font-variant:normal;font-weight:bold;font-stretch:normal;font-size:24px;font-family:sans-serif;-inkscape-font-specification:'sans-serif Bold';fill:#ffffff"
       id="path1256" />
    <path
       d="m 569.67767,92.351837 h -4.65234 l -1.20703,-3.527344 h -6.46875 l -1.20703,3.527344 h -4.53516 l 6.44531,-17.449219 h 5.17969 z m -6.94922,-6.726562 -2.14453,-6.257813 -2.14453,6.257813 z"
       style="font-style:normal;font-variant:normal;font-weight:bold;font-stretch:normal;font-size:24px;font-family:sans-serif;-inkscape-font-specification:'sans-serif Bold';fill:#ffffff"
       id="path1258" />
    <path
       d="m 584.29095,74.117462 -9.29296,22.03125 h -3.59766 l 9.25781,-22.03125 z"
       style="font-style:normal;font-variant:normal;font-weight:bold;font-stretch:normal;font-size:24px;font-family:sans-serif;-inkscape-font-specification:'sans-serif Bold';fill:#ffffff"
       id="path1260" />
    <path
       d="m 603.1347,80.410431 q 0,1.171875 -0.41015,2.296875 -0.41016,1.113281 -1.17188,1.875 -1.04297,1.03125 -2.33203,1.558594 -1.27734,0.527343 -3.1875,0.527343 h -2.80078 v 5.683594 h -4.5 V 74.902618 h 7.40625 q 1.66406,0 2.80078,0.292969 1.14844,0.28125 2.02735,0.855469 1.05468,0.691406 1.60546,1.769531 0.5625,1.078125 0.5625,2.589844 z m -4.65234,0.105469 q 0,-0.738282 -0.39844,-1.265625 -0.39843,-0.539063 -0.92578,-0.75 -0.70312,-0.28125 -1.37109,-0.304688 -0.66797,-0.03516 -1.78125,-0.03516 h -0.77344 v 5.226562 h 1.28906 q 1.14844,0 1.88672,-0.140625 0.75,-0.140625 1.25391,-0.5625 0.43359,-0.375 0.62109,-0.890625 0.19922,-0.527343 0.19922,-1.277343 z"
       style="font-style:normal;font-variant:normal;font-weight:bold;font-stretch:normal;font-size:24px;font-family:sans-serif;-inkscape-font-specification:'sans-serif Bold';fill:#ffffff"
       id="path1262" />
    <path
       d="m 616.10736,80.246368 q 0,-0.65625 -0.26953,-1.125 -0.26953,-0.46875 -0.92578,-0.738281 -0.45703,-0.1875 -1.06641,-0.222656 -0.60937,-0.04687 -1.41797,-0.04687 h -1.6289 v 4.699219 h 1.38281 q 1.07812,0 1.80469,-0.105469 0.72656,-0.105469 1.21875,-0.480469 0.46875,-0.363281 0.67968,-0.796875 0.22266,-0.445312 0.22266,-1.183594 z m 7.01953,12.105469 H 617.6308 L 612.87299,85.9534 h -2.07422 v 6.398437 H 606.3222 V 74.902618 h 7.54688 q 1.54687,0 2.66016,0.175782 1.11328,0.175781 2.08593,0.761718 0.98438,0.585938 1.5586,1.523438 0.58593,0.925781 0.58593,2.332031 0,1.933594 -0.90234,3.152344 -0.89062,1.21875 -2.55469,2.027344 z"
       style="font-style:normal;font-variant:normal;font-weight:bold;font-stretch:normal;font-size:24px;font-family:sans-serif;-inkscape-font-specification:'sans-serif Bold';fill:#ffffff"
       id="path1264" />
    <path
       d="m 642.06439,83.633087 q 0,4.171875 -2.39062,6.632813 -2.39063,2.449218 -6.60938,2.449218 -4.20703,0 -6.59765,-2.449218 -2.39063,-2.460938 -2.39063,-6.632813 0,-4.207031 2.39063,-6.644531 2.39062,-2.449219 6.59765,-2.449219 4.19531,0 6.59766,2.449219 2.40234,2.4375 2.40234,6.644531 z m -5.96484,4.417969 q 0.65625,-0.796875 0.97265,-1.875 0.31641,-1.089844 0.31641,-2.554688 0,-1.570312 -0.36328,-2.671875 -0.36328,-1.101562 -0.94922,-1.78125 -0.59766,-0.703125 -1.38281,-1.019531 -0.77344,-0.316406 -1.61719,-0.316406 -0.85547,0 -1.61719,0.304687 -0.75,0.304688 -1.38281,1.007813 -0.58594,0.65625 -0.96094,1.816406 -0.36328,1.148438 -0.36328,2.671875 0,1.558594 0.35156,2.660156 0.36329,1.089844 0.94922,1.78125 0.58594,0.691407 1.3711,1.019532 0.78515,0.328125 1.65234,0.328125 0.86719,0 1.65234,-0.328125 0.78516,-0.339844 1.3711,-1.042969 z"
       style="font-style:normal;font-variant:normal;font-weight:bold;font-stretch:normal;font-size:24px;font-family:sans-serif;-inkscape-font-specification:'sans-serif Bold';fill:#ffffff"
       id="path1266" />
    <path
       d="m 654.59174,87.230743 q 0,1.148438 -0.41016,2.15625 -0.41016,0.996094 -1.21875,1.6875 -0.85547,0.738282 -2.0625,1.148438 -1.20703,0.398437 -2.98828,0.398437 -1.20703,0 -2.27344,-0.09375 -1.06641,-0.08203 -1.875,-0.246093 v -3.539063 h 0.42188 q 0.5625,0.210938 1.17187,0.398438 0.60938,0.175781 1.55859,0.175781 1.23047,0 1.88672,-0.328125 0.66797,-0.328125 0.94922,-0.914063 0.26953,-0.574218 0.30469,-1.253906 0.0352,-0.691406 0.0352,-1.757812 v -6.949219 h -3.9961 v -3.210938 h 8.4961 z"
       style="font-style:normal;font-variant:normal;font-weight:bold;font-stretch:normal;font-size:24px;font-family:sans-serif;-inkscape-font-specification:'sans-serif Bold';fill:#ffffff"
       id="path1268" />
    <path
       d="M 671.4433,92.351837 H 658.8222 V 74.902618 h 12.6211 v 3.375 h -8.14453 v 3.011719 h 7.55859 v 3.375 h -7.55859 v 4.3125 h 8.14453 z"
       style="font-style:normal;font-variant:normal;font-weight:bold;font-stretch:normal;font-size:24px;font-family:sans-serif;-inkscape-font-specification:'sans-serif Bold';fill:#ffffff"
       id="path1270" />
    <path
       d="m 683.10345,92.691681 q -1.94531,0 -3.59765,-0.574219 -1.64063,-0.574219 -2.82422,-1.710937 -1.18359,-1.136719 -1.83984,-2.835938 -0.64454,-1.699219 -0.64454,-3.925781 0,-2.074219 0.6211,-3.761719 0.62109,-1.6875 1.80469,-2.894531 1.13671,-1.160156 2.8125,-1.792969 1.6875,-0.632812 3.67968,-0.632812 1.10157,0 1.98047,0.128906 0.89063,0.117187 1.64063,0.316406 0.78515,0.222656 1.41797,0.503906 0.64453,0.269532 1.125,0.503907 v 4.230468 h -0.51563 q -0.32812,-0.28125 -0.83203,-0.667968 -0.49219,-0.386719 -1.125,-0.761719 -0.64453,-0.375 -1.39453,-0.632813 -0.75,-0.257812 -1.60547,-0.257812 -0.94922,0 -1.80469,0.304687 -0.85547,0.292969 -1.58203,0.984375 -0.69141,0.667969 -1.125,1.769532 -0.42187,1.101562 -0.42187,2.671875 0,1.640625 0.45703,2.742187 0.46875,1.101563 1.17187,1.734375 0.71485,0.644531 1.59375,0.925781 0.87891,0.269532 1.73438,0.269532 0.82031,0 1.61718,-0.246094 0.8086,-0.246094 1.48829,-0.667969 0.57421,-0.339844 1.0664,-0.726562 0.49219,-0.386719 0.8086,-0.667969 h 0.46875 v 4.171875 q -0.65625,0.292969 -1.25391,0.550781 -0.59766,0.257813 -1.25391,0.445313 -0.85547,0.246093 -1.60547,0.375 -0.75,0.128906 -2.0625,0.128906 z"
       style="font-style:normal;font-variant:normal;font-weight:bold;font-stretch:normal;font-size:24px;font-family:sans-serif;-inkscape-font-specification:'sans-serif Bold';fill:#ffffff"
       id="path1272" />
    <path
       d="m 706.23627,78.277618 h -5.44922 v 14.074219 h -4.5 V 78.277618 h -5.44922 v -3.375 h 15.39844 z"
       style="font-style:normal;font-variant:normal;font-weight:bold;font-stretch:normal;font-size:24px;font-family:sans-serif;-inkscape-font-specification:'sans-serif Bold';fill:#ffffff"
       id="path1274" />
  </g>
  <g
     aria-label="BRANCH A"
     id="text1092-9"
     style="font-style:normal;font-weight:normal;font-size:24px;line-height:1.25;font-family:sans-serif;fill:#ffffff;fill-opacity:1;stroke:none">
    <path
       d="m 537.63348,155.92392 q 0,1.26562 -0.51562,2.26172 -0.50391,0.99609 -1.39453,1.65234 -1.03125,0.77344 -2.27344,1.10156 -1.23047,0.32813 -3.12891,0.32813 h -7.61718 v -17.44922 h 6.77343 q 2.10938,0 3.08204,0.14063 0.98437,0.14062 1.94531,0.62109 0.99609,0.50391 1.47656,1.35937 0.49219,0.84375 0.49219,1.9336 0,1.26562 -0.66797,2.23828 -0.66797,0.96094 -1.88672,1.5 v 0.0937 q 1.71094,0.33984 2.70703,1.40625 1.00781,1.06641 1.00781,2.8125 z m -5.76562,-7.17188 q 0,-0.43359 -0.22266,-0.86718 -0.21093,-0.4336 -0.76172,-0.64453 -0.49218,-0.1875 -1.23046,-0.19922 -0.72657,-0.0234 -2.05079,-0.0234 h -0.42187 v 3.69141 h 0.70312 q 1.06641,0 1.81641,-0.0352 0.75,-0.0352 1.18359,-0.23438 0.60938,-0.26953 0.79688,-0.6914 0.1875,-0.4336 0.1875,-0.9961 z m 1.10156,7.10157 q 0,-0.83203 -0.32812,-1.27735 -0.31641,-0.45703 -1.08985,-0.67968 -0.52734,-0.15235 -1.45312,-0.16407 -0.92578,-0.0117 -1.9336,-0.0117 h -0.98437 v 4.34766 h 0.32812 q 1.89844,0 2.71875,-0.0117 0.82032,-0.0117 1.51172,-0.30469 0.70313,-0.29296 0.96094,-0.77343 0.26953,-0.49219 0.26953,-1.125 z"
       style="font-style:normal;font-variant:normal;font-weight:bold;font-stretch:normal;font-size:24px;font-family:sans-serif;-inkscape-font-specification:'sans-serif Bold';fill:#ffffff"
       id="path1233" />
    <path
       d="m 550.7702,149.1622 q 0,-0.65625 -0.26953,-1.125 -0.26953,-0.46875 -0.92578,-0.73828 -0.45703,-0.1875 -1.06641,-0.22266 -0.60937,-0.0469 -1.41796,-0.0469 h -1.62891 v 4.69922 h 1.38281 q 1.07813,0 1.80469,-0.10547 0.72656,-0.10547 1.21875,-0.48047 0.46875,-0.36328 0.67969,-0.79688 0.22265,-0.44531 0.22265,-1.18359 z m 7.01953,12.10547 h -5.49609 l -4.75781,-6.39844 h -2.07422 v 6.39844 h -4.47656 v -17.44922 h 7.54687 q 1.54688,0 2.66016,0.17578 1.11328,0.17578 2.08594,0.76172 0.98437,0.58594 1.55859,1.52344 0.58594,0.92578 0.58594,2.33203 0,1.93359 -0.90235,3.15234 -0.89062,1.21875 -2.55468,2.02735 z"
       style="font-style:normal;font-variant:normal;font-weight:bold;font-stretch:normal;font-size:24px;font-family:sans-serif;-inkscape-font-specification:'sans-serif Bold';fill:#ffffff"
       id="path1235" />
    <path
       d="m 575.88348,161.26767 h -4.65234 l -1.20703,-3.52734 h -6.46875 l -1.20703,3.52734 h -4.53516 l 6.44531,-17.44922 h 5.17969 z m -6.94921,-6.72656 -2.14454,-6.25782 -2.14453,6.25782 z"
       style="font-style:normal;font-variant:normal;font-weight:bold;font-stretch:normal;font-size:24px;font-family:sans-serif;-inkscape-font-specification:'sans-serif Bold';fill:#ffffff"
       id="path1237" />
    <path
       d="m 594.25848,161.26767 h -4.33593 l -7.40625,-11.97656 v 11.97656 h -4.125 v -17.44922 h 5.3789 l 6.36328,9.99609 v -9.99609 h 4.125 z"
       style="font-style:normal;font-variant:normal;font-weight:bold;font-stretch:normal;font-size:24px;font-family:sans-serif;-inkscape-font-specification:'sans-serif Bold';fill:#ffffff"
       id="path1239" />
    <path
       d="m 606.59833,161.60751 q -1.94531,0 -3.59766,-0.57422 -1.64062,-0.57421 -2.82422,-1.71093 -1.18359,-1.13672 -1.83984,-2.83594 -0.64453,-1.69922 -0.64453,-3.92578 0,-2.07422 0.62109,-3.76172 0.6211,-1.6875 1.80469,-2.89453 1.13672,-1.16016 2.8125,-1.79297 1.6875,-0.63281 3.67969,-0.63281 1.10156,0 1.98047,0.1289 0.89062,0.11719 1.64062,0.31641 0.78516,0.22266 1.41797,0.50391 0.64453,0.26953 1.125,0.5039 v 4.23047 h -0.51563 q -0.32812,-0.28125 -0.83203,-0.66797 -0.49218,-0.38672 -1.125,-0.76172 -0.64453,-0.375 -1.39453,-0.63281 -0.75,-0.25781 -1.60547,-0.25781 -0.94922,0 -1.80468,0.30469 -0.85547,0.29296 -1.58204,0.98437 -0.6914,0.66797 -1.125,1.76953 -0.42187,1.10156 -0.42187,2.67188 0,1.64062 0.45703,2.74218 0.46875,1.10157 1.17188,1.73438 0.71484,0.64453 1.59375,0.92578 0.8789,0.26953 1.73437,0.26953 0.82031,0 1.61719,-0.24609 0.80859,-0.2461 1.48828,-0.66797 0.57422,-0.33984 1.06641,-0.72656 0.49218,-0.38672 0.80859,-0.66797 h 0.46875 v 4.17187 q -0.65625,0.29297 -1.25391,0.55078 -0.59765,0.25782 -1.2539,0.44532 -0.85547,0.24609 -1.60547,0.375 -0.75,0.1289 -2.0625,0.1289 z"
       style="font-style:normal;font-variant:normal;font-weight:bold;font-stretch:normal;font-size:24px;font-family:sans-serif;-inkscape-font-specification:'sans-serif Bold';fill:#ffffff"
       id="path1241" />
    <path
       d="m 631.72333,161.26767 h -4.5 v -7.6875 h -6.64453 v 7.6875 h -4.5 v -17.44922 h 4.5 v 6.38672 h 6.64453 v -6.38672 h 4.5 z"
       style="font-style:normal;font-variant:normal;font-weight:bold;font-stretch:normal;font-size:24px;font-family:sans-serif;-inkscape-font-specification:'sans-serif Bold';fill:#ffffff"
       id="path1243" />
    <path
       d="m 660.50458,161.26767 h -4.65235 l -1.20703,-3.52734 h -6.46875 l -1.20703,3.52734 h -4.53515 l 6.44531,-17.44922 h 5.17969 z m -6.94922,-6.72656 -2.14453,-6.25782 -2.14453,6.25782 z"
       style="font-style:normal;font-variant:normal;font-weight:bold;font-stretch:normal;font-size:24px;font-family:sans-serif;-inkscape-font-specification:'sans-serif Bold';fill:#ffffff"
       id="path1245" />
  </g>
</svg>
