<?xml version="1.0" encoding="UTF-8" standalone="no"?>
<svg
   xmlns:dc="http://purl.org/dc/elements/1.1/"
   xmlns:cc="http://creativecommons.org/ns#"
   xmlns:rdf="http://www.w3.org/1999/02/22-rdf-syntax-ns#"
   xmlns:svg="http://www.w3.org/2000/svg"
   xmlns="http://www.w3.org/2000/svg"
   xmlns:sodipodi="http://sodipodi.sourceforge.net/DTD/sodipodi-0.dtd"
   xmlns:inkscape="http://www.inkscape.org/namespaces/inkscape"
   version="1.1"
   viewBox="0 0 733.32 494.89"
   id="svg242"
   sodipodi:docname="review.svg"
   inkscape:version="1.0.2-2 (e86c870879, 2021-01-15)">
  <metadata
     id="metadata246">
    <rdf:RDF>
      <cc:Work
         rdf:about="">
        <dc:format>image/svg+xml</dc:format>
        <dc:type
           rdf:resource="http://purl.org/dc/dcmitype/StillImage" />
      </cc:Work>
    </rdf:RDF>
  </metadata>
  <sodipodi:namedview
     pagecolor="#ffffff"
     bordercolor="#666666"
     borderopacity="1"
     objecttolerance="10"
     gridtolerance="10"
     guidetolerance="10"
     inkscape:pageopacity="0"
     inkscape:pageshadow="2"
     inkscape:window-width="2560"
     inkscape:window-height="2054"
     id="namedview244"
     showgrid="false"
     inkscape:zoom="1.4851785"
     inkscape:cx="366.66"
     inkscape:cy="247.44501"
     inkscape:window-x="2549"
     inkscape:window-y="-11"
     inkscape:window-maximized="1"
     inkscape:current-layer="svg242" />
  <defs
     id="defs14">
    <marker
       id="marker2435"
       overflow="visible"
       orient="auto">
      <path
         transform="scale(-.6)"
         d="m8.7186 4.0337-10.926-4.0177 10.926-4.0177c-1.7455 2.3721-1.7354 5.6175-6e-7 8.0354z"
         fill-rule="evenodd"
         stroke="#000"
         stroke-linejoin="round"
         stroke-width=".625"
         id="path2" />
    </marker>
    <marker
       id="marker1093"
       overflow="visible"
       orient="auto">
      <path
         transform="scale(-.6)"
         d="m8.7186 4.0337-10.926-4.0177 10.926-4.0177c-1.7455 2.3721-1.7354 5.6175-6e-7 8.0354z"
         fill-rule="evenodd"
         stroke="#000"
         stroke-linejoin="round"
         stroke-width=".625"
         id="path5" />
    </marker>
    <marker
       id="marker1041"
       overflow="visible"
       orient="auto">
      <path
         transform="scale(-.6)"
         d="m8.7186 4.0337-10.926-4.0177 10.926-4.0177c-1.7455 2.3721-1.7354 5.6175-6e-7 8.0354z"
         fill-rule="evenodd"
         stroke="#000"
         stroke-linejoin="round"
         stroke-width=".625"
         id="path8" />
    </marker>
    <marker
       id="marker5882"
       overflow="visible"
       orient="auto">
      <path
         transform="scale(-.6)"
         d="m8.7186 4.0337-10.926-4.0177 10.926-4.0177c-1.7455 2.3721-1.7354 5.6175-6e-7 8.0354z"
         fill-rule="evenodd"
         stroke="#000"
         stroke-linejoin="round"
         stroke-width=".625"
         id="path11" />
    </marker>
  </defs>
  <path
     d="m10 315.18h713.32"
     fill="none"
     stroke="#888a85"
     stroke-dasharray="11.15365966, 5.57682983"
     stroke-width="5.5768"
     id="path16"
     style="stroke-width:5.57700014;stroke-miterlimit:4;stroke-dasharray:33.46200085,33.46200085;stroke-dashoffset:0" />
  <path
     d="m508.3 146.07c-19.999 33.693 113.18 102.66-19.406 105.38"
     fill="none"
     marker-end="url(#marker2435)"
     stroke="#000"
     stroke-linecap="round"
     stroke-linejoin="round"
     stroke-width="7.0761"
     id="path46" />
  <rect
     transform="rotate(90)"
     x="82.48"
     y="-569.84"
     width="46.628"
     height="139.72"
     ry=".67451"
     fill="#c00"
     stroke="#a40000"
     stroke-linecap="square"
     stroke-width="8.4883"
     id="rect48" />
  <g
     transform="translate(-111.16,-465.79)"
     fill="#fff"
     stroke-width="2.9698"
     aria-label="BRANCH A"
     id="g64">
    <path
       d="m566.15 575.12q0 2.6372-1.877 3.7301-1.8532 1.0929-4.8943 1.0929h-5.4645v-16.465h5.2269q2.8273 0 4.5617 0.99787 1.7344 0.97411 1.7344 3.2074 0 1.4018-0.85531 2.3046-0.85532 0.90284-2.162 1.2355 1.5681 0.26135 2.6372 1.1879 1.0929 0.90283 1.0929 2.7085zm-4.633-7.0326q0-0.97411-0.61773-1.4018-0.59397-0.45141-1.9007-0.45141h-1.1879v3.8252h1.3305q1.2354 0 1.8057-0.45142 0.57021-0.47517 0.57021-1.5206zm0.61772 6.8663q0-1.2355-0.71276-1.7582-0.689-0.52269-2.0195-0.52269h-1.5918v4.4191h1.4255q1.3542 0 2.1145-0.45142 0.78404-0.45142 0.78404-1.6869z"
       id="path50" />
    <path
       d="m580.16 568.49q0 1.6631-0.90283 2.8035-0.87907 1.1167-2.3759 1.7106l4.3003 6.9376h-4.4191l-3.5638-6.2961h-1.0929v6.2961h-3.8964v-16.465h5.1794q3.3975 0 5.0844 1.2355 1.6869 1.2354 1.6869 3.7776zm-4.0152 0q0-1.1879-0.689-1.7344-0.66525-0.54645-2.067-0.54645h-1.283v4.7518h1.4493q1.283 0 1.9245-0.59397 0.66524-0.59397 0.66524-1.8769z"
       id="path52" />
    <path
       d="m590.58 576.38h-4.823l-0.85531 3.5638h-4.0865l5.0369-16.465h4.728l5.0369 16.465h-4.1816zm-4.2053-2.8035h3.5638l-1.7819-7.294z"
       id="path54" />
    <path
       d="m599.29 566.71q0.23759 1.8057 0.4039 3.4925 0.16632 1.6631 0.16632 3.5401v6.201h-3.3025v-16.465h4.8705l4.1816 13.186q-0.57021-3.6588-0.57021-6.89v-6.2961h3.3025v16.465h-4.728z"
       id="path56" />
    <path
       d="m618.07 563.05q1.7106 0 2.9461 0.45142 1.2354 0.45141 2.3284 1.3542l-1.9007 2.3046q-1.4968-1.2117-3.2787-1.2117-1.6869 0-2.7323 1.4255-1.0216 1.4255-1.0216 4.3003t1.0216 4.2766q1.0216 1.378 2.8035 1.378 1.0929 0 1.8769-0.38015 0.78404-0.38014 1.6869-1.0929l1.7582 2.2571q-2.1858 2.2333-5.5358 2.2333-2.2571 0-3.9915-0.99787-1.7106-0.99787-2.6848-2.9461-0.97411-1.972-0.97411-4.728 0-2.6848 0.99787-4.633t2.756-2.9698 3.944-1.0216z"
       id="path58" />
    <path
       d="m632.94 579.95v-6.9376h-3.9915v6.9376h-3.8964v-16.465h3.8964v6.3198h3.9915v-6.3198h3.8964v16.465z"
       id="path60" />
    <path
       d="m661.81 576.38h-4.823l-0.85532 3.5638h-4.0865l5.0369-16.465h4.728l5.0369 16.465h-4.1815zm-4.2053-2.8035h3.5638l-1.7819-7.294z"
       id="path62" />
  </g>
  <g
     transform="translate(-111.16,-465.79)"
     stroke-width="2.7496"
     style="font-feature-settings:normal;font-variant-caps:normal;font-variant-ligatures:normal;font-variant-numeric:normal"
     aria-label="Merge"
     id="g76">
    <path
       d="m329.21 679.3h-3.1675l-0.17597-6.5329q-0.022-0.48392-0.022-1.3198 0-1.0998 0.066-2.1337 0.066-1.0558 0.15398-2.1996l-1.7157 9.5904h-2.7276l-1.8697-9.5904q0.24196 2.5296 0.24196 4.5533l-0.022 1.1658-0.10999 6.467h-3.1015l0.85786-15.244h3.7174l1.6937 9.8544 1.6057-9.8544h3.7174z"
       id="path66" />
    <path
       d="m334.13 674.48q0.32994 2.6616 2.8155 2.6616 1.4958 0 2.9915-0.96784l1.3858 1.8917q-0.85786 0.74788-2.0457 1.1878-1.1878 0.41793-2.6176 0.41793-1.9577 0-3.3215-0.76987-1.3638-0.79187-2.0677-2.1776-0.68189-1.4078-0.68189-3.2555 0-1.7597 0.65989-3.1675 0.68189-1.4298 1.9577-2.2436 1.2978-0.83587 3.0795-0.83587 1.6717 0 2.9035 0.72588 1.2318 0.70389 1.8917 2.0677 0.68189 1.3418 0.68189 3.2115 0 0.72588-0.066 1.2538zm2.1556-4.9272q-0.94585 0-1.5178 0.70389-0.5719 0.68189-0.68189 2.1117h4.2893q-0.044-2.8156-2.0897-2.8156z"
       id="path68" />
    <path
       d="m353.22 667.26q1.0558 0 1.9357 0.35195l-0.63789 4.8832h-2.1996v-2.1337q-0.96784 0.15398-1.7157 1.0338-0.74788 0.87986-1.1658 2.2216v3.3435h2.3096v2.3316h-7.3248v-2.3316h1.5398v-7.0389h-1.5398v-2.3096h4.2013l0.6159 2.6176q0.6379-1.4958 1.6057-2.2216 0.96784-0.74788 2.3756-0.74788z"
       id="path70" />
    <path
       d="m368.67 668.3q-1.1438 0.46192-3.3654 0.46192 1.1438 0.50592 1.6937 1.2098 0.5719 0.70388 0.5719 1.8037 0 1.1218-0.6159 2.0237-0.6159 0.87986-1.7377 1.3858-1.1218 0.50592-2.5956 0.50592-0.72589 0-1.3638-0.13198-0.17597 0.088-0.28596 0.28595-0.088 0.17597-0.088 0.37394 0 0.32995 0.24196 0.52792 0.26396 0.17597 1.0338 0.17597h1.9357q1.3198 0 2.3316 0.43993t1.5617 1.2098q0.54992 0.76988 0.54992 1.7377 0 1.8257-1.6057 2.8375-1.5838 1.0338-4.6412 1.0338-2.1776 0-3.4314-0.46192-1.2318-0.43993-1.7377-1.2538-0.48392-0.81387-0.48392-2.0457h3.0795q0 0.54991 0.19796 0.85786 0.21997 0.30795 0.79188 0.46193 0.5719 0.15397 1.6717 0.15397 1.5398 0 2.1117-0.35194 0.59391-0.35194 0.59391-0.98984 0-0.52792-0.43993-0.85786-0.41793-0.30795-1.2538-0.30795h-1.8477q-1.8037 0-2.7056-0.6379-0.90185-0.65989-0.90185-1.6717 0-0.65989 0.32994-1.2318 0.35195-0.5939 0.96785-0.98984-1.0998-0.5939-1.5838-1.3858-0.48392-0.81387-0.48392-1.9577 0-1.2978 0.65989-2.2656 0.6599-0.96784 1.8477-1.4738 1.1878-0.52791 2.7056-0.52791 1.7597 0.044 2.9915-0.32995 1.2318-0.39593 2.5076-1.1658zm-6.203 1.2098q-0.83586 0-1.3198 0.52791-0.46192 0.52792-0.46192 1.4298 0 0.94585 0.48392 1.4738 0.48392 0.52792 1.2978 0.52792 0.85786 0 1.3198-0.50592 0.46192-0.52791 0.46192-1.5398 0-1.9137-1.7817-1.9137z"
       id="path72" />
    <path
       d="m373.7 674.48q0.32995 2.6616 2.8156 2.6616 1.4958 0 2.9915-0.96784l1.3858 1.8917q-0.85786 0.74788-2.0457 1.1878-1.1878 0.41793-2.6176 0.41793-1.9577 0-3.3215-0.76987-1.3638-0.79187-2.0677-2.1776-0.68189-1.4078-0.68189-3.2555 0-1.7597 0.65989-3.1675 0.68189-1.4298 1.9577-2.2436 1.2978-0.83587 3.0795-0.83587 1.6717 0 2.9035 0.72588 1.2318 0.70389 1.8917 2.0677 0.68189 1.3418 0.68189 3.2115 0 0.72588-0.066 1.2538zm2.1556-4.9272q-0.94584 0-1.5178 0.70389-0.57191 0.68189-0.68189 2.1117h4.2893q-0.044-2.8156-2.0897-2.8156z"
       id="path74" />
  </g>
  <rect
     transform="rotate(90)"
     x="227.18"
     y="-466.6"
     width="46.628"
     height="199.38"
     ry=".96254"
     fill="#3465a4"
     stroke="#204a87"
     stroke-linecap="square"
     stroke-width="10.14"
     id="rect78"
     style="stroke:#ce5c00;fill:#f57900" />
  <g
     transform="translate(3.1285)"
     fill="#fff"
     stroke-width="2.9698"
     aria-label="CONTRIBUTION"
     id="g104">
    <path
       d="m287.02 241.97q1.7106 0 2.9461 0.45143 1.2355 0.45142 2.3284 1.3543l-1.9007 2.3046q-1.4968-1.2117-3.2788-1.2117-1.6869 0-2.7323 1.4255-1.0216 1.4255-1.0216 4.3004t1.0216 4.2766q1.0216 1.378 2.8036 1.378 1.0929 0 1.877-0.38014 0.78405-0.38014 1.6869-1.0929l1.7582 2.2571q-2.1858 2.2334-5.5358 2.2334-2.2571 0-3.9915-0.99788-1.7106-0.99788-2.6848-2.9461-0.97412-1.972-0.97412-4.728 0-2.6848 0.99788-4.633t2.756-2.9699q1.7582-1.0216 3.944-1.0216z"
       id="path80" />
    <path
       d="m306.47 250.62q0 4.0153-1.7106 6.3436-1.6869 2.3046-4.8706 2.3046-3.2075 0-4.8944-2.2809-1.6869-2.3046-1.6869-6.3674 0-4.0153 1.6869-6.3199 1.7106-2.3284 4.8944-2.3284 3.2075 0 4.8944 2.3046 1.6869 2.2809 1.6869 6.3436zm-3.9915 0q0-3.0412-0.61774-4.4192-0.59397-1.378-1.972-1.378-1.378 0-1.9958 1.378-0.59397 1.378-0.59397 4.4192t0.59397 4.4192q0.61773 1.378 1.9958 1.378 1.4018 0 1.9958-1.378 0.59398-1.378 0.59398-4.4192z"
       id="path82" />
    <path
       d="m310.97 245.63q0.23759 1.8057 0.4039 3.4926 0.16631 1.6631 0.16631 3.5401v6.2011h-3.3025v-16.465h4.8706l4.1816 13.186q-0.57021-3.6589-0.57021-6.8901v-6.2961h3.3025v16.465h-4.728z"
       id="path84" />
    <path
       d="m330.3 245.39v13.471h-3.8965v-13.471h-4.633v-2.9936h13.329l-0.38014 2.9936z"
       id="path86" />
    <path
       d="m348.83 247.41q0 1.6631-0.90284 2.8036-0.87908 1.1167-2.3759 1.7106l4.3004 6.9376h-4.4192l-3.5638-6.2961h-1.0929v6.2961h-3.8965v-16.465h5.1795q3.3975 0 5.0844 1.2355 1.6869 1.2355 1.6869 3.7777zm-4.0153 0q0-1.188-0.68901-1.7344-0.66525-0.54646-2.067-0.54646h-1.283v4.7518h1.4493q1.283 0 1.9245-0.59397 0.66525-0.59398 0.66525-1.877z"
       id="path88" />
    <path
       d="m362.22 242.4v2.8511h-3.3975v10.739h3.3975v2.8748h-10.692v-2.8748h3.3975v-10.739h-3.3975v-2.8511z"
       id="path90" />
    <path
       d="m377.56 254.04q0 2.6372-1.877 3.7302-1.8532 1.0929-4.8944 1.0929h-5.4646v-16.465h5.227q2.8273 0 4.5617 0.99787 1.7344 0.97412 1.7344 3.2075 0 1.4018-0.85532 2.3046-0.85533 0.90285-2.1621 1.2355 1.5681 0.26135 2.6372 1.188 1.0929 0.90284 1.0929 2.7085zm-4.633-7.0327q0-0.97412-0.61774-1.4018-0.59397-0.45142-1.9007-0.45142h-1.188v3.8252h1.3305q1.2355 0 1.8057-0.45142 0.57022-0.47518 0.57022-1.5206zm0.61773 6.8664q0-1.2355-0.71277-1.7582-0.68901-0.5227-2.0195-0.5227h-1.5918v4.4192h1.4255q1.3543 0 2.1146-0.45142 0.78405-0.45142 0.78405-1.6869z"
       id="path92" />
    <path
       d="m391.49 253.35q0 1.7106-0.68901 3.0649-0.68901 1.3305-2.067 2.0908-1.378 0.76029-3.3738 0.76029-2.9936 0-4.5617-1.5919-1.5681-1.5918-1.5681-4.3241v-10.953h3.9202v9.5036q0 1.5918 0.16631 2.5422 0.16632 0.95036 0.6415 1.4493 0.49893 0.47518 1.4018 0.47518 0.90284 0 1.378-0.47518 0.49894-0.49894 0.66525-1.4493t0.16631-2.5422v-9.5036h3.9202z"
       id="path94" />
    <path
       d="m401.54 245.39v13.471h-3.8965v-13.471h-4.633v-2.9936h13.329l-0.38014 2.9936z"
       id="path96" />
    <path
       d="m419.2 242.4v2.8511h-3.3975v10.739h3.3975v2.8748h-10.692v-2.8748h3.3975v-10.739h-3.3975v-2.8511z"
       id="path98" />
    <path
       d="m434.68 250.62q0 4.0153-1.7106 6.3436-1.6869 2.3046-4.8706 2.3046-3.2075 0-4.8944-2.2809-1.6869-2.3046-1.6869-6.3674 0-4.0153 1.6869-6.3199 1.7106-2.3284 4.8944-2.3284 3.2075 0 4.8944 2.3046 1.6869 2.2809 1.6869 6.3436zm-3.9915 0q0-3.0412-0.61773-4.4192-0.59397-1.378-1.972-1.378-1.378 0-1.9958 1.378-0.59398 1.378-0.59398 4.4192t0.59398 4.4192q0.61773 1.378 1.9958 1.378 1.4018 0 1.9958-1.378 0.59397-1.378 0.59397-4.4192z"
       id="path100" />
    <path
       d="m439.19 245.63q0.23759 1.8057 0.4039 3.4926 0.16632 1.6631 0.16632 3.5401v6.2011h-3.3025v-16.465h4.8706l4.1816 13.186q-0.57022-3.6589-0.57022-6.8901v-6.2961h3.3025v16.465h-4.728z"
       id="path102" />
  </g>
  <g
     transform="translate(-111.16,-465.79)"
     fill="none"
     stroke="#000"
     stroke-linecap="round"
     stroke-linejoin="round"
     stroke-width="7.0761"
     id="g128">
    <path
       d="m286.64 573.56c-80.389-37.74-244.45 241.41 29.113 351.38"
       marker-end="url(#marker1093)"
       id="path122" />
    <path
       d="m633.8 921.13c178.18-43.396 222.75-239.3 76.437-343.72"
       marker-end="url(#marker5882)"
       id="path124" />
    <path
       d="m362.4 718.27c-24.255-2.0575-119.2-24.166-26.216-103.17"
       marker-end="url(#marker1041)"
       id="path126" />
  </g>
  <g
     transform="translate(-111.16,-465.79)"
     stroke-width="2.7496"
     id="g164">
    <g
       style="font-feature-settings:normal;font-variant-caps:normal;font-variant-ligatures:normal;font-variant-numeric:normal"
       aria-label="Create"
       id="g142">
      <path
         d="m542.39 649.19q1.5838 0 2.7276 0.41793t2.1556 1.2538l-1.7597 2.1336q-1.3858-1.1218-3.0355-1.1218-1.5618 0-2.5296 1.3198-0.94585 1.3198-0.94585 3.9814t0.94585 3.9594q0.94585 1.2758 2.5956 1.2758 1.0118 0 1.7377-0.35194t1.5617-1.0118l1.6277 2.0897q-2.0237 2.0677-5.1252 2.0677-2.0897 0-3.6954-0.92385-1.5837-0.92385-2.4856-2.7276-0.90185-1.8257-0.90185-4.3773 0-2.4856 0.92385-4.2893t2.5516-2.7496q1.6277-0.94585 3.6514-0.94585z"
         id="path130" />
      <path
         d="m558.15 652.79q1.0558 0 1.9357 0.35195l-0.6379 4.8832h-2.1996v-2.1336q-0.96784 0.15398-1.7157 1.0338-0.74788 0.87986-1.1658 2.2216v3.3435h2.3096v2.3316h-7.3248v-2.3316h1.5398v-7.0389h-1.5398v-2.3096h4.2013l0.6159 2.6176q0.6379-1.4958 1.6057-2.2216 0.96784-0.74788 2.3756-0.74788z"
         id="path132" />
      <path
         d="m565.45 660.01q0.32994 2.6616 2.8155 2.6616 1.4958 0 2.9915-0.96784l1.3858 1.8917q-0.85786 0.74788-2.0457 1.1878-1.1878 0.41793-2.6176 0.41793-1.9577 0-3.3215-0.76987-1.3638-0.79188-2.0677-2.1776-0.68189-1.4078-0.68189-3.2555 0-1.7597 0.65989-3.1675 0.68189-1.4298 1.9577-2.2436 1.2978-0.83587 3.0795-0.83587 1.6717 0 2.9035 0.72588 1.2318 0.70389 1.8917 2.0677 0.68189 1.3418 0.68189 3.2115 0 0.72588-0.066 1.2538zm2.1556-4.9272q-0.94585 0-1.5178 0.70389-0.5719 0.68189-0.68189 2.1117h4.2893q-0.044-2.8156-2.0897-2.8156z"
         id="path134" />
      <path
         d="m585.45 661.46q0 0.63789 0.17597 0.94584t0.5939 0.46193l-0.72588 2.2876q-1.0558-0.10998-1.7597-0.46193-0.70388-0.37394-1.0998-1.0778-0.65989 0.76987-1.6717 1.1878-1.0118 0.39593-2.1556 0.39593-1.8037 0-2.8815-1.0118-1.0778-1.0338-1.0778-2.6616 0-1.8917 1.4958-2.9255 1.4958-1.0558 4.2013-1.0558h1.5618v-0.41793q0-1.8037-2.3096-1.8037-0.5939 0-1.4958 0.17597-0.87986 0.15398-1.7157 0.43993l-0.79187-2.3096q1.1218-0.41793 2.3316-0.6379 1.2318-0.24196 2.2216-0.24196 5.1032 0 5.1032 4.1353zm-5.4551 1.2538q0.5939 0 1.1878-0.32994 0.6159-0.35195 0.92385-0.94585v-1.9137h-0.85786q-2.8156 0-2.8156 1.7597 0 0.68189 0.39594 1.0558 0.41793 0.37394 1.1658 0.37394z"
         id="path136" />
      <path
         d="m599.33 664.14q-1.6497 1.0558-3.8274 1.0558-2.2436 0-3.3874-1.1438-1.1218-1.1438-1.1218-3.2115v-5.3011h-2.4416v-2.3976h2.4416v-2.5296l3.4754-0.41794v2.9475h3.7614l-0.35194 2.3976h-3.4094v5.3011q0 0.85786 0.39594 1.2318 0.39593 0.37394 1.2758 0.37394 1.0998 0 2.0457-0.52792z"
         id="path138" />
      <path
         d="m605.01 660.01q0.32994 2.6616 2.8155 2.6616 1.4958 0 2.9915-0.96784l1.3858 1.8917q-0.85786 0.74788-2.0457 1.1878-1.1878 0.41793-2.6176 0.41793-1.9577 0-3.3215-0.76987-1.3638-0.79188-2.0677-2.1776-0.68189-1.4078-0.68189-3.2555 0-1.7597 0.6599-3.1675 0.68189-1.4298 1.9577-2.2436 1.2978-0.83587 3.0795-0.83587 1.6717 0 2.9035 0.72588 1.2318 0.70389 1.8917 2.0677 0.68189 1.3418 0.68189 3.2115 0 0.72588-0.066 1.2538zm2.1556-4.9272q-0.94585 0-1.5178 0.70389-0.5719 0.68189-0.68188 2.1117h4.2893q-0.044-2.8156-2.0897-2.8156z"
         id="path140" />
    </g>
    <g
       style="font-feature-settings:normal;font-variant-caps:normal;font-variant-ligatures:normal;font-variant-numeric:normal"
       aria-label="Pull"
       id="g152">
      <path
         d="m231.81 821.21q0 2.5736-1.6277 3.8934-1.6057 1.2978-4.3993 1.2978h-1.6717v5.0812h-3.6074v-15.244h4.7952q3.1675 0 4.8392 1.2538 1.6717 1.2318 1.6717 3.7174zm-3.6954 0q0-2.3976-2.7496-2.3976h-1.2538v4.9932h1.4298q1.2318 0 1.8917-0.63789 0.68189-0.6379 0.68189-1.9577z"
         id="path144" />
      <path
         d="m237.34 827.79q0 0.81387 0.28595 1.1658 0.30795 0.32995 0.90185 0.32995 0.52792 0 1.0778-0.32995 0.54991-0.35194 0.90185-0.94585v-8.2047h3.4754v11.68h-3.0355l-0.15397-1.3638q-0.57191 0.83587-1.5398 1.2978-0.96785 0.43993-2.0457 0.43993-1.6497 0-2.5076-0.94585-0.83586-0.96784-0.83586-2.6836v-8.4246h3.4754z"
         id="path146" />
      <path
         d="m253.15 827.81q0 1.2978 1.4958 1.2978 0.81386 0 1.6717-0.35194l0.81387 2.3316q-1.4078 0.76988-3.3654 0.76988-2.0457 0-3.0795-1.1658-1.0118-1.1878-1.0118-3.3215v-9.8324h-3.4314v-2.3756h6.9069z"
         id="path148" />
      <path
         d="m266.34 827.81q0 1.2978 1.4958 1.2978 0.81387 0 1.6717-0.35194l0.81387 2.3316q-1.4078 0.76988-3.3655 0.76988-2.0457 0-3.0795-1.1658-1.0118-1.1878-1.0118-3.3215v-9.8324h-3.4314v-2.3756h6.9069z"
         id="path150" />
    </g>
    <g
       style="font-feature-settings:normal;font-variant-caps:normal;font-variant-ligatures:normal;font-variant-numeric:normal"
       aria-label="Push"
       id="g162">
      <path
         d="m699.12 821.39q0 2.5736-1.6277 3.8934-1.6057 1.2978-4.3993 1.2978h-1.6717v5.0812h-3.6074v-15.244h4.7952q3.1675 0 4.8392 1.2538 1.6717 1.2318 1.6717 3.7174zm-3.6954 0q0-2.3976-2.7496-2.3976h-1.2538v4.9932h1.4298q1.2318 0 1.8917-0.6379 0.68189-0.63789 0.68189-1.9577z"
         id="path154" />
      <path
         d="m704.66 827.97q0 0.81387 0.28595 1.1658 0.30795 0.32995 0.90186 0.32995 0.52791 0 1.0778-0.32995 0.54991-0.35194 0.90186-0.94584v-8.2047h3.4754v11.68h-3.0355l-0.15397-1.3638q-0.57191 0.83586-1.5398 1.2978-0.96784 0.43993-2.0457 0.43993-1.6497 0-2.5076-0.94584-0.83587-0.96785-0.83587-2.6836v-8.4246h3.4754z"
         id="path156" />
      <path
         d="m719.06 829.55q0.90185 0 1.4078-0.26396 0.52792-0.28595 0.52792-0.83587 0-0.39593-0.21997-0.63789-0.19797-0.24196-0.76987-0.46193-0.57191-0.24196-1.7817-0.5719-1.7597-0.46193-2.6836-1.2758-0.92385-0.83586-0.92385-2.2876 0-1.6057 1.3198-2.6176 1.3418-1.0118 3.7394-1.0118 2.7716 0 4.7292 1.4298l-1.3858 2.0457q-1.6057-0.98984-3.2335-0.98984-0.85786 0-1.2758 0.21996-0.39594 0.21997-0.39594 0.68189 0 0.30795 0.19797 0.52792 0.21997 0.19797 0.79187 0.41793 0.59391 0.21996 1.7597 0.54991 1.2538 0.35194 2.0457 0.76988 0.81386 0.41793 1.2538 1.1218 0.43993 0.70389 0.43993 1.8037 0 1.2318-0.74788 2.1117t-2.0017 1.3198q-1.2538 0.43993-2.7716 0.43993-1.6277 0-2.9475-0.46192-1.3198-0.46193-2.2436-1.2978l1.7377-1.9577q1.5837 1.2318 3.4314 1.2318z"
         id="path158" />
      <path
         d="m731.03 821.15q1.4738-1.5618 3.4314-1.5618 1.5398 0 2.3756 0.92385 0.83586 0.90186 0.83586 2.5736v8.5786h-3.4754v-7.6108q0-1.0558-0.24196-1.4738t-0.87986-0.41793q-0.52791 0-1.0338 0.37393-0.48392 0.35195-1.0118 1.0558v8.0727h-3.4754v-16.321l3.4754-0.35194z"
         id="path160" />
    </g>
  </g>
  <rect
     transform="rotate(90)"
     x="365.75998"
     y="-507.12003"
     width="46.627998"
     height="280.42999"
     ry="1.3538001"
     fill="#73d216"
     stroke="#4e9a06"
     stroke-linecap="square"
     stroke-width="12.026"
     id="rect166" />
  <g
     fill="#ffffff"
     stroke-width="2.9698"
     aria-label="YOUR-LOCAL/PROJECT"
     id="g204"
     transform="translate(-111.16,-465.79)">
    <path
       d="m 358.23,857.05 v 6.1773 h -3.8964 v -6.1535 l -5.3695,-10.311 h 4.2766 l 3.1124,7.0801 3.1362,-7.0801 h 4.1103 z"
       id="path168" />
    <path
       d="m 377.1,854.99 q 0,4.0152 -1.7106,6.3436 -1.6869,2.3046 -4.8706,2.3046 -3.2074,0 -4.8943,-2.2808 -1.6869,-2.3046 -1.6869,-6.3674 0,-4.0152 1.6869,-6.3198 1.7106,-2.3284 4.8943,-2.3284 3.2074,0 4.8943,2.3046 1.6869,2.2808 1.6869,6.3436 z m -3.9915,0 q 0,-3.0411 -0.61773,-4.4191 -0.59397,-1.378 -1.972,-1.378 -1.37803,0 -1.9957,1.378 -0.59397,1.378 -0.59397,4.4191 0,3.0411 0.59397,4.4191 0.61772,1.378 1.9957,1.378 1.4018,0 1.9957,-1.378 0.5939,-1.378 0.59397,-4.4191 z"
       id="path170" />
    <path
       d="m 390.9,857.72 q 0,1.7106 -0.689,3.0649 -0.68901,1.3305 -2.067,2.0908 -1.378,0.76028 -3.3737,0.76028 -2.9936,0 -4.5617,-1.5918 -1.5681,-1.5918 -1.5681,-4.3241 v -10.953 h 3.9202 v 9.5035 q 0,1.5918 0.16631,2.5422 0.16632,0.95035 0.64149,1.4493 0.49894,0.47518 1.4018,0.47518 0.90286,0 1.378,-0.47518 0.49893,-0.49893 0.66524,-1.4493 0.16631,-0.95037 0.16631,-2.5422 v -9.5035 h 3.9202 z"
       id="path172" />
    <path
       d="m 405.22,851.78 q 0,1.6631 -0.90283,2.8035 -0.87908,1.1167 -2.3759,1.7106 l 4.3003,6.9376 h -4.4191 l -3.5638,-6.2961 h -1.0929 v 6.2961 h -3.8964 v -16.465 h 5.1794 q 3.3975,0 5.0844,1.2354 1.6869,1.2355 1.6869,3.7776 z m -4.0152,0 q 0,-1.1879 -0.68901,-1.7344 -0.66524,-0.54645 -2.067,-0.54645 h -1.283 v 4.7518 h 1.4493 q 1.283,0 1.9245,-0.59397 0.66525,-0.59397 0.66525,-1.8769 z"
       id="path174" />
    <path
       d="m 408.11,857.24 v -2.8986 h 10.311 v 2.8986 z"
       id="path176" />
    <path
       d="m 422.59,863.23 v -16.465 h 3.8964 v 13.376 h 7.1276 l -0.38014,3.0886 z"
       id="path178" />
    <path
       d="m 448.33,854.99 q 0,4.0152 -1.7106,6.3436 -1.6869,2.3046 -4.8705,2.3046 -3.2074,0 -4.8943,-2.2808 -1.6869,-2.3046 -1.6869,-6.3674 0,-4.0152 1.6869,-6.3198 1.7106,-2.3284 4.8943,-2.3284 3.2074,0 4.8943,2.3046 1.6869,2.2808 1.6869,6.3436 z m -3.9915,0 q 0,-3.0411 -0.61773,-4.4191 -0.59397,-1.378 -1.972,-1.378 -1.378,0 -1.9957,1.378 -0.59397,1.378 -0.59397,4.4191 0,3.0411 0.59397,4.4191 0.61773,1.378 1.9957,1.378 1.4018,0 1.9957,-1.378 0.5939,-1.378 0.59397,-4.4191 z"
       id="path180" />
    <path
       d="m 457.38,846.34 q 1.7106,0 2.9461,0.45142 1.2355,0.45141 2.3284,1.3542 l -1.9007,2.3046 q -1.4968,-1.2117 -3.2787,-1.2117 -1.6869,0 -2.7323,1.4255 -1.0216,1.4255 -1.0216,4.3003 0,2.8748 1.0216,4.2766 1.0216,1.378 2.8035,1.378 1.0929,0 1.877,-0.38014 0.7841,-0.38014 1.6869,-1.0929 l 1.7582,2.2571 q -2.1858,2.2333 -5.5358,2.2333 -2.2571,0 -3.9915,-0.99787 -1.7106,-0.99787 -2.6847,-2.9461 -0.97411,-1.972 -0.97411,-4.728 0,-2.6848 0.99787,-4.633 0.99786,-1.9482 2.756,-2.9698 1.7582,-1.0216 3.944,-1.0216 z"
       id="path182" />
    <path
       d="m 472.62,859.67 h -4.823 l -0.85532,3.5638 h -4.0865 l 5.0369,-16.465 h 4.728 l 5.0369,16.465 h -4.1816 z m -4.2053,-2.8035 h 3.5638 l -1.7819,-7.294 z"
       id="path184" />
    <path
       d="m 479.57,863.23 v -16.465 h 3.8964 v 13.376 h 7.1276 l -0.38014,3.0886 z"
       id="path186" />
    <path
       d="m 495.22,865.89 -2.9223,-1.3542 9.9787,-20.718 2.8986,1.3542 z"
       id="path188" />
    <path
       d="m 519.54,852.14 q 0,2.7798 -1.7582,4.2053 -1.7344,1.4018 -4.7518,1.4018 h -1.8057 v 5.4883 h -3.8964 v -16.465 h 5.1794 q 3.4213,0 5.2269,1.3542 1.8057,1.3305 1.8057,4.0152 z m -3.9915,0 q 0,-2.5897 -2.9698,-2.5897 h -1.3542 v 5.3932 h 1.5443 q 1.3305,0 2.0433,-0.68901 0.73652,-0.689 0.73652,-2.1145 z"
       id="path190" />
    <path
       d="m 533.43,851.78 q 0,1.6631 -0.90283,2.8035 -0.87908,1.1167 -2.3759,1.7106 l 4.3003,6.9376 h -4.4191 l -3.5638,-6.2961 h -1.0929 v 6.2961 h -3.8964 v -16.465 h 5.1794 q 3.3975,0 5.0844,1.2354 1.6869,1.2355 1.6869,3.7776 z m -4.0152,0 q 0,-1.1879 -0.68901,-1.7344 -0.66524,-0.54645 -2.067,-0.54645 h -1.283 v 4.7518 h 1.4493 q 1.283,0 1.9245,-0.59397 0.66525,-0.59397 0.66525,-1.8769 z"
       id="path192" />
    <path
       d="m 548.06,854.99 q 0,4.0152 -1.7106,6.3436 -1.6869,2.3046 -4.8706,2.3046 -3.2074,0 -4.8943,-2.2808 -1.6869,-2.3046 -1.6869,-6.3674 0,-4.0152 1.6869,-6.3198 1.7106,-2.3284 4.8943,-2.3284 3.2074,0 4.8943,2.3046 1.6869,2.2808 1.6869,6.3436 z m -3.9915,0 q 0,-3.0411 -0.61772,-4.4191 -0.59397,-1.378 -1.972,-1.378 -1.37803,0 -1.9957,1.378 -0.59397,1.378 -0.59397,4.4191 0,3.0411 0.59397,4.4191 0.61773,1.378 1.9957,1.378 1.4018,0 1.9957,-1.378 0.59396,-1.378 0.59396,-4.4191 z"
       id="path194" />
    <path
       d="m 561.11,857.32 q 0,2.8986 -1.7582,4.5854 -1.7344,1.6869 -4.8706,1.6869 -1.5206,0 -2.6847,-0.38014 -1.1404,-0.38014 -2.2808,-1.1642 l 1.473,-2.3996 q 0.85531,0.57021 1.5918,0.8078 0.73652,0.23759 1.6869,0.23759 1.3067,0 2.1145,-0.83156 0.83156,-0.85531 0.83156,-2.5184 v -7.7216 h -5.0369 v -2.851 h 8.9333 z"
       id="path196" />
    <path
       d="m 568.95,849.55 v 3.9677 h 5.7021 v 2.7085 H 568.95 v 4.2053 h 6.8663 v 2.8035 h -10.763 V 846.77 h 10.763 l -0.4039,2.7798 z"
       id="path198" />
    <path
       d="m 585.59,846.34 q 1.7106,0 2.9461,0.45142 1.2354,0.45141 2.3284,1.3542 l -1.9007,2.3046 q -1.4968,-1.2117 -3.2787,-1.2117 -1.6869,0 -2.7323,1.4255 -1.0216,1.4255 -1.0216,4.3003 0,2.8748 1.0216,4.2766 1.0216,1.378 2.8035,1.378 1.0929,0 1.8769,-0.38014 0.784,-0.38014 1.6869,-1.0929 l 1.7582,2.2571 q -2.1858,2.2333 -5.5358,2.2333 -2.2571,0 -3.9915,-0.99787 -1.7106,-0.99787 -2.6848,-2.9461 -0.97411,-1.972 -0.97411,-4.728 0,-2.6848 0.99787,-4.633 0.99787,-1.9482 2.756,-2.9698 1.7582,-1.0216 3.944,-1.0216 z"
       id="path200" />
    <path
       d="m 600.38,849.76 v 13.471 h -3.8964 V 849.76 h -4.633 v -2.9936 h 13.329 l -0.38014,2.9936 z"
       id="path202" />
  </g>
  <rect
     transform="rotate(90)"
     x="434.03"
     y="-507.94998"
     width="46.627998"
     height="139.72"
     ry="0.67451"
     fill="#cc0000"
     stroke="#a40000"
     stroke-linecap="square"
     stroke-width="8.4883"
     id="rect206" />
  <g
     fill="#ffffff"
     stroke-width="2.9698"
     aria-label="BRANCH A"
     id="g222"
     transform="translate(-111.16,-465.79)">
    <path
       d="m 504.26,926.67 q 0,2.6372 -1.8769,3.7301 -1.8532,1.0929 -4.8943,1.0929 h -5.4645 v -16.465 h 5.2269 q 2.8273,0 4.5617,0.99787 1.7344,0.97411 1.7344,3.2074 0,1.4018 -0.85532,2.3046 -0.85532,0.90283 -2.162,1.2354 1.5681,0.26135 2.6372,1.1879 1.0929,0.90283 1.0929,2.7085 z m -4.633,-7.0326 q 0,-0.97411 -0.61773,-1.4018 -0.59397,-0.45142 -1.9007,-0.45142 h -1.1879 v 3.8252 h 1.3305 q 1.2355,0 1.8057,-0.45142 0.57021,-0.47517 0.57021,-1.5206 z m 0.61773,6.8663 q 0,-1.2355 -0.71277,-1.7582 -0.689,-0.52269 -2.0195,-0.52269 h -1.5918 v 4.4191 h 1.4255 q 1.3542,0 2.1145,-0.45142 0.78404,-0.45141 0.78404,-1.6869 z"
       id="path208" />
    <path
       d="m 518.27,920.04 q 0,1.6631 -0.90284,2.8035 -0.87907,1.1167 -2.3759,1.7106 l 4.3003,6.9376 h -4.4191 l -3.5638,-6.2961 h -1.0929 v 6.2961 h -3.8964 v -16.465 h 5.1794 q 3.3975,0 5.0844,1.2355 1.6869,1.2354 1.6869,3.7776 z m -4.0152,0 q 0,-1.1879 -0.689,-1.7344 -0.66525,-0.54645 -2.067,-0.54645 h -1.283 v 4.7518 h 1.4493 q 1.283,0 1.9245,-0.59397 0.66524,-0.59397 0.66524,-1.877 z"
       id="path210" />
    <path
       d="m 528.69,927.93 h -4.823 l -0.85532,3.5638 h -4.0865 l 5.0369,-16.465 h 4.728 l 5.0369,16.465 h -4.1816 z m -4.2053,-2.8035 h 3.5638 l -1.7819,-7.2939 z"
       id="path212" />
    <path
       d="m 537.4,918.26 q 0.23759,1.8057 0.4039,3.4925 0.16631,1.6631 0.16631,3.5401 v 6.201 h -3.3025 v -16.465 h 4.8706 l 4.1815,13.186 q -0.57021,-3.6588 -0.57021,-6.89 v -6.2961 h 3.3025 v 16.465 h -4.728 z"
       id="path214" />
    <path
       d="m 556.18,914.6 q 1.7106,0 2.9461,0.45142 1.2355,0.45142 2.3284,1.3542 l -1.9007,2.3046 q -1.4968,-1.2117 -3.2787,-1.2117 -1.6869,0 -2.7323,1.4255 -1.0216,1.4255 -1.0216,4.3003 0,2.8748 1.0216,4.2766 1.0216,1.378 2.8035,1.378 1.0929,0 1.877,-0.38014 0.78403,-0.38014 1.6869,-1.0929 l 1.7582,2.2571 q -2.1858,2.2333 -5.5358,2.2333 -2.2571,0 -3.9915,-0.99787 -1.7106,-0.99787 -2.6847,-2.9461 -0.97411,-1.972 -0.97411,-4.728 0,-2.6847 0.99787,-4.633 0.99786,-1.9482 2.756,-2.9698 1.75814,-1.0216 3.944,-1.0216 z"
       id="path216" />
    <path
       d="m 571.04,931.5 v -6.9376 h -3.9915 V 931.5 h -3.8964 v -16.465 h 3.8964 v 6.3198 h 3.9915 v -6.3198 h 3.8964 V 931.5 Z"
       id="path218" />
    <path
       d="m 599.92,927.93 h -4.823 l -0.85532,3.5638 h -4.0865 l 5.0369,-16.465 h 4.728 l 5.0369,16.465 h -4.1815 z m -4.2053,-2.8035 h 3.5638 l -1.7819,-7.2939 z"
       id="path220" />
  </g>
  <g
     fill="#ffffff"
     stroke-width="2.9698"
     aria-label="MASTER"
     id="g238"
     transform="translate(-111.16,-465.79)">
    <path
       d="m 362.09,930.64 h -3.4213 l -0.19007,-7.0564 q -0.0238,-0.52269 -0.0238,-1.4255 0,-1.1879 0.0713,-2.3046 0.0713,-1.1404 0.16631,-2.3759 l -1.8532,10.359 h -2.9461 l -2.0195,-10.359 q 0.26134,2.7323 0.26134,4.9181 l -0.0238,1.2592 -0.1188,6.9851 h -3.35 l 0.9266,-16.465 h 4.0152 l 1.8294,10.644 1.7344,-10.644 h 4.0152 z"
       id="path226" />
    <path
       d="m 371.99,927.08 h -4.823 l -0.85532,3.5638 h -4.0865 l 5.0369,-16.465 h 4.728 l 5.0369,16.465 h -4.1815 z m -4.2053,-2.8035 h 3.5638 l -1.7819,-7.2939 z"
       id="path228" />
    <path
       d="m 390.22,925.82 q 0,1.5443 -0.8078,2.7323 -0.8078,1.1879 -2.3284,1.8532 -1.4968,0.64149 -3.5638,0.64149 -4.0865,0 -6.5099,-2.3759 l 1.972,-2.1858 q 1.8769,1.6631 4.4429,1.6631 1.2355,0 1.972,-0.52269 0.76028,-0.54645 0.76028,-1.4968 0,-0.90283 -0.64149,-1.4018 -0.61773,-0.52269 -2.3284,-1.0454 -2.8986,-0.87907 -4.1103,-2.067 -1.2117,-1.1879 -1.2117,-3.0649 0,-1.473 0.80779,-2.566 0.83156,-1.0929 2.2333,-1.6631 1.4255,-0.57021 3.1599,-0.57021 3.6351,0 5.8922,2.1383 l -1.8294,2.1145 q -0.83156,-0.68901 -1.8057,-1.0216 -0.95035,-0.35638 -1.972,-0.35638 -1.1404,0 -1.8057,0.42766 -0.64149,0.4039 -0.64149,1.1879 0,0.52269 0.2851,0.87907 0.30887,0.35638 0.99787,0.66525 0.68901,0.30886 2.067,0.73652 2.5184,0.76028 3.7301,1.972 1.2355,1.1879 1.2355,3.3262 z"
       id="path230" />
    <path
       d="m 400.03,917.17 v 13.471 h -3.8964 V 917.17 h -4.633 v -2.9936 h 13.329 l -0.38014,2.9936 z"
       id="path232" />
    <path
       d="m 411.33,916.96 v 3.9677 h 5.7021 v 2.7085 H 411.33 v 4.2053 h 6.8663 v 2.8035 h -10.763 V 914.18 h 10.763 l -0.4039,2.7798 z"
       id="path234" />
    <path
       d="m 432.8,919.19 q 0,1.6631 -0.90284,2.8035 -0.87907,1.1167 -2.3759,1.7106 l 4.3003,6.9376 h -4.4191 l -3.5638,-6.2961 h -1.0929 v 6.2961 h -3.8964 v -16.465 h 5.1794 q 3.3975,0 5.0844,1.2355 1.6869,1.2355 1.6869,3.7776 z m -4.0152,0 q 0,-1.1879 -0.689,-1.7344 -0.66525,-0.54646 -2.067,-0.54646 h -1.283 v 4.7518 h 1.4493 q 1.283,0 1.9245,-0.59397 0.66524,-0.59397 0.66524,-1.8769 z"
       id="path236" />
  </g>
  <g
     id="g1321">
    <rect
       x="84.494232"
       y="-310.98001"
       width="42.599541"
       height="110.13999"
       ry="0.53172392"
       id="rect52-9-2"
       style="fill:#3465a4;stroke:#204a87;stroke-width:9.15641;stroke-linecap:square"
       transform="rotate(90)" />
    <g
       aria-label="MAIN"
       id="text981-7-1"
       style="font-style:normal;font-weight:normal;font-size:26.6667px;line-height:1.25;font-family:sans-serif;fill:#ffffff;fill-opacity:1;stroke:none;stroke-width:2.96981"
       transform="translate(827.65441,-745.93857)">
      <path
         d="m -583.3637,859.68829 q 0,0.13021 -0.0781,0.23438 -0.0651,0.10416 -0.26041,0.16927 -0.1823,0.0651 -0.4948,0.10417 -0.3125,0.0391 -0.79427,0.0391 -0.46875,0 -0.78125,-0.0391 -0.3125,-0.0391 -0.49479,-0.10417 -0.18229,-0.0651 -0.26042,-0.16927 -0.0781,-0.10417 -0.0781,-0.23438 v -13.71095 h -0.026 l -4.88281,13.69793 q -0.0521,0.16927 -0.16927,0.28646 -0.11719,0.10417 -0.32553,0.16927 -0.19531,0.0651 -0.50781,0.0781 -0.3125,0.026 -0.75521,0.026 -0.44271,0 -0.75521,-0.0391 -0.3125,-0.026 -0.52083,-0.0911 -0.19531,-0.0781 -0.3125,-0.18229 -0.11719,-0.10417 -0.15625,-0.2474 l -4.71355,-13.69793 h -0.026 v 13.71095 q 0,0.13021 -0.0781,0.23438 -0.0651,0.10416 -0.26041,0.16927 -0.19532,0.0651 -0.50782,0.10417 -0.29948,0.0391 -0.78125,0.0391 -0.46875,0 -0.78125,-0.0391 -0.3125,-0.0391 -0.50781,-0.10417 -0.18229,-0.0651 -0.26042,-0.16927 -0.0651,-0.10417 -0.0651,-0.23438 v -15.01304 q 0,-0.66406 0.35156,-1.01562 0.35156,-0.35157 0.9375,-0.35157 h 2.23959 q 0.59896,0 1.02864,0.10417 0.42969,0.0911 0.74219,0.32552 0.3125,0.22136 0.52084,0.59896 0.20833,0.36458 0.36458,0.91146 l 3.64584,10.03908 h 0.0521 l 3.77605,-10.01304 q 0.16927,-0.54687 0.36458,-0.92448 0.20834,-0.3776 0.46875,-0.61198 0.27344,-0.23437 0.63802,-0.32552 0.36459,-0.10417 0.84636,-0.10417 h 2.30469 q 0.35156,0 0.59896,0.0912 0.26042,0.0911 0.41667,0.27344 0.16927,0.16927 0.24739,0.42969 0.0911,0.24739 0.0911,0.57291 z"
         style="font-style:normal;font-variant:normal;font-weight:bold;font-stretch:normal;font-size:26.6667px;font-family:Calibri;-inkscape-font-specification:'Calibri Bold';fill:#ffffff;fill-opacity:1;stroke-width:2.96981"
         id="path1003-6-7" />
      <path
         d="m -565.88972,858.881 q 0.15625,0.46875 0.19531,0.74219 0.0391,0.27344 -0.10416,0.41667 -0.14323,0.1302 -0.50782,0.15625 -0.36458,0.0391 -1.0026,0.0391 -0.66407,0 -1.04167,-0.026 -0.36459,-0.013 -0.5599,-0.0651 -0.19531,-0.0651 -0.27344,-0.16927 -0.0781,-0.10417 -0.1302,-0.27344 l -1.13282,-3.38542 h -6.32813 l -1.06771,3.29428 q -0.0521,0.18229 -0.14323,0.3125 -0.0781,0.11719 -0.27344,0.19531 -0.18229,0.0651 -0.53385,0.0911 -0.33855,0.026 -0.89844,0.026 -0.59896,0 -0.9375,-0.0391 -0.33854,-0.0391 -0.46875,-0.1823 -0.13021,-0.15625 -0.0911,-0.42968 0.0391,-0.27344 0.19531,-0.72917 l 5.19532,-14.94794 q 0.0781,-0.22135 0.18229,-0.35156 0.10417,-0.14323 0.32553,-0.20833 0.23437,-0.0781 0.63802,-0.0911 0.40364,-0.026 1.06771,-0.026 0.76823,0 1.22396,0.026 0.45573,0.013 0.70312,0.0911 0.26042,0.0651 0.36459,0.20833 0.11718,0.14323 0.19531,0.39063 z m -7.73439,-12.35679 h -0.013 l -2.38281,7.16147 h 4.77865 z"
         style="font-style:normal;font-variant:normal;font-weight:bold;font-stretch:normal;font-size:26.6667px;font-family:Calibri;-inkscape-font-specification:'Calibri Bold';fill:#ffffff;fill-opacity:1;stroke-width:2.96981"
         id="path1005-8-8" />
      <path
         d="m -560.09544,859.68829 q 0,0.13021 -0.0911,0.23438 -0.0781,0.10416 -0.27344,0.16927 -0.19531,0.0651 -0.52083,0.10417 -0.32552,0.0391 -0.83334,0.0391 -0.49479,0 -0.83333,-0.0391 -0.32552,-0.0391 -0.52084,-0.10417 -0.19531,-0.0651 -0.28645,-0.16927 -0.0781,-0.10417 -0.0781,-0.23438 v -15.91148 q 0,-0.1302 0.0781,-0.23437 0.0911,-0.10417 0.28645,-0.16927 0.20834,-0.0651 0.53386,-0.10417 0.32552,-0.0391 0.82031,-0.0391 0.50782,0 0.83334,0.0391 0.32552,0.0391 0.52083,0.10417 0.19531,0.0651 0.27344,0.16927 0.0911,0.10417 0.0911,0.23437 z"
         style="font-style:normal;font-variant:normal;font-weight:bold;font-stretch:normal;font-size:26.6667px;font-family:Calibri;-inkscape-font-specification:'Calibri Bold';fill:#ffffff;fill-opacity:1;stroke-width:2.96981"
         id="path1007-2-0" />
      <path
         d="m -542.53032,858.95913 q 0,0.29947 -0.10416,0.53385 -0.10417,0.23438 -0.28646,0.39063 -0.16927,0.15625 -0.41667,0.23437 -0.23437,0.0651 -0.48177,0.0651 h -1.45834 q -0.45572,0 -0.79427,-0.0911 -0.32552,-0.0911 -0.61198,-0.32552 -0.27343,-0.2474 -0.53385,-0.65104 -0.26042,-0.41667 -0.58594,-1.06771 l -4.19271,-7.87762 q -0.36459,-0.70312 -0.74219,-1.51042 -0.37761,-0.82031 -0.67709,-1.58854 h -0.026 q 0.0521,0.9375 0.0781,1.875 0.026,0.92448 0.026,1.91407 v 8.81511 q 0,0.13021 -0.0781,0.23438 -0.0651,0.10416 -0.24739,0.18229 -0.16927,0.0651 -0.46875,0.10417 -0.29948,0.0391 -0.76823,0.0391 -0.45573,0 -0.75521,-0.0391 -0.29948,-0.0391 -0.46875,-0.10417 -0.16927,-0.0781 -0.23438,-0.18229 -0.0651,-0.10417 -0.0651,-0.23438 v -15.14325 q 0,-0.61198 0.35156,-0.91146 0.36458,-0.3125 0.88542,-0.3125 h 1.83594 q 0.49479,0 0.83333,0.0912 0.33854,0.0781 0.59896,0.27344 0.27344,0.19531 0.50781,0.54687 0.23438,0.33855 0.48178,0.84636 l 3.28125,6.15886 q 0.28646,0.5599 0.5599,1.10677 0.28646,0.53386 0.54687,1.08073 0.26042,0.53386 0.50782,1.05469 0.24739,0.52084 0.48177,1.04167 h 0.013 q -0.0391,-0.91146 -0.0651,-1.90104 -0.013,-0.98959 -0.013,-1.88803 v -7.90365 q 0,-0.13021 0.0781,-0.23438 0.0781,-0.10417 0.26041,-0.18229 0.1823,-0.0781 0.48178,-0.10417 0.29948,-0.0391 0.76823,-0.0391 0.44271,0 0.74218,0.0391 0.29948,0.026 0.45573,0.10417 0.16928,0.0781 0.23438,0.18229 0.0651,0.10417 0.0651,0.23438 z"
         style="font-style:normal;font-variant:normal;font-weight:bold;font-stretch:normal;font-size:26.6667px;font-family:Calibri;-inkscape-font-specification:'Calibri Bold';fill:#ffffff;fill-opacity:1;stroke-width:2.96981"
         id="path1009-3-0" />
    </g>
  </g>
  <rect
     x="435.27676"
     y="-337.18176"
     width="42.599541"
     height="110.13999"
     ry="0.53172392"
     id="rect52-9-2-8"
     style="fill:#3465a4;stroke:#204a87;stroke-width:9.15641;stroke-linecap:square"
     transform="rotate(90)" />
  <g
     aria-label="MAIN"
     id="text981-7-1-7"
     style="font-style:normal;font-weight:normal;font-size:26.6667px;line-height:1.25;font-family:sans-serif;fill:#ffffff;fill-opacity:1;stroke:none;stroke-width:2.96981"
     transform="translate(853.85614,-395.15604)">
    <path
       d="m -583.3637,859.68829 q 0,0.13021 -0.0781,0.23438 -0.0651,0.10416 -0.26041,0.16927 -0.1823,0.0651 -0.4948,0.10417 -0.3125,0.0391 -0.79427,0.0391 -0.46875,0 -0.78125,-0.0391 -0.3125,-0.0391 -0.49479,-0.10417 -0.18229,-0.0651 -0.26042,-0.16927 -0.0781,-0.10417 -0.0781,-0.23438 v -13.71095 h -0.026 l -4.88281,13.69793 q -0.0521,0.16927 -0.16927,0.28646 -0.11719,0.10417 -0.32553,0.16927 -0.19531,0.0651 -0.50781,0.0781 -0.3125,0.026 -0.75521,0.026 -0.44271,0 -0.75521,-0.0391 -0.3125,-0.026 -0.52083,-0.0911 -0.19531,-0.0781 -0.3125,-0.18229 -0.11719,-0.10417 -0.15625,-0.2474 l -4.71355,-13.69793 h -0.026 v 13.71095 q 0,0.13021 -0.0781,0.23438 -0.0651,0.10416 -0.26041,0.16927 -0.19532,0.0651 -0.50782,0.10417 -0.29948,0.0391 -0.78125,0.0391 -0.46875,0 -0.78125,-0.0391 -0.3125,-0.0391 -0.50781,-0.10417 -0.18229,-0.0651 -0.26042,-0.16927 -0.0651,-0.10417 -0.0651,-0.23438 v -15.01304 q 0,-0.66406 0.35156,-1.01562 0.35156,-0.35157 0.9375,-0.35157 h 2.23959 q 0.59896,0 1.02864,0.10417 0.42969,0.0911 0.74219,0.32552 0.3125,0.22136 0.52084,0.59896 0.20833,0.36458 0.36458,0.91146 l 3.64584,10.03908 h 0.0521 l 3.77605,-10.01304 q 0.16927,-0.54687 0.36458,-0.92448 0.20834,-0.3776 0.46875,-0.61198 0.27344,-0.23437 0.63802,-0.32552 0.36459,-0.10417 0.84636,-0.10417 h 2.30469 q 0.35156,0 0.59896,0.0912 0.26042,0.0911 0.41667,0.27344 0.16927,0.16927 0.24739,0.42969 0.0911,0.24739 0.0911,0.57291 z"
       style="font-style:normal;font-variant:normal;font-weight:bold;font-stretch:normal;font-size:26.6667px;font-family:Calibri;-inkscape-font-specification:'Calibri Bold';fill:#ffffff;fill-opacity:1;stroke-width:2.96981"
       id="path1003-6-7-2" />
    <path
       d="m -565.88972,858.881 q 0.15625,0.46875 0.19531,0.74219 0.0391,0.27344 -0.10416,0.41667 -0.14323,0.1302 -0.50782,0.15625 -0.36458,0.0391 -1.0026,0.0391 -0.66407,0 -1.04167,-0.026 -0.36459,-0.013 -0.5599,-0.0651 -0.19531,-0.0651 -0.27344,-0.16927 -0.0781,-0.10417 -0.1302,-0.27344 l -1.13282,-3.38542 h -6.32813 l -1.06771,3.29428 q -0.0521,0.18229 -0.14323,0.3125 -0.0781,0.11719 -0.27344,0.19531 -0.18229,0.0651 -0.53385,0.0911 -0.33855,0.026 -0.89844,0.026 -0.59896,0 -0.9375,-0.0391 -0.33854,-0.0391 -0.46875,-0.1823 -0.13021,-0.15625 -0.0911,-0.42968 0.0391,-0.27344 0.19531,-0.72917 l 5.19532,-14.94794 q 0.0781,-0.22135 0.18229,-0.35156 0.10417,-0.14323 0.32553,-0.20833 0.23437,-0.0781 0.63802,-0.0911 0.40364,-0.026 1.06771,-0.026 0.76823,0 1.22396,0.026 0.45573,0.013 0.70312,0.0911 0.26042,0.0651 0.36459,0.20833 0.11718,0.14323 0.19531,0.39063 z m -7.73439,-12.35679 h -0.013 l -2.38281,7.16147 h 4.77865 z"
       style="font-style:normal;font-variant:normal;font-weight:bold;font-stretch:normal;font-size:26.6667px;font-family:Calibri;-inkscape-font-specification:'Calibri Bold';fill:#ffffff;fill-opacity:1;stroke-width:2.96981"
       id="path1005-8-8-1" />
    <path
       d="m -560.09544,859.68829 q 0,0.13021 -0.0911,0.23438 -0.0781,0.10416 -0.27344,0.16927 -0.19531,0.0651 -0.52083,0.10417 -0.32552,0.0391 -0.83334,0.0391 -0.49479,0 -0.83333,-0.0391 -0.32552,-0.0391 -0.52084,-0.10417 -0.19531,-0.0651 -0.28645,-0.16927 -0.0781,-0.10417 -0.0781,-0.23438 v -15.91148 q 0,-0.1302 0.0781,-0.23437 0.0911,-0.10417 0.28645,-0.16927 0.20834,-0.0651 0.53386,-0.10417 0.32552,-0.0391 0.82031,-0.0391 0.50782,0 0.83334,0.0391 0.32552,0.0391 0.52083,0.10417 0.19531,0.0651 0.27344,0.16927 0.0911,0.10417 0.0911,0.23437 z"
       style="font-style:normal;font-variant:normal;font-weight:bold;font-stretch:normal;font-size:26.6667px;font-family:Calibri;-inkscape-font-specification:'Calibri Bold';fill:#ffffff;fill-opacity:1;stroke-width:2.96981"
       id="path1007-2-0-0" />
    <path
       d="m -542.53032,858.95913 q 0,0.29947 -0.10416,0.53385 -0.10417,0.23438 -0.28646,0.39063 -0.16927,0.15625 -0.41667,0.23437 -0.23437,0.0651 -0.48177,0.0651 h -1.45834 q -0.45572,0 -0.79427,-0.0911 -0.32552,-0.0911 -0.61198,-0.32552 -0.27343,-0.2474 -0.53385,-0.65104 -0.26042,-0.41667 -0.58594,-1.06771 l -4.19271,-7.87762 q -0.36459,-0.70312 -0.74219,-1.51042 -0.37761,-0.82031 -0.67709,-1.58854 h -0.026 q 0.0521,0.9375 0.0781,1.875 0.026,0.92448 0.026,1.91407 v 8.81511 q 0,0.13021 -0.0781,0.23438 -0.0651,0.10416 -0.24739,0.18229 -0.16927,0.0651 -0.46875,0.10417 -0.29948,0.0391 -0.76823,0.0391 -0.45573,0 -0.75521,-0.0391 -0.29948,-0.0391 -0.46875,-0.10417 -0.16927,-0.0781 -0.23438,-0.18229 -0.0651,-0.10417 -0.0651,-0.23438 v -15.14325 q 0,-0.61198 0.35156,-0.91146 0.36458,-0.3125 0.88542,-0.3125 h 1.83594 q 0.49479,0 0.83333,0.0912 0.33854,0.0781 0.59896,0.27344 0.27344,0.19531 0.50781,0.54687 0.23438,0.33855 0.48178,0.84636 l 3.28125,6.15886 q 0.28646,0.5599 0.5599,1.10677 0.28646,0.53386 0.54687,1.08073 0.26042,0.53386 0.50782,1.05469 0.24739,0.52084 0.48177,1.04167 h 0.013 q -0.0391,-0.91146 -0.0651,-1.90104 -0.013,-0.98959 -0.013,-1.88803 v -7.90365 q 0,-0.13021 0.0781,-0.23438 0.0781,-0.10417 0.26041,-0.18229 0.1823,-0.0781 0.48178,-0.10417 0.29948,-0.0391 0.76823,-0.0391 0.44271,0 0.74218,0.0391 0.29948,0.026 0.45573,0.10417 0.16928,0.0781 0.23438,0.18229 0.0651,0.10417 0.0651,0.23438 z"
       style="font-style:normal;font-variant:normal;font-weight:bold;font-stretch:normal;font-size:26.6667px;font-family:Calibri;-inkscape-font-specification:'Calibri Bold';fill:#ffffff;fill-opacity:1;stroke-width:2.96981"
       id="path1009-3-0-5" />
  </g>
  <g
     id="g1287">
    <rect
       transform="rotate(90)"
       x="15.06"
       y="-481.82935"
       width="46.627998"
       height="229.84869"
       ry="1.1096096"
       fill="#73d216"
       stroke="#4e9a06"
       stroke-linecap="square"
       stroke-width="10.8874"
       id="rect18"
       style="stroke-width:10" />
    <path
       d="m 281.21824,37.371397 q 0,2.305987 -0.57292,4.124995 -0.57291,1.819009 -1.70442,3.093747 -1.13151,1.260415 -2.80729,1.933591 -1.66146,0.658854 -3.85286,0.658854 -2.16276,0 -3.78125,-0.558593 -1.60416,-0.572916 -2.67838,-1.733071 -1.07421,-1.160155 -1.61849,-2.950518 -0.52994,-1.790362 -0.52994,-4.239578 0,-2.248696 0.57291,-4.039058 0.57292,-1.804685 1.70443,-3.065101 1.13151,-1.260415 2.79296,-1.933591 1.67578,-0.673177 3.88151,-0.673177 2.10547,0 3.70963,0.558594 1.61849,0.558593 2.69271,1.718748 1.08854,1.160155 1.63281,2.936194 0.55859,1.761717 0.55859,4.167964 z m -3.95312,0.200521 q 0,-1.460936 -0.22917,-2.649737 -0.22916,-1.203123 -0.78776,-2.048175 -0.54427,-0.859374 -1.46093,-1.317706 -0.91667,-0.472656 -2.29167,-0.472656 -1.38932,0 -2.32031,0.529947 -0.93098,0.515625 -1.5039,1.389322 -0.57292,0.873696 -0.81641,2.048174 -0.22916,1.160155 -0.22916,2.463539 0,1.518228 0.22916,2.735674 0.22917,1.203124 0.77344,2.062498 0.54427,0.859374 1.46094,1.317706 0.91666,0.44401 2.30598,0.44401 1.38933,0 2.32031,-0.515624 0.93099,-0.515624 1.50391,-1.403644 0.57291,-0.88802 0.80208,-2.062498 0.24349,-1.188801 0.24349,-2.52083 z"
       style="font-style:normal;font-variant:normal;font-weight:bold;font-stretch:normal;font-size:29.3333px;line-height:1.25;font-family:Calibri;-inkscape-font-specification:'Calibri Bold';fill:#ffffff;fill-opacity:1;stroke:none"
       id="path1229" />
    <path
       d="m 298.13359,46.366178 q 0,0.157552 -0.0573,0.272136 -0.0573,0.10026 -0.27213,0.171874 -0.21484,0.07162 -0.63021,0.100261 -0.41536,0.02864 -1.13151,0.02864 -0.60156,0 -0.95963,-0.02864 -0.35807,-0.02865 -0.57292,-0.100261 -0.20052,-0.08594 -0.28646,-0.20052 -0.0859,-0.128906 -0.14322,-0.300781 l -1.66146,-4.139318 q -0.30078,-0.701822 -0.58724,-1.246093 -0.28646,-0.54427 -0.64453,-0.902342 -0.34375,-0.372396 -0.80208,-0.558593 -0.45834,-0.186198 -1.0599,-0.186198 h -1.17448 v 7.06119 q 0,0.143229 -0.10026,0.257812 -0.0859,0.114583 -0.30078,0.186198 -0.21484,0.07161 -0.57291,0.114583 -0.35808,0.04297 -0.91667,0.04297 -0.54427,0 -0.91666,-0.04297 -0.35808,-0.04297 -0.57292,-0.114583 -0.21484,-0.07162 -0.30078,-0.186198 -0.0859,-0.114583 -0.0859,-0.257812 V 29.508125 q 0,-0.630208 0.31511,-0.902343 0.32942,-0.286458 0.80208,-0.286458 h 4.79817 q 0.73047,0 1.20312,0.02865 0.47266,0.02865 0.85938,0.07161 1.11718,0.157552 2.0052,0.544271 0.90235,0.386718 1.51823,1.016926 0.63021,0.615884 0.95963,1.475258 0.32943,0.845051 0.32943,1.947915 0,0.930988 -0.24349,1.704425 -0.22916,0.759114 -0.6875,1.360675 -0.45833,0.601562 -1.13151,1.045572 -0.67317,0.44401 -1.53255,0.716145 0.41537,0.200521 0.77344,0.486979 0.3724,0.286458 0.6875,0.701822 0.32943,0.401041 0.61588,0.930988 0.28646,0.515625 0.5586,1.174478 l 1.56119,3.65234 q 0.21485,0.54427 0.28646,0.802082 0.0716,0.243489 0.0716,0.386718 z m -4.85547,-12.575506 q 0,-0.916666 -0.41536,-1.546873 -0.41537,-0.630208 -1.36068,-0.88802 -0.28645,-0.07161 -0.65885,-0.114583 -0.35807,-0.04297 -1.0026,-0.04297 h -1.69011 v 5.256504 h 1.91927 q 0.80209,0 1.40365,-0.186197 0.60156,-0.200521 1.0026,-0.54427 0.40104,-0.358073 0.60156,-0.845052 0.20052,-0.486978 0.20052,-1.08854 z"
       style="font-style:normal;font-variant:normal;font-weight:bold;font-stretch:normal;font-size:29.3333px;line-height:1.25;font-family:Calibri;-inkscape-font-specification:'Calibri Bold';fill:#ffffff;fill-opacity:1;stroke:none"
       id="path1231" />
    <path
       d="m 304.67915,46.337533 q 0,0.143229 -0.10026,0.257812 -0.0859,0.114583 -0.30078,0.186198 -0.21484,0.07161 -0.57292,0.114583 -0.35807,0.04297 -0.91666,0.04297 -0.54427,0 -0.91667,-0.04297 -0.35807,-0.04297 -0.57291,-0.114583 -0.21485,-0.07162 -0.31511,-0.186198 -0.0859,-0.114583 -0.0859,-0.257812 V 28.834949 q 0,-0.143229 0.0859,-0.257813 0.10026,-0.114583 0.31511,-0.186197 0.22916,-0.07161 0.58724,-0.114584 0.35807,-0.04297 0.90234,-0.04297 0.55859,0 0.91666,0.04297 0.35808,0.04297 0.57292,0.114584 0.21484,0.07161 0.30078,0.186197 0.10026,0.114584 0.10026,0.257813 z"
       style="font-style:normal;font-variant:normal;font-weight:bold;font-stretch:normal;font-size:29.3333px;line-height:1.25;font-family:Calibri;-inkscape-font-specification:'Calibri Bold';fill:#ffffff;fill-opacity:1;stroke:none"
       id="path1233" />
    <path
       d="m 323.58538,31.198227 q 0,0.415364 -0.043,0.716145 -0.0286,0.300781 -0.10026,0.486979 -0.0573,0.171875 -0.15755,0.243489 -0.0859,0.07162 -0.21484,0.07162 -0.1862,0 -0.60157,-0.257813 -0.41536,-0.257812 -1.10286,-0.558593 -0.6875,-0.300781 -1.64713,-0.558593 -0.94531,-0.257812 -2.20573,-0.257812 -1.34635,0 -2.43489,0.472656 -1.08854,0.458332 -1.86198,1.317706 -0.77344,0.845052 -1.1888,2.048175 -0.41536,1.188801 -0.41536,2.635414 0,1.589842 0.41536,2.807288 0.42969,1.203124 1.1888,2.019529 0.75911,0.816405 1.81901,1.23177 1.07422,0.415364 2.36328,0.415364 0.6302,0 1.24609,-0.143229 0.61588,-0.143229 1.14583,-0.429687 v -4.29687 h -3.50911 q -0.25781,0 -0.40104,-0.315104 -0.14323,-0.329427 -0.14323,-1.102863 0,-0.401042 0.0287,-0.673177 0.043,-0.272135 0.11458,-0.429687 0.0716,-0.171875 0.17187,-0.243489 0.10027,-0.08594 0.22917,-0.08594 h 6.25911 q 0.22916,0 0.40104,0.08594 0.1862,0.07161 0.3151,0.229166 0.14323,0.157552 0.21485,0.386719 0.0716,0.214843 0.0716,0.501301 v 7.376294 q 0,0.429687 -0.15755,0.759113 -0.14323,0.315104 -0.61589,0.501302 -0.45833,0.186198 -1.14583,0.386718 -0.6875,0.200521 -1.43229,0.34375 -0.73047,0.143229 -1.48958,0.214843 -0.74479,0.07162 -1.5039,0.07162 -2.22005,0 -3.98177,-0.630208 -1.74739,-0.64453 -2.96484,-1.847654 -1.21745,-1.217446 -1.86198,-2.950517 -0.64453,-1.747394 -0.64453,-3.953121 0,-2.277341 0.6875,-4.082026 0.6875,-1.819009 1.94792,-3.079424 1.26041,-1.274738 3.03645,-1.947914 1.79036,-0.673177 3.98177,-0.673177 1.20312,0 2.1914,0.171875 0.98828,0.157552 1.71875,0.401041 0.74479,0.229167 1.23177,0.501302 0.48698,0.272135 0.67317,0.472656 0.20053,0.20052 0.28646,0.572916 0.0859,0.358072 0.0859,1.074217 z"
       style="font-style:normal;font-variant:normal;font-weight:bold;font-stretch:normal;font-size:29.3333px;line-height:1.25;font-family:Calibri;-inkscape-font-specification:'Calibri Bold';fill:#ffffff;fill-opacity:1;stroke:none"
       id="path1235" />
    <path
       d="m 331.19084,46.337533 q 0,0.143229 -0.10026,0.257812 -0.0859,0.114583 -0.30078,0.186198 -0.21485,0.07161 -0.57292,0.114583 -0.35807,0.04297 -0.91666,0.04297 -0.54427,0 -0.91667,-0.04297 -0.35807,-0.04297 -0.57292,-0.114583 -0.21484,-0.07162 -0.3151,-0.186198 -0.0859,-0.114583 -0.0859,-0.257812 V 28.834949 q 0,-0.143229 0.0859,-0.257813 0.10026,-0.114583 0.3151,-0.186197 0.22917,-0.07161 0.58724,-0.114584 0.35808,-0.04297 0.90235,-0.04297 0.55859,0 0.91666,0.04297 0.35807,0.04297 0.57292,0.114584 0.21484,0.07161 0.30078,0.186197 0.10026,0.114584 0.10026,0.257813 z"
       style="font-style:normal;font-variant:normal;font-weight:bold;font-stretch:normal;font-size:29.3333px;line-height:1.25;font-family:Calibri;-inkscape-font-specification:'Calibri Bold';fill:#ffffff;fill-opacity:1;stroke:none"
       id="path1237" />
    <path
       d="m 350.51243,45.53545 q 0,0.329427 -0.11458,0.587239 -0.11459,0.257812 -0.31511,0.429687 -0.1862,0.171875 -0.45833,0.257812 -0.25781,0.07162 -0.52995,0.07162 h -1.60416 q -0.5013,0 -0.8737,-0.10026 -0.35807,-0.100261 -0.67318,-0.358073 -0.30078,-0.272135 -0.58724,-0.716145 -0.28645,-0.458333 -0.64453,-1.174478 l -4.61197,-8.665354 q -0.40104,-0.773437 -0.81641,-1.661457 -0.41536,-0.902343 -0.74479,-1.747394 h -0.0286 q 0.0573,1.031249 0.0859,2.062498 0.0286,1.016926 0.0286,2.105466 v 9.696604 q 0,0.143229 -0.0859,0.257812 -0.0716,0.114583 -0.27213,0.200521 -0.1862,0.07161 -0.51563,0.114583 -0.32942,0.04297 -0.84505,0.04297 -0.5013,0 -0.83072,-0.04297 -0.32943,-0.04297 -0.51563,-0.114583 -0.1862,-0.08594 -0.25781,-0.200521 -0.0716,-0.114583 -0.0716,-0.257812 V 29.665677 q 0,-0.673177 0.38672,-1.002603 0.40104,-0.34375 0.97396,-0.34375 h 2.01953 q 0.54427,0 0.91666,0.10026 0.3724,0.08594 0.65886,0.300781 0.30078,0.214844 0.55859,0.601562 0.25781,0.372396 0.52995,0.930989 l 3.60937,6.774731 q 0.3151,0.615885 0.61588,1.217447 0.31511,0.587239 0.60157,1.188801 0.28645,0.587239 0.55859,1.160155 0.27213,0.572916 0.52995,1.145832 h 0.0143 q -0.043,-1.002603 -0.0716,-2.091144 -0.0143,-1.08854 -0.0143,-2.07682 v -8.694001 q 0,-0.143229 0.0859,-0.257812 0.0859,-0.114583 0.28646,-0.200521 0.20052,-0.08594 0.52994,-0.114583 0.32943,-0.04297 0.84506,-0.04297 0.48697,0 0.8164,0.04297 0.32943,0.02865 0.5013,0.114583 0.1862,0.08594 0.25781,0.200521 0.0716,0.114583 0.0716,0.257812 z"
       style="font-style:normal;font-variant:normal;font-weight:bold;font-stretch:normal;font-size:29.3333px;line-height:1.25;font-family:Calibri;-inkscape-font-specification:'Calibri Bold';fill:#ffffff;fill-opacity:1;stroke:none"
       id="path1239" />
    <path
       d="m 356.14133,50.562788 q -0.0716,0.186198 -0.1862,0.300781 -0.11458,0.114583 -0.32942,0.186198 -0.20052,0.07161 -0.51563,0.10026 -0.30078,0.04297 -0.77344,0.04297 -0.58723,0 -0.95963,-0.05729 -0.37239,-0.05729 -0.57292,-0.171875 -0.18619,-0.114583 -0.21484,-0.30078 -0.0286,-0.171875 0.0573,-0.415365 l 8.5651,-24.048149 q 0.0573,-0.186198 0.17187,-0.300781 0.11459,-0.128906 0.31511,-0.200521 0.20052,-0.07161 0.51562,-0.10026 0.32943,-0.04297 0.78776,-0.04297 0.60156,0 0.95963,0.05729 0.3724,0.05729 0.5586,0.171875 0.18619,0.114583 0.21484,0.300781 0.0286,0.171875 -0.043,0.415364 z"
       style="font-style:normal;font-variant:normal;font-weight:bold;font-stretch:normal;font-size:29.3333px;line-height:1.25;font-family:Calibri;-inkscape-font-specification:'Calibri Bold';fill:#ffffff;fill-opacity:1;stroke:none"
       id="path1241" />
    <path
       d="m 379.84573,33.948224 q 0,1.561196 -0.48698,2.76432 -0.48698,1.203123 -1.41797,2.033852 -0.93099,0.816405 -2.29166,1.246092 -1.34636,0.429687 -3.17969,0.429687 h -1.54687 v 5.915358 q 0,0.143229 -0.10026,0.257812 -0.0859,0.114583 -0.30078,0.186198 -0.21484,0.07161 -0.57292,0.114583 -0.35807,0.04297 -0.91666,0.04297 -0.54427,0 -0.91667,-0.04297 -0.35807,-0.04297 -0.57291,-0.114583 -0.21485,-0.07162 -0.30079,-0.186198 -0.0859,-0.114583 -0.0859,-0.257812 V 29.665677 q 0,-0.673177 0.34375,-1.002603 0.35807,-0.34375 0.93099,-0.34375 h 4.36848 q 0.65885,0 1.24609,0.05729 0.60156,0.04297 1.43229,0.214843 0.83073,0.157552 1.67578,0.601562 0.85938,0.44401 1.46094,1.131509 0.60156,0.673177 0.91666,1.589842 0.31511,0.902343 0.31511,2.033852 z m -3.9388,0.272135 q 0,-0.973957 -0.34375,-1.604165 -0.34375,-0.630207 -0.84505,-0.930988 -0.5013,-0.300781 -1.0599,-0.372396 -0.54427,-0.08594 -1.13151,-0.08594 h -1.60416 v 6.287753 h 1.6901 q 0.90235,0 1.50391,-0.243489 0.61588,-0.24349 1.0026,-0.673177 0.38672,-0.444009 0.58724,-1.045571 0.20052,-0.615885 0.20052,-1.33203 z"
       style="font-style:normal;font-variant:normal;font-weight:bold;font-stretch:normal;font-size:29.3333px;line-height:1.25;font-family:Calibri;-inkscape-font-specification:'Calibri Bold';fill:#ffffff;fill-opacity:1;stroke:none"
       id="path1243" />
    <path
       d="m 396.51759,46.366178 q 0,0.157552 -0.0573,0.272136 -0.0573,0.10026 -0.27214,0.171874 -0.21484,0.07162 -0.6302,0.100261 -0.41537,0.02864 -1.13151,0.02864 -0.60156,0 -0.95964,-0.02864 -0.35807,-0.02865 -0.57291,-0.100261 -0.20052,-0.08594 -0.28646,-0.20052 -0.0859,-0.128906 -0.14323,-0.300781 l -1.66146,-4.139318 q -0.30078,-0.701822 -0.58724,-1.246093 -0.28645,-0.54427 -0.64453,-0.902342 -0.34375,-0.372396 -0.80208,-0.558593 -0.45833,-0.186198 -1.05989,-0.186198 h -1.17448 v 7.06119 q 0,0.143229 -0.10026,0.257812 -0.0859,0.114583 -0.30078,0.186198 -0.21485,0.07161 -0.57292,0.114583 -0.35807,0.04297 -0.91666,0.04297 -0.54427,0 -0.91667,-0.04297 -0.35807,-0.04297 -0.57292,-0.114583 -0.21484,-0.07162 -0.30078,-0.186198 -0.0859,-0.114583 -0.0859,-0.257812 V 29.508125 q 0,-0.630208 0.3151,-0.902343 0.32943,-0.286458 0.80208,-0.286458 h 4.79817 q 0.73047,0 1.20313,0.02865 0.47265,0.02865 0.85937,0.07161 1.11719,0.157552 2.00521,0.544271 0.90234,0.386718 1.51823,1.016926 0.6302,0.615884 0.95963,1.475258 0.32943,0.845051 0.32943,1.947915 0,0.930988 -0.24349,1.704425 -0.22917,0.759114 -0.6875,1.360675 -0.45834,0.601562 -1.13151,1.045572 -0.67318,0.44401 -1.53255,0.716145 0.41536,0.200521 0.77343,0.486979 0.3724,0.286458 0.6875,0.701822 0.32943,0.401041 0.61589,0.930988 0.28646,0.515625 0.55859,1.174478 l 1.5612,3.65234 q 0.21484,0.54427 0.28646,0.802082 0.0716,0.243489 0.0716,0.386718 z m -4.85546,-12.575506 q 0,-0.916666 -0.41537,-1.546873 -0.41536,-0.630208 -1.36067,-0.88802 -0.28646,-0.07161 -0.65886,-0.114583 -0.35807,-0.04297 -1.0026,-0.04297 h -1.6901 v 5.256504 h 1.91927 q 0.80208,0 1.40364,-0.186197 0.60156,-0.200521 1.0026,-0.54427 0.40105,-0.358073 0.60157,-0.845052 0.20052,-0.486978 0.20052,-1.08854 z"
       style="font-style:normal;font-variant:normal;font-weight:bold;font-stretch:normal;font-size:29.3333px;line-height:1.25;font-family:Calibri;-inkscape-font-specification:'Calibri Bold';fill:#ffffff;fill-opacity:1;stroke:none"
       id="path1245" />
    <path
       d="m 415.66731,37.371397 q 0,2.305987 -0.57292,4.124995 -0.57292,1.819009 -1.70442,3.093747 -1.13151,1.260415 -2.80729,1.933591 -1.66146,0.658854 -3.85286,0.658854 -2.16276,0 -3.78125,-0.558593 -1.60416,-0.572916 -2.67838,-1.733071 -1.07422,-1.160155 -1.61849,-2.950518 -0.52995,-1.790362 -0.52995,-4.239578 0,-2.248696 0.57292,-4.039058 0.57292,-1.804685 1.70442,-3.065101 1.13151,-1.260415 2.79297,-1.933591 1.67578,-0.673177 3.88151,-0.673177 2.10546,0 3.70963,0.558594 1.61849,0.558593 2.6927,1.718748 1.08854,1.160155 1.63281,2.936194 0.5586,1.761717 0.5586,4.167964 z m -3.95312,0.200521 q 0,-1.460936 -0.22917,-2.649737 -0.22917,-1.203123 -0.78776,-2.048175 -0.54427,-0.859374 -1.46094,-1.317706 -0.91666,-0.472656 -2.29166,-0.472656 -1.38932,0 -2.32031,0.529947 -0.93099,0.515625 -1.5039,1.389322 -0.57292,0.873696 -0.81641,2.048174 -0.22917,1.160155 -0.22917,2.463539 0,1.518228 0.22917,2.735674 0.22917,1.203124 0.77344,2.062498 0.54427,0.859374 1.46093,1.317706 0.91667,0.44401 2.30599,0.44401 1.38932,0 2.32031,-0.515624 0.93099,-0.515624 1.5039,-1.403644 0.57292,-0.88802 0.80209,-2.062498 0.24349,-1.188801 0.24349,-2.52083 z"
       style="font-style:normal;font-variant:normal;font-weight:bold;font-stretch:normal;font-size:29.3333px;line-height:1.25;font-family:Calibri;-inkscape-font-specification:'Calibri Bold';fill:#ffffff;fill-opacity:1;stroke:none"
       id="path1247" />
    <path
       d="m 424.24672,41.696913 q 0,1.260415 -0.24349,2.277341 -0.22917,1.002603 -0.80209,1.718748 -0.55859,0.701822 -1.47525,1.074218 -0.91667,0.372395 -2.26302,0.372395 -0.42969,0 -0.85938,-0.07161 -0.41536,-0.05729 -0.77343,-0.157552 -0.34375,-0.100261 -0.60157,-0.214844 -0.25781,-0.114583 -0.34375,-0.20052 -0.0859,-0.100261 -0.14322,-0.200521 -0.0573,-0.10026 -0.10026,-0.257812 -0.043,-0.171875 -0.0573,-0.415364 -0.0143,-0.24349 -0.0143,-0.615885 0,-0.486979 0.0143,-0.816405 0.0287,-0.34375 0.0716,-0.529948 0.0573,-0.20052 0.14323,-0.272135 0.10026,-0.08594 0.24349,-0.08594 0.1289,0 0.30078,0.10026 0.17187,0.08594 0.38672,0.186198 0.21484,0.10026 0.5013,0.20052 0.28646,0.08594 0.67317,0.08594 0.38672,0 0.67318,-0.100261 0.30078,-0.114583 0.48698,-0.372395 0.20052,-0.272135 0.30078,-0.716145 0.10026,-0.44401 0.10026,-1.145832 V 28.806303 q 0,-0.143229 0.0859,-0.24349 0.10026,-0.114583 0.30078,-0.186197 0.21484,-0.07161 0.58724,-0.100261 0.37239,-0.04297 0.91666,-0.04297 0.54427,0 0.90235,0.04297 0.35807,0.02865 0.57291,0.100261 0.22917,0.07161 0.31511,0.186197 0.10026,0.100261 0.10026,0.24349 z"
       style="font-style:normal;font-variant:normal;font-weight:bold;font-stretch:normal;font-size:29.3333px;line-height:1.25;font-family:Calibri;-inkscape-font-specification:'Calibri Bold';fill:#ffffff;fill-opacity:1;stroke:none"
       id="path1249" />
    <path
       d="m 439.2428,45.377898 q 0,0.415364 -0.043,0.701822 -0.0286,0.272136 -0.10026,0.44401 -0.0716,0.171875 -0.18619,0.257813 -0.10026,0.07161 -0.22917,0.07161 h -9.30988 q -0.47266,0 -0.80209,-0.272135 -0.3151,-0.286458 -0.3151,-0.916666 V 29.508125 q 0,-0.630208 0.3151,-0.902343 0.32943,-0.286458 0.80209,-0.286458 h 9.25259 q 0.1289,0 0.22916,0.07161 0.10027,0.07161 0.17188,0.257812 0.0716,0.171875 0.10026,0.458333 0.043,0.272135 0.043,0.701822 0,0.401041 -0.043,0.687499 -0.0286,0.272135 -0.10026,0.44401 -0.0716,0.171875 -0.17188,0.257812 -0.10026,0.07162 -0.22916,0.07162 h -6.61718 v 4.526036 h 5.60025 q 0.12891,0 0.22917,0.08594 0.11458,0.07161 0.1862,0.24349 0.0716,0.157552 0.10026,0.44401 0.043,0.272135 0.043,0.673176 0,0.415364 -0.043,0.687499 -0.0287,0.272135 -0.10026,0.44401 -0.0716,0.157552 -0.1862,0.229167 -0.10026,0.07161 -0.22917,0.07161 h -5.60025 v 5.227859 h 6.67447 q 0.12891,0 0.22917,0.08594 0.11458,0.07162 0.18619,0.243489 0.0716,0.171875 0.10026,0.458333 0.043,0.272135 0.043,0.687499 z"
       style="font-style:normal;font-variant:normal;font-weight:bold;font-stretch:normal;font-size:29.3333px;line-height:1.25;font-family:Calibri;-inkscape-font-specification:'Calibri Bold';fill:#ffffff;fill-opacity:1;stroke:none"
       id="path1251" />
    <path
       d="m 454.95503,44.045869 q 0,0.358072 -0.0287,0.615884 -0.0143,0.24349 -0.0573,0.429687 -0.043,0.171875 -0.11459,0.300781 -0.0716,0.128906 -0.22916,0.300781 -0.15755,0.157552 -0.61589,0.415364 -0.44401,0.257812 -1.10286,0.501302 -0.64453,0.229166 -1.48958,0.386718 -0.83073,0.157552 -1.80469,0.157552 -1.90494,0 -3.43749,-0.587239 -1.53255,-0.587239 -2.60677,-1.747394 -1.07422,-1.174478 -1.64713,-2.921871 -0.57292,-1.747394 -0.57292,-4.067704 0,-2.363279 0.63021,-4.19661 0.63021,-1.833331 1.76171,-3.079423 1.13151,-1.246093 2.70703,-1.890623 1.58984,-0.644531 3.49479,-0.644531 0.77344,0 1.48958,0.128906 0.71615,0.128906 1.31771,0.34375 0.61588,0.200521 1.10286,0.472656 0.48698,0.272135 0.67318,0.472655 0.20052,0.186198 0.27213,0.315104 0.0716,0.128906 0.11459,0.329427 0.043,0.20052 0.0573,0.472656 0.0286,0.272135 0.0286,0.673176 0,0.429687 -0.0286,0.730468 -0.0287,0.300781 -0.10026,0.486978 -0.0716,0.186198 -0.17188,0.272136 -0.10026,0.08594 -0.22916,0.08594 -0.21485,0 -0.54427,-0.243489 -0.32943,-0.257813 -0.85938,-0.558593 -0.51562,-0.315104 -1.24609,-0.558594 -0.71614,-0.257812 -1.71875,-0.257812 -1.10286,0 -1.97656,0.458333 -0.85937,0.44401 -1.47526,1.289061 -0.60156,0.830728 -0.91666,2.019529 -0.31511,1.188801 -0.31511,2.678382 0,1.632811 0.32943,2.835935 0.34375,1.1888 0.95963,1.962237 0.63021,0.773436 1.50391,1.160155 0.88802,0.372395 1.99088,0.372395 1.00261,0 1.73307,-0.229166 0.73047,-0.24349 1.2461,-0.529948 0.52994,-0.286458 0.85937,-0.515624 0.34375,-0.229166 0.52995,-0.229166 0.14323,0 0.22916,0.05729 0.0859,0.05729 0.14323,0.229167 0.0573,0.171874 0.0859,0.486978 0.0287,0.300781 0.0287,0.816406 z"
       style="font-style:normal;font-variant:normal;font-weight:bold;font-stretch:normal;font-size:29.3333px;line-height:1.25;font-family:Calibri;-inkscape-font-specification:'Calibri Bold';fill:#ffffff;fill-opacity:1;stroke:none"
       id="path1253" />
    <path
       d="m 470.1373,29.866197 q 0,0.415364 -0.043,0.716145 -0.0287,0.286458 -0.10026,0.472656 -0.0716,0.171875 -0.1862,0.257812 -0.10026,0.08594 -0.22917,0.08594 h -4.64062 v 14.938785 q 0,0.143229 -0.10026,0.257812 -0.0859,0.114583 -0.30078,0.186198 -0.21484,0.07161 -0.58724,0.114583 -0.35807,0.04297 -0.90234,0.04297 -0.54427,0 -0.91666,-0.04297 -0.35808,-0.04297 -0.57292,-0.114583 -0.21484,-0.07162 -0.3151,-0.186198 -0.0859,-0.114583 -0.0859,-0.257812 V 31.398748 h -4.64062 q -0.14323,0 -0.24349,-0.08594 -0.10026,-0.08594 -0.17187,-0.257812 -0.0716,-0.186198 -0.11459,-0.472656 -0.0286,-0.300781 -0.0286,-0.716145 0,-0.429687 0.0286,-0.730468 0.043,-0.30078 0.11459,-0.472655 0.0716,-0.186198 0.17187,-0.257812 0.10026,-0.08594 0.24349,-0.08594 h 13.06248 q 0.12891,0 0.22917,0.08594 0.11458,0.07161 0.1862,0.257812 0.0716,0.171875 0.10026,0.472655 0.043,0.300781 0.043,0.730468 z"
       style="font-style:normal;font-variant:normal;font-weight:bold;font-stretch:normal;font-size:29.3333px;line-height:1.25;font-family:Calibri;-inkscape-font-specification:'Calibri Bold';fill:#ffffff;fill-opacity:1;stroke:none"
       id="path1255" />
  </g>
</svg>
