<?xml version="1.0" encoding="UTF-8"?>
<svg version="1.1" viewBox="0 0 733.32 494.89" xmlns="http://www.w3.org/2000/svg">
  <defs>
    <marker id="marker2435" overflow="visible" orient="auto">
      <path transform="scale(-.6)" d="m8.7186 4.0337-10.926-4.0177 10.926-4.0177c-1.7455 2.3721-1.7354 5.6175-6e-7 8.0354z" fill-rule="evenodd" stroke="#000" stroke-linejoin="round" stroke-width=".625"/>
    </marker>
    <marker id="marker1093" overflow="visible" orient="auto">
      <path transform="scale(-.6)" d="m8.7186 4.0337-10.926-4.0177 10.926-4.0177c-1.7455 2.3721-1.7354 5.6175-6e-7 8.0354z" fill-rule="evenodd" stroke="#000" stroke-linejoin="round" stroke-width=".625"/>
    </marker>
    <marker id="marker1041" overflow="visible" orient="auto">
      <path transform="scale(-.6)" d="m8.7186 4.0337-10.926-4.0177 10.926-4.0177c-1.7455 2.3721-1.7354 5.6175-6e-7 8.0354z" fill-rule="evenodd" stroke="#000" stroke-linejoin="round" stroke-width=".625"/>
    </marker>
    <marker id="marker5882" overflow="visible" orient="auto">
      <path transform="scale(-.6)" d="m8.7186 4.0337-10.926-4.0177 10.926-4.0177c-1.7455 2.3721-1.7354 5.6175-6e-7 8.0354z" fill-rule="evenodd" stroke="#000" stroke-linejoin="round" stroke-width=".625"/>
    </marker>
  </defs>
  <path d="m10 315.18h713.32" fill="none" stroke="#888a85" stroke-dasharray="11.15365966, 5.57682983" stroke-width="5.5768"/>
  <rect transform="rotate(90)" x="15.06" y="-466.16" width="46.628" height="198.51" ry=".95832" fill="#73d216" stroke="#4e9a06" stroke-linecap="square" stroke-width="10.118"/>
  <g transform="translate(-111.16,-465.79)" fill="#fff" stroke-width="2.9698" aria-label="MAIN/PROJECT">
    <path d="m406.44 512.53h-3.4213l-0.19007-7.0564q-0.0238-0.5227-0.0238-1.4255 0-1.1879 0.0713-2.3046 0.0713-1.1404 0.16631-2.3759l-1.8532 10.359h-2.9461l-2.0195-10.359q0.26134 2.7323 0.26134 4.9181l-0.0238 1.2592-0.11879 6.9851h-3.35l0.92659-16.465h4.0152l1.8294 10.644 1.7344-10.644h4.0152z"/>
    <path d="m416.34 508.97h-4.823l-0.85532 3.5638h-4.0865l5.0369-16.465h4.728l5.0369 16.465h-4.1816zm-4.2053-2.8035h3.5638l-1.7819-7.2939z"/>
    <path d="m433.55 496.07v2.8511h-3.3975v10.739h3.3975v2.8748h-10.691v-2.8748h3.3975v-10.739h-3.3975v-2.8511z"/>
    <path d="m439.29 499.3q0.23759 1.8057 0.4039 3.4925 0.16631 1.6631 0.16631 3.54v6.201h-3.3025v-16.465h4.8706l4.1816 13.186q-0.57021-3.6588-0.57021-6.89v-6.2961h3.3025v16.465h-4.728z"/>
    <path d="m453.18 515.19-2.9223-1.3542 9.9787-20.718 2.8986 1.3542z"/>
    <path d="m477.5 501.44q0 2.7798-1.7582 4.2053-1.7344 1.4018-4.7518 1.4018h-1.8057v5.4883h-3.8964v-16.465h5.1794q3.4213 0 5.2269 1.3542 1.8057 1.3305 1.8057 4.0152zm-3.9915 0q0-2.5897-2.9698-2.5897h-1.3542v5.3932h1.5443q1.3305 0 2.0433-0.689 0.73652-0.68901 0.73652-2.1145z"/>
    <path d="m491.39 501.08q0 1.6631-0.90283 2.8035-0.87908 1.1167-2.3759 1.7106l4.3003 6.9376h-4.4191l-3.5638-6.2961h-1.0929v6.2961h-3.8964v-16.465h5.1794q3.3975 0 5.0844 1.2355 1.6869 1.2354 1.6869 3.7776zm-4.0152 0q0-1.1879-0.689-1.7344-0.66525-0.54645-2.067-0.54645h-1.283v4.7518h1.4493q1.283 0 1.9245-0.59397 0.66525-0.59397 0.66525-1.877z"/>
    <path d="m506.02 504.29q0 4.0152-1.7106 6.3436-1.6869 2.3046-4.8706 2.3046-3.2074 0-4.8943-2.2808-1.6869-2.3046-1.6869-6.3674 0-4.0152 1.6869-6.3198 1.7106-2.3284 4.8943-2.3284 3.2074 0 4.8943 2.3046 1.6869 2.2808 1.6869 6.3436zm-3.9915 0q0-3.0411-0.61773-4.4191-0.59397-1.378-1.972-1.378t-1.9957 1.378q-0.59397 1.378-0.59397 4.4191t0.59397 4.4191q0.61773 1.378 1.9957 1.378 1.4018 0 1.9957-1.378t0.59397-4.4191z"/>
    <path d="m519.07 506.62q0 2.8986-1.7582 4.5854-1.7344 1.6869-4.8706 1.6869-1.5206 0-2.6847-0.38014-1.1404-0.38015-2.2808-1.1642l1.473-2.3996q0.85532 0.57021 1.5918 0.8078 0.73652 0.23758 1.6869 0.23758 1.3067 0 2.1145-0.83155 0.83156-0.85532 0.83156-2.5184v-7.7216h-5.0369v-2.8511h8.9333z"/>
    <path d="m526.91 498.85v3.9677h5.7021v2.7085h-5.7021v4.2053h6.8663v2.8035h-10.763v-16.465h10.763l-0.4039 2.7798z"/>
    <path d="m543.55 495.64q1.7106 0 2.9461 0.45142 1.2354 0.45142 2.3284 1.3542l-1.9007 2.3046q-1.4968-1.2117-3.2787-1.2117-1.6869 0-2.7322 1.4255-1.0216 1.4255-1.0216 4.3003t1.0216 4.2766q1.0216 1.378 2.8035 1.378 1.0929 0 1.8769-0.38014t1.6869-1.0929l1.7582 2.2571q-2.1858 2.2333-5.5358 2.2333-2.2571 0-3.9915-0.99787-1.7106-0.99786-2.6847-2.9461-0.97411-1.972-0.97411-4.728 0-2.6847 0.99786-4.633 0.99787-1.9482 2.756-2.9698t3.944-1.0216z"/>
    <path d="m558.34 499.06v13.471h-3.8964v-13.471h-4.633v-2.9936h13.329l-0.38014 2.9936z"/>
  </g>
  <path d="m508.3 146.07c-19.999 33.693 113.18 102.66-19.406 105.38" fill="none" marker-end="url(#marker2435)" stroke="#000" stroke-linecap="round" stroke-linejoin="round" stroke-width="7.0761"/>
  <rect transform="rotate(90)" x="82.48" y="-569.84" width="46.628" height="139.72" ry=".67451" fill="#c00" stroke="#a40000" stroke-linecap="square" stroke-width="8.4883"/>
  <g transform="translate(-111.16,-465.79)" fill="#fff" stroke-width="2.9698" aria-label="BRANCH A">
    <path d="m566.15 575.12q0 2.6372-1.877 3.7301-1.8532 1.0929-4.8943 1.0929h-5.4645v-16.465h5.2269q2.8273 0 4.5617 0.99787 1.7344 0.97411 1.7344 3.2074 0 1.4018-0.85531 2.3046-0.85532 0.90284-2.162 1.2355 1.5681 0.26135 2.6372 1.1879 1.0929 0.90283 1.0929 2.7085zm-4.633-7.0326q0-0.97411-0.61773-1.4018-0.59397-0.45141-1.9007-0.45141h-1.1879v3.8252h1.3305q1.2354 0 1.8057-0.45142 0.57021-0.47517 0.57021-1.5206zm0.61772 6.8663q0-1.2355-0.71276-1.7582-0.689-0.52269-2.0195-0.52269h-1.5918v4.4191h1.4255q1.3542 0 2.1145-0.45142 0.78404-0.45142 0.78404-1.6869z"/>
    <path d="m580.16 568.49q0 1.6631-0.90283 2.8035-0.87907 1.1167-2.3759 1.7106l4.3003 6.9376h-4.4191l-3.5638-6.2961h-1.0929v6.2961h-3.8964v-16.465h5.1794q3.3975 0 5.0844 1.2355 1.6869 1.2354 1.6869 3.7776zm-4.0152 0q0-1.1879-0.689-1.7344-0.66525-0.54645-2.067-0.54645h-1.283v4.7518h1.4493q1.283 0 1.9245-0.59397 0.66524-0.59397 0.66524-1.8769z"/>
    <path d="m590.58 576.38h-4.823l-0.85531 3.5638h-4.0865l5.0369-16.465h4.728l5.0369 16.465h-4.1816zm-4.2053-2.8035h3.5638l-1.7819-7.294z"/>
    <path d="m599.29 566.71q0.23759 1.8057 0.4039 3.4925 0.16632 1.6631 0.16632 3.5401v6.201h-3.3025v-16.465h4.8705l4.1816 13.186q-0.57021-3.6588-0.57021-6.89v-6.2961h3.3025v16.465h-4.728z"/>
    <path d="m618.07 563.05q1.7106 0 2.9461 0.45142 1.2354 0.45141 2.3284 1.3542l-1.9007 2.3046q-1.4968-1.2117-3.2787-1.2117-1.6869 0-2.7323 1.4255-1.0216 1.4255-1.0216 4.3003t1.0216 4.2766q1.0216 1.378 2.8035 1.378 1.0929 0 1.8769-0.38015 0.78404-0.38014 1.6869-1.0929l1.7582 2.2571q-2.1858 2.2333-5.5358 2.2333-2.2571 0-3.9915-0.99787-1.7106-0.99787-2.6848-2.9461-0.97411-1.972-0.97411-4.728 0-2.6848 0.99787-4.633t2.756-2.9698 3.944-1.0216z"/>
    <path d="m632.94 579.95v-6.9376h-3.9915v6.9376h-3.8964v-16.465h3.8964v6.3198h3.9915v-6.3198h3.8964v16.465z"/>
    <path d="m661.81 576.38h-4.823l-0.85532 3.5638h-4.0865l5.0369-16.465h4.728l5.0369 16.465h-4.1815zm-4.2053-2.8035h3.5638l-1.7819-7.294z"/>
  </g>
  <g transform="translate(-111.16,-465.79)" stroke-width="2.7496" style="font-feature-settings:normal;font-variant-caps:normal;font-variant-ligatures:normal;font-variant-numeric:normal" aria-label="Merge">
    <path d="m329.21 679.3h-3.1675l-0.17597-6.5329q-0.022-0.48392-0.022-1.3198 0-1.0998 0.066-2.1337 0.066-1.0558 0.15398-2.1996l-1.7157 9.5904h-2.7276l-1.8697-9.5904q0.24196 2.5296 0.24196 4.5533l-0.022 1.1658-0.10999 6.467h-3.1015l0.85786-15.244h3.7174l1.6937 9.8544 1.6057-9.8544h3.7174z"/>
    <path d="m334.13 674.48q0.32994 2.6616 2.8155 2.6616 1.4958 0 2.9915-0.96784l1.3858 1.8917q-0.85786 0.74788-2.0457 1.1878-1.1878 0.41793-2.6176 0.41793-1.9577 0-3.3215-0.76987-1.3638-0.79187-2.0677-2.1776-0.68189-1.4078-0.68189-3.2555 0-1.7597 0.65989-3.1675 0.68189-1.4298 1.9577-2.2436 1.2978-0.83587 3.0795-0.83587 1.6717 0 2.9035 0.72588 1.2318 0.70389 1.8917 2.0677 0.68189 1.3418 0.68189 3.2115 0 0.72588-0.066 1.2538zm2.1556-4.9272q-0.94585 0-1.5178 0.70389-0.5719 0.68189-0.68189 2.1117h4.2893q-0.044-2.8156-2.0897-2.8156z"/>
    <path d="m353.22 667.26q1.0558 0 1.9357 0.35195l-0.63789 4.8832h-2.1996v-2.1337q-0.96784 0.15398-1.7157 1.0338-0.74788 0.87986-1.1658 2.2216v3.3435h2.3096v2.3316h-7.3248v-2.3316h1.5398v-7.0389h-1.5398v-2.3096h4.2013l0.6159 2.6176q0.6379-1.4958 1.6057-2.2216 0.96784-0.74788 2.3756-0.74788z"/>
    <path d="m368.67 668.3q-1.1438 0.46192-3.3654 0.46192 1.1438 0.50592 1.6937 1.2098 0.5719 0.70388 0.5719 1.8037 0 1.1218-0.6159 2.0237-0.6159 0.87986-1.7377 1.3858-1.1218 0.50592-2.5956 0.50592-0.72589 0-1.3638-0.13198-0.17597 0.088-0.28596 0.28595-0.088 0.17597-0.088 0.37394 0 0.32995 0.24196 0.52792 0.26396 0.17597 1.0338 0.17597h1.9357q1.3198 0 2.3316 0.43993t1.5617 1.2098q0.54992 0.76988 0.54992 1.7377 0 1.8257-1.6057 2.8375-1.5838 1.0338-4.6412 1.0338-2.1776 0-3.4314-0.46192-1.2318-0.43993-1.7377-1.2538-0.48392-0.81387-0.48392-2.0457h3.0795q0 0.54991 0.19796 0.85786 0.21997 0.30795 0.79188 0.46193 0.5719 0.15397 1.6717 0.15397 1.5398 0 2.1117-0.35194 0.59391-0.35194 0.59391-0.98984 0-0.52792-0.43993-0.85786-0.41793-0.30795-1.2538-0.30795h-1.8477q-1.8037 0-2.7056-0.6379-0.90185-0.65989-0.90185-1.6717 0-0.65989 0.32994-1.2318 0.35195-0.5939 0.96785-0.98984-1.0998-0.5939-1.5838-1.3858-0.48392-0.81387-0.48392-1.9577 0-1.2978 0.65989-2.2656 0.6599-0.96784 1.8477-1.4738 1.1878-0.52791 2.7056-0.52791 1.7597 0.044 2.9915-0.32995 1.2318-0.39593 2.5076-1.1658zm-6.203 1.2098q-0.83586 0-1.3198 0.52791-0.46192 0.52792-0.46192 1.4298 0 0.94585 0.48392 1.4738 0.48392 0.52792 1.2978 0.52792 0.85786 0 1.3198-0.50592 0.46192-0.52791 0.46192-1.5398 0-1.9137-1.7817-1.9137z"/>
    <path d="m373.7 674.48q0.32995 2.6616 2.8156 2.6616 1.4958 0 2.9915-0.96784l1.3858 1.8917q-0.85786 0.74788-2.0457 1.1878-1.1878 0.41793-2.6176 0.41793-1.9577 0-3.3215-0.76987-1.3638-0.79187-2.0677-2.1776-0.68189-1.4078-0.68189-3.2555 0-1.7597 0.65989-3.1675 0.68189-1.4298 1.9577-2.2436 1.2978-0.83587 3.0795-0.83587 1.6717 0 2.9035 0.72588 1.2318 0.70389 1.8917 2.0677 0.68189 1.3418 0.68189 3.2115 0 0.72588-0.066 1.2538zm2.1556-4.9272q-0.94584 0-1.5178 0.70389-0.57191 0.68189-0.68189 2.1117h4.2893q-0.044-2.8156-2.0897-2.8156z"/>
  </g>
  <rect transform="rotate(90)" x="227.18" y="-466.6" width="46.628" height="199.38" ry=".96254" fill="#3465a4" stroke="#204a87" stroke-linecap="square" stroke-width="10.14"/>
  <g transform="translate(3.1285)" fill="#fff" stroke-width="2.9698" aria-label="CONTRIBUTION">
    <path d="m287.02 241.97q1.7106 0 2.9461 0.45143 1.2355 0.45142 2.3284 1.3543l-1.9007 2.3046q-1.4968-1.2117-3.2788-1.2117-1.6869 0-2.7323 1.4255-1.0216 1.4255-1.0216 4.3004t1.0216 4.2766q1.0216 1.378 2.8036 1.378 1.0929 0 1.877-0.38014 0.78405-0.38014 1.6869-1.0929l1.7582 2.2571q-2.1858 2.2334-5.5358 2.2334-2.2571 0-3.9915-0.99788-1.7106-0.99788-2.6848-2.9461-0.97412-1.972-0.97412-4.728 0-2.6848 0.99788-4.633t2.756-2.9699q1.7582-1.0216 3.944-1.0216z"/>
    <path d="m306.47 250.62q0 4.0153-1.7106 6.3436-1.6869 2.3046-4.8706 2.3046-3.2075 0-4.8944-2.2809-1.6869-2.3046-1.6869-6.3674 0-4.0153 1.6869-6.3199 1.7106-2.3284 4.8944-2.3284 3.2075 0 4.8944 2.3046 1.6869 2.2809 1.6869 6.3436zm-3.9915 0q0-3.0412-0.61774-4.4192-0.59397-1.378-1.972-1.378-1.378 0-1.9958 1.378-0.59397 1.378-0.59397 4.4192t0.59397 4.4192q0.61773 1.378 1.9958 1.378 1.4018 0 1.9958-1.378 0.59398-1.378 0.59398-4.4192z"/>
    <path d="m310.97 245.63q0.23759 1.8057 0.4039 3.4926 0.16631 1.6631 0.16631 3.5401v6.2011h-3.3025v-16.465h4.8706l4.1816 13.186q-0.57021-3.6589-0.57021-6.8901v-6.2961h3.3025v16.465h-4.728z"/>
    <path d="m330.3 245.39v13.471h-3.8965v-13.471h-4.633v-2.9936h13.329l-0.38014 2.9936z"/>
    <path d="m348.83 247.41q0 1.6631-0.90284 2.8036-0.87908 1.1167-2.3759 1.7106l4.3004 6.9376h-4.4192l-3.5638-6.2961h-1.0929v6.2961h-3.8965v-16.465h5.1795q3.3975 0 5.0844 1.2355 1.6869 1.2355 1.6869 3.7777zm-4.0153 0q0-1.188-0.68901-1.7344-0.66525-0.54646-2.067-0.54646h-1.283v4.7518h1.4493q1.283 0 1.9245-0.59397 0.66525-0.59398 0.66525-1.877z"/>
    <path d="m362.22 242.4v2.8511h-3.3975v10.739h3.3975v2.8748h-10.692v-2.8748h3.3975v-10.739h-3.3975v-2.8511z"/>
    <path d="m377.56 254.04q0 2.6372-1.877 3.7302-1.8532 1.0929-4.8944 1.0929h-5.4646v-16.465h5.227q2.8273 0 4.5617 0.99787 1.7344 0.97412 1.7344 3.2075 0 1.4018-0.85532 2.3046-0.85533 0.90285-2.1621 1.2355 1.5681 0.26135 2.6372 1.188 1.0929 0.90284 1.0929 2.7085zm-4.633-7.0327q0-0.97412-0.61774-1.4018-0.59397-0.45142-1.9007-0.45142h-1.188v3.8252h1.3305q1.2355 0 1.8057-0.45142 0.57022-0.47518 0.57022-1.5206zm0.61773 6.8664q0-1.2355-0.71277-1.7582-0.68901-0.5227-2.0195-0.5227h-1.5918v4.4192h1.4255q1.3543 0 2.1146-0.45142 0.78405-0.45142 0.78405-1.6869z"/>
    <path d="m391.49 253.35q0 1.7106-0.68901 3.0649-0.68901 1.3305-2.067 2.0908-1.378 0.76029-3.3738 0.76029-2.9936 0-4.5617-1.5919-1.5681-1.5918-1.5681-4.3241v-10.953h3.9202v9.5036q0 1.5918 0.16631 2.5422 0.16632 0.95036 0.6415 1.4493 0.49893 0.47518 1.4018 0.47518 0.90284 0 1.378-0.47518 0.49894-0.49894 0.66525-1.4493t0.16631-2.5422v-9.5036h3.9202z"/>
    <path d="m401.54 245.39v13.471h-3.8965v-13.471h-4.633v-2.9936h13.329l-0.38014 2.9936z"/>
    <path d="m419.2 242.4v2.8511h-3.3975v10.739h3.3975v2.8748h-10.692v-2.8748h3.3975v-10.739h-3.3975v-2.8511z"/>
    <path d="m434.68 250.62q0 4.0153-1.7106 6.3436-1.6869 2.3046-4.8706 2.3046-3.2075 0-4.8944-2.2809-1.6869-2.3046-1.6869-6.3674 0-4.0153 1.6869-6.3199 1.7106-2.3284 4.8944-2.3284 3.2075 0 4.8944 2.3046 1.6869 2.2809 1.6869 6.3436zm-3.9915 0q0-3.0412-0.61773-4.4192-0.59397-1.378-1.972-1.378-1.378 0-1.9958 1.378-0.59398 1.378-0.59398 4.4192t0.59398 4.4192q0.61773 1.378 1.9958 1.378 1.4018 0 1.9958-1.378 0.59397-1.378 0.59397-4.4192z"/>
    <path d="m439.19 245.63q0.23759 1.8057 0.4039 3.4926 0.16632 1.6631 0.16632 3.5401v6.2011h-3.3025v-16.465h4.8706l4.1816 13.186q-0.57022-3.6589-0.57022-6.8901v-6.2961h3.3025v16.465h-4.728z"/>
  </g>
  <rect transform="rotate(90)" x="79.92" y="-310.98" width="46.628" height="110.14" ry=".5317" fill="#c00" stroke="#a40000" stroke-linecap="square" stroke-width="7.5363"/>
  <g transform="translate(-111.16,-465.79)" fill="#fff" stroke-width="2.9698" aria-label="MASTER">
    <path d="m337.16 577.39h-3.4213l-0.19007-7.0564q-0.0238-0.52269-0.0238-1.4255 0-1.1879 0.0713-2.3046 0.0713-1.1404 0.16632-2.3759l-1.8532 10.359h-2.9461l-2.0195-10.359q0.26134 2.7323 0.26134 4.9181l-0.0238 1.2592-0.1188 6.9851h-3.35l0.9266-16.465h4.0152l1.8294 10.644 1.7344-10.644h4.0152z"/>
    <path d="m347.05 573.83h-4.823l-0.85532 3.5638h-4.0865l5.0369-16.465h4.728l5.0369 16.465h-4.1815zm-4.2053-2.8035h3.5638l-1.7819-7.294z"/>
    <path d="m365.29 572.57q0 1.5443-0.8078 2.7323t-2.3284 1.8532q-1.4968 0.64149-3.5638 0.64149-4.0865 0-6.5099-2.3759l1.972-2.1858q1.8769 1.6631 4.4429 1.6631 1.2355 0 1.972-0.52269 0.76028-0.54646 0.76028-1.4968 0-0.90283-0.64149-1.4018-0.61773-0.5227-2.3284-1.0454-2.8986-0.87908-4.1103-2.067-1.2117-1.1879-1.2117-3.0649 0-1.473 0.80779-2.5659 0.83156-1.0929 2.2333-1.6631 1.4255-0.57021 3.1599-0.57021 3.6351 0 5.8922 2.1383l-1.8294 2.1145q-0.83156-0.689-1.8057-1.0216-0.95035-0.35638-1.972-0.35638-1.1404 0-1.8057 0.42766-0.64148 0.4039-0.64148 1.1879 0 0.52269 0.2851 0.87907 0.30887 0.35639 0.99787 0.66525 0.68901 0.30886 2.067 0.73652 2.5184 0.76028 3.7301 1.972 1.2355 1.1879 1.2355 3.3262z"/>
    <path d="m375.1 563.92v13.471h-3.8964v-13.471h-4.633v-2.9936h13.329l-0.38014 2.9936z"/>
    <path d="m386.4 563.71v3.9677h5.7021v2.7085h-5.7021v4.2053h6.8663v2.8035h-10.763v-16.465h10.763l-0.4039 2.7798z"/>
    <path d="m407.86 565.94q0 1.6631-0.90283 2.8035-0.87907 1.1167-2.3759 1.7106l4.3003 6.9376h-4.4191l-3.5638-6.2961h-1.0929v6.2961h-3.8964v-16.465h5.1794q3.3975 0 5.0844 1.2355 1.6869 1.2354 1.6869 3.7776zm-4.0152 0q0-1.1879-0.689-1.7344-0.66525-0.54645-2.067-0.54645h-1.283v4.7518h1.4493q1.283 0 1.9245-0.59397 0.66524-0.59397 0.66524-1.8769z"/>
  </g>
  <g transform="translate(-111.16,-465.79)" fill="none" stroke="#000" stroke-linecap="round" stroke-linejoin="round" stroke-width="7.0761">
    <path d="m286.64 573.56c-80.389-37.74-244.45 241.41 29.113 351.38" marker-end="url(#marker1093)"/>
    <path d="m633.8 921.13c178.18-43.396 222.75-239.3 76.437-343.72" marker-end="url(#marker5882)"/>
    <path d="m362.4 718.27c-24.255-2.0575-119.2-24.166-26.216-103.17" marker-end="url(#marker1041)"/>
  </g>
  <g transform="translate(-111.16,-465.79)" stroke-width="2.7496">
    <g style="font-feature-settings:normal;font-variant-caps:normal;font-variant-ligatures:normal;font-variant-numeric:normal" aria-label="Create">
      <path d="m542.39 649.19q1.5838 0 2.7276 0.41793t2.1556 1.2538l-1.7597 2.1336q-1.3858-1.1218-3.0355-1.1218-1.5618 0-2.5296 1.3198-0.94585 1.3198-0.94585 3.9814t0.94585 3.9594q0.94585 1.2758 2.5956 1.2758 1.0118 0 1.7377-0.35194t1.5617-1.0118l1.6277 2.0897q-2.0237 2.0677-5.1252 2.0677-2.0897 0-3.6954-0.92385-1.5837-0.92385-2.4856-2.7276-0.90185-1.8257-0.90185-4.3773 0-2.4856 0.92385-4.2893t2.5516-2.7496q1.6277-0.94585 3.6514-0.94585z"/>
      <path d="m558.15 652.79q1.0558 0 1.9357 0.35195l-0.6379 4.8832h-2.1996v-2.1336q-0.96784 0.15398-1.7157 1.0338-0.74788 0.87986-1.1658 2.2216v3.3435h2.3096v2.3316h-7.3248v-2.3316h1.5398v-7.0389h-1.5398v-2.3096h4.2013l0.6159 2.6176q0.6379-1.4958 1.6057-2.2216 0.96784-0.74788 2.3756-0.74788z"/>
      <path d="m565.45 660.01q0.32994 2.6616 2.8155 2.6616 1.4958 0 2.9915-0.96784l1.3858 1.8917q-0.85786 0.74788-2.0457 1.1878-1.1878 0.41793-2.6176 0.41793-1.9577 0-3.3215-0.76987-1.3638-0.79188-2.0677-2.1776-0.68189-1.4078-0.68189-3.2555 0-1.7597 0.65989-3.1675 0.68189-1.4298 1.9577-2.2436 1.2978-0.83587 3.0795-0.83587 1.6717 0 2.9035 0.72588 1.2318 0.70389 1.8917 2.0677 0.68189 1.3418 0.68189 3.2115 0 0.72588-0.066 1.2538zm2.1556-4.9272q-0.94585 0-1.5178 0.70389-0.5719 0.68189-0.68189 2.1117h4.2893q-0.044-2.8156-2.0897-2.8156z"/>
      <path d="m585.45 661.46q0 0.63789 0.17597 0.94584t0.5939 0.46193l-0.72588 2.2876q-1.0558-0.10998-1.7597-0.46193-0.70388-0.37394-1.0998-1.0778-0.65989 0.76987-1.6717 1.1878-1.0118 0.39593-2.1556 0.39593-1.8037 0-2.8815-1.0118-1.0778-1.0338-1.0778-2.6616 0-1.8917 1.4958-2.9255 1.4958-1.0558 4.2013-1.0558h1.5618v-0.41793q0-1.8037-2.3096-1.8037-0.5939 0-1.4958 0.17597-0.87986 0.15398-1.7157 0.43993l-0.79187-2.3096q1.1218-0.41793 2.3316-0.6379 1.2318-0.24196 2.2216-0.24196 5.1032 0 5.1032 4.1353zm-5.4551 1.2538q0.5939 0 1.1878-0.32994 0.6159-0.35195 0.92385-0.94585v-1.9137h-0.85786q-2.8156 0-2.8156 1.7597 0 0.68189 0.39594 1.0558 0.41793 0.37394 1.1658 0.37394z"/>
      <path d="m599.33 664.14q-1.6497 1.0558-3.8274 1.0558-2.2436 0-3.3874-1.1438-1.1218-1.1438-1.1218-3.2115v-5.3011h-2.4416v-2.3976h2.4416v-2.5296l3.4754-0.41794v2.9475h3.7614l-0.35194 2.3976h-3.4094v5.3011q0 0.85786 0.39594 1.2318 0.39593 0.37394 1.2758 0.37394 1.0998 0 2.0457-0.52792z"/>
      <path d="m605.01 660.01q0.32994 2.6616 2.8155 2.6616 1.4958 0 2.9915-0.96784l1.3858 1.8917q-0.85786 0.74788-2.0457 1.1878-1.1878 0.41793-2.6176 0.41793-1.9577 0-3.3215-0.76987-1.3638-0.79188-2.0677-2.1776-0.68189-1.4078-0.68189-3.2555 0-1.7597 0.6599-3.1675 0.68189-1.4298 1.9577-2.2436 1.2978-0.83587 3.0795-0.83587 1.6717 0 2.9035 0.72588 1.2318 0.70389 1.8917 2.0677 0.68189 1.3418 0.68189 3.2115 0 0.72588-0.066 1.2538zm2.1556-4.9272q-0.94585 0-1.5178 0.70389-0.5719 0.68189-0.68188 2.1117h4.2893q-0.044-2.8156-2.0897-2.8156z"/>
    </g>
    <g style="font-feature-settings:normal;font-variant-caps:normal;font-variant-ligatures:normal;font-variant-numeric:normal" aria-label="Pull">
      <path d="m231.81 821.21q0 2.5736-1.6277 3.8934-1.6057 1.2978-4.3993 1.2978h-1.6717v5.0812h-3.6074v-15.244h4.7952q3.1675 0 4.8392 1.2538 1.6717 1.2318 1.6717 3.7174zm-3.6954 0q0-2.3976-2.7496-2.3976h-1.2538v4.9932h1.4298q1.2318 0 1.8917-0.63789 0.68189-0.6379 0.68189-1.9577z"/>
      <path d="m237.34 827.79q0 0.81387 0.28595 1.1658 0.30795 0.32995 0.90185 0.32995 0.52792 0 1.0778-0.32995 0.54991-0.35194 0.90185-0.94585v-8.2047h3.4754v11.68h-3.0355l-0.15397-1.3638q-0.57191 0.83587-1.5398 1.2978-0.96785 0.43993-2.0457 0.43993-1.6497 0-2.5076-0.94585-0.83586-0.96784-0.83586-2.6836v-8.4246h3.4754z"/>
      <path d="m253.15 827.81q0 1.2978 1.4958 1.2978 0.81386 0 1.6717-0.35194l0.81387 2.3316q-1.4078 0.76988-3.3654 0.76988-2.0457 0-3.0795-1.1658-1.0118-1.1878-1.0118-3.3215v-9.8324h-3.4314v-2.3756h6.9069z"/>
      <path d="m266.34 827.81q0 1.2978 1.4958 1.2978 0.81387 0 1.6717-0.35194l0.81387 2.3316q-1.4078 0.76988-3.3655 0.76988-2.0457 0-3.0795-1.1658-1.0118-1.1878-1.0118-3.3215v-9.8324h-3.4314v-2.3756h6.9069z"/>
    </g>
    <g style="font-feature-settings:normal;font-variant-caps:normal;font-variant-ligatures:normal;font-variant-numeric:normal" aria-label="Push">
      <path d="m699.12 821.39q0 2.5736-1.6277 3.8934-1.6057 1.2978-4.3993 1.2978h-1.6717v5.0812h-3.6074v-15.244h4.7952q3.1675 0 4.8392 1.2538 1.6717 1.2318 1.6717 3.7174zm-3.6954 0q0-2.3976-2.7496-2.3976h-1.2538v4.9932h1.4298q1.2318 0 1.8917-0.6379 0.68189-0.63789 0.68189-1.9577z"/>
      <path d="m704.66 827.97q0 0.81387 0.28595 1.1658 0.30795 0.32995 0.90186 0.32995 0.52791 0 1.0778-0.32995 0.54991-0.35194 0.90186-0.94584v-8.2047h3.4754v11.68h-3.0355l-0.15397-1.3638q-0.57191 0.83586-1.5398 1.2978-0.96784 0.43993-2.0457 0.43993-1.6497 0-2.5076-0.94584-0.83587-0.96785-0.83587-2.6836v-8.4246h3.4754z"/>
      <path d="m719.06 829.55q0.90185 0 1.4078-0.26396 0.52792-0.28595 0.52792-0.83587 0-0.39593-0.21997-0.63789-0.19797-0.24196-0.76987-0.46193-0.57191-0.24196-1.7817-0.5719-1.7597-0.46193-2.6836-1.2758-0.92385-0.83586-0.92385-2.2876 0-1.6057 1.3198-2.6176 1.3418-1.0118 3.7394-1.0118 2.7716 0 4.7292 1.4298l-1.3858 2.0457q-1.6057-0.98984-3.2335-0.98984-0.85786 0-1.2758 0.21996-0.39594 0.21997-0.39594 0.68189 0 0.30795 0.19797 0.52792 0.21997 0.19797 0.79187 0.41793 0.59391 0.21996 1.7597 0.54991 1.2538 0.35194 2.0457 0.76988 0.81386 0.41793 1.2538 1.1218 0.43993 0.70389 0.43993 1.8037 0 1.2318-0.74788 2.1117t-2.0017 1.3198q-1.2538 0.43993-2.7716 0.43993-1.6277 0-2.9475-0.46192-1.3198-0.46193-2.2436-1.2978l1.7377-1.9577q1.5837 1.2318 3.4314 1.2318z"/>
      <path d="m731.03 821.15q1.4738-1.5618 3.4314-1.5618 1.5398 0 2.3756 0.92385 0.83586 0.90186 0.83586 2.5736v8.5786h-3.4754v-7.6108q0-1.0558-0.24196-1.4738t-0.87986-0.41793q-0.52791 0-1.0338 0.37393-0.48392 0.35195-1.0118 1.0558v8.0727h-3.4754v-16.321l3.4754-0.35194z"/>
    </g>
  </g>
  <g transform="translate(-111.16,-465.79)">
    <rect transform="rotate(90)" x="831.55" y="-618.28" width="46.628" height="280.43" ry="1.3538" fill="#73d216" stroke="#4e9a06" stroke-linecap="square" stroke-width="12.026"/>
    <g fill="#fff" stroke-width="2.9698" aria-label="YOUR-LOCAL/PROJECT">
      <path d="m358.23 857.05v6.1773h-3.8964v-6.1535l-5.3695-10.311h4.2766l3.1124 7.0801 3.1362-7.0801h4.1103z"/>
      <path d="m377.1 854.99q0 4.0152-1.7106 6.3436-1.6869 2.3046-4.8706 2.3046-3.2074 0-4.8943-2.2808-1.6869-2.3046-1.6869-6.3674 0-4.0152 1.6869-6.3198 1.7106-2.3284 4.8943-2.3284 3.2074 0 4.8943 2.3046 1.6869 2.2808 1.6869 6.3436zm-3.9915 0q0-3.0411-0.61773-4.4191-0.59397-1.378-1.972-1.378t-1.9957 1.378q-0.59397 1.378-0.59397 4.4191t0.59397 4.4191q0.61772 1.378 1.9957 1.378 1.4018 0 1.9957-1.378t0.59397-4.4191z"/>
      <path d="m390.9 857.72q0 1.7106-0.689 3.0649-0.68901 1.3305-2.067 2.0908-1.378 0.76028-3.3737 0.76028-2.9936 0-4.5617-1.5918t-1.5681-4.3241v-10.953h3.9202v9.5035q0 1.5918 0.16631 2.5422 0.16632 0.95035 0.64149 1.4493 0.49894 0.47518 1.4018 0.47518t1.378-0.47518q0.49893-0.49893 0.66524-1.4493t0.16631-2.5422v-9.5035h3.9202z"/>
      <path d="m405.22 851.78q0 1.6631-0.90283 2.8035-0.87908 1.1167-2.3759 1.7106l4.3003 6.9376h-4.4191l-3.5638-6.2961h-1.0929v6.2961h-3.8964v-16.465h5.1794q3.3975 0 5.0844 1.2354 1.6869 1.2355 1.6869 3.7776zm-4.0152 0q0-1.1879-0.68901-1.7344-0.66524-0.54645-2.067-0.54645h-1.283v4.7518h1.4493q1.283 0 1.9245-0.59397 0.66525-0.59397 0.66525-1.8769z"/>
      <path d="m408.11 857.24v-2.8986h10.311v2.8986z"/>
      <path d="m422.59 863.23v-16.465h3.8964v13.376h7.1276l-0.38014 3.0886z"/>
      <path d="m448.33 854.99q0 4.0152-1.7106 6.3436-1.6869 2.3046-4.8705 2.3046-3.2074 0-4.8943-2.2808-1.6869-2.3046-1.6869-6.3674 0-4.0152 1.6869-6.3198 1.7106-2.3284 4.8943-2.3284 3.2074 0 4.8943 2.3046 1.6869 2.2808 1.6869 6.3436zm-3.9915 0q0-3.0411-0.61773-4.4191-0.59397-1.378-1.972-1.378-1.378 0-1.9957 1.378-0.59397 1.378-0.59397 4.4191t0.59397 4.4191q0.61773 1.378 1.9957 1.378 1.4018 0 1.9957-1.378t0.59397-4.4191z"/>
      <path d="m457.38 846.34q1.7106 0 2.9461 0.45142 1.2355 0.45141 2.3284 1.3542l-1.9007 2.3046q-1.4968-1.2117-3.2787-1.2117-1.6869 0-2.7323 1.4255-1.0216 1.4255-1.0216 4.3003t1.0216 4.2766q1.0216 1.378 2.8035 1.378 1.0929 0 1.877-0.38014t1.6869-1.0929l1.7582 2.2571q-2.1858 2.2333-5.5358 2.2333-2.2571 0-3.9915-0.99787-1.7106-0.99787-2.6847-2.9461-0.97411-1.972-0.97411-4.728 0-2.6848 0.99787-4.633 0.99786-1.9482 2.756-2.9698 1.7582-1.0216 3.944-1.0216z"/>
      <path d="m472.62 859.67h-4.823l-0.85532 3.5638h-4.0865l5.0369-16.465h4.728l5.0369 16.465h-4.1816zm-4.2053-2.8035h3.5638l-1.7819-7.294z"/>
      <path d="m479.57 863.23v-16.465h3.8964v13.376h7.1276l-0.38014 3.0886z"/>
      <path d="m495.22 865.89-2.9223-1.3542 9.9787-20.718 2.8986 1.3542z"/>
      <path d="m519.54 852.14q0 2.7798-1.7582 4.2053-1.7344 1.4018-4.7518 1.4018h-1.8057v5.4883h-3.8964v-16.465h5.1794q3.4213 0 5.2269 1.3542 1.8057 1.3305 1.8057 4.0152zm-3.9915 0q0-2.5897-2.9698-2.5897h-1.3542v5.3932h1.5443q1.3305 0 2.0433-0.68901 0.73652-0.689 0.73652-2.1145z"/>
      <path d="m533.43 851.78q0 1.6631-0.90283 2.8035-0.87908 1.1167-2.3759 1.7106l4.3003 6.9376h-4.4191l-3.5638-6.2961h-1.0929v6.2961h-3.8964v-16.465h5.1794q3.3975 0 5.0844 1.2354 1.6869 1.2355 1.6869 3.7776zm-4.0152 0q0-1.1879-0.68901-1.7344-0.66524-0.54645-2.067-0.54645h-1.283v4.7518h1.4493q1.283 0 1.9245-0.59397 0.66525-0.59397 0.66525-1.8769z"/>
      <path d="m548.06 854.99q0 4.0152-1.7106 6.3436-1.6869 2.3046-4.8706 2.3046-3.2074 0-4.8943-2.2808-1.6869-2.3046-1.6869-6.3674 0-4.0152 1.6869-6.3198 1.7106-2.3284 4.8943-2.3284 3.2074 0 4.8943 2.3046 1.6869 2.2808 1.6869 6.3436zm-3.9915 0q0-3.0411-0.61772-4.4191-0.59397-1.378-1.972-1.378t-1.9957 1.378q-0.59397 1.378-0.59397 4.4191t0.59397 4.4191q0.61773 1.378 1.9957 1.378 1.4018 0 1.9957-1.378 0.59396-1.378 0.59396-4.4191z"/>
      <path d="m561.11 857.32q0 2.8986-1.7582 4.5854-1.7344 1.6869-4.8706 1.6869-1.5206 0-2.6847-0.38014-1.1404-0.38014-2.2808-1.1642l1.473-2.3996q0.85531 0.57021 1.5918 0.8078 0.73652 0.23759 1.6869 0.23759 1.3067 0 2.1145-0.83156 0.83156-0.85531 0.83156-2.5184v-7.7216h-5.0369v-2.851h8.9333z"/>
      <path d="m568.95 849.55v3.9677h5.7021v2.7085h-5.7021v4.2053h6.8663v2.8035h-10.763v-16.465h10.763l-0.4039 2.7798z"/>
      <path d="m585.59 846.34q1.7106 0 2.9461 0.45142 1.2354 0.45141 2.3284 1.3542l-1.9007 2.3046q-1.4968-1.2117-3.2787-1.2117-1.6869 0-2.7323 1.4255-1.0216 1.4255-1.0216 4.3003t1.0216 4.2766q1.0216 1.378 2.8035 1.378 1.0929 0 1.8769-0.38014t1.6869-1.0929l1.7582 2.2571q-2.1858 2.2333-5.5358 2.2333-2.2571 0-3.9915-0.99787-1.7106-0.99787-2.6848-2.9461-0.97411-1.972-0.97411-4.728 0-2.6848 0.99787-4.633t2.756-2.9698q1.7582-1.0216 3.944-1.0216z"/>
      <path d="m600.38 849.76v13.471h-3.8964v-13.471h-4.633v-2.9936h13.329l-0.38014 2.9936z"/>
    </g>
    <rect transform="rotate(90)" x="899.82" y="-619.11" width="46.628" height="139.72" ry=".67451" fill="#c00" stroke="#a40000" stroke-linecap="square" stroke-width="8.4883"/>
    <g fill="#fff" stroke-width="2.9698" aria-label="BRANCH A">
      <path d="m504.26 926.67q0 2.6372-1.8769 3.7301-1.8532 1.0929-4.8943 1.0929h-5.4645v-16.465h5.2269q2.8273 0 4.5617 0.99787 1.7344 0.97411 1.7344 3.2074 0 1.4018-0.85532 2.3046-0.85532 0.90283-2.162 1.2354 1.5681 0.26135 2.6372 1.1879 1.0929 0.90283 1.0929 2.7085zm-4.633-7.0326q0-0.97411-0.61773-1.4018-0.59397-0.45142-1.9007-0.45142h-1.1879v3.8252h1.3305q1.2355 0 1.8057-0.45142 0.57021-0.47517 0.57021-1.5206zm0.61773 6.8663q0-1.2355-0.71277-1.7582-0.689-0.52269-2.0195-0.52269h-1.5918v4.4191h1.4255q1.3542 0 2.1145-0.45142 0.78404-0.45141 0.78404-1.6869z"/>
      <path d="m518.27 920.04q0 1.6631-0.90284 2.8035-0.87907 1.1167-2.3759 1.7106l4.3003 6.9376h-4.4191l-3.5638-6.2961h-1.0929v6.2961h-3.8964v-16.465h5.1794q3.3975 0 5.0844 1.2355 1.6869 1.2354 1.6869 3.7776zm-4.0152 0q0-1.1879-0.689-1.7344-0.66525-0.54645-2.067-0.54645h-1.283v4.7518h1.4493q1.283 0 1.9245-0.59397 0.66524-0.59397 0.66524-1.877z"/>
      <path d="m528.69 927.93h-4.823l-0.85532 3.5638h-4.0865l5.0369-16.465h4.728l5.0369 16.465h-4.1816zm-4.2053-2.8035h3.5638l-1.7819-7.2939z"/>
      <path d="m537.4 918.26q0.23759 1.8057 0.4039 3.4925 0.16631 1.6631 0.16631 3.5401v6.201h-3.3025v-16.465h4.8706l4.1815 13.186q-0.57021-3.6588-0.57021-6.89v-6.2961h3.3025v16.465h-4.728z"/>
      <path d="m556.18 914.6q1.7106 0 2.9461 0.45142t2.3284 1.3542l-1.9007 2.3046q-1.4968-1.2117-3.2787-1.2117-1.6869 0-2.7323 1.4255-1.0216 1.4255-1.0216 4.3003t1.0216 4.2766q1.0216 1.378 2.8035 1.378 1.0929 0 1.877-0.38014 0.78403-0.38014 1.6869-1.0929l1.7582 2.2571q-2.1858 2.2333-5.5358 2.2333-2.2571 0-3.9915-0.99787-1.7106-0.99787-2.6847-2.9461-0.97411-1.972-0.97411-4.728 0-2.6847 0.99787-4.633 0.99786-1.9482 2.756-2.9698t3.944-1.0216z"/>
      <path d="m571.04 931.5v-6.9376h-3.9915v6.9376h-3.8964v-16.465h3.8964v6.3198h3.9915v-6.3198h3.8964v16.465z"/>
      <path d="m599.92 927.93h-4.823l-0.85532 3.5638h-4.0865l5.0369-16.465h4.728l5.0369 16.465h-4.1815zm-4.2053-2.8035h3.5638l-1.7819-7.2939z"/>
    </g>
    <rect transform="rotate(90)" x="898.96" y="-447.08" width="46.628" height="110.14" ry=".5317" fill="#c00" stroke="#a40000" stroke-linecap="square" stroke-width="7.5363"/>
    <g fill="#fff" stroke-width="2.9698" aria-label="MASTER">
      <path d="m362.09 930.64h-3.4213l-0.19007-7.0564q-0.0238-0.52269-0.0238-1.4255 0-1.1879 0.0713-2.3046 0.0713-1.1404 0.16631-2.3759l-1.8532 10.359h-2.9461l-2.0195-10.359q0.26134 2.7323 0.26134 4.9181l-0.0238 1.2592-0.1188 6.9851h-3.35l0.9266-16.465h4.0152l1.8294 10.644 1.7344-10.644h4.0152z"/>
      <path d="m371.99 927.08h-4.823l-0.85532 3.5638h-4.0865l5.0369-16.465h4.728l5.0369 16.465h-4.1815zm-4.2053-2.8035h3.5638l-1.7819-7.2939z"/>
      <path d="m390.22 925.82q0 1.5443-0.8078 2.7323-0.8078 1.1879-2.3284 1.8532-1.4968 0.64149-3.5638 0.64149-4.0865 0-6.5099-2.3759l1.972-2.1858q1.8769 1.6631 4.4429 1.6631 1.2355 0 1.972-0.52269 0.76028-0.54645 0.76028-1.4968 0-0.90283-0.64149-1.4018-0.61773-0.52269-2.3284-1.0454-2.8986-0.87907-4.1103-2.067-1.2117-1.1879-1.2117-3.0649 0-1.473 0.80779-2.566 0.83156-1.0929 2.2333-1.6631 1.4255-0.57021 3.1599-0.57021 3.6351 0 5.8922 2.1383l-1.8294 2.1145q-0.83156-0.68901-1.8057-1.0216-0.95035-0.35638-1.972-0.35638-1.1404 0-1.8057 0.42766-0.64149 0.4039-0.64149 1.1879 0 0.52269 0.2851 0.87907 0.30887 0.35638 0.99787 0.66525 0.68901 0.30886 2.067 0.73652 2.5184 0.76028 3.7301 1.972 1.2355 1.1879 1.2355 3.3262z"/>
      <path d="m400.03 917.17v13.471h-3.8964v-13.471h-4.633v-2.9936h13.329l-0.38014 2.9936z"/>
      <path d="m411.33 916.96v3.9677h5.7021v2.7085h-5.7021v4.2053h6.8663v2.8035h-10.763v-16.465h10.763l-0.4039 2.7798z"/>
      <path d="m432.8 919.19q0 1.6631-0.90284 2.8035-0.87907 1.1167-2.3759 1.7106l4.3003 6.9376h-4.4191l-3.5638-6.2961h-1.0929v6.2961h-3.8964v-16.465h5.1794q3.3975 0 5.0844 1.2355t1.6869 3.7776zm-4.0152 0q0-1.1879-0.689-1.7344-0.66525-0.54646-2.067-0.54646h-1.283v4.7518h1.4493q1.283 0 1.9245-0.59397 0.66524-0.59397 0.66524-1.8769z"/>
    </g>
  </g>
</svg>
