<?xml version="1.0" encoding="UTF-8"?>
<svg version="1.1" viewBox="0 0 798.74 452.98" xmlns="http://www.w3.org/2000/svg">
  <defs>
    <marker id="Arrow2Mstart" overflow="visible" orient="auto">
      <path transform="scale(.6)" d="m8.7186 4.0337-10.926-4.0177 10.926-4.0177c-1.7455 2.3721-1.7354 5.6175-6e-7 8.0354z" fill-rule="evenodd" stroke="#000" stroke-linejoin="round" stroke-width=".625"/>
    </marker>
    <marker id="marker10311" overflow="visible" orient="auto">
      <path transform="scale(-.6)" d="m8.7186 4.0337-10.926-4.0177 10.926-4.0177c-1.7455 2.3721-1.7354 5.6175-6e-7 8.0354z" fill-rule="evenodd" stroke="#000" stroke-linejoin="round" stroke-width=".625"/>
    </marker>
    <marker id="marker10239" overflow="visible" orient="auto">
      <path transform="scale(-.6)" d="m8.7186 4.0337-10.926-4.0177 10.926-4.0177c-1.7455 2.3721-1.7354 5.6175-6e-7 8.0354z" fill-rule="evenodd" stroke="#000" stroke-linejoin="round" stroke-width=".625"/>
    </marker>
    <marker id="marker10053" overflow="visible" orient="auto">
      <path transform="scale(-.6)" d="m8.7186 4.0337-10.926-4.0177 10.926-4.0177c-1.7455 2.3721-1.7354 5.6175-6e-7 8.0354z" fill-rule="evenodd" stroke="#000" stroke-linejoin="round" stroke-width=".625"/>
    </marker>
    <marker id="marker9711" overflow="visible" orient="auto">
      <path transform="scale(-.6)" d="m8.7186 4.0337-10.926-4.0177 10.926-4.0177c-1.7455 2.3721-1.7354 5.6175-6e-7 8.0354z" fill-rule="evenodd" stroke="#000" stroke-linejoin="round" stroke-width=".625"/>
    </marker>
    <marker id="marker7130" overflow="visible" orient="auto">
      <path transform="scale(-.6)" d="m8.7186 4.0337-10.926-4.0177 10.926-4.0177c-1.7455 2.3721-1.7354 5.6175-6e-7 8.0354z" fill-rule="evenodd" stroke="#000" stroke-linejoin="round" stroke-width=".625"/>
    </marker>
    <marker id="marker5882" overflow="visible" orient="auto">
      <path transform="scale(-.6)" d="m8.7186 4.0337-10.926-4.0177 10.926-4.0177c-1.7455 2.3721-1.7354 5.6175-6e-7 8.0354z" fill-rule="evenodd" stroke="#000" stroke-linejoin="round" stroke-width=".625"/>
    </marker>
  </defs>
  <g transform="translate(86.517 -372.91)">
    <g>
      <rect transform="rotate(90)" x="388.8" y="-377.57" width="46.628" height="269.45" ry="1.3008" fill="#73d216" stroke="#4e9a06" stroke-linecap="square" stroke-width="11.788"/>
      <g fill="#fff" stroke-width="2.9698" aria-label="REMOTE REPOSITORY">
        <path d="m135.23 409.03q0 1.6631-0.90284 2.8035-0.87907 1.1167-2.3759 1.7106l4.3003 6.9376h-4.4191l-3.5638-6.2961h-1.0929v6.2961h-3.8964v-16.465h5.1794q3.3975 0 5.0844 1.2355 1.6869 1.2354 1.6869 3.7776zm-4.0152 0q0-1.1879-0.689-1.7344-0.66525-0.54645-2.067-0.54645h-1.283v4.7518h1.4493q1.283 0 1.9245-0.59397 0.66524-0.59397 0.66524-1.877z"/>
        <path d="m142.25 406.8v3.9677h5.7021v2.7085h-5.7021v4.2053h6.8663v2.8035h-10.763v-16.465h10.763l-0.4039 2.7798z"/>
        <path d="m164.24 420.48h-3.4213l-0.19007-7.0564q-0.0238-0.5227-0.0238-1.4255 0-1.1879 0.0713-2.3046 0.0713-1.1404 0.16631-2.3759l-1.8532 10.359h-2.9461l-2.0195-10.359q0.26134 2.7323 0.26134 4.9181l-0.0238 1.2592-0.11879 6.9851h-3.35l0.92659-16.465h4.0152l1.8294 10.644 1.7344-10.644h4.0152z"/>
        <path d="m178.35 412.24q0 4.0152-1.7106 6.3436-1.6869 2.3046-4.8706 2.3046-3.2074 0-4.8943-2.2808-1.6869-2.3046-1.6869-6.3674 0-4.0152 1.6869-6.3198 1.7106-2.3284 4.8943-2.3284 3.2074 0 4.8943 2.3046 1.6869 2.2808 1.6869 6.3436zm-3.9915 0q0-3.0411-0.61773-4.4191-0.59397-1.378-1.972-1.378t-1.9957 1.378q-0.59397 1.378-0.59397 4.4191 0 3.0411 0.59397 4.4191 0.61773 1.378 1.9957 1.378 1.4018 0 1.9957-1.378t0.59397-4.4191z"/>
        <path d="m187.94 407.01v13.471h-3.8964v-13.471h-4.633v-2.9936h13.329l-0.38014 2.9936z"/>
        <path d="m199.24 406.8v3.9677h5.7021v2.7085h-5.7021v4.2053h6.8663v2.8035h-10.763v-16.465h10.763l-0.4039 2.7798z"/>
        <path d="m234.95 409.03q0 1.6631-0.90283 2.8035-0.87908 1.1167-2.3759 1.7106l4.3003 6.9376h-4.4191l-3.5638-6.2961h-1.0929v6.2961h-3.8964v-16.465h5.1794q3.3975 0 5.0844 1.2355 1.6869 1.2354 1.6869 3.7776zm-4.0152 0q0-1.1879-0.68901-1.7344-0.66524-0.54645-2.067-0.54645h-1.283v4.7518h1.4493q1.283 0 1.9245-0.59397 0.66525-0.59397 0.66525-1.877z"/>
        <path d="m241.97 406.8v3.9677h5.7021v2.7085h-5.7021v4.2053h6.8663v2.8035h-10.763v-16.465h10.763l-0.40389 2.7798z"/>
        <path d="m263.8 409.39q0 2.7798-1.7581 4.2053-1.7344 1.4018-4.7518 1.4018h-1.8057v5.4883h-3.8964v-16.465h5.1794q3.4213 0 5.2269 1.3542 1.8057 1.3305 1.8057 4.0152zm-3.9915 0q0-2.5897-2.9698-2.5897h-1.3542v5.3932h1.5443q1.3305 0 2.0433-0.689 0.73652-0.68901 0.73652-2.1145z"/>
        <path d="m278.07 412.24q0 4.0152-1.7106 6.3436-1.6869 2.3046-4.8706 2.3046-3.2074 0-4.8943-2.2808-1.6869-2.3046-1.6869-6.3674 0-4.0152 1.6869-6.3198 1.7106-2.3284 4.8943-2.3284 3.2074 0 4.8943 2.3046 1.6869 2.2808 1.6869 6.3436zm-3.9915 0q0-3.0411-0.61773-4.4191-0.59397-1.378-1.972-1.378t-1.9957 1.378q-0.59397 1.378-0.59397 4.4191 0 3.0411 0.59397 4.4191 0.61773 1.378 1.9957 1.378 1.4018 0 1.9957-1.378t0.59397-4.4191z"/>
        <path d="m292.1 415.66q0 1.5443-0.8078 2.7323t-2.3284 1.8532q-1.4968 0.64149-3.5638 0.64149-4.0865 0-6.5099-2.3759l1.972-2.1858q1.8769 1.6631 4.4429 1.6631 1.2354 0 1.972-0.52269 0.76028-0.54645 0.76028-1.4968 0-0.90284-0.64149-1.4018-0.61773-0.5227-2.3284-1.0454-2.8986-0.87907-4.1103-2.067t-1.2117-3.0649q0-1.473 0.8078-2.566 0.83156-1.0929 2.2333-1.6631 1.4255-0.57021 3.1599-0.57021 3.6351 0 5.8922 2.1383l-1.8294 2.1145q-0.83156-0.689-1.8057-1.0216-0.95035-0.35639-1.972-0.35639-1.1404 0-1.8057 0.42766-0.64148 0.4039-0.64148 1.1879 0 0.52269 0.2851 0.87908 0.30887 0.35638 0.99787 0.66524 0.68901 0.30887 2.067 0.73652 2.5184 0.76028 3.7301 1.972 1.2355 1.1879 1.2355 3.3262z"/>
        <path d="m305.33 404.02v2.851h-3.3975v10.739h3.3975v2.8748h-10.691v-2.8748h3.3975v-10.739h-3.3975v-2.851z"/>
        <path d="m316.15 407.01v13.471h-3.8964v-13.471h-4.633v-2.9936h13.329l-0.38014 2.9936z"/>
        <path d="m335.05 412.24q0 4.0152-1.7106 6.3436-1.6869 2.3046-4.8706 2.3046-3.2074 0-4.8943-2.2808-1.6869-2.3046-1.6869-6.3674 0-4.0152 1.6869-6.3198 1.7106-2.3284 4.8943-2.3284 3.2074 0 4.8943 2.3046 1.6869 2.2808 1.6869 6.3436zm-3.9915 0q0-3.0411-0.61773-4.4191-0.59397-1.378-1.972-1.378t-1.9957 1.378q-0.59396 1.378-0.59396 4.4191 0 3.0411 0.59396 4.4191 0.61773 1.378 1.9957 1.378 1.4018 0 1.9957-1.378t0.59397-4.4191z"/>
        <path d="m348.92 409.03q0 1.6631-0.90283 2.8035-0.87908 1.1167-2.3759 1.7106l4.3003 6.9376h-4.4191l-3.5638-6.2961h-1.0929v6.2961h-3.8964v-16.465h5.1794q3.3975 0 5.0844 1.2355 1.6869 1.2354 1.6869 3.7776zm-4.0152 0q0-1.1879-0.68901-1.7344-0.66524-0.54645-2.067-0.54645h-1.283v4.7518h1.4493q1.283 0 1.9245-0.59397 0.66525-0.59397 0.66525-1.877z"/>
        <path d="m358.91 414.31v6.1773h-3.8964v-6.1535l-5.3695-10.311h4.2766l3.1124 7.0801 3.1362-7.0801h4.1103z"/>
      </g>
      <rect transform="rotate(90)" x="560.95" y="-355.77" width="46.628" height="225.84" ry="1.0903" fill="#73d216" stroke="#4e9a06" stroke-linecap="square" stroke-width="10.792"/>
      <g fill="#fff" stroke-width="2.9698" aria-label="LOCAL (.git)">
        <path d="m159.67 592.63v-16.465h3.8964v13.376h7.1276l-0.38014 3.0886z"/>
        <path d="m185.42 584.38q0 4.0152-1.7106 6.3436-1.6869 2.3046-4.8706 2.3046-3.2074 0-4.8943-2.2808-1.6869-2.3046-1.6869-6.3674 0-4.0152 1.6869-6.3198 1.7106-2.3284 4.8943-2.3284 3.2074 0 4.8943 2.3046 1.6869 2.2808 1.6869 6.3436zm-3.9915 0q0-3.0411-0.61773-4.4191-0.59397-1.378-1.972-1.378t-1.9957 1.378q-0.59396 1.378-0.59396 4.4191 0 3.0411 0.59396 4.4191 0.61773 1.378 1.9957 1.378 1.4018 0 1.9957-1.378t0.59397-4.4191z"/>
        <path d="m194.46 575.73q1.7106 0 2.9461 0.45142 1.2355 0.45142 2.3284 1.3542l-1.9007 2.3046q-1.4968-1.2117-3.2787-1.2117-1.6869 0-2.7323 1.4255-1.0216 1.4255-1.0216 4.3003t1.0216 4.2766q1.0216 1.378 2.8035 1.378 1.0929 0 1.8769-0.38014t1.6869-1.0929l1.7582 2.2571q-2.1858 2.2333-5.5358 2.2333-2.2571 0-3.9915-0.99787-1.7106-0.99787-2.6847-2.9461-0.97411-1.972-0.97411-4.728 0-2.6847 0.99787-4.633t2.756-2.9698 3.944-1.0216z"/>
        <path d="m209.71 589.06h-4.823l-0.85532 3.5638h-4.0865l5.0369-16.465h4.728l5.0369 16.465h-4.1816zm-4.2053-2.8035h3.5638l-1.7819-7.2939z"/>
        <path d="m216.66 592.63v-16.465h3.8964v13.376h7.1276l-0.38014 3.0886z"/>
        <path d="m249.14 584.31q0 1.9957 0.4039 3.5638 0.42766 1.5681 1.378 3.1124 0.97411 1.5206 2.7085 3.4213l-2.162 1.972q-3.0174-2.5897-4.5854-5.4645-1.5443-2.8986-1.5443-6.6049t1.5443-6.5812q1.5681-2.8986 4.5854-5.4883l2.162 1.972q-2.4234 2.661-3.4688 4.9418-1.0216 2.2571-1.0216 5.1556z"/>
        <path d="m261.68 590.37q0-1.0692 0.76028-1.8532 0.78404-0.78404 1.8769-0.78404t1.8532 0.78404q0.78404 0.78404 0.78404 1.8532 0 1.0929-0.78404 1.8769-0.76028 0.78404-1.8532 0.78404t-1.8769-0.78404q-0.76028-0.78404-0.76028-1.8769z"/>
        <path d="m285.17 580.75q-1.2355 0.49894-3.6351 0.49894 1.2355 0.54645 1.8294 1.3067 0.61773 0.76028 0.61773 1.9482 0 1.2117-0.66525 2.1858-0.66524 0.95035-1.8769 1.4968t-2.8035 0.54645q-0.78404 0-1.473-0.14255-0.19007 0.095-0.30886 0.30886-0.095 0.19007-0.095 0.4039 0 0.35638 0.26135 0.57021 0.2851 0.19007 1.1167 0.19007h2.0908q1.4255 0 2.5184 0.47518 1.0929 0.47517 1.6869 1.3067 0.59397 0.83156 0.59397 1.877 0 1.972-1.7344 3.0649-1.7106 1.1167-5.0131 1.1167-2.3521 0-3.7064-0.49893-1.3305-0.47518-1.8769-1.3542-0.52269-0.87908-0.52269-2.2096h3.3262q0 0.59397 0.21382 0.92659 0.23759 0.33262 0.85532 0.49894 0.61773 0.16631 1.8057 0.16631 1.6631 0 2.2808-0.38014 0.64149-0.38014 0.64149-1.0692 0-0.57021-0.47518-0.92659-0.45142-0.33262-1.3542-0.33262h-1.9957q-1.9482 0-2.9223-0.68901-0.97411-0.71276-0.97411-1.8057 0-0.71277 0.35639-1.3305 0.38014-0.64148 1.0454-1.0691-1.1879-0.64149-1.7106-1.4968-0.52269-0.87908-0.52269-2.1145 0-1.4018 0.71276-2.4472 0.71276-1.0454 1.9957-1.5918 1.283-0.57021 2.9223-0.57021 1.9007 0.0475 3.2312-0.35638 1.3305-0.42766 2.7085-1.2592zm-6.7 1.3067q-0.90283 0-1.4255 0.57021-0.49894 0.57021-0.49894 1.5443 0 1.0216 0.52269 1.5918 0.5227 0.57021 1.4018 0.57021 0.92659 0 1.4255-0.54646 0.49893-0.57021 0.49893-1.6631 0-2.067-1.9245-2.067z"/>
        <path d="m292.78 573.41q0.97411 0 1.5918 0.61773 0.61773 0.59397 0.61773 1.4968 0 0.9266-0.61773 1.5206-0.61772 0.59397-1.5918 0.59397t-1.6156-0.59397q-0.61773-0.61772-0.61773-1.5206 0-0.90283 0.61773-1.4968 0.64149-0.61773 1.6156-0.61773zm2.2571 6.6049v10.05h3.2312v2.566h-10.549v-2.566h3.5638v-7.484h-3.445v-2.566z"/>
        <path d="m312.94 591.89q-1.7819 1.1404-4.134 1.1404-2.4234 0-3.6588-1.2355-1.2117-1.2354-1.2117-3.4688v-5.7259h-2.6372v-2.5897h2.6372v-2.7323l3.7539-0.45141v3.1837h4.0628l-0.38014 2.5897h-3.6826v5.7259q0 0.9266 0.42766 1.3305 0.42765 0.4039 1.378 0.4039 1.1879 0 2.2096-0.57021z"/>
        <path d="m322.22 584.31q0-2.8986-1.0454-5.1556-1.0216-2.2808-3.445-4.9418l2.162-1.972q3.0174 2.5897 4.5617 5.4883 1.5681 2.8748 1.5681 6.5812t-1.5681 6.6049q-1.5443 2.8748-4.5617 5.4645l-2.162-1.972q1.7344-1.9007 2.6847-3.4213 0.97411-1.5443 1.378-3.1124 0.42766-1.5681 0.42766-3.5638z"/>
      </g>
    </g>
    <path d="m198.69 448.56v92.373" fill="none" marker-end="url(#marker5882)" stroke="#000" stroke-linecap="round" stroke-linejoin="round" stroke-width="7.0761"/>
    <path d="m91.525 413.65c-126.13 5.63-112.13 163.52 16.583 169.72" fill="none" marker-end="url(#marker7130)" stroke="#000" stroke-linecap="round" stroke-linejoin="round" stroke-width="7.0761"/>
    <g stroke-width="2.7496">
      <g style="font-feature-settings:normal;font-variant-caps:normal;font-variant-ligatures:normal;font-variant-numeric:normal" aria-label="Clone">
        <path d="m-69.39 482.36q1.5837 0 2.7276 0.41793 1.1438 0.41793 2.1556 1.2538l-1.7597 2.1337q-1.3858-1.1218-3.0355-1.1218-1.5617 0-2.5296 1.3198-0.94585 1.3198-0.94585 3.9814t0.94585 3.9594q0.94585 1.2758 2.5956 1.2758 1.0118 0 1.7377-0.35194 0.72588-0.35194 1.5617-1.0118l1.6277 2.0897q-2.0237 2.0677-5.1252 2.0677-2.0897 0-3.6954-0.92385-1.5837-0.92385-2.4856-2.7276-0.90185-1.8257-0.90185-4.3773 0-2.4856 0.92385-4.2893 0.92385-1.8037 2.5516-2.7496 1.6277-0.94584 3.6514-0.94584z"/>
        <path d="m-56.442 494.32q0 1.2978 1.4958 1.2978 0.81387 0 1.6717-0.35194l0.81387 2.3316q-1.4078 0.76988-3.3655 0.76988-2.0457 0-3.0795-1.1658-1.0118-1.1878-1.0118-3.3215v-9.8324h-3.4314v-2.3756h6.9069z"/>
        <path d="m-44.287 485.92q2.6616 0 4.1573 1.6937 1.5178 1.6717 1.5178 4.5093 0 2.9475-1.4958 4.5973-1.4958 1.6497-4.1793 1.6497-2.6836 0-4.1793-1.6277-1.4958-1.6497-1.4958-4.5972 0-1.8697 0.65989-3.2555 0.68189-1.4078 1.9577-2.1776 1.2978-0.79187 3.0575-0.79187zm0 2.5736q-1.0778 0-1.5837 0.87986-0.50592 0.85786-0.50592 2.7716 0 1.9357 0.50592 2.8155 0.50592 0.85786 1.5837 0.85786t1.5837-0.87986q0.50592-0.87985 0.50592-2.8155 0-1.8917-0.50592-2.7496-0.50592-0.87986-1.5837-0.87986z"/>
        <path d="m-36.157 486.32h3.0355l0.24196 1.3418q0.79187-0.87986 1.6497-1.2978 0.87986-0.43993 1.9797-0.43993 1.5178 0 2.3536 0.92385 0.85786 0.92385 0.85786 2.5736v8.5786h-3.4754v-7.5668q0-1.0998-0.24196-1.5178t-0.87986-0.41793q-0.52791 0-1.0338 0.35194-0.48392 0.32995-1.0118 0.98984v8.1607h-3.4754z"/>
        <path d="m-19.954 493.18q0.32995 2.6616 2.8155 2.6616 1.4958 0 2.9915-0.96784l1.3858 1.8917q-0.85786 0.74788-2.0457 1.1878-1.1878 0.41793-2.6176 0.41793-1.9577 0-3.3215-0.76988-1.3638-0.79187-2.0677-2.1776-0.68189-1.4078-0.68189-3.2555 0-1.7597 0.65989-3.1675 0.68189-1.4298 1.9577-2.2436 1.2978-0.83586 3.0795-0.83586 1.6717 0 2.9035 0.72588 1.2318 0.70389 1.8917 2.0677 0.68189 1.3418 0.68189 3.2115 0 0.72589-0.06599 1.2538zm2.1556-4.9272q-0.94585 0-1.5178 0.70389-0.57191 0.68188-0.68189 2.1116h4.2893q-0.04399-2.8155-2.0897-2.8155z"/>
      </g>
      <g style="font-feature-settings:normal;font-variant-caps:normal;font-variant-ligatures:normal;font-variant-numeric:normal" aria-label="Push">
        <path d="m329.02 492.84q0 2.5736-1.6277 3.8934-1.6057 1.2978-4.3993 1.2978h-1.6717v5.0812h-3.6074v-15.244h4.7952q3.1675 0 4.8392 1.2538 1.6717 1.2318 1.6717 3.7174zm-3.6954 0q0-2.3976-2.7496-2.3976h-1.2538v4.9932h1.4298q1.2318 0 1.8917-0.63789 0.68189-0.6379 0.68189-1.9577z"/>
        <path d="m334.55 499.42q0 0.81387 0.28595 1.1658 0.30795 0.32995 0.90185 0.32995 0.52792 0 1.0778-0.32995 0.54991-0.35194 0.90185-0.94585v-8.2047h3.4754v11.68h-3.0355l-0.15397-1.3638q-0.57191 0.83586-1.5398 1.2978-0.96785 0.43993-2.0457 0.43993-1.6497 0-2.5076-0.94585-0.83587-0.96784-0.83587-2.6836v-8.4246h3.4754z"/>
        <path d="m348.95 501q0.90185 0 1.4078-0.26396 0.52791-0.28595 0.52791-0.83586 0-0.39594-0.21996-0.6379-0.19797-0.24196-0.76988-0.46192-0.5719-0.24196-1.7817-0.57191-1.7597-0.46192-2.6836-1.2758-0.92385-0.83587-0.92385-2.2876 0-1.6057 1.3198-2.6176 1.3418-1.0118 3.7394-1.0118 2.7716 0 4.7292 1.4298l-1.3858 2.0457q-1.6057-0.98984-3.2335-0.98984-0.85786 0-1.2758 0.21997-0.39594 0.21996-0.39594 0.68189 0 0.30795 0.19797 0.52791 0.21996 0.19797 0.79187 0.41793 0.5939 0.21997 1.7597 0.54992 1.2538 0.35194 2.0457 0.76987 0.81387 0.41793 1.2538 1.1218 0.43993 0.70388 0.43993 1.8037 0 1.2318-0.74788 2.1116-0.74788 0.87986-2.0017 1.3198-1.2538 0.43993-2.7716 0.43993-1.6277 0-2.9475-0.46193-1.3198-0.46192-2.2436-1.2978l1.7377-1.9577q1.5838 1.2318 3.4314 1.2318z"/>
        <path d="m360.93 492.6q1.4738-1.5617 3.4314-1.5617 1.5398 0 2.3756 0.92385 0.83586 0.90185 0.83586 2.5736v8.5786h-3.4754v-7.6108q0-1.0558-0.24197-1.4738-0.24196-0.41793-0.87985-0.41793-0.52792 0-1.0338 0.37394-0.48393 0.35194-1.0118 1.0558v8.0727h-3.4754v-16.321l3.4754-0.35195z"/>
      </g>
      <g style="font-feature-settings:normal;font-variant-caps:normal;font-variant-ligatures:normal;font-variant-numeric:normal" aria-label="Pull, Fetch">
        <path d="m113.27 473.58q0 2.5736-1.6277 3.8934-1.6057 1.2978-4.3993 1.2978h-1.6717v5.0812h-3.6074v-15.244h4.7952q3.1675 0 4.8392 1.2538 1.6717 1.2318 1.6717 3.7174zm-3.6954 0q0-2.3976-2.7496-2.3976h-1.2538v4.9932h1.4298q1.2318 0 1.8917-0.63789 0.68189-0.6379 0.68189-1.9577z"/>
        <path d="m118.8 480.16q0 0.81386 0.28596 1.1658 0.30795 0.32994 0.90185 0.32994 0.52791 0 1.0778-0.32994 0.54992-0.35195 0.90186-0.94585v-8.2047h3.4754v11.68h-3.0355l-0.15398-1.3638q-0.57191 0.83586-1.5398 1.2978-0.96784 0.43993-2.0457 0.43993-1.6497 0-2.5076-0.94585-0.83586-0.96784-0.83586-2.6836v-8.4246h3.4754z"/>
        <path d="m134.61 480.18q0 1.2978 1.4958 1.2978 0.81387 0 1.6717-0.35194l0.81387 2.3316q-1.4078 0.76988-3.3655 0.76988-2.0457 0-3.0795-1.1658-1.0118-1.1878-1.0118-3.3215v-9.8324h-3.4314v-2.3756h6.9069z"/>
        <path d="m147.8 480.18q0 1.2978 1.4958 1.2978 0.81387 0 1.6717-0.35194l0.81386 2.3316q-1.4078 0.76988-3.3654 0.76988-2.0457 0-3.0795-1.1658-1.0118-1.1878-1.0118-3.3215v-9.8324h-3.4314v-2.3756h6.9069z"/>
        <path d="m159.95 479.32q1.0338 0 1.7157 0.68189t0.68189 1.6937q0 0.6159-0.19797 1.2318-0.19797 0.5939-0.74788 1.8037l-1.5837 3.5854h-2.3316l1.1218-4.6632q-0.48392-0.30795-0.76987-0.81387-0.26396-0.52791-0.26396-1.1658 0-0.98984 0.68189-1.6717t1.6937-0.68189z"/>
        <path d="m106.6 498.68v4.0254h5.3231v2.5956h-5.3231v6.049h-3.6294v-15.244h10.008l-0.35194 2.5736z"/>
        <path d="m118.34 506.53q0.32994 2.6616 2.8155 2.6616 1.4958 0 2.9915-0.96785l1.3858 1.8917q-0.85786 0.74787-2.0457 1.1878-1.1878 0.41794-2.6176 0.41794-1.9577 0-3.3215-0.76988-1.3638-0.79187-2.0677-2.1776-0.68189-1.4078-0.68189-3.2555 0-1.7597 0.65989-3.1675 0.68189-1.4298 1.9577-2.2436 1.2978-0.83586 3.0795-0.83586 1.6717 0 2.9035 0.72588 1.2318 0.70388 1.8917 2.0677 0.68189 1.3418 0.68189 3.2115 0 0.72588-0.066 1.2538zm2.1556-4.9272q-0.94585 0-1.5178 0.70388-0.5719 0.68189-0.68189 2.1117h4.2893q-0.044-2.8155-2.0897-2.8155z"/>
        <path d="m139.03 510.66q-1.6497 1.0558-3.8274 1.0558-2.2436 0-3.3874-1.1438-1.1218-1.1438-1.1218-3.2115v-5.3011h-2.4416v-2.3976h2.4416v-2.5296l3.4754-0.41793v2.9475h3.7614l-0.35195 2.3976h-3.4094v5.3011q0 0.85786 0.39593 1.2318 0.39594 0.37394 1.2758 0.37394 1.0998 0 2.0457-0.52791z"/>
        <path d="m147.91 508.97q0.6599 0 1.2758-0.24196 0.6159-0.26396 1.3198-0.74788l1.5398 2.1996q-0.83586 0.70388-1.9357 1.1218-1.0998 0.41794-2.3976 0.41794-1.8697 0-3.2335-0.76988-1.3418-0.76987-2.0677-2.1556-0.72588-1.3858-0.72588-3.2115t0.74788-3.2555 2.1117-2.2436q1.3858-0.81386 3.2335-0.81386 1.2978 0 2.3316 0.37393 1.0338 0.35195 1.9357 1.0998l-1.4958 2.0897q-1.2758-0.87986-2.6176-0.87986-2.6176 0-2.6176 3.6294 0 1.8257 0.68189 2.6176 0.68189 0.76987 1.9137 0.76987z"/>
        <path d="m158.37 500.83q1.4738-1.5617 3.4314-1.5617 1.5398 0 2.3756 0.92385 0.83586 0.90185 0.83586 2.5736v8.5786h-3.4754v-7.6108q0-1.0558-0.24196-1.4738t-0.87986-0.41793q-0.52792 0-1.0338 0.37394-0.48392 0.35194-1.0118 1.0558v8.0727h-3.4754v-16.321l3.4754-0.35194z"/>
      </g>
    </g>
    <path d="m285.37 547.25v-92.373" fill="none" marker-end="url(#marker9711)" stroke="#000" stroke-linecap="round" stroke-linejoin="round" stroke-width="7.0761"/>
    <rect transform="rotate(90)" x="733.39" y="-355.77" width="46.628" height="225.84" ry="1.0903" fill="#c00" stroke="#a40000" stroke-linecap="square" stroke-width="10.792"/>
    <g fill="#fff" stroke-width="2.9698" aria-label="WORKING COPY">
      <path d="m171.79 748.6-1.9245 16.465h-4.039l-1.2117-11.784-1.3305 11.784h-4.1103l-1.7819-16.465h3.6351l0.57021 13.139 1.3542-11.238h3.3738l1.2592 11.238 0.8078-13.139z"/>
      <path d="m185.42 756.83q0 4.0152-1.7106 6.3436-1.6869 2.3046-4.8706 2.3046-3.2074 0-4.8943-2.2808-1.6869-2.3046-1.6869-6.3674 0-4.0152 1.6869-6.3198 1.7106-2.3284 4.8943-2.3284 3.2074 0 4.8943 2.3046 1.6869 2.2808 1.6869 6.3436zm-3.9915 0q0-3.0411-0.61773-4.4191-0.59397-1.378-1.972-1.378t-1.9957 1.378q-0.59396 1.378-0.59396 4.4191t0.59396 4.4191q0.61773 1.378 1.9957 1.378 1.4018 0 1.9957-1.378t0.59397-4.4191z"/>
      <path d="m199.29 753.62q0 1.6631-0.90284 2.8035-0.87907 1.1167-2.3759 1.7106l4.3003 6.9376h-4.4191l-3.5638-6.2961h-1.0929v6.2961h-3.8964v-16.465h5.1794q3.3975 0 5.0844 1.2355 1.6869 1.2355 1.6869 3.7776zm-4.0152 0q0-1.1879-0.689-1.7344-0.66525-0.54645-2.067-0.54645h-1.283v4.7518h1.4493q1.283 0 1.9245-0.59397 0.66524-0.59397 0.66524-1.877z"/>
      <path d="m205.5 765.07h-3.8964v-16.465h3.8964zm0.1188-8.7907 4.4904-7.6741h4.0865l-4.6567 7.389 5.1081 9.0758h-4.4904z"/>
      <path d="m226.92 748.6v2.8511h-3.3975v10.739h3.3975v2.8748h-10.691v-2.8748h3.3975v-10.739h-3.3975v-2.8511z"/>
      <path d="m232.66 751.84q0.23758 1.8057 0.4039 3.4925 0.16631 1.6631 0.16631 3.54v6.201h-3.3025v-16.465h4.8706l4.1815 13.186q-0.57021-3.6588-0.57021-6.89v-6.2961h3.3025v16.465h-4.728z"/>
      <path d="m250.69 765.47q-3.5163 0-5.3695-2.2096-1.8294-2.2333-1.8294-6.4624 0-2.7323 0.99787-4.6805t2.7323-2.9461q1.7582-0.99787 3.9202-0.99787 1.6869 0 2.9223 0.54646 1.2592 0.52269 2.3046 1.4968l-2.0433 2.1145q-0.78404-0.689-1.473-0.99787-0.66525-0.30886-1.5206-0.30886-1.7819 0-2.8035 1.4255-1.0216 1.4018-1.0216 4.3716 0 3.1837 0.76028 4.4904 0.76028 1.3067 2.4472 1.3067 1.1167 0 2.0433-0.49893v-3.7776h-2.067l-0.38014-2.7085h6.1298v8.173q-2.7085 1.6631-5.7496 1.6631z"/>
      <path d="m279.94 748.18q1.7106 0 2.9461 0.45142 1.2355 0.45142 2.3284 1.3542l-1.9007 2.3046q-1.4968-1.2117-3.2787-1.2117-1.6869 0-2.7323 1.4255-1.0216 1.4255-1.0216 4.3003t1.0216 4.2766q1.0216 1.378 2.8035 1.378 1.0929 0 1.8769-0.38014t1.6869-1.0929l1.7582 2.2571q-2.1858 2.2333-5.5358 2.2333-2.2571 0-3.9915-0.99787-1.7106-0.99786-2.6847-2.9461-0.97411-1.972-0.97411-4.728 0-2.6847 0.99787-4.633t2.756-2.9698 3.944-1.0216z"/>
      <path d="m299.39 756.83q0 4.0152-1.7106 6.3436-1.6869 2.3046-4.8706 2.3046-3.2074 0-4.8943-2.2808-1.6869-2.3046-1.6869-6.3674 0-4.0152 1.6869-6.3198 1.7106-2.3284 4.8943-2.3284 3.2074 0 4.8943 2.3046 1.6869 2.2808 1.6869 6.3436zm-3.9915 0q0-3.0411-0.61773-4.4191-0.59397-1.378-1.972-1.378-1.378 0-1.9957 1.378-0.59397 1.378-0.59397 4.4191t0.59397 4.4191q0.61773 1.378 1.9957 1.378 1.4018 0 1.9957-1.378t0.59397-4.4191z"/>
      <path d="m313.61 753.97q0 2.7798-1.7582 4.2053-1.7344 1.4018-4.7518 1.4018h-1.8057v5.4883h-3.8964v-16.465h5.1794q3.4213 0 5.2269 1.3542 1.8057 1.3305 1.8057 4.0152zm-3.9915 0q0-2.5897-2.9698-2.5897h-1.3542v5.3932h1.5443q1.3305 0 2.0433-0.689 0.73652-0.68901 0.73652-2.1145z"/>
      <path d="m323.25 758.89v6.1773h-3.8964v-6.1535l-5.3695-10.311h4.2766l3.1124 7.0801 3.1362-7.0801h4.1103z"/>
    </g>
    <path d="m198.69 620.4v92.373" fill="none" marker-end="url(#marker10053)" stroke="#000" stroke-linecap="round" stroke-linejoin="round" stroke-width="7.0761"/>
    <g stroke-width="2.7496" style="font-feature-settings:normal;font-variant-caps:normal;font-variant-ligatures:normal;font-variant-numeric:normal" aria-label="Commit">
      <path d="m324.28 667.74q1.5837 0 2.7276 0.41794 1.1438 0.41793 2.1556 1.2538l-1.7597 2.1337q-1.3858-1.1218-3.0355-1.1218-1.5618 0-2.5296 1.3198-0.94585 1.3198-0.94585 3.9814t0.94585 3.9594q0.94584 1.2758 2.5956 1.2758 1.0118 0 1.7377-0.35194 0.72589-0.35195 1.5618-1.0118l1.6277 2.0897q-2.0237 2.0677-5.1252 2.0677-2.0897 0-3.6954-0.92385-1.5838-0.92385-2.4856-2.7276-0.90185-1.8257-0.90185-4.3773 0-2.4856 0.92385-4.2893 0.92385-1.8037 2.5516-2.7496 1.6277-0.94585 3.6514-0.94585z"/>
      <path d="m336.19 671.3q2.6616 0 4.1573 1.6937 1.5178 1.6717 1.5178 4.5093 0 2.9475-1.4958 4.5972-1.4958 1.6497-4.1793 1.6497-2.6836 0-4.1793-1.6277-1.4958-1.6497-1.4958-4.5972 0-1.8697 0.6599-3.2555 0.68189-1.4078 1.9577-2.1776 1.2978-0.79187 3.0575-0.79187zm0 2.5736q-1.0778 0-1.5837 0.87986-0.50592 0.85786-0.50592 2.7716 0 1.9357 0.50592 2.8155 0.50592 0.85786 1.5837 0.85786 1.0778 0 1.5838-0.87986 0.50591-0.87985 0.50591-2.8155 0-1.8917-0.50591-2.7496-0.50592-0.87986-1.5838-0.87986z"/>
      <path d="m352.97 671.3q1.2538 0 1.8257 0.83586 0.59391 0.81387 0.59391 2.5956v8.6446h-2.9695v-8.2487q0-0.6379-0.13198-0.87986-0.10998-0.24196-0.43993-0.24196-0.6159 0-1.2098 0.76987v8.6006h-2.4636v-8.2487q0-0.6379-0.13198-0.87986-0.10999-0.24196-0.43993-0.24196-0.6159 0-1.2098 0.76987v8.6006h-3.0135v-11.68h2.5296l0.24196 1.1218q0.57191-0.79187 1.1218-1.1438 0.57191-0.37394 1.3198-0.37394 0.68189 0 1.1438 0.35194 0.46193 0.32995 0.6599 1.0338 1.1878-1.3858 2.5736-1.3858z"/>
      <path d="m366.15 671.3q1.2538 0 1.8257 0.83586 0.5939 0.81387 0.5939 2.5956v8.6446h-2.9695v-8.2487q0-0.6379-0.13198-0.87986-0.10998-0.24196-0.43992-0.24196-0.6159 0-1.2098 0.76987v8.6006h-2.4636v-8.2487q0-0.6379-0.13198-0.87986-0.10998-0.24196-0.43993-0.24196-0.6159 0-1.2098 0.76987v8.6006h-3.0135v-11.68h2.5296l0.24196 1.1218q0.57191-0.79187 1.1218-1.1438 0.57191-0.37394 1.3198-0.37394 0.68189 0 1.1438 0.35194 0.46192 0.32995 0.65989 1.0338 1.1878-1.3858 2.5736-1.3858z"/>
      <path d="m375.74 665.58q0.90185 0 1.4738 0.57191 0.5719 0.54991 0.5719 1.3858 0 0.85786-0.5719 1.4078-0.57191 0.54991-1.4738 0.54991-0.90186 0-1.4958-0.54991-0.57191-0.57191-0.57191-1.4078 0-0.83587 0.57191-1.3858 0.5939-0.57191 1.4958-0.57191zm2.0897 6.115v9.3045h2.9915v2.3756h-9.7664v-2.3756h3.2995v-6.9289h-3.1895v-2.3756z"/>
      <path d="m394.4 682.7q-1.6497 1.0558-3.8274 1.0558-2.2436 0-3.3874-1.1438-1.1218-1.1438-1.1218-3.2115v-5.3011h-2.4416v-2.3976h2.4416v-2.5296l3.4754-0.41793v2.9475h3.7614l-0.35195 2.3976h-3.4094v5.3011q0 0.85786 0.39593 1.2318 0.39594 0.37394 1.2758 0.37394 1.0998 0 2.0457-0.52791z"/>
    </g>
    <g stroke-width="2.7496" style="font-feature-settings:normal;font-variant-caps:normal;font-variant-ligatures:normal;font-variant-numeric:normal" aria-label="Checkout">
      <path d="m63.708 663.83q1.5837 0 2.7276 0.41793 1.1438 0.41794 2.1556 1.2538l-1.7597 2.1337q-1.3858-1.1218-3.0355-1.1218-1.5617 0-2.5296 1.3198-0.94585 1.3198-0.94585 3.9814t0.94585 3.9594q0.94585 1.2758 2.5956 1.2758 1.0118 0 1.7377-0.35195 0.72588-0.35194 1.5617-1.0118l1.6277 2.0897q-2.0237 2.0677-5.1252 2.0677-2.0897 0-3.6954-0.92385-1.5837-0.92385-2.4856-2.7276-0.90185-1.8257-0.90185-4.3773 0-2.4856 0.92385-4.2893 0.92385-1.8037 2.5516-2.7496t3.6514-0.94585z"/>
      <path d="m74.038 668.95q1.4738-1.5618 3.4314-1.5618 1.5398 0 2.3756 0.92385 0.83586 0.90186 0.83586 2.5736v8.5786h-3.4754v-7.6108q0-1.0558-0.24196-1.4738t-0.87986-0.41793q-0.52791 0-1.0338 0.37394-0.48392 0.35194-1.0118 1.0558v8.0727h-3.4754v-16.321l3.4754-0.35194z"/>
      <path d="m86.765 674.65q0.32995 2.6616 2.8155 2.6616 1.4958 0 2.9915-0.96784l1.3858 1.8917q-0.85786 0.74787-2.0457 1.1878-1.1878 0.41793-2.6176 0.41793-1.9577 0-3.3215-0.76987-1.3638-0.79187-2.0677-2.1776-0.68189-1.4078-0.68189-3.2555 0-1.7597 0.65989-3.1675 0.68189-1.4298 1.9577-2.2436 1.2978-0.83587 3.0795-0.83587 1.6717 0 2.9035 0.72589 1.2318 0.70388 1.8917 2.0677 0.68189 1.3418 0.68189 3.2115 0 0.72588-0.06599 1.2538zm2.1556-4.9272q-0.94585 0-1.5178 0.70388-0.57191 0.68189-0.68189 2.1117h4.2893q-0.04399-2.8155-2.0897-2.8155z"/>
      <path d="m103.14 677.09q0.65989 0 1.2758-0.24196 0.6159-0.26396 1.3198-0.74788l1.5398 2.1996q-0.83586 0.70389-1.9357 1.1218t-2.3976 0.41793q-1.8697 0-3.2335-0.76987-1.3418-0.76988-2.0677-2.1556-0.72588-1.3858-0.72588-3.2115t0.74788-3.2555q0.74788-1.4298 2.1117-2.2436 1.3858-0.81387 3.2335-0.81387 1.2978 0 2.3316 0.37394 1.0338 0.35195 1.9357 1.0998l-1.4958 2.0897q-1.2758-0.87986-2.6176-0.87986-2.6176 0-2.6176 3.6294 0 1.8257 0.68189 2.6176 0.68189 0.76987 1.9137 0.76987z"/>
      <path d="m113.61 662.77v16.695h-3.4754v-16.321zm7.6108 5.0152-3.8494 5.1692 4.1573 6.511h-3.9594l-3.8274-6.401 3.8494-5.2791z"/>
      <path d="m128.38 667.39q2.6616 0 4.1573 1.6937 1.5178 1.6717 1.5178 4.5093 0 2.9475-1.4958 4.5972t-4.1793 1.6497q-2.6836 0-4.1793-1.6277-1.4958-1.6497-1.4958-4.5973 0-1.8697 0.65989-3.2555 0.68189-1.4078 1.9577-2.1776 1.2978-0.79188 3.0575-0.79188zm0 2.5736q-1.0778 0-1.5838 0.87985-0.50591 0.85786-0.50591 2.7716 0 1.9357 0.50591 2.8156 0.50592 0.85786 1.5838 0.85786 1.0778 0 1.5837-0.87986t0.50592-2.8155q0-1.8917-0.50592-2.7496-0.50592-0.87985-1.5837-0.87985z"/>
      <path d="m139.98 675.77q0 0.81387 0.28595 1.1658 0.30795 0.32994 0.90185 0.32994 0.52792 0 1.0778-0.32994 0.54991-0.35195 0.90185-0.94585v-8.2047h3.4754v11.68h-3.0355l-0.15397-1.3638q-0.57191 0.83586-1.5398 1.2978-0.96785 0.43992-2.0457 0.43992-1.6497 0-2.5076-0.94584-0.83587-0.96785-0.83587-2.6836v-8.4246h3.4754z"/>
      <path d="m160.21 678.79q-1.6497 1.0558-3.8274 1.0558-2.2436 0-3.3874-1.1438-1.1218-1.1438-1.1218-3.2115v-5.3011h-2.4416v-2.3976h2.4416v-2.5296l3.4754-0.41793v2.9475h3.7614l-0.35195 2.3976h-3.4094v5.3011q0 0.85786 0.39593 1.2318 0.39594 0.37394 1.2758 0.37394 1.0998 0 2.0457-0.52791z"/>
    </g>
    <path d="m285.37 719.1v-92.373" fill="none" marker-end="url(#marker10239)" stroke="#000" stroke-linecap="round" stroke-linejoin="round" stroke-width="7.0761"/>
    <rect transform="rotate(90)" x="733.39" y="-697.99" width="46.628" height="139.21" ry=".67204" fill="#3465a4" stroke="#204a87" stroke-linecap="square" stroke-width="8.4727"/>
    <g fill="#fff" stroke-width="2.9698" aria-label="CHANGE">
      <path d="m594.82 748.18q1.7106 0 2.9461 0.45142 1.2354 0.45142 2.3284 1.3542l-1.9007 2.3046q-1.4968-1.2117-3.2787-1.2117-1.6869 0-2.7323 1.4255-1.0216 1.4255-1.0216 4.3003t1.0216 4.2766q1.0216 1.378 2.8035 1.378 1.0929 0 1.8769-0.38014t1.6869-1.0929l1.7582 2.2571q-2.1858 2.2333-5.5358 2.2333-2.2571 0-3.9915-0.99787-1.7106-0.99786-2.6848-2.9461-0.97411-1.972-0.97411-4.728 0-2.6847 0.99787-4.633t2.756-2.9698 3.944-1.0216z"/>
      <path d="m609.69 765.07v-6.9376h-3.9915v6.9376h-3.8964v-16.465h3.8964v6.3198h3.9915v-6.3198h3.8964v16.465z"/>
      <path d="m624.31 761.51h-4.823l-0.85532 3.5638h-4.0865l5.0369-16.465h4.728l5.0369 16.465h-4.1816zm-4.2053-2.8035h3.5638l-1.7819-7.2939z"/>
      <path d="m633.02 751.84q0.23759 1.8057 0.4039 3.4925 0.16632 1.6631 0.16632 3.54v6.201h-3.3025v-16.465h4.8705l4.1816 13.186q-0.57021-3.6588-0.57021-6.89v-6.2961h3.3025v16.465h-4.728z"/>
      <path d="m651.05 765.47q-3.5163 0-5.3695-2.2096-1.8294-2.2333-1.8294-6.4624 0-2.7323 0.99787-4.6805t2.7323-2.9461q1.7582-0.99787 3.9202-0.99787 1.6869 0 2.9223 0.54646 1.2592 0.52269 2.3046 1.4968l-2.0432 2.1145q-0.78404-0.689-1.473-0.99787-0.66525-0.30886-1.5206-0.30886-1.7819 0-2.8035 1.4255-1.0216 1.4018-1.0216 4.3716 0 3.1837 0.76028 4.4904 0.76028 1.3067 2.4472 1.3067 1.1167 0 2.0432-0.49893v-3.7776h-2.067l-0.38014-2.7085h6.1298v8.173q-2.7085 1.6631-5.7496 1.6631z"/>
      <path d="m663.65 751.38v3.9677h5.7021v2.7085h-5.7021v4.2053h6.8663v2.8035h-10.763v-16.465h10.763l-0.40389 2.7798z"/>
    </g>
    <path d="m534.69 756.27h-151.96" fill="none" marker-end="url(#marker10311)" marker-start="url(#Arrow2Mstart)" stroke="#000" stroke-linecap="round" stroke-linejoin="round" stroke-width="7.0761"/>
    <g stroke-width="2.7496" style="font-feature-settings:normal;font-variant-caps:normal;font-variant-ligatures:normal;font-variant-numeric:normal" aria-label="Stash/Apply">
      <path d="m402.16 806.52q0 1.4298-0.74788 2.5296-0.74788 1.0998-2.1556 1.7157-1.3858 0.5939-3.2995 0.5939-3.7834 0-6.027-2.1996l1.8257-2.0237q1.7377 1.5398 4.1133 1.5398 1.1438 0 1.8257-0.48393 0.70389-0.50591 0.70389-1.3858 0-0.83586-0.59391-1.2978-0.5719-0.48392-2.1556-0.96784-2.6836-0.81387-3.8054-1.9137t-1.1218-2.8375q0-1.3638 0.74788-2.3756 0.76988-1.0118 2.0677-1.5398 1.3198-0.52791 2.9255-0.52791 3.3655 0 5.4551 1.9797l-1.6937 1.9577q-0.76987-0.6379-1.6717-0.94585-0.87985-0.32994-1.8257-0.32994-1.0558 0-1.6717 0.39593-0.5939 0.37394-0.5939 1.0998 0 0.48393 0.26395 0.81387 0.28596 0.32995 0.92385 0.6159 0.6379 0.28596 1.9137 0.68189 2.3316 0.70389 3.4534 1.8257 1.1438 1.0998 1.1438 3.0795z"/>
      <path d="m414.91 810.3q-1.6497 1.0558-3.8274 1.0558-2.2436 0-3.3874-1.1438-1.1218-1.1438-1.1218-3.2115v-5.3011h-2.4416v-2.3976h2.4416v-2.5296l3.4754-0.41794v2.9475h3.7614l-0.35194 2.3976h-3.4094v5.3011q0 0.85786 0.39594 1.2318t1.2758 0.37394q1.0998 0 2.0457-0.52792z"/>
      <path d="m427.41 807.62q0 0.63789 0.17597 0.94584 0.17598 0.30795 0.59391 0.46193l-0.72589 2.2876q-1.0558-0.10998-1.7597-0.46193-0.70389-0.37394-1.0998-1.0778-0.65989 0.76987-1.6717 1.1878-1.0118 0.39593-2.1556 0.39593-1.8037 0-2.8815-1.0118-1.0778-1.0338-1.0778-2.6616 0-1.8917 1.4958-2.9255 1.4958-1.0558 4.2013-1.0558h1.5617v-0.41793q0-1.8037-2.3096-1.8037-0.5939 0-1.4958 0.17597-0.87986 0.15398-1.7157 0.43993l-0.79187-2.3096q1.1218-0.41793 2.3316-0.6379 1.2318-0.24196 2.2216-0.24196 5.1032 0 5.1032 4.1353zm-5.4551 1.2538q0.5939 0 1.1878-0.32994 0.6159-0.35195 0.92385-0.94585v-1.9137h-0.85786q-2.8155 0-2.8155 1.7597 0 0.68189 0.39594 1.0558 0.41793 0.37394 1.1658 0.37394z"/>
      <path d="m435.46 808.87q0.90186 0 1.4078-0.26395 0.52792-0.28596 0.52792-0.83587 0-0.39593-0.21996-0.63789-0.19797-0.24196-0.76988-0.46193-0.57191-0.24196-1.7817-0.57191-1.7597-0.46192-2.6836-1.2758-0.92385-0.83586-0.92385-2.2876 0-1.6057 1.3198-2.6176 1.3418-1.0118 3.7394-1.0118 2.7716 0 4.7292 1.4298l-1.3858 2.0457q-1.6057-0.98984-3.2335-0.98984-0.85787 0-1.2758 0.21996-0.39593 0.21997-0.39593 0.68189 0 0.30795 0.19796 0.52792 0.21997 0.19796 0.79188 0.41793 0.5939 0.21996 1.7597 0.54991 1.2538 0.35194 2.0457 0.76987 0.81387 0.41794 1.2538 1.1218 0.43992 0.70389 0.43992 1.8037 0 1.2318-0.74787 2.1117-0.74788 0.87985-2.0017 1.3198t-2.7716 0.43993q-1.6277 0-2.9475-0.46192-1.3198-0.46193-2.2436-1.2978l1.7377-1.9577q1.5837 1.2318 3.4314 1.2318z"/>
      <path d="m447.44 800.47q1.4738-1.5618 3.4314-1.5618 1.5398 0 2.3756 0.92385 0.83587 0.90185 0.83587 2.5736v8.5786h-3.4754v-7.6108q0-1.0558-0.24196-1.4738-0.24196-0.41794-0.87986-0.41794-0.52791 0-1.0338 0.37394-0.48392 0.35195-1.0118 1.0558v8.0727h-3.4754v-16.321l3.4754-0.35194z"/>
      <path d="m458.95 813.45-2.7056-1.2538 9.2385-19.181 2.6836 1.2538z"/>
      <path d="m477.6 807.68h-4.4653l-0.79187 3.2995h-3.7834l4.6632-15.244h4.3773l4.6632 15.244h-3.8714zm-3.8934-2.5956h3.2995l-1.6497-6.7529z"/>
      <path d="m490 798.91q2.1996 0 3.2335 1.6277 1.0338 1.6057 1.0338 4.5752 0 1.8037-0.54991 3.2335-0.52791 1.4078-1.5398 2.2216-1.0118 0.79187-2.3976 0.79187-1.6937 0-2.7716-1.2098v5.3451l-3.4754 0.37394v-16.563h3.0795l0.15398 1.2978q0.68189-0.85786 1.5178-1.2758 0.85786-0.41793 1.7157-0.41793zm-1.0778 2.5736q-1.0998 0-1.9137 1.3638v4.9272q0.37394 0.52792 0.76988 0.79187 0.41793 0.24196 0.94584 0.24196 0.96785 0 1.4518-0.85786 0.50591-0.87985 0.50591-2.7935 0-2.0677-0.43992-2.8595-0.43993-0.81387-1.3198-0.81387z"/>
      <path d="m503.19 798.91q2.1996 0 3.2335 1.6277 1.0338 1.6057 1.0338 4.5752 0 1.8037-0.54991 3.2335-0.52791 1.4078-1.5398 2.2216-1.0118 0.79187-2.3976 0.79187-1.6937 0-2.7716-1.2098v5.3451l-3.4754 0.37394v-16.563h3.0795l0.15398 1.2978q0.68189-0.85786 1.5178-1.2758 0.85786-0.41793 1.7157-0.41793zm-1.0778 2.5736q-1.0998 0-1.9137 1.3638v4.9272q0.37394 0.52792 0.76988 0.79187 0.41793 0.24196 0.94584 0.24196 0.96785 0 1.4518-0.85786 0.50591-0.87985 0.50591-2.7935 0-2.0677-0.43992-2.8595-0.43993-0.81387-1.3198-0.81387z"/>
      <path d="m516 807.31q0 1.2978 1.4958 1.2978 0.81387 0 1.6717-0.35195l0.81387 2.3316q-1.4078 0.76987-3.3654 0.76987-2.0457 0-3.0795-1.1658-1.0118-1.1878-1.0118-3.3215v-9.8324h-3.4314v-2.3756h6.9069z"/>
      <path d="m530.25 810.98q-0.79187 2.3536-2.3536 3.5414-1.5618 1.2098-4.1793 1.3638l-0.39593-2.4636q1.6717-0.21997 2.4636-0.74788 0.81387-0.52792 1.2978-1.6937h-1.2098l-3.6954-11.68h3.6734l2.2656 9.4585 2.4636-9.4585h3.5634z"/>
    </g>
  </g>
</svg>
